<?xml version="1.0" encoding="utf-8"?>
<!-- Generator: Adobe Illustrator 24.2.1, SVG Export Plug-In . SVG Version: 6.00 Build 0)  -->
<svg version="1.1" id="Layer_1" xmlns="http://www.w3.org/2000/svg" xmlns:xlink="http://www.w3.org/1999/xlink" x="0px" y="0px"
	 viewBox="0 0 2589 645.6" style="enable-background:new 0 0 2589 645.6;" xml:space="preserve">
<style type="text/css">
	.st0{fill:#FFFFFF;}
</style>
<g>
	<path class="st0" d="M1295.5,47.3c7.1,0,14.1,0,21.2,0.1c733,5.7,734.7-5.9,794.4,14c28.6,9.8,56.3,24.5,77.5,46.4
		c17.6,17.5,40,58.7,42,87.3c3.7,24.4,1.1,49.8-8.5,72.6c-3.8,13-11.9,23.9-18.5,35.5c0,0-13.3,15.1,0,39.1
		c6.6,11.6,14.7,22.5,18.5,35.5c9.5,22.8,12.2,48.2,8.5,72.6c-2,28.6-24.4,69.8-42,87.3c-21.2,21.9-48.9,36.6-77.5,46.4
		c-59.7,19.9-61.4,8.3-794.4,14c-7.1,0.1-14.1,0.1-21.2,0.1c-7.1,0-14.1,0-21.2-0.1c-733-5.7-734.7,5.9-794.4-14
		c-28.6-9.8-56.3-24.5-77.5-46.4c-17.6-17.5-40-58.7-42-87.3c-3.7-24.4-1-49.8,8.5-72.6c3.8-13,11.9-23.9,18.5-35.5
		c13.3-24.1,0-39.1,0-39.1c-6.6-11.6-14.7-22.5-18.5-35.5c-9.5-22.8-12.2-48.2-8.5-72.6c2-28.6,24.4-69.8,42-87.3
		c21.2-21.9,48.9-36.6,77.5-46.4c59.7-19.9,61.4-8.3,794.4-14C1281.4,47.4,1288.4,47.3,1295.5,47.3z M1295.5,624.7
		c239.2-0.3,698.9-1.7,712.8-0.8c88.8,1.1,124.6-18.6,148-28.5c34.2-17.8,65.4-42.9,81.1-78c38.3-76.1,17.9-156-15.4-193.7v-1.7
		c33.3-37.7,53.7-117.6,15.4-193.7c-15.7-35-46.9-60.2-81.1-78c-23.3-9.9-59.2-29.6-148-28.5c-13.9,0.8-473.7-0.6-712.8-0.8
		c-239.2,0.3-698.9,1.7-712.8,0.8c-88.8-1.1-124.6,18.6-148,28.5c-34.2,17.8-65.4,42.9-81.1,78c-38.3,76.1-17.9,156,15.4,193.7v1.7
		c-33.3,37.7-53.7,117.6-15.4,193.7c15.7,35,46.9,60.2,81.1,78c23.3,9.9,59.2,29.6,148,28.5C596.5,623,1056.3,624.4,1295.5,624.7z"
		/>
	<path class="st0" d="M2481.3,322.8c-8.9,16.8-17.5,33.1-34.6,45.6c-4.8,3.7-10.4,6.4-14.2,11.3c0.9,1.2,2.7,3.5,3.6,4.6
		c27-6.3,54.8-40.3,74.4-61.5c-19.6-21.3-47.4-55.3-74.4-61.5c-0.9,1.2-2.7,3.5-3.6,4.6c3.8,4.9,9.4,7.6,14.2,11.3
		C2463.7,289.7,2472.4,306,2481.3,322.8z"/>
	<path class="st0" d="M109.7,322.8c8.9,16.8,17.5,33.1,34.6,45.6c4.8,3.7,10.4,6.4,14.2,11.3c-0.9,1.2-2.7,3.5-3.6,4.6
		c-27-6.3-54.8-40.3-74.4-61.5c19.6-21.3,47.4-55.3,74.4-61.5c0.9,1.2,2.7,3.5,3.6,4.6c-3.8,4.9-9.4,7.6-14.2,11.3
		C127.2,289.7,118.6,306,109.7,322.8z"/>
	<path class="st0" d="M2550.9,118.6c-6.7-1.6-14.4-2.2-20.3,1.9c4.3,4.7,11.5,8.6,11.4,15.8c0.3,27.4-46.2,33.7-75.2,44.4
		c-34.2,10.6-62.7,32.9-91.3,53.5c0.1,2.4,0.2,4.7,0.4,7c7.5-2.3,13.8-7.2,20.4-11.1c58.3-34.9,105.6-17.7,147.8-36
		C2588.5,174.7,2578.4,127.3,2550.9,118.6z"/>
	<path class="st0" d="M40,118.6c6.7-1.6,14.4-2.2,20.3,1.9c-4.3,4.7-11.5,8.6-11.4,15.8c-0.3,27.4,46.2,33.7,75.2,44.4
		c34.2,10.6,62.7,32.9,91.3,53.5c-0.1,2.4-0.2,4.7-0.4,7c-7.5-2.3-13.8-7.2-20.4-11.1c-58.3-34.9-105.6-17.7-147.8-36
		C2.4,174.7,12.5,127.3,40,118.6z"/>
	<path class="st0" d="M2544.2,451.4c-42.2-18.3-89.5-1.1-147.8-36c-6.7-3.9-12.9-8.8-20.4-11.1c-0.1,2.3-0.2,4.7-0.4,7
		c28.6,20.7,57.1,42.9,91.3,53.5c29,10.7,75.5,17,75.2,44.4c0.1,7.2-7.1,11.1-11.4,15.8c5.9,4.1,13.6,3.5,20.3,1.9
		C2578.4,518.3,2588.5,470.9,2544.2,451.4z"/>
	<path class="st0" d="M46.8,451.4c42.2-18.3,89.5-1.1,147.8-36c6.7-3.9,12.9-8.8,20.4-11.1c0.1,2.3,0.2,4.7,0.4,7
		c-28.6,20.7-57.1,42.9-91.3,53.5c-29,10.7-75.5,17-75.2,44.4c-0.1,7.2,7.1,11.1,11.4,15.8c-5.9,4.1-13.6,3.5-20.3,1.9
		C12.5,518.3,2.4,470.9,46.8,451.4z"/>
	<path class="st0" d="M2555.8,216.8c-4.6-2.7-10.2-2-15.3-2.1c1.6,6.5,6.6,13.4,3.2,20.1c-2.7,7.4-10,12.7-18,12.3
		c-30.4,0.2-63.8-31.2-116-13.2c-10.8,3.7-21.4,8.3-30.8,14.7c0.2,1.4,0.7,4.2,0.9,5.6c21.3-2.9,42.9-25.5,101.7,12.3
		c15.8,9.4,32.7,19.5,51.7,19.2c14,0.7,28-6.9,35.2-18.9C2578.4,250.6,2572.4,226.5,2555.8,216.8z"/>
	<path class="st0" d="M35.2,216.8c4.6-2.7,10.2-2,15.3-2.1c-1.6,6.5-6.6,13.4-3.2,20.1c2.7,7.4,10,12.7,18,12.3
		c30.4,0.2,63.8-31.2,116-13.2c10.8,3.7,21.4,8.3,30.8,14.7c-0.2,1.4-0.7,4.2-0.9,5.6c-21.3-2.9-42.9-25.5-101.7,12.3
		c-15.8,9.4-32.7,19.5-51.7,19.2c-14,0.7-28-6.9-35.2-18.9C12.6,250.6,18.5,226.5,35.2,216.8z"/>
	<path class="st0" d="M2555.8,428.8c16.7-9.7,22.6-33.8,12.6-50.3c-7.2-12-21.2-19.6-35.2-18.9c-19-0.3-35.9,9.9-51.7,19.2
		c-58.8,37.9-80.4,15.2-101.7,12.3c-0.2,1.4-0.7,4.2-0.9,5.6c9.4,6.4,20.1,11,30.8,14.7c52.2,18,85.5-13.3,116-13.2
		c7.9-0.3,15.3,4.9,18,12.3c3.4,6.7-1.6,13.6-3.2,20.1C2545.6,430.8,2551.1,431.5,2555.8,428.8z"/>
	<path class="st0" d="M35.2,428.8C18.5,419,12.6,395,22.6,378.5c7.2-12,21.2-19.6,35.2-18.9c19-0.3,35.9,9.9,51.7,19.2
		c58.8,37.9,80.4,15.2,101.7,12.3c0.2,1.4,0.7,4.2,0.9,5.6c-9.4,6.4-20.1,11-30.8,14.7c-52.2,18-85.5-13.3-116-13.2
		c-7.9-0.3-15.3,4.9-18,12.3c-3.4,6.7,1.6,13.6,3.2,20.1C45.4,430.8,39.8,431.5,35.2,428.8z"/>
	<path class="st0" d="M2400.1,183.3c-10.7,13.1-23.4,24.4-34.1,37.5c1.9,1.9,3.8,3.8,5.8,5.6c18-13.7,33.4-30.8,51.8-44.2
		c16.3-11.7,31.9-24.5,48.6-35.6c30.1-19.7,58-43.9,77.9-74.1c10.6-15.4,22.2-32.5,21.8-52c-16.2-1.8-75,26.7-116.3,87
		C2438.5,133.7,2419.7,158.8,2400.1,183.3z"/>
	<path class="st0" d="M190.8,183.3c10.7,13.1,23.4,24.4,34.1,37.5c-1.9,1.9-3.8,3.8-5.8,5.6c-18-13.7-33.4-30.8-51.8-44.2
		c-16.3-11.7-31.9-24.5-48.6-35.6c-30.1-19.7-58-43.9-77.9-74.1c-10.6-15.4-22.2-32.5-21.8-52c16.2-1.8,75,26.7,116.3,87
		C152.5,133.7,171.2,158.8,190.8,183.3z"/>
	<path class="st0" d="M2472.2,498.9c-16.7-11.2-32.3-23.9-48.6-35.6c-18.4-13.4-33.7-30.4-51.8-44.2c-1.9,1.8-3.9,3.7-5.8,5.6
		c10.7,13.1,23.4,24.4,34.1,37.5c19.6,24.4,38.3,49.5,55.5,75.7c41.3,60.3,100.1,88.8,116.3,87c0.4-19.5-11.2-36.5-21.8-52
		C2530.2,542.8,2502.3,518.7,2472.2,498.9z"/>
	<path class="st0" d="M118.7,498.9c16.7-11.2,32.3-23.9,48.6-35.6c18.4-13.4,33.7-30.4,51.8-44.2c1.9,1.8,3.9,3.7,5.8,5.6
		c-10.7,13.1-23.4,24.4-34.1,37.5c-19.6,24.4-38.3,49.5-55.5,75.7C94,598.3,35.2,626.8,19.1,625c-0.4-19.5,11.2-36.5,21.8-52
		C60.8,542.8,88.7,518.7,118.7,498.9z"/>
	<path class="st0" d="M2351.1,216.7c3,1.5,7.3,4.6,9.5,0.2c14.6-19.6,28.2-40.1,39.9-61.6c20.9-40.5,21.7-80.5,40.6-98
		c5.8-4.5,14.4-7.6,21.4-4.2c4,3.1,7,7.3,10.5,10.9c9.2-17.7-5.2-38.9-23-43.4c-14-3.2-30.6-0.2-40,11.4
		c-35.4,40.6-10.2,99.6-42.3,156.2C2362.9,198.1,2356.2,206.9,2351.1,216.7z"/>
	<path class="st0" d="M239.8,216.7c-3,1.5-7.3,4.6-9.5,0.2c-14.6-19.6-28.2-40.1-39.8-61.6c-20.9-40.5-21.7-80.5-40.6-98
		c-5.8-4.5-14.4-7.6-21.4-4.2c-4,3.1-7,7.3-10.5,10.9c-9.2-17.7,5.2-38.9,23-43.4c14-3.2,30.6-0.2,40,11.4
		c35.4,40.6,10.2,99.6,42.3,156.2C228,198.1,234.8,206.9,239.8,216.7z"/>
	<path class="st0" d="M2462.5,592.4c-7,3.3-15.6,0.2-21.4-4.2c-18.9-17.5-19.7-57.5-40.6-98c-11.6-21.6-25.2-42-39.9-61.6
		c-2.2-4.4-6.5-1.2-9.5,0.2c5.1,9.8,11.8,18.6,16.6,28.5c32.2,56.6,6.9,115.6,42.3,156.2c9.5,11.6,26,14.5,40,11.4
		c17.8-4.5,32.2-25.8,23-43.4C2469.5,585.1,2466.6,589.4,2462.5,592.4z"/>
	<path class="st0" d="M128.4,592.4c7,3.3,15.6,0.2,21.4-4.2c18.9-17.5,19.7-57.5,40.6-98c11.6-21.6,25.2-42,39.8-61.6
		c2.2-4.4,6.5-1.2,9.5,0.2c-5.1,9.8-11.8,18.6-16.6,28.5c-32.2,56.6-6.9,115.6-42.3,156.2c-9.5,11.6-26,14.5-40,11.4
		c-17.8-4.5-32.2-25.8-23-43.4C121.4,585.1,124.4,589.4,128.4,592.4z"/>
	<path class="st0" d="M2291.8,339c11.3-10.5,45.8,45,71.2,68.5c5.6-8.7,7.1-19.2,9.9-29c14.8,5,30.1,10.3,46,9.1
		c2.9-0.5,7.8,0.3,7.7-4c-1.8-4.7-4.4-9.1-5.9-14c11.8-4.9,25-10.2,31.2-22.3c4.7-7.1,6.6-16.4,4.7-24.7c1.9-8.3,0-17.7-4.7-24.7
		c-6.2-12.1-19.4-17.3-31.2-22.3c1.4-4.9,4-9.3,5.9-14c0.1-4.3-4.8-3.5-7.7-4c-15.9-1.1-31.2,4.1-46,9.1c-2.8-9.8-4.2-20.2-9.9-29
		c-25.4,23.5-59.9,79.1-71.2,68.5c-5.5-3.5-7.4-11.6-2-16.1c20.7-22,46.2-38.9,67.4-60.3c-9.4-5.1-20.1-6.4-30.1-9.6
		c4.5-17.6,11.5-36.1,5.9-54.2c-4.9,2.6-9.9,5.2-15,7.4c-4.7-8.4-7.3-18.3-14.6-25.1c-6.5-6-14.4-11.3-23.3-12.4
		c-8.7-0.2-17.8,2.7-24,9c16.9,5.5,33,18.2,36.5,36.5c4.6,26.9-0.9,54.4-9.1,80c-9.1,21.2-18.3,43-32.8,61.2
		c14.5,18.2,23.7,39.9,32.8,61.2c8.2,25.6,13.7,53.2,9.1,80c-3.5,18.3-19.5,31-36.5,36.5c6.2,6.3,15.3,9.2,24,9
		c9-1.1,16.9-6.4,23.3-12.4c7.3-6.8,9.9-16.6,14.6-25.1c5.1,2.2,10.1,4.8,15,7.4c5.6-18.2-1.4-36.7-5.9-54.2
		c10-3.2,20.7-4.5,30.1-9.6c-21.3-21.4-46.7-38.3-67.4-60.3C2284.4,350.6,2286.3,342.5,2291.8,339z M2312.5,318.5
		c22-11,46.3-16.7,70.7-19.3c37.4-3.8,51.7,9.8,59.8,23.5c-8.1,13.7-22.4,27.3-59.8,23.5c-24.4-2.5-48.6-8.2-70.7-19.3
		c-2.9-1.5-5.6-2.9-8.1-4.3C2306.9,321.4,2309.6,320,2312.5,318.5z"/>
	<path class="st0" d="M299.2,339c-11.3-10.5-45.8,45-71.2,68.5c-5.6-8.7-7.1-19.2-9.9-29c-14.8,5-30.1,10.3-46,9.1
		c-2.9-0.5-7.8,0.3-7.7-4c1.8-4.7,4.4-9.1,5.9-14c-11.8-4.9-25-10.2-31.2-22.3c-4.7-7.1-6.6-16.4-4.7-24.7c-1.9-8.3,0-17.7,4.7-24.7
		c6.2-12.1,19.4-17.3,31.2-22.3c-1.4-4.9-4-9.3-5.9-14c-0.1-4.3,4.8-3.5,7.7-4c15.9-1.1,31.2,4.1,46,9.1c2.8-9.8,4.2-20.2,9.9-29
		c25.4,23.5,59.9,79.1,71.2,68.5c5.5-3.5,7.4-11.6,2-16.1c-20.7-22-46.2-38.9-67.4-60.3c9.4-5.1,20.1-6.4,30.1-9.6
		c-4.5-17.6-11.5-36.1-5.9-54.2c4.9,2.6,9.9,5.2,15,7.4c4.7-8.4,7.3-18.3,14.6-25.1c6.5-6,14.4-11.3,23.3-12.4
		c8.7-0.2,17.8,2.7,24,9c-16.9,5.5-33,18.2-36.5,36.5c-4.6,26.9,0.9,54.4,9.1,80c9.1,21.2,18.3,43,32.8,61.2
		c-14.5,18.2-23.7,39.9-32.8,61.2c-8.2,25.6-13.7,53.2-9.1,80c3.5,18.3,19.5,31,36.5,36.5c-6.2,6.3-15.3,9.2-24,9
		c-9-1.1-16.9-6.4-23.3-12.4c-7.3-6.8-9.9-16.6-14.6-25.1c-5.1,2.2-10.1,4.8-15,7.4c-5.6-18.2,1.4-36.7,5.9-54.2
		c-10-3.2-20.7-4.5-30.1-9.6c21.3-21.4,46.7-38.3,67.4-60.3C306.5,350.6,304.6,342.5,299.2,339z M278.5,318.5
		c-22-11-46.3-16.7-70.7-19.3c-37.4-3.8-51.7,9.8-59.8,23.5c8.1,13.7,22.4,27.3,59.8,23.5c24.4-2.5,48.6-8.2,70.7-19.3
		c2.9-1.5,5.6-2.9,8.1-4.3C284.1,321.4,281.4,320,278.5,318.5z"/>
	<path class="st0" d="M2346.7,184.6c-0.5,10.4-6.5,19.4-8.1,29.6c2.2,0.2,4.4,0.5,6.6,0.7c43.1-68.2,0.4-112.9-0.1-146.2
		c-0.4-8.4,5.8-16.5,13.8-18.9c6.8-1,13,2.7,19.3,4.6c0.3-46.4-63.6-40.1-70.3-4.6C2297.3,102.8,2354.5,121.9,2346.7,184.6z"/>
	<path class="st0" d="M244.2,184.6c0.5,10.4,6.5,19.4,8.1,29.6c-2.2,0.2-4.4,0.5-6.6,0.7c-43.1-68.2-0.4-112.9,0.1-146.2
		c0.4-8.4-5.8-16.5-13.8-18.9c-6.8-1-13,2.7-19.3,4.6c-0.3-46.4,63.6-40.1,70.3-4.6C293.6,102.8,236.5,121.9,244.2,184.6z"/>
	<path class="st0" d="M2358.9,595.8c-8-2.4-14.2-10.5-13.8-18.9c0.5-33.3,43.2-78.1,0.1-146.2c-2.2,0.2-4.4,0.4-6.6,0.7
		c1.6,10.2,7.6,19.2,8.1,29.6c7.7,62.7-49.4,81.8-38.8,134.8c6.7,35.5,70.6,41.8,70.3-4.6C2371.9,593,2365.7,596.8,2358.9,595.8z"/>
	<path class="st0" d="M232,595.8c8-2.4,14.2-10.5,13.8-18.9c-0.5-33.3-43.2-78.1-0.1-146.2c2.2,0.2,4.4,0.4,6.6,0.7
		c-1.6,10.2-7.6,19.2-8.1,29.6c-7.7,62.7,49.4,81.8,38.8,134.8c-6.7,35.5-70.6,41.8-70.3-4.6C219,593,225.3,596.8,232,595.8z"/>
	<path class="st0" d="M2226.3,85.1c34.7,30.8,59.8,31.6,81.5,53.4c7.2,6.7,11.9,15.3,17.2,23.4c2.2-1.1,4.4-2.2,6.6-3.3
		c-4.9-23.2-35.3-50.9-52.5-66.3c-13.3-11.8-34.2-24.6-23.5-40.6c3.3-3.1,8.7-6.6,13-3.4c3.3,1.8,6.5,4,9.7,5.9
		c2.3-26.7-15.9-39.5-37.7-36.3c-12.9,1.5-21.9,12.8-26.9,23.9C2209.4,56.9,2214.3,74.7,2226.3,85.1z"/>
	<path class="st0" d="M364.7,85.1c-34.7,30.8-59.8,31.6-81.5,53.4c-7.2,6.7-11.9,15.3-17.2,23.4c-2.2-1.1-4.4-2.2-6.6-3.3
		c4.9-23.2,35.3-50.9,52.5-66.3c13.3-11.8,34.2-24.6,23.5-40.6c-3.3-3.1-8.7-6.6-13-3.4c-3.3,1.8-6.5,4-9.7,5.9
		c-2.3-26.7,15.9-39.5,37.7-36.3c12.9,1.5,21.9,12.8,26.9,23.9C381.5,56.9,376.7,74.7,364.7,85.1z"/>
	<path class="st0" d="M2325,483.7c-5.3,8.1-10,16.7-17.2,23.4c-21.7,21.7-46.8,22.6-81.5,53.4c-12,10.4-16.9,28.2-12.5,43.3
		c4.9,11.1,14,22.4,26.9,23.9c21.8,3.2,40-9.6,37.7-36.3c-3.3,1.9-6.4,4-9.7,5.9c-4.3,3.2-9.7-0.3-13-3.4
		c-10.7-16,10.1-28.8,23.5-40.6c17.1-15.4,47.6-43.1,52.5-66.3C2329.4,485.9,2327.2,484.8,2325,483.7z"/>
	<path class="st0" d="M265.9,483.7c5.3,8.1,10,16.7,17.2,23.4c21.7,21.7,46.8,22.6,81.5,53.4c12,10.4,16.9,28.2,12.5,43.3
		c-4.9,11.1-14,22.4-26.9,23.9c-21.8,3.2-40-9.6-37.7-36.3c3.3,1.9,6.4,4,9.7,5.9c4.3,3.2,9.7-0.3,13-3.4
		c10.7-16-10.1-28.8-23.5-40.6c-17.1-15.4-47.6-43.1-52.5-66.3C261.5,485.9,263.7,484.8,265.9,483.7z"/>
</g>
</svg>
