<svg id="Layer_1" data-name="Layer 1" xmlns="http://www.w3.org/2000/svg" viewBox="0 0 100 91.08"><defs><style>.cls-1{fill:#fff;}</style></defs><path class="cls-1" d="M55.15,93.64A2,2,0,0,1,53,95.54H21.5a2,2,0,0,1-2.12-1.9V79.27a2,2,0,0,1,2.12-1.91H53a2,2,0,0,1,2.11,1.91Z" transform="translate(0 -4.46)"/><path class="cls-1" d="M100,79.27a2,2,0,0,0-2.13-1.9H66.33a2,2,0,0,0-2.12,1.9V93.64a2,2,0,0,0,2.12,1.9H97.87a2,2,0,0,0,2.13-1.9Z" transform="translate(0 -4.46)"/><path class="cls-1" d="M77.58,52a2,2,0,0,0-2.13-1.91H43.91A2,2,0,0,0,41.78,52V66.4a2,2,0,0,0,2.13,1.91H75.45a2,2,0,0,0,2.13-1.91Z" transform="translate(0 -4.46)"/><path class="cls-1" d="M45,35.8h0a2.3,2.3,0,0,0,3.2-.57l7.2-10.35a2.3,2.3,0,0,0-.56-3.2h0l-2.22-1.53L42.8,34.3Z" transform="translate(0 -4.46)"/><path class="cls-1" d="M0,57.11a9.78,9.78,0,0,0,7.55,5.31L26.66,35.16l-7.58-5.31Z" transform="translate(0 -4.46)"/><path class="cls-1" d="M40.67,30.29c.14.19.26.38.38.57l.23.44a5.79,5.79,0,0,1,.33.86L50.06,20.1s-6.58.8-10-7l-2.16-1.5C28,4.62,18.53,3.2,10.33,5.43c-.45.13-1.34.42-2.15.69C6.74,6.61,7,8.8,8.61,8.54c.76-.13,1.53-.26,1.91-.28a19.85,19.85,0,0,1,4.62.11C21.8,9.65,27,15.71,22.66,21.94c-1.18,1.66-3.53,4.94-3.5,5s9.92,6.87,9.87,6.94c-.28.4.67-.88,1-1.28,1.47-1.72,4.56-4.66,8.37-3.89a3.53,3.53,0,0,1,1.5.74,5.48,5.48,0,0,1,.59.59C40.55,30.11,40.6,30.2,40.67,30.29Z" transform="translate(0 -4.46)"/></svg>