<?xml version="1.0" encoding="utf-8"?>

<!DOCTYPE svg PUBLIC "-//W3C//DTD SVG 1.1//EN" "http://www.w3.org/Graphics/SVG/1.1/DTD/svg11.dtd">
<svg version="1.1" id="Layer_1" xmlns="http://www.w3.org/2000/svg" xmlns:xlink="http://www.w3.org/1999/xlink" x="0px" y="0px"
	 viewBox="0 0 2634 710" enable-background="new 0 0 2634 710" xml:space="preserve">
<g>
	<path d="M1317,293.9c29.973,0.018,59.969,0.037,89.987,0.055c-109.098,69.032-10.328,237.384,27.605,203.35
		c3.232-13.695-47.628-98.203,79.977-164.952c91.517-47.337,179.138,14.016,248.753,89.861
		c153.059,176.351,408.795,69.868,415.789,69.147c3.407,3.636,5.908,8.028,8.672,12.345c-32.508,11.677-80.05,45.547-197.14,43.283
		c-139.533,3.731-240.728-108.854-270.528-134.544c-206.432-173.147-286.838,9.505-262.121,91.526
		c13.629,49.665,83.863,123.528,113.376,85.847c10.641-17.381,0.227-40.67-15.98-50.705c-15.526-11.133-35.937-4.809-52.825-11.171
		c-49.671-42.582-18.486-158.859,85.504-115.913c-23.629,80.508,35.55,110.88,102.244,67.859
		c1.183,67.536,42.708,103.939,128.373,60.285c2.322,51.314,43.762,79.965,113.414,33.589c1.627,10.149,1.855,21.85,9.92,29.461
		c12.572,12.875,32.188,16.586,49.456,13.33c14.843-2.651,25.788-14.011,36.543-23.781c9.012,20.6,33.891,24.879,53.621,19.047
		c75.788-21.411,118.764-69.337,125.759-74.978c5.112-0.947,7.99,5.87,11.927,8.71c172.091,210.418,362.627,78.534,376.86-36.429
		c7.823-68.273-41.805-142.717-105.461-144.39c-79.851-5.498-142.973,71.371-106.295,129.054
		c18.63,32.756,63.504,47.145,97.282,29.385c33.75-12.207,59.04-87.902-34.156-99.441c24.329-37.003,98.895-14.889,105.576,56.839
		c7.567,99.202-192.834,211.115-283.251-61.081c-9.815-32.655,17.952-20.582,49.872-73.35
		c129.863-204.158-144.787-413.782-171.163-209.447c-618.655-1.59-395.822,4.985-474.785-14.504
		c-10.755,15.336-20.676,31.657-22.759,50.705c-12.732-9.987-51.616-90.202-121.67-72.971c-4.582,12.951-7.081,27.833-16.813,37.944
		c-0.7,0.162-69.515,0.309-195.562,0.44c-126.047-0.132-194.862-0.278-195.562-0.44c-9.732-10.111-12.231-24.993-16.813-37.944
		c-70.054-17.23-108.938,62.984-121.67,72.971c-2.082-19.047-12.003-35.369-22.759-50.705
		c-78.963,19.489,143.87,12.913-474.785,14.504c-26.376-204.335-301.026,5.289-171.163,209.447
		c31.92,52.767,59.687,40.695,49.872,73.35C273.703,691.684,73.302,579.77,80.869,480.568
		c6.681-71.728,81.247-93.842,105.576-56.839c-93.197,11.539-67.906,87.234-34.157,99.441c33.778,17.76,78.652,3.37,97.282-29.385
		c36.678-57.683-26.445-134.552-106.295-129.054c-63.655,1.673-113.284,76.117-105.461,144.39
		c14.233,114.963,204.769,246.847,376.86,36.429c3.937-2.84,6.815-9.656,11.927-8.71c6.995,5.642,49.97,53.567,125.759,74.978
		c19.73,5.832,44.609,1.552,53.621-19.047c10.755,9.77,21.7,21.13,36.543,23.781c17.268,3.257,36.884-0.454,49.456-13.33
		c8.065-7.611,8.293-19.313,9.92-29.461c69.652,46.377,111.092,17.726,113.414-33.589c85.664,43.654,127.19,7.251,128.373-60.285
		c66.694,43.021,125.873,12.648,102.244-67.859c103.99-42.946,135.175,73.331,85.504,115.913
		c-16.888,6.362-37.299,0.038-52.825,11.171c-16.207,10.035-26.621,33.324-15.98,50.705c29.513,37.681,99.747-36.182,113.376-85.847
		c24.717-82.021-55.688-264.673-262.121-91.526c-29.8,25.69-130.995,138.275-270.528,134.544
		c-117.09,2.264-164.632-31.606-197.14-43.283c2.764-4.317,5.265-8.709,8.672-12.345c6.995,0.722,262.73,107.204,415.789-69.147
		c69.615-75.844,157.236-137.197,248.753-89.861c127.604,66.75,76.745,151.258,79.977,164.952
		c37.933,34.034,136.703-134.318,27.605-203.35C1257.031,293.937,1287.027,293.919,1317,293.9z M1918.277,344.888
		c42.119,5.985,39.237,132.991,241.332,108.718c3.674,7.309,6.891,14.92,8.407,23.062
		C1978.174,508.182,1916.304,370.766,1918.277,344.888z M465.984,476.668c1.516-8.142,4.734-15.753,8.407-23.062
		c202.094,24.272,199.213-102.734,241.332-108.718C717.696,370.766,655.826,508.182,465.984,476.668z M2380.68,614.961
		c-116.239-22.619-175.236-160.085-162.377-190.361C2240.856,463.8,2222.309,529.664,2380.68,614.961z M415.696,424.6
		c12.86,30.276-46.138,167.743-162.377,190.361C411.691,529.664,393.144,463.8,415.696,424.6z M2179.982,186.07
		c29.436-0.515,72.008,9.267,85.694-55.741c72.177,77.103,34.898,230.581-86.375,256.327
		c-79.652,14.482-70.629-34.658-108.531-59.718c-16.357-13.443-39.154-14.617-55.286-28.136
		c-14.201-8.823-11.816-35.823-32.339-33.665c-8.786,15.563-8.9,33.551-8.748,50.856c-1.969-0.53-5.908-1.628-7.877-2.159
		c-12.689-52.883-87.31-105.693-127.954-107.242c0.985,15.071,16.397,23.175,19.54,37.489c9.087,34.99-0.417,71.986,11.285,106.636
		c-18.631,2.423-37.224-2.045-55.666,0.303c-13.646,54.76,82.844,110.354,86.983,127.917
		c-41.322-14.192-99.922-73.558-115.042-150.184c-8.823-46.956-8.52-95.427-21.849-141.55
		C1792.304,185.385,2156.343,186.033,2179.982,186.07z M870.185,187.206c-13.329,46.123-13.026,94.594-21.849,141.55
		c-15.12,76.626-73.72,135.992-115.042,150.184c4.139-17.564,100.628-73.158,86.983-127.917c-18.442-2.348-37.035,2.12-55.666-0.303
		c11.701-34.649,2.197-71.646,11.284-106.636c3.143-14.314,18.555-22.418,19.54-37.489
		c-40.644,1.548-115.266,54.359-127.954,107.242c-1.97,0.53-5.908,1.628-7.877,2.159c0.152-17.305,0.038-35.293-8.748-50.856
		c-20.523-2.159-18.138,24.841-32.339,33.665c-16.131,13.519-38.928,14.693-55.285,28.136
		c-37.902,25.059-28.879,74.199-108.531,59.718c-121.273-25.746-158.552-179.225-86.376-256.327
		c13.686,65.008,56.259,55.226,85.694,55.741C477.657,186.033,841.696,185.385,870.185,187.206z M1637.07,226.551
		c56.5,16.208,106.94,63.05,114.892,123.146c-17.117-21.698-33.664-44.495-56.423-60.74
		c-35.456-29.265-115.336-38.149-144.05-120.192C1577.392,191.372,1602.687,217.387,1637.07,226.551z M1082.51,168.765
		c-28.713,82.043-108.594,90.927-144.05,120.192c-22.759,16.246-39.305,39.042-56.423,60.74
		c7.952-60.096,58.392-106.939,114.892-123.146C1031.313,217.387,1056.608,191.372,1082.51,168.765z M1317,191.028
		c120.753,0.336,187.511,0.714,190.715,1.139c3.825,11.133,8.331,22.077,13.519,32.755c-23.093,12.322-91.037,17.065-204.234,18.712
		c-113.196-1.647-181.141-6.39-204.234-18.712c5.188-10.678,9.694-21.622,13.519-32.755
		C1129.489,191.742,1196.247,191.364,1317,191.028z"/>
</g>
</svg>
