<?xml version="1.0" encoding="utf-8"?>

<!DOCTYPE svg PUBLIC "-//W3C//DTD SVG 1.1//EN" "http://www.w3.org/Graphics/SVG/1.1/DTD/svg11.dtd">
<svg version="1.1" id="Layer_1" xmlns="http://www.w3.org/2000/svg" xmlns:xlink="http://www.w3.org/1999/xlink" x="0px" y="0px"
	 viewBox="0 0 2589.001 645.562" enable-background="new 0 0 2589.001 645.562" xml:space="preserve">
<g>
	<path d="M1295.476,47.327c7.06,0.018,14.12,0.046,21.179,0.097c733.045,5.722,734.728-5.876,794.425,14.002
		c28.622,9.822,56.325,24.479,77.543,46.373c17.616,17.487,40.007,58.675,42.005,87.29c3.73,24.423,1.05,49.765-8.472,72.595
		c-3.805,13.008-11.903,23.899-18.482,35.539c0,0-13.301,15.061,0,39.116c6.579,11.64,14.677,22.53,18.482,35.539
		c9.522,22.83,12.202,48.172,8.472,72.595c-1.998,28.615-24.389,69.804-42.005,87.29c-21.218,21.893-48.921,36.551-77.543,46.373
		c-59.697,19.878-61.38,8.28-794.425,14.002c-7.059,0.051-14.119,0.079-21.179,0.097c-7.06-0.018-14.12-0.046-21.179-0.097
		c-733.045-5.722-734.728,5.876-794.425-14.002c-28.622-9.822-56.325-24.479-77.543-46.373
		c-17.616-17.487-40.007-58.675-42.005-87.29c-3.73-24.423-1.05-49.765,8.472-72.595c3.805-13.008,11.903-23.899,18.482-35.539
		c13.301-24.055,0-39.116,0-39.116c-6.579-11.64-14.677-22.53-18.482-35.539c-9.522-22.83-12.202-48.172-8.472-72.595
		c1.998-28.615,24.389-69.804,42.005-87.29c21.218-21.893,48.921-36.551,77.543-46.373c59.697-19.878,61.38-8.28,794.425-14.002
		C1281.356,47.373,1288.416,47.345,1295.476,47.327z M1295.476,624.659c239.16-0.288,698.926-1.651,712.849-0.842
		c88.804,1.051,124.621-18.591,147.965-28.51c34.216-17.767,65.415-42.941,81.105-77.975
		c38.329-76.079,17.931-156.034-15.407-193.719v-1.665c33.338-37.685,53.736-117.64,15.407-193.719
		c-15.69-35.034-46.889-60.208-81.105-77.975c-23.344-9.919-59.161-29.561-147.965-28.51c-13.923,0.809-473.69-0.554-712.849-0.842
		c-239.159,0.288-698.926,1.651-712.849,0.842c-88.803-1.051-124.621,18.591-147.965,28.51
		c-34.216,17.767-65.415,42.941-81.105,77.975c-38.329,76.079-17.931,156.034,15.407,193.719v1.665
		c-33.338,37.685-53.736,117.64-15.407,193.719c15.69,35.034,46.889,60.208,81.105,77.975c23.344,9.919,59.161,29.561,147.965,28.51
		C596.55,623.008,1056.316,624.371,1295.476,624.659z"/>
	<path d="M2481.256,322.781c-8.878,16.762-17.539,33.074-34.584,45.612c-4.799,3.674-10.441,6.373-14.227,11.265
		c0.9,1.162,2.699,3.487,3.599,4.648c27.008-6.261,54.808-40.254,74.389-61.526c-19.581-21.272-47.381-55.264-74.389-61.526
		c-0.9,1.162-2.699,3.486-3.599,4.648c3.786,4.892,9.428,7.591,14.227,11.265C2463.717,289.707,2472.378,306.019,2481.256,322.781z"
		/>
	<path d="M109.696,322.781c8.878,16.762,17.539,33.074,34.584,45.612c4.799,3.674,10.441,6.373,14.227,11.265
		c-0.9,1.162-2.699,3.487-3.599,4.648c-27.008-6.261-54.808-40.254-74.389-61.526c19.581-21.272,47.381-55.264,74.389-61.526
		c0.9,1.162,2.699,3.486,3.599,4.648c-3.786,4.892-9.428,7.591-14.227,11.265C127.235,289.707,118.574,306.019,109.696,322.781z"/>
	<path d="M2550.906,118.576c-6.654-1.63-14.395-2.23-20.281,1.912c4.33,4.705,11.528,8.585,11.396,15.82
		c0.301,27.366-46.199,33.653-75.182,44.367c-34.17,10.609-62.68,32.877-91.264,53.533c0.113,2.362,0.225,4.705,0.356,7.029
		c7.535-2.268,13.758-7.179,20.45-11.115c58.26-34.863,105.593-17.677,147.777-35.988
		C2588.534,174.681,2578.407,127.31,2550.906,118.576z"/>
	<path d="M40.045,118.576c6.654-1.63,14.395-2.23,20.281,1.912c-4.33,4.705-11.528,8.585-11.396,15.82
		c-0.301,27.366,46.199,33.653,75.182,44.367c34.17,10.609,62.68,32.877,91.264,53.533c-0.113,2.362-0.225,4.705-0.356,7.029
		c-7.535-2.268-13.758-7.179-20.45-11.115c-58.26-34.863-105.593-17.677-147.777-35.988C2.417,174.681,12.545,127.31,40.045,118.576
		z"/>
	<path d="M2544.158,451.429c-42.184-18.312-89.517-1.126-147.777-35.988c-6.692-3.936-12.915-8.847-20.45-11.115
		c-0.131,2.324-0.244,4.667-0.356,7.029c28.584,20.656,57.094,42.924,91.264,53.533c28.984,10.714,75.483,17.001,75.182,44.367
		c0.131,7.235-7.067,11.115-11.396,15.82c5.886,4.142,13.627,3.542,20.281,1.912
		C2578.407,518.252,2588.534,470.881,2544.158,451.429z"/>
	<path d="M46.793,451.429c42.184-18.312,89.517-1.126,147.777-35.988c6.692-3.936,12.915-8.847,20.45-11.115
		c0.131,2.324,0.244,4.667,0.356,7.029c-28.584,20.656-57.094,42.924-91.264,53.533c-28.984,10.714-75.483,17.001-75.182,44.367
		c-0.131,7.235,7.067,11.115,11.396,15.82c-5.886,4.142-13.627,3.542-20.281,1.912C12.545,518.252,2.417,470.881,46.793,451.429z"/>
	<path d="M2555.761,216.776c-4.611-2.718-10.178-2.043-15.295-2.081c1.575,6.542,6.561,13.421,3.168,20.131
		c-2.681,7.404-10.01,12.652-17.957,12.315c-30.445,0.165-63.786-31.225-115.969-13.177c-10.778,3.711-21.386,8.285-30.833,14.733
		c0.225,1.406,0.675,4.236,0.9,5.642c21.253-2.892,42.915-25.518,101.667,12.333c15.82,9.353,32.671,19.475,51.677,19.213
		c14.039,0.731,27.985-6.86,35.22-18.856C2578.385,250.571,2572.424,226.523,2555.761,216.776z"/>
	<path d="M35.191,216.776c4.611-2.718,10.178-2.043,15.295-2.081c-1.575,6.542-6.561,13.421-3.168,20.131
		c2.681,7.404,10.01,12.652,17.957,12.315c30.445,0.165,63.786-31.225,115.969-13.177c10.778,3.711,21.386,8.285,30.833,14.733
		c-0.225,1.406-0.675,4.236-0.9,5.642c-21.253-2.892-42.915-25.518-101.667,12.333c-15.82,9.353-32.671,19.475-51.677,19.213
		c-14.039,0.731-27.985-6.86-35.22-18.856C12.567,250.571,18.527,226.523,35.191,216.776z"/>
	<path d="M2555.761,428.786c16.663-9.747,22.624-33.795,12.577-50.252c-7.235-11.996-21.181-19.587-35.22-18.856
		c-19.006-0.262-35.857,9.859-51.677,19.213c-58.752,37.851-80.414,15.226-101.667,12.333c-0.225,1.406-0.675,4.236-0.9,5.642
		c9.447,6.448,20.056,11.021,30.833,14.733c52.184,18.048,85.524-13.342,115.969-13.177c7.947-0.337,15.276,4.911,17.957,12.315
		c3.392,6.71-1.594,13.589-3.168,20.131C2545.583,430.829,2551.15,431.504,2555.761,428.786z"/>
	<path d="M35.191,428.786c-16.663-9.747-22.624-33.795-12.577-50.252c7.235-11.996,21.181-19.587,35.22-18.856
		c19.006-0.262,35.857,9.859,51.677,19.213c58.752,37.851,80.414,15.226,101.667,12.333c0.225,1.406,0.675,4.236,0.9,5.642
		c-9.447,6.448-20.056,11.021-30.833,14.733c-52.184,18.048-85.524-13.342-115.969-13.177c-7.947-0.337-15.276,4.911-17.957,12.315
		c-3.392,6.71,1.594,13.589,3.168,20.131C45.368,430.829,39.802,431.504,35.191,428.786z"/>
	<path d="M2400.149,183.262c-10.721,13.083-23.43,24.405-34.095,37.525c1.894,1.931,3.824,3.824,5.773,5.642
		c18.032-13.739,33.421-30.759,51.771-44.18c16.326-11.696,31.902-24.461,48.622-35.632c30.065-19.737,57.956-43.861,77.881-74.057
		c10.59-15.445,22.23-32.483,21.799-51.977c-16.175-1.787-74.971,26.69-116.269,86.972
		C2438.48,133.74,2419.736,158.838,2400.149,183.262z"/>
	<path d="M190.803,183.262c10.721,13.083,23.43,24.405,34.095,37.525c-1.894,1.931-3.824,3.824-5.773,5.642
		c-18.032-13.739-33.421-30.759-51.771-44.18c-16.326-11.696-31.902-24.461-48.622-35.632
		C88.667,126.88,60.776,102.756,40.851,72.56c-10.59-15.445-22.23-32.483-21.799-51.977c16.175-1.787,74.971,26.69,116.269,86.972
		C152.472,133.74,171.215,158.838,190.803,183.262z"/>
	<path d="M2472.219,498.945c-16.719-11.171-32.296-23.936-48.622-35.632c-18.35-13.421-33.739-30.44-51.771-44.18
		c-1.949,1.818-3.88,3.711-5.773,5.642c10.666,13.121,23.374,24.442,34.095,37.525c19.587,24.423,38.331,49.521,55.482,75.707
		c41.297,60.282,100.094,88.76,116.269,86.972c0.431-19.494-11.209-36.532-21.799-51.977
		C2530.175,542.806,2502.284,518.682,2472.219,498.945z"/>
	<path d="M118.733,498.945c16.719-11.171,32.296-23.936,48.622-35.632c18.35-13.421,33.739-30.44,51.771-44.18
		c1.949,1.818,3.88,3.711,5.773,5.642c-10.666,13.121-23.374,24.442-34.095,37.525c-19.587,24.423-38.331,49.521-55.482,75.707
		c-41.297,60.282-100.094,88.76-116.269,86.972c-0.431-19.494,11.209-36.532,21.799-51.977
		C60.776,542.806,88.667,518.682,118.733,498.945z"/>
	<path d="M2351.115,216.701c3.018,1.481,7.329,4.63,9.54,0.243c14.621-19.625,28.247-40.056,39.85-61.611
		c20.938-40.496,21.719-80.467,40.619-97.975c5.829-4.461,14.376-7.554,21.424-4.236c4.049,3.055,6.954,7.329,10.515,10.872
		c9.166-17.657-5.211-38.931-23.018-43.43c-14.002-3.168-30.552-0.187-40.037,11.377c-35.402,40.564-10.185,99.57-42.343,156.212
		C2362.904,198.107,2356.194,206.935,2351.115,216.701z"/>
	<path d="M239.837,216.701c-3.018,1.481-7.329,4.63-9.54,0.243c-14.621-19.625-28.247-40.056-39.85-61.611
		c-20.938-40.496-21.719-80.467-40.619-97.975c-5.829-4.461-14.376-7.554-21.424-4.236c-4.049,3.055-6.954,7.329-10.515,10.872
		c-9.166-17.657,5.211-38.931,23.018-43.43c14.002-3.168,30.552-0.187,40.037,11.377c35.402,40.564,10.185,99.57,42.343,156.212
		C228.047,198.107,234.757,206.935,239.837,216.701z"/>
	<path d="M2462.547,592.439c-7.048,3.318-15.595,0.225-21.424-4.236c-18.9-17.507-19.68-57.478-40.619-97.975
		c-11.602-21.556-25.229-41.986-39.85-61.611c-2.211-4.386-6.523-1.237-9.54,0.243c5.08,9.766,11.79,18.594,16.551,28.547
		c32.158,56.642,6.941,115.648,42.343,156.212c9.485,11.565,26.035,14.545,40.037,11.377c17.807-4.499,32.184-25.773,23.018-43.43
		C2469.501,585.111,2466.596,589.384,2462.547,592.439z"/>
	<path d="M128.404,592.439c7.048,3.318,15.595,0.225,21.424-4.236c18.9-17.507,19.68-57.478,40.619-97.975
		c11.602-21.556,25.229-41.986,39.85-61.611c2.211-4.386,6.523-1.237,9.54,0.243c-5.08,9.766-11.79,18.594-16.551,28.547
		c-32.158,56.642-6.941,115.648-42.343,156.212c-9.485,11.565-26.035,14.545-40.037,11.377
		c-17.807-4.499-32.184-25.773-23.018-43.43C121.45,585.111,124.356,589.384,128.404,592.439z"/>
	<path d="M2291.79,339.04c11.339-10.543,45.777,45.047,71.227,68.528c5.642-8.716,7.066-19.175,9.878-28.959
		c14.826,5.005,30.065,10.272,45.979,9.147c2.942-0.544,7.797,0.262,7.741-4.011c-1.837-4.705-4.423-9.091-5.867-13.964
		c11.828-4.948,24.986-10.197,31.227-22.268c4.683-7.071,6.6-16.433,4.715-24.731c1.885-8.299-0.032-17.66-4.715-24.731
		c-6.241-12.071-19.4-17.319-31.227-22.268c1.443-4.874,4.03-9.26,5.867-13.964c0.056-4.273-4.799-3.468-7.741-4.011
		c-15.914-1.125-31.153,4.142-45.979,9.147c-2.812-9.784-4.236-20.243-9.878-28.959c-25.45,23.481-59.888,79.071-71.227,68.528
		c-5.473-3.505-7.385-11.602-2.024-16.138c20.693-22.024,46.166-38.894,67.441-60.318c-9.391-5.061-20.094-6.354-30.14-9.597
		c4.517-17.563,11.471-36.063,5.885-54.245c-4.911,2.643-9.859,5.211-14.976,7.404c-4.742-8.416-7.31-18.275-14.602-25.061
		c-6.467-6.017-14.358-11.34-23.317-12.446c-8.697-0.206-17.807,2.661-23.974,8.997c16.945,5.455,33.008,18.201,36.476,36.476
		c4.611,26.86-0.9,54.395-9.072,80.018c-9.112,21.23-18.328,42.968-32.81,61.17c14.481,18.202,23.698,39.94,32.81,61.17
		c8.172,25.623,13.683,53.158,9.072,80.018c-3.468,18.275-19.531,31.021-36.476,36.476c6.167,6.335,15.277,9.203,23.974,8.997
		c8.96-1.106,16.851-6.429,23.317-12.446c7.292-6.786,9.859-16.645,14.602-25.061c5.117,2.193,10.066,4.761,14.976,7.404
		c5.586-18.182-1.368-36.682-5.885-54.245c10.046-3.243,20.749-4.536,30.14-9.597c-21.275-21.424-46.748-38.294-67.441-60.318
		C2284.405,350.643,2286.317,342.545,2291.79,339.04z M2312.465,318.518c22.024-11.003,46.279-16.701,70.665-19.25
		c37.375-3.825,51.697,9.818,59.818,23.513c-8.122,13.695-22.443,27.338-59.818,23.513c-24.386-2.549-48.641-8.247-70.665-19.25
		c-2.895-1.495-5.593-2.914-8.111-4.263C2306.872,321.432,2309.57,320.013,2312.465,318.518z"/>
	<path d="M299.162,339.04c-11.339-10.543-45.777,45.047-71.227,68.528c-5.642-8.716-7.066-19.175-9.878-28.959
		c-14.826,5.005-30.065,10.272-45.979,9.147c-2.942-0.544-7.797,0.262-7.741-4.011c1.837-4.705,4.423-9.091,5.867-13.964
		c-11.828-4.948-24.986-10.197-31.227-22.268c-4.683-7.071-6.6-16.433-4.715-24.731c-1.885-8.299,0.032-17.66,4.715-24.731
		c6.241-12.071,19.4-17.319,31.227-22.268c-1.443-4.874-4.03-9.26-5.867-13.964c-0.056-4.273,4.799-3.468,7.741-4.011
		c15.914-1.125,31.153,4.142,45.979,9.147c2.812-9.784,4.236-20.243,9.878-28.959c25.45,23.481,59.888,79.071,71.227,68.528
		c5.473-3.505,7.385-11.602,2.024-16.138c-20.693-22.024-46.166-38.894-67.441-60.318c9.391-5.061,20.094-6.354,30.14-9.597
		c-4.517-17.563-11.471-36.063-5.885-54.245c4.911,2.643,9.859,5.211,14.976,7.404c4.742-8.416,7.31-18.275,14.602-25.061
		c6.467-6.017,14.358-11.34,23.317-12.446c8.697-0.206,17.807,2.661,23.974,8.997c-16.945,5.455-33.008,18.201-36.476,36.476
		c-4.611,26.86,0.9,54.395,9.072,80.018c9.112,21.23,18.328,42.968,32.81,61.17c-14.481,18.202-23.698,39.94-32.81,61.17
		c-8.172,25.623-13.683,53.158-9.072,80.018c3.468,18.275,19.531,31.021,36.476,36.476c-6.167,6.335-15.277,9.203-23.974,8.997
		c-8.96-1.106-16.851-6.429-23.317-12.446c-7.292-6.786-9.859-16.645-14.602-25.061c-5.117,2.193-10.066,4.761-14.976,7.404
		c-5.586-18.182,1.368-36.682,5.885-54.245c-10.046-3.243-20.749-4.536-30.14-9.597c21.275-21.424,46.748-38.294,67.441-60.318
		C306.547,350.643,304.635,342.545,299.162,339.04z M278.487,318.518c-22.024-11.003-46.279-16.701-70.665-19.25
		c-37.375-3.825-51.697,9.818-59.818,23.513c8.122,13.695,22.443,27.338,59.818,23.513c24.386-2.549,48.641-8.247,70.665-19.25
		c2.895-1.495,5.593-2.914,8.111-4.263C284.08,321.432,281.381,320.013,278.487,318.518z"/>
	<path d="M2346.729,184.574c-0.544,10.422-6.542,19.437-8.116,29.634c2.212,0.244,4.405,0.469,6.616,0.675
		c43.147-68.156,0.386-112.922-0.075-146.222c-0.394-8.416,5.811-16.476,13.777-18.875c6.766-0.975,12.989,2.737,19.288,4.592
		c0.299-46.443-63.646-40.133-70.309-4.648C2297.321,102.77,2354.464,121.868,2346.729,184.574z"/>
	<path d="M244.223,184.574c0.544,10.422,6.542,19.437,8.116,29.634c-2.212,0.244-4.405,0.469-6.616,0.675
		c-43.147-68.156-0.386-112.922,0.075-146.222c0.394-8.416-5.811-16.476-13.777-18.875c-6.766-0.975-12.989,2.737-19.288,4.592
		c-0.299-46.443,63.646-40.133,70.309-4.648C293.63,102.77,236.488,121.868,244.223,184.574z"/>
	<path d="M2358.931,595.776c-7.966-2.399-14.171-10.459-13.777-18.875c0.461-33.3,43.222-78.065,0.075-146.222
		c-2.211,0.206-4.405,0.431-6.616,0.675c1.574,10.197,7.573,19.213,8.116,29.634c7.735,62.706-49.407,81.804-38.819,134.844
		c6.663,35.484,70.607,41.795,70.309-4.648C2371.92,593.039,2365.697,596.751,2358.931,595.776z"/>
	<path d="M232.021,595.776c7.966-2.399,14.171-10.459,13.777-18.875c-0.461-33.3-43.222-78.065-0.075-146.222
		c2.211,0.206,4.405,0.431,6.616,0.675c-1.574,10.197-7.573,19.213-8.116,29.634c-7.735,62.706,49.407,81.804,38.819,134.844
		c-6.663,35.484-70.607,41.795-70.309-4.648C219.031,593.039,225.255,596.751,232.021,595.776z"/>
	<path d="M2226.28,85.118c34.735,30.763,59.836,31.648,81.517,53.364c7.178,6.654,11.94,15.257,17.207,23.355
		c2.212-1.05,4.405-2.156,6.598-3.261c-4.883-23.209-35.343-50.853-52.483-66.279c-13.338-11.798-34.207-24.617-23.486-40.58
		c3.28-3.093,8.716-6.635,13.027-3.411c3.318,1.837,6.467,3.974,9.729,5.886c2.279-26.662-15.943-39.471-37.694-36.288
		c-12.858,1.518-21.949,12.784-26.898,23.899C2209.41,56.946,2214.284,74.697,2226.28,85.118z"/>
	<path d="M364.672,85.118c-34.735,30.763-59.836,31.648-81.517,53.364c-7.178,6.654-11.94,15.257-17.207,23.355
		c-2.212-1.05-4.405-2.156-6.598-3.261c4.883-23.209,35.343-50.853,52.483-66.279c13.338-11.798,34.207-24.617,23.486-40.58
		c-3.28-3.093-8.716-6.635-13.027-3.411c-3.318,1.837-6.467,3.974-9.729,5.886c-2.279-26.662,15.943-39.471,37.694-36.288
		c12.858,1.518,21.949,12.784,26.898,23.899C381.541,56.946,376.668,74.697,364.672,85.118z"/>
	<path d="M2325.004,483.725c-5.267,8.098-10.028,16.701-17.207,23.355c-21.681,21.716-46.782,22.601-81.517,53.364
		c-11.996,10.421-16.87,28.172-12.484,43.317c4.949,11.115,14.04,22.38,26.898,23.899c21.751,3.183,39.974-9.626,37.694-36.288
		c-3.261,1.912-6.411,4.049-9.729,5.885c-4.311,3.224-9.747-0.319-13.027-3.411c-10.721-15.964,10.148-28.782,23.486-40.581
		c17.141-15.426,47.6-43.07,52.483-66.279C2329.409,485.88,2327.216,484.774,2325.004,483.725z"/>
	<path d="M265.947,483.725c5.267,8.098,10.028,16.701,17.207,23.355c21.681,21.716,46.782,22.601,81.517,53.364
		c11.996,10.421,16.87,28.172,12.484,43.317c-4.949,11.115-14.04,22.38-26.898,23.899c-21.751,3.183-39.974-9.626-37.694-36.288
		c3.261,1.912,6.411,4.049,9.729,5.885c4.311,3.224,9.747-0.319,13.027-3.411c10.721-15.964-10.148-28.782-23.486-40.581
		c-17.141-15.426-47.6-43.07-52.483-66.279C261.542,485.88,263.735,484.774,265.947,483.725z"/>
</g>
</svg>
