<?xml version="1.0" encoding="utf-8"?>

<!DOCTYPE svg PUBLIC "-//W3C//DTD SVG 1.1//EN" "http://www.w3.org/Graphics/SVG/1.1/DTD/svg11.dtd">
<svg version="1.1" id="Layer_1" xmlns="http://www.w3.org/2000/svg" xmlns:xlink="http://www.w3.org/1999/xlink" x="0px" y="0px"
	 viewBox="0 0 1634 1621.408" enable-background="new 0 0 1634 1621.408" xml:space="preserve">
<g>
	<path d="M1329.988,297.716c-120.183,0.032-302.416-0.369-303.33-0.372c-19.59-0.21-71.548,2.935-117.136-19.678
		c-37.785-20.714-61.892-49.643-72.1-93.365c-10.694-50.523,18.013-96.985,26.504-104.844c4.733,3.786,8.799,8.319,12.492,13.079
		c-3.053,6.213-7.866,11.346-10.719,17.665c-4.626,10.199-8.693,20.785-10.479,31.877c-3.758,33.794,5.093,62.968,21.731,82.832
		c7.093,8.346,14.359,16.785,23.385,23.131c23.798,17.198,53.195,25.304,82.246,26.904c18.152,0.278,229.278,1.1,369.096,1.079
		c-0.021,139.819,0.801,350.944,1.079,369.096c1.6,29.051,9.706,58.448,26.904,82.246c6.346,9.026,14.785,16.292,23.131,23.385
		c19.865,16.638,49.038,25.49,82.832,21.731c11.092-1.786,21.678-5.853,31.877-10.479c6.319-2.853,11.452-7.666,17.665-10.719
		c4.76,3.693,9.292,7.759,13.079,12.492c-7.858,8.491-54.321,37.198-104.844,26.504c-43.722-10.208-72.651-34.315-93.365-72.1
		c-22.613-45.587-19.468-97.546-19.678-117.136C1330.357,600.132,1329.956,417.899,1329.988,297.716z"/>
	<path d="M1329.988,1323.692c-0.032-120.183,0.369-302.416,0.372-303.33c0.21-19.59-2.935-71.548,19.678-117.136
		c20.714-37.785,49.643-61.891,93.365-72.1c50.523-10.694,96.985,18.013,104.844,26.504c-3.786,4.733-8.319,8.799-13.079,12.492
		c-6.213-3.053-11.346-7.866-17.665-10.719c-10.199-4.626-20.785-8.693-31.877-10.479c-33.794-3.758-62.968,5.093-82.832,21.731
		c-8.346,7.093-16.785,14.359-23.131,23.385c-17.198,23.798-25.304,53.195-26.904,82.246c-0.278,18.152-1.1,229.278-1.079,369.096
		c-139.819-0.021-350.944,0.801-369.096,1.079c-29.051,1.6-58.448,9.706-82.246,26.904c-9.026,6.346-16.292,14.785-23.385,23.131
		c-16.638,19.865-25.49,49.038-21.731,82.832c1.786,11.092,5.853,21.678,10.479,31.877c2.853,6.319,7.666,11.452,10.719,17.665
		c-3.693,4.76-7.759,9.292-12.492,13.079c-8.491-7.858-37.198-54.321-26.504-104.844c10.208-43.722,34.315-72.651,72.1-93.365
		c45.587-22.613,97.546-19.468,117.136-19.678C1027.572,1324.061,1209.805,1323.66,1329.988,1323.692z"/>
	<path d="M304.012,1323.692c120.183-0.032,302.416,0.369,303.33,0.372c19.59,0.21,71.548-2.935,117.136,19.678
		c37.785,20.714,61.892,49.643,72.1,93.365c10.694,50.523-18.013,96.985-26.504,104.844c-4.733-3.786-8.799-8.319-12.492-13.079
		c3.053-6.213,7.866-11.346,10.719-17.665c4.626-10.199,8.693-20.785,10.479-31.877c3.758-33.794-5.093-62.968-21.731-82.832
		c-7.093-8.346-14.359-16.785-23.385-23.131c-23.798-17.198-53.195-25.304-82.246-26.904c-18.152-0.278-229.278-1.1-369.096-1.079
		c0.021-139.819-0.801-350.944-1.079-369.096c-1.6-29.051-9.706-58.448-26.904-82.246c-6.346-9.026-14.785-16.292-23.131-23.385
		c-19.865-16.638-49.038-25.489-82.832-21.731c-11.092,1.786-21.678,5.853-31.877,10.479c-6.319,2.853-11.452,7.666-17.665,10.719
		c-4.76-3.693-9.292-7.759-13.079-12.492c7.858-8.491,54.321-37.199,104.844-26.504c43.722,10.208,72.651,34.315,93.365,72.1
		c22.613,45.587,19.468,97.546,19.678,117.136C303.643,1021.276,304.044,1203.509,304.012,1323.692z"/>
	<path d="M304.012,297.716c0.032,120.183-0.369,302.416-0.372,303.33c-0.21,19.59,2.935,71.548-19.678,117.136
		c-20.714,37.785-49.643,61.892-93.365,72.1c-50.523,10.694-96.985-18.013-104.844-26.504c3.786-4.733,8.319-8.799,13.079-12.492
		c6.213,3.053,11.346,7.866,17.665,10.719c10.199,4.626,20.785,8.693,31.877,10.479c33.794,3.758,62.968-5.093,82.832-21.731
		c8.346-7.093,16.785-14.359,23.131-23.385c17.198-23.798,25.304-53.195,26.904-82.246c0.278-18.152,1.1-229.278,1.079-369.096
		c139.819,0.021,350.944-0.801,369.096-1.079c29.051-1.6,58.448-9.706,82.246-26.904c9.026-6.346,16.292-14.785,23.385-23.131
		c16.638-19.865,25.49-49.038,21.731-82.832c-1.786-11.092-5.853-21.678-10.479-31.877c-2.853-6.319-7.666-11.452-10.719-17.665
		c3.693-4.76,7.759-9.292,12.492-13.079c8.491,7.858,37.198,54.321,26.504,104.844c-10.208,43.722-34.315,72.651-72.1,93.365
		c-45.587,22.613-97.546,19.468-117.136,19.678C606.428,297.347,424.195,297.749,304.012,297.716z"/>
	<path d="M1346.015,222.378c4.986-9.306,7.319-22.225-0.36-30.77c-4.904,7.03-14.568,25.577-51.555,17.345
		c-19.958-6.466-38.783-16.118-56.408-27.464c-21.965-13.026-100.871-71.273-100.871-71.273c-2.946-1.626-5.186,1.92-7.199,3.52
		c9.253,9.399,19.825,17.372,29.531,26.291c90.235,78.168,100.583,85,121.655,95.644c12.852,5.506,27.491,9.519,41.37,5.773
		C1331.843,237.95,1341.735,232.203,1346.015,222.378z"/>
	<path d="M228.674,281.689c-9.306-4.986-22.225-7.319-30.77,0.36c7.03,4.904,25.577,14.569,17.345,51.555
		c-6.466,19.958-16.118,38.783-27.464,56.408c-13.026,21.965-71.273,100.871-71.273,100.871c-1.626,2.946,1.92,5.186,3.52,7.199
		c9.399-9.253,17.372-19.825,26.291-29.531c78.168-90.235,85-100.583,95.644-121.655c5.506-12.852,9.519-27.491,5.773-41.37
		C244.245,295.861,238.499,285.969,228.674,281.689z"/>
	<path d="M287.985,1399.031c-4.986,9.306-7.319,22.224,0.36,30.77c4.905-7.03,14.569-25.577,51.555-17.345
		c19.958,6.466,38.783,16.118,56.408,27.464c21.965,13.026,100.871,71.273,100.871,71.273c2.946,1.626,5.186-1.92,7.199-3.52
		c-9.253-9.399-19.825-17.372-29.531-26.291c-90.235-78.168-100.583-85-121.655-95.644c-12.852-5.506-27.491-9.519-41.37-5.773
		C302.157,1383.459,292.265,1389.205,287.985,1399.031z"/>
	<path d="M1405.327,1339.719c9.306,4.986,22.224,7.319,30.77-0.36c-7.03-4.905-25.577-14.569-17.345-51.555
		c6.466-19.958,16.119-38.783,27.464-56.408c13.026-21.965,71.273-100.871,71.273-100.871c1.627-2.946-1.92-5.186-3.52-7.199
		c-9.399,9.253-17.372,19.825-26.291,29.531c-78.168,90.235-85,100.583-95.644,121.655c-5.506,12.852-9.519,27.491-5.773,41.37
		C1389.755,1325.547,1395.501,1335.439,1405.327,1339.719z"/>
	<path d="M1405.327,281.689c9.306-4.986,22.224-7.319,30.77,0.36c-7.03,4.904-25.577,14.569-17.345,51.555
		c6.466,19.958,16.119,38.783,27.464,56.408c13.026,21.965,71.273,100.871,71.273,100.871c1.627,2.946-1.92,5.186-3.52,7.199
		c-9.399-9.253-17.372-19.825-26.291-29.531c-78.168-90.235-85-100.583-95.644-121.655c-5.506-12.852-9.519-27.491-5.773-41.37
		C1389.755,295.861,1395.501,285.969,1405.327,281.689z"/>
	<path d="M287.985,222.378c-4.986-9.306-7.319-22.225,0.36-30.77c4.905,7.03,14.569,25.577,51.555,17.345
		c19.958-6.466,38.783-16.118,56.408-27.464c21.965-13.026,100.871-71.273,100.871-71.273c2.946-1.626,5.186,1.92,7.199,3.52
		c-9.253,9.399-19.825,17.372-29.531,26.291c-90.235,78.168-100.583,85-121.655,95.644c-12.852,5.506-27.491,9.519-41.37,5.773
		C302.157,237.95,292.265,232.203,287.985,222.378z"/>
	<path d="M228.674,1339.719c-9.306,4.986-22.225,7.319-30.77-0.36c7.03-4.905,25.577-14.569,17.345-51.555
		c-6.466-19.958-16.118-38.783-27.464-56.408c-13.026-21.965-71.273-100.871-71.273-100.871c-1.626-2.946,1.92-5.186,3.52-7.199
		c9.399,9.253,17.372,19.825,26.291,29.531c78.168,90.235,85,100.583,95.644,121.655c5.506,12.852,9.519,27.491,5.773,41.37
		C244.245,1325.547,238.499,1335.439,228.674,1339.719z"/>
	<path d="M1346.015,1399.031c4.986,9.306,7.319,22.224-0.36,30.77c-4.904-7.03-14.568-25.577-51.555-17.345
		c-19.958,6.466-38.783,16.118-56.408,27.464c-21.965,13.026-100.871,71.273-100.871,71.273c-2.946,1.626-5.186-1.92-7.199-3.52
		c9.253-9.399,19.825-17.372,29.531-26.291c90.235-78.168,100.583-85,121.655-95.644c12.852-5.506,27.491-9.519,41.37-5.773
		C1331.843,1383.459,1341.735,1389.205,1346.015,1399.031z"/>
	<path d="M1249.611,224.857c-24.927-2.068-23.597,0.972-108.75-91.898c-4.733-5.066-8.786-10.812-14.092-15.319
		c-2.373-2.373-5.346,0.28-7.559,1.507c3.48,6.746,8.866,12.186,13.172,18.358c28.282,37.612,54.122,78.492,70.073,95.204
		C1217.475,248.158,1244.935,244.502,1249.611,224.857z"/>
	<path d="M231.153,378.094c-2.068,24.927,0.972,23.597-91.898,108.75c-5.066,4.733-10.812,8.786-15.319,14.092
		c-2.373,2.373,0.28,5.346,1.507,7.559c6.746-3.48,12.186-8.866,18.358-13.172c37.612-28.282,78.492-54.122,95.204-70.073
		C254.454,410.229,250.798,382.769,231.153,378.094z"/>
	<path d="M384.389,1396.551c24.927,2.068,23.597-0.972,108.75,91.898c4.733,5.066,8.786,10.812,14.092,15.319
		c2.373,2.373,5.346-0.28,7.559-1.507c-3.48-6.746-8.866-12.185-13.172-18.358c-28.282-37.612-54.122-78.492-70.073-95.204
		C416.525,1373.25,389.065,1376.906,384.389,1396.551z"/>
	<path d="M1402.847,1243.315c2.068-24.927-0.972-23.597,91.898-108.75c5.066-4.733,10.812-8.786,15.319-14.092
		c2.373-2.373-0.28-5.346-1.507-7.559c-6.746,3.48-12.185,8.866-18.358,13.172c-37.612,28.282-78.492,54.122-95.204,70.073
		C1379.546,1211.179,1383.202,1238.639,1402.847,1243.315z"/>
	<path d="M1402.847,378.094c2.068,24.927-0.972,23.597,91.898,108.75c5.066,4.733,10.812,8.786,15.319,14.092
		c2.373,2.373-0.28,5.346-1.507,7.559c-6.746-3.48-12.185-8.866-18.358-13.172c-37.612-28.282-78.492-54.122-95.204-70.073
		C1379.546,410.229,1383.202,382.769,1402.847,378.094z"/>
	<path d="M384.389,224.857c24.927-2.068,23.597,0.972,108.75-91.898c4.733-5.066,8.786-10.812,14.092-15.319
		c2.373-2.373,5.346,0.28,7.559,1.507c-3.48,6.746-8.866,12.186-13.172,18.358c-28.282,37.612-54.122,78.492-70.073,95.204
		C416.525,248.158,389.065,244.502,384.389,224.857z"/>
	<path d="M231.153,1243.315c-2.068-24.927,0.972-23.597-91.898-108.75c-5.066-4.733-10.812-8.786-15.319-14.092
		c-2.373-2.373,0.28-5.346,1.507-7.559c6.746,3.48,12.186,8.866,18.358,13.172c37.612,28.282,78.492,54.122,95.204,70.073
		C254.454,1211.179,250.798,1238.639,231.153,1243.315z"/>
	<path d="M1249.611,1396.551c-24.927,2.068-23.597-0.972-108.75,91.898c-4.733,5.066-8.786,10.812-14.092,15.319
		c-2.373,2.373-5.346-0.28-7.559-1.507c3.48-6.746,8.866-12.185,13.172-18.358c28.282-37.612,54.122-78.492,70.073-95.204
		C1217.475,1373.25,1244.935,1376.906,1249.611,1396.551z"/>
	<path d="M1175.338,229.484c1.013-11.012-5.853-20.331-10.586-29.651c-11.161-18.649-11.261-22.86-35.65-56.395
		c-4.879-6.719-8.826-14.145-14.545-20.225c-2.227-3.08-5.893-0.12-8.226,1.307c3.914,10.324,22.922,38.987,30.211,66.114
		c7.801,23.133,6.821,39.891,16.052,47.836C1160.392,244.482,1174.244,239.643,1175.338,229.484z"/>
	<path d="M235.78,452.367c-11.012-1.013-20.331,5.853-29.651,10.586c-18.649,11.161-22.86,11.261-56.395,35.65
		c-6.719,4.879-14.145,8.826-20.225,14.545c-3.08,2.227-0.12,5.893,1.307,8.226c10.324-3.914,38.987-22.922,66.114-30.211
		c23.133-7.801,39.891-6.821,47.836-16.052C250.778,467.312,245.939,453.46,235.78,452.367z"/>
	<path d="M458.662,1391.925c-1.013,11.012,5.853,20.331,10.586,29.651c11.161,18.649,11.261,22.86,35.65,56.395
		c4.879,6.719,8.826,14.145,14.545,20.225c2.227,3.08,5.893,0.12,8.226-1.307c-3.914-10.324-22.922-38.987-30.211-66.114
		c-7.801-23.133-6.821-39.891-16.052-47.836C473.608,1376.926,459.756,1381.766,458.662,1391.925z"/>
	<path d="M1398.22,1169.042c11.012,1.013,20.331-5.853,29.651-10.586c18.649-11.161,22.86-11.261,56.395-35.65
		c6.719-4.879,14.145-8.826,20.225-14.545c3.08-2.227,0.12-5.893-1.307-8.226c-10.324,3.914-38.987,22.922-66.114,30.211
		c-23.133,7.801-39.891,6.821-47.836,16.052C1383.222,1154.096,1388.061,1167.948,1398.22,1169.042z"/>
	<path d="M1398.22,452.367c11.012-1.013,20.331,5.853,29.651,10.586c18.649,11.161,22.86,11.261,56.395,35.65
		c6.719,4.879,14.145,8.826,20.225,14.545c3.08,2.227,0.12,5.893-1.307,8.226c-10.324-3.914-38.987-22.922-66.114-30.211
		c-23.133-7.801-39.891-6.821-47.836-16.052C1383.222,467.312,1388.061,453.46,1398.22,452.367z"/>
	<path d="M458.662,229.484c-1.013-11.012,5.853-20.331,10.586-29.651c11.161-18.649,11.261-22.86,35.65-56.395
		c4.879-6.719,8.826-14.145,14.545-20.225c2.227-3.08,5.893-0.12,8.226,1.307c-3.914,10.324-22.922,38.987-30.211,66.114
		c-7.801,23.133-6.821,39.891-16.052,47.836C473.608,244.482,459.756,239.643,458.662,229.484z"/>
	<path d="M235.78,1169.042c-11.012,1.013-20.331-5.853-29.651-10.586c-18.649-11.161-22.86-11.261-56.395-35.65
		c-6.719-4.879-14.145-8.826-20.225-14.545c-3.08-2.227-0.12-5.893,1.307-8.226c10.324,3.914,38.987,22.922,66.114,30.211
		c23.133,7.801,39.891,6.821,47.836,16.052C250.778,1154.096,245.939,1167.948,235.78,1169.042z"/>
	<path d="M1175.338,1391.925c1.013,11.012-5.853,20.331-10.586,29.651c-11.161,18.649-11.261,22.86-35.65,56.395
		c-4.879,6.719-8.826,14.145-14.545,20.225c-2.227,3.08-5.893,0.12-8.226-1.307c3.914-10.324,22.922-38.987,30.211-66.114
		c7.801-23.133,6.821-39.891,16.052-47.836C1160.392,1376.926,1174.244,1381.766,1175.338,1391.925z"/>
	<path d="M1136.448,99.442c-2.586-2.106-6.253-5.986-9.519-2.653c-12.959,10.959-29.69,15.559-45.702,20.091
		c-0.52,2.72-0.027,5.426,1.706,7.613C1108.407,119.64,1130.56,106.547,1136.448,99.442z"/>
	<path d="M105.738,491.256c-2.106,2.586-5.986,6.253-2.653,9.519c10.959,12.959,15.559,29.69,20.091,45.702
		c2.72,0.52,5.426,0.027,7.613-1.706C125.936,519.297,112.843,497.144,105.738,491.256z"/>
	<path d="M497.552,1521.966c2.586,2.107,6.253,5.986,9.519,2.653c12.959-10.959,29.69-15.558,45.702-20.091
		c0.52-2.72,0.027-5.426-1.706-7.613C525.593,1501.768,503.44,1514.861,497.552,1521.966z"/>
	<path d="M1528.262,1130.152c2.106-2.586,5.986-6.253,2.653-9.519c-10.959-12.959-15.558-29.69-20.091-45.702
		c-2.72-0.52-5.426-0.027-7.613,1.706C1508.064,1102.111,1521.157,1124.264,1528.262,1130.152z"/>
	<path d="M1528.262,491.256c2.106,2.586,5.986,6.253,2.653,9.519c-10.959,12.959-15.558,29.69-20.091,45.702
		c-2.72,0.52-5.426,0.027-7.613-1.706C1508.064,519.297,1521.157,497.144,1528.262,491.256z"/>
	<path d="M497.552,99.442c2.586-2.106,6.253-5.986,9.519-2.653c12.959,10.959,29.69,15.559,45.702,20.091
		c0.52,2.72,0.027,5.426-1.706,7.613C525.593,119.64,503.44,106.547,497.552,99.442z"/>
	<path d="M105.738,1130.152c-2.106-2.586-5.986-6.253-2.653-9.519c10.959-12.959,15.559-29.69,20.091-45.702
		c2.72-0.52,5.426-0.027,7.613,1.706C125.936,1102.111,112.843,1124.264,105.738,1130.152z"/>
	<path d="M1136.448,1521.966c-2.586,2.107-6.253,5.986-9.519,2.653c-12.959-10.959-29.69-15.558-45.702-20.091
		c-0.52-2.72-0.027-5.426,1.706-7.613C1108.407,1501.768,1130.56,1514.861,1136.448,1521.966z"/>
	<path d="M1132.208,220.484c1.627-14.119-2.413-27.997-6.999-41.183c-6.76-18.318-14.599-36.357-24.424-53.248
		c-1.933,0.24-3.72,1.013-5.28,2.24c5.304,16.544,20.727,57.845,13.105,90.258c-1.4,7.173-7.759,11.386-12.199,16.625
		C1108.687,248.285,1129.798,238.32,1132.208,220.484z"/>
	<path d="M226.78,495.496c-14.119-1.626-27.997,2.413-41.183,6.999c-18.318,6.759-36.357,14.599-53.248,24.424
		c0.24,1.933,1.013,3.72,2.24,5.279c16.544-5.304,57.845-20.727,90.258-13.105c7.173,1.4,11.386,7.759,16.625,12.199
		C254.581,519.017,244.616,497.906,226.78,495.496z"/>
	<path d="M501.792,1400.924c-1.626,14.119,2.413,27.997,6.999,41.183c6.759,18.318,14.599,36.357,24.424,53.248
		c1.933-0.24,3.72-1.013,5.279-2.24c-5.304-16.544-20.727-57.845-13.105-90.258c1.4-7.173,7.759-11.386,12.199-16.625
		C525.313,1373.123,504.202,1383.088,501.792,1400.924z"/>
	<path d="M1407.22,1125.912c14.119,1.626,27.997-2.413,41.183-6.999c18.318-6.76,36.357-14.599,53.248-24.424
		c-0.24-1.933-1.013-3.72-2.24-5.28c-16.544,5.304-57.845,20.727-90.258,13.105c-7.173-1.4-11.386-7.759-16.625-12.199
		C1379.419,1102.391,1389.384,1123.502,1407.22,1125.912z"/>
	<path d="M1407.22,495.496c14.119-1.626,27.997,2.413,41.183,6.999c18.318,6.759,36.357,14.599,53.248,24.424
		c-0.24,1.933-1.013,3.72-2.24,5.279c-16.544-5.304-57.845-20.727-90.258-13.105c-7.173,1.4-11.386,7.759-16.625,12.199
		C1379.419,519.017,1389.384,497.906,1407.22,495.496z"/>
	<path d="M501.792,220.484c-1.626-14.119,2.413-27.997,6.999-41.183c6.759-18.318,14.599-36.357,24.424-53.248
		c1.933,0.24,3.72,1.013,5.279,2.24c-5.304,16.544-20.727,57.845-13.105,90.258c1.4,7.173,7.759,11.386,12.199,16.625
		C525.313,248.285,504.202,238.32,501.792,220.484z"/>
	<path d="M226.78,1125.912c-14.119,1.626-27.997-2.413-41.183-6.999c-18.318-6.76-36.357-14.599-53.248-24.424
		c0.24-1.933,1.013-3.72,2.24-5.28c16.544,5.304,57.845,20.727,90.258,13.105c7.173-1.4,11.386-7.759,16.625-12.199
		C254.581,1102.391,244.616,1123.502,226.78,1125.912z"/>
	<path d="M1132.208,1400.924c1.627,14.119-2.413,27.997-6.999,41.183c-6.76,18.318-14.599,36.357-24.424,53.248
		c-1.933-0.24-3.72-1.013-5.28-2.24c5.304-16.544,20.727-57.845,13.105-90.258c-1.4-7.173-7.759-11.386-12.199-16.625
		C1108.687,1373.123,1129.798,1383.088,1132.208,1400.924z"/>
	<path d="M1105.744,99.269c5.626-0.8,12.719,0.213,16.385-5.146c-6.533-2.586-13.505-4.346-19.385-8.359
		c-15.479-11.576-54.831-42.163-73.873-43.863c3.293,4.52,8.679,6.639,12.785,10.266c18.038,15.439,31.25,36.557,36.636,59.728
		c5.426,0.707,8.786-4.426,11.706-8.133c3.266,0.973,6.506,2.373,9.932,2.413C1103.438,105.882,1104.078,101.682,1105.744,99.269z"
		/>
	<path d="M105.565,521.96c-0.8-5.626,0.213-12.719-5.146-16.385c-2.586,6.533-4.346,13.505-8.359,19.385
		c-11.576,15.479-42.163,54.831-43.863,73.873c4.52-3.293,6.639-8.679,10.266-12.785c15.439-18.038,36.557-31.25,59.728-36.637
		c0.707-5.426-4.426-8.786-8.133-11.706c0.973-3.266,2.373-6.506,2.413-9.932C112.178,524.267,107.978,523.626,105.565,521.96z"/>
	<path d="M528.256,1522.139c-5.626,0.8-12.719-0.213-16.385,5.146c6.533,2.586,13.505,4.346,19.385,8.359
		c15.479,11.576,54.831,42.163,73.873,43.863c-3.293-4.52-8.679-6.639-12.785-10.266c-18.038-15.439-31.25-36.557-36.637-59.728
		c-5.426-0.707-8.786,4.426-11.706,8.133c-3.266-0.973-6.506-2.373-9.932-2.413C530.562,1515.526,529.922,1519.726,528.256,1522.139
		z"/>
	<path d="M1528.435,1099.448c0.8,5.626-0.213,12.719,5.146,16.385c2.586-6.533,4.346-13.505,8.359-19.385
		c11.576-15.479,42.163-54.831,43.863-73.873c-4.52,3.293-6.639,8.679-10.266,12.785c-15.439,18.038-36.557,31.25-59.728,36.637
		c-0.707,5.426,4.426,8.786,8.133,11.706c-0.973,3.266-2.373,6.506-2.413,9.932
		C1521.822,1097.142,1526.022,1097.782,1528.435,1099.448z"/>
	<path d="M1528.435,521.96c0.8-5.626-0.213-12.719,5.146-16.385c2.586,6.533,4.346,13.505,8.359,19.385
		c11.576,15.479,42.163,54.831,43.863,73.873c-4.52-3.293-6.639-8.679-10.266-12.785c-15.439-18.038-36.557-31.25-59.728-36.637
		c-0.707-5.426,4.426-8.786,8.133-11.706c-0.973-3.266-2.373-6.506-2.413-9.932C1521.822,524.267,1526.022,523.626,1528.435,521.96z
		"/>
	<path d="M528.256,99.269c-5.626-0.8-12.719,0.213-16.385-5.146c6.533-2.586,13.505-4.346,19.385-8.359
		c15.479-11.576,54.831-42.163,73.873-43.863c-3.293,4.52-8.679,6.639-12.785,10.266c-18.038,15.439-31.25,36.557-36.637,59.728
		c-5.426,0.707-8.786-4.426-11.706-8.133c-3.266,0.973-6.506,2.373-9.932,2.413C530.562,105.882,529.922,101.682,528.256,99.269z"/>
	<path d="M105.565,1099.448c-0.8,5.626,0.213,12.719-5.146,16.385c-2.586-6.533-4.346-13.505-8.359-19.385
		c-11.576-15.479-42.163-54.831-43.863-73.873c4.52,3.293,6.639,8.679,10.266,12.785c15.439,18.038,36.557,31.25,59.728,36.637
		c0.707,5.426-4.426,8.786-8.133,11.706c0.973,3.266,2.373,6.506,2.413,9.932C112.178,1097.142,107.978,1097.782,105.565,1099.448z"
		/>
	<path d="M1105.744,1522.139c5.626,0.8,12.719-0.213,16.385,5.146c-6.533,2.586-13.505,4.346-19.385,8.359
		c-15.479,11.576-54.831,42.163-73.873,43.863c3.293-4.52,8.679-6.639,12.785-10.266c18.038-15.439,31.25-36.557,36.636-59.728
		c5.426-0.707,8.786,4.426,11.706,8.133c3.266-0.973,6.506-2.373,9.932-2.413
		C1103.438,1515.526,1104.078,1519.726,1105.744,1522.139z"/>
	<path d="M1090.719,127.107c-2.253,0.773-4.48,1.707-6.613,2.813c1.146,16.638,1.68,33.624-2.08,49.982
		c-4.386,15.265-10.532,31.65-24.184,40.983c-3.84,3.04-8.946,2.653-13.559,3.173c0.293,7.306,6.786,12.879,13.492,14.545
		c6.893,1.24,14.372-0.067,20.145-4.093C1108.412,214.559,1097.692,142.457,1090.719,127.107z"/>
	<path d="M133.402,536.985c0.773,2.253,1.707,4.48,2.813,6.613c16.638-1.147,33.624-1.68,49.982,2.08
		c15.265,4.386,31.65,10.532,40.983,24.184c3.04,3.84,2.653,8.946,3.173,13.559c7.306-0.293,12.879-6.786,14.545-13.492
		c1.24-6.893-0.067-14.372-4.093-20.145C220.854,519.292,148.753,530.013,133.402,536.985z"/>
	<path d="M543.281,1494.302c2.253-0.773,4.48-1.706,6.613-2.813c-1.147-16.639-1.68-33.624,2.08-49.982
		c4.386-15.265,10.532-31.65,24.184-40.983c3.84-3.04,8.946-2.653,13.559-3.173c-0.293-7.306-6.786-12.879-13.492-14.545
		c-6.893-1.24-14.372,0.067-20.145,4.093C525.588,1406.85,536.308,1478.951,543.281,1494.302z"/>
	<path d="M1500.598,1084.423c-0.773-2.253-1.707-4.48-2.813-6.613c-16.638,1.146-33.623,1.68-49.982-2.08
		c-15.265-4.386-31.65-10.532-40.983-24.184c-3.04-3.84-2.653-8.946-3.173-13.559c-7.306,0.293-12.879,6.786-14.545,13.492
		c-1.24,6.893,0.067,14.372,4.093,20.145C1413.146,1102.116,1485.247,1091.396,1500.598,1084.423z"/>
	<path d="M1500.598,536.985c-0.773,2.253-1.707,4.48-2.813,6.613c-16.638-1.147-33.623-1.68-49.982,2.08
		c-15.265,4.386-31.65,10.532-40.983,24.184c-3.04,3.84-2.653,8.946-3.173,13.559c-7.306-0.293-12.879-6.786-14.545-13.492
		c-1.24-6.893,0.067-14.372,4.093-20.145C1413.146,519.292,1485.247,530.013,1500.598,536.985z"/>
	<path d="M543.281,127.107c2.253,0.773,4.48,1.707,6.613,2.813c-1.147,16.638-1.68,33.624,2.08,49.982
		c4.386,15.265,10.532,31.65,24.184,40.983c3.84,3.04,8.946,2.653,13.559,3.173c-0.293,7.306-6.786,12.879-13.492,14.545
		c-6.893,1.24-14.372-0.067-20.145-4.093C525.588,214.559,536.308,142.457,543.281,127.107z"/>
	<path d="M133.402,1084.423c0.773-2.253,1.707-4.48,2.813-6.613c16.638,1.146,33.624,1.68,49.982-2.08
		c15.265-4.386,31.65-10.532,40.983-24.184c3.04-3.84,2.653-8.946,3.173-13.559c7.306,0.293,12.879,6.786,14.545,13.492
		c1.24,6.893-0.067,14.372-4.093,20.145C220.854,1102.116,148.753,1091.396,133.402,1084.423z"/>
	<path d="M1090.719,1494.302c-2.253-0.773-4.48-1.706-6.613-2.813c1.146-16.639,1.68-33.624-2.08-49.982
		c-4.386-15.265-10.532-31.65-24.184-40.983c-3.84-3.04-8.946-2.653-13.559-3.173c0.293-7.306,6.786-12.879,13.492-14.545
		c6.893-1.24,14.372,0.067,20.145,4.093C1108.412,1406.85,1097.692,1478.951,1090.719,1494.302z"/>
	<path d="M1065.961,109.295c-14.723-44.169-50.912-70.738-80.939-75.166c-33.941-8.16-73.085,1.876-98.657,22.638
		c2.413,5.36,7.413,8.813,11.359,12.959c16.128-7.511,53.277-36.757,109.443-7.013c25.718,15.172,41.569,44.223,43.343,73.673
		c1.36,16.505-5.253,32.437-13.825,46.169c-14.994,23.377-48.894,39.522-77.833,28.384c-58.683-17.916-57.43-89.103-10.772-105.123
		c24.053-7.06,55.967,11.066,47.076,41.836c-3.573,10.919-16.825,16.305-27.371,12.879c-5.773-2.88-10.746-9.039-10.066-15.785
		c1.293-3.36,3.733-6.133,5.173-9.426c-3.613,0-7.599,0.307-10.279,3.08c-12.013,11.713-3.65,37.379,20.425,40.036
		c20.665,1.333,40.769-16.998,40.21-37.956c-0.333-10.066-1.747-20.865-8.226-28.997c-5.4-6.586-11.892-12.372-19.252-16.705
		c-19.971-11.146-45.969-7.146-63.847,6.266c-36.569,30.018-30.977,85.227,2.173,111.336c18.572,14.519,43.129,22.505,66.66,18.772
		C1047.566,223.774,1083.727,161.986,1065.961,109.295z"/>
	<path d="M115.591,561.743c-44.169,14.723-70.738,50.912-75.166,80.939c-8.16,33.941,1.876,73.085,22.638,98.657
		c5.36-2.413,8.813-7.413,12.959-11.359c-7.511-16.128-36.757-53.277-7.013-109.443c15.172-25.718,44.223-41.57,73.673-43.343
		c16.505-1.36,32.437,5.253,46.169,13.825c23.377,14.994,39.522,48.894,28.384,77.833c-17.916,58.683-89.103,57.43-105.123,10.772
		c-7.06-24.053,11.066-55.967,41.836-47.076c10.919,3.573,16.305,16.825,12.879,27.371c-2.88,5.773-9.039,10.746-15.785,10.066
		c-3.36-1.293-6.133-3.733-9.426-5.173c0,3.613,0.307,7.599,3.08,10.279c11.713,12.013,37.379,3.65,40.036-20.425
		c1.333-20.665-16.998-40.769-37.956-40.21c-10.066,0.333-20.865,1.747-28.997,8.226c-6.586,5.4-12.372,11.892-16.705,19.252
		c-11.146,19.971-7.146,45.969,6.266,63.847c30.018,36.569,85.227,30.977,111.336-2.173c14.519-18.571,22.505-43.129,18.772-66.66
		C230.07,580.138,168.282,543.977,115.591,561.743z"/>
	<path d="M568.039,1512.113c14.723,44.169,50.912,70.738,80.939,75.166c33.941,8.16,73.085-1.876,98.657-22.638
		c-2.413-5.359-7.413-8.813-11.359-12.959c-16.128,7.511-53.277,36.757-109.443,7.013c-25.718-15.172-41.57-44.223-43.343-73.673
		c-1.36-16.505,5.253-32.437,13.825-46.169c14.994-23.377,48.894-39.522,77.833-28.384c58.683,17.916,57.43,89.103,10.772,105.124
		c-24.053,7.06-55.967-11.066-47.076-41.836c3.573-10.919,16.825-16.305,27.371-12.879c5.773,2.88,10.746,9.039,10.066,15.785
		c-1.293,3.36-3.733,6.133-5.173,9.426c3.613,0,7.599-0.307,10.279-3.08c12.013-11.713,3.65-37.379-20.425-40.036
		c-20.665-1.333-40.769,16.998-40.21,37.956c0.333,10.066,1.747,20.865,8.226,28.997c5.4,6.586,11.892,12.372,19.252,16.705
		c19.971,11.146,45.969,7.146,63.847-6.266c36.569-30.018,30.977-85.227-2.173-111.336c-18.572-14.519-43.129-22.505-66.66-18.772
		C586.434,1397.634,550.273,1459.422,568.039,1512.113z"/>
	<path d="M1518.409,1059.665c44.169-14.723,70.738-50.912,75.166-80.939c8.16-33.941-1.876-73.085-22.638-98.657
		c-5.359,2.413-8.813,7.413-12.959,11.359c7.511,16.128,36.757,53.277,7.013,109.443c-15.172,25.718-44.223,41.57-73.673,43.343
		c-16.505,1.36-32.437-5.253-46.169-13.825c-23.377-14.994-39.522-48.894-28.384-77.833c17.916-58.683,89.103-57.43,105.124-10.772
		c7.06,24.053-11.066,55.967-41.836,47.076c-10.919-3.573-16.305-16.825-12.879-27.371c2.88-5.773,9.039-10.746,15.785-10.066
		c3.36,1.293,6.133,3.733,9.426,5.173c0-3.613-0.307-7.599-3.08-10.279c-11.713-12.013-37.379-3.65-40.036,20.425
		c-1.333,20.665,16.998,40.769,37.956,40.21c10.066-0.333,20.865-1.747,28.997-8.226c6.586-5.4,12.372-11.892,16.705-19.252
		c11.146-19.971,7.146-45.969-6.266-63.847c-30.018-36.569-85.227-30.977-111.336,2.173c-14.519,18.572-22.505,43.129-18.772,66.66
		C1403.93,1041.27,1465.718,1077.431,1518.409,1059.665z"/>
	<path d="M1518.409,561.743c44.169,14.723,70.738,50.912,75.166,80.939c8.16,33.941-1.876,73.085-22.638,98.657
		c-5.359-2.413-8.813-7.413-12.959-11.359c7.511-16.128,36.757-53.277,7.013-109.443c-15.172-25.718-44.223-41.57-73.673-43.343
		c-16.505-1.36-32.437,5.253-46.169,13.825c-23.377,14.994-39.522,48.894-28.384,77.833c17.916,58.683,89.103,57.43,105.124,10.772
		c7.06-24.053-11.066-55.967-41.836-47.076c-10.919,3.573-16.305,16.825-12.879,27.371c2.88,5.773,9.039,10.746,15.785,10.066
		c3.36-1.293,6.133-3.733,9.426-5.173c0,3.613-0.307,7.599-3.08,10.279c-11.713,12.013-37.379,3.65-40.036-20.425
		c-1.333-20.665,16.998-40.769,37.956-40.21c10.066,0.333,20.865,1.747,28.997,8.226c6.586,5.4,12.372,11.892,16.705,19.252
		c11.146,19.971,7.146,45.969-6.266,63.847c-30.018,36.569-85.227,30.977-111.336-2.173c-14.519-18.571-22.505-43.129-18.772-66.66
		C1403.93,580.138,1465.718,543.977,1518.409,561.743z"/>
	<path d="M568.039,109.295c14.723-44.169,50.912-70.738,80.939-75.166c33.941-8.16,73.085,1.876,98.657,22.638
		c-2.413,5.36-7.413,8.813-11.359,12.959C720.149,62.214,683,32.968,626.833,62.713c-25.718,15.172-41.57,44.223-43.343,73.673
		c-1.36,16.505,5.253,32.437,13.825,46.169c14.994,23.377,48.894,39.522,77.833,28.384c58.683-17.916,57.43-89.103,10.772-105.123
		c-24.053-7.06-55.967,11.066-47.076,41.836c3.573,10.919,16.825,16.305,27.371,12.879c5.773-2.88,10.746-9.039,10.066-15.785
		c-1.293-3.36-3.733-6.133-5.173-9.426c3.613,0,7.599,0.307,10.279,3.08c12.013,11.713,3.65,37.379-20.425,40.036
		c-20.665,1.333-40.769-16.998-40.21-37.956c0.333-10.066,1.747-20.865,8.226-28.997c5.4-6.586,11.892-12.372,19.252-16.705
		c19.971-11.146,45.969-7.146,63.847,6.266c36.569,30.018,30.977,85.227-2.173,111.336c-18.572,14.519-43.129,22.505-66.66,18.772
		C586.434,223.774,550.273,161.986,568.039,109.295z"/>
	<path d="M115.591,1059.665c-44.169-14.723-70.738-50.912-75.166-80.939c-8.16-33.941,1.876-73.085,22.638-98.657
		c5.36,2.413,8.813,7.413,12.959,11.359c-7.511,16.128-36.757,53.277-7.013,109.443c15.172,25.718,44.223,41.57,73.673,43.343
		c16.505,1.36,32.437-5.253,46.169-13.825c23.377-14.994,39.522-48.894,28.384-77.833c-17.916-58.683-89.103-57.43-105.123-10.772
		c-7.06,24.053,11.066,55.967,41.836,47.076c10.919-3.573,16.305-16.825,12.879-27.371c-2.88-5.773-9.039-10.746-15.785-10.066
		c-3.36,1.293-6.133,3.733-9.426,5.173c0-3.613,0.307-7.599,3.08-10.279c11.713-12.013,37.379-3.65,40.036,20.425
		c1.333,20.665-16.998,40.769-37.956,40.21c-10.066-0.333-20.865-1.747-28.997-8.226c-6.586-5.4-12.372-11.892-16.705-19.252
		c-11.146-19.971-7.146-45.969,6.266-63.847c30.018-36.569,85.227-30.977,111.336,2.173c14.519,18.572,22.505,43.129,18.772,66.66
		C230.07,1041.27,168.282,1077.431,115.591,1059.665z"/>
	<path d="M1065.961,1512.113c-14.723,44.169-50.912,70.738-80.939,75.166c-33.941,8.16-73.085-1.876-98.657-22.638
		c2.413-5.359,7.413-8.813,11.359-12.959c16.128,7.511,53.277,36.757,109.443,7.013c25.718-15.172,41.569-44.223,43.343-73.673
		c1.36-16.505-5.253-32.437-13.825-46.169c-14.994-23.377-48.894-39.522-77.833-28.384c-58.683,17.916-57.43,89.103-10.772,105.124
		c24.053,7.06,55.967-11.066,47.076-41.836c-3.573-10.919-16.825-16.305-27.371-12.879c-5.773,2.88-10.746,9.039-10.066,15.785
		c1.293,3.36,3.733,6.133,5.173,9.426c-3.613,0-7.599-0.307-10.279-3.08c-12.013-11.713-3.65-37.379,20.425-40.036
		c20.665-1.333,40.769,16.998,40.21,37.956c-0.333,10.066-1.747,20.865-8.226,28.997c-5.4,6.586-11.892,12.372-19.252,16.705
		c-19.971,11.146-45.969,7.146-63.847-6.266c-36.569-30.018-30.977-85.227,2.173-111.336c18.572-14.519,43.129-22.505,66.66-18.772
		C1047.566,1397.634,1083.727,1459.422,1065.961,1512.113z"/>
	<path d="M894.697,88.537c1.88-1.986,5.533-5.306,2.533-7.919c-31.336-32.898-41.055-40.103-53.342-53.315
		c-5.746-5.506-10.892-11.652-17.145-16.598c-3.64,2.64-7.133,5.586-9.506,9.479c12.635,11.967,71.367,71.687,71.367,71.687
		C891.191,92.736,892.951,89.923,894.697,88.537z"/>
	<path d="M94.833,733.007c-1.986-1.88-5.306-5.533-7.919-2.533c-32.898,31.336-40.103,41.055-53.315,53.342
		c-5.506,5.746-11.652,10.892-16.598,17.145c2.64,3.64,5.586,7.133,9.479,9.506C38.446,797.832,98.166,739.1,98.166,739.1
		C99.032,736.513,96.219,734.754,94.833,733.007z"/>
	<path d="M739.303,1532.871c-1.88,1.987-5.533,5.306-2.533,7.919c31.336,32.898,41.055,40.103,53.342,53.315
		c5.746,5.506,10.892,11.652,17.145,16.598c3.64-2.64,7.133-5.586,9.506-9.479c-12.635-11.967-71.367-71.687-71.367-71.687
		C742.809,1528.672,741.049,1531.485,739.303,1532.871z"/>
	<path d="M1539.167,888.401c1.987,1.88,5.306,5.533,7.919,2.533c32.898-31.336,40.103-41.055,53.315-53.342
		c5.506-5.746,11.652-10.892,16.599-17.145c-2.64-3.64-5.586-7.133-9.479-9.506c-11.967,12.635-71.687,71.367-71.687,71.367
		C1534.968,884.895,1537.781,886.655,1539.167,888.401z"/>
	<path d="M1539.167,733.007c1.987-1.88,5.306-5.533,7.919-2.533c32.898,31.336,40.103,41.055,53.315,53.342
		c5.506,5.746,11.652,10.892,16.599,17.145c-2.64,3.64-5.586,7.133-9.479,9.506c-11.967-12.635-71.687-71.367-71.687-71.367
		C1534.968,736.513,1537.781,734.754,1539.167,733.007z"/>
	<path d="M739.303,88.537c-1.88-1.986-5.533-5.306-2.533-7.919c31.336-32.898,41.055-40.103,53.342-53.315
		c5.746-5.506,10.892-11.652,17.145-16.598c3.64,2.64,7.133,5.586,9.506,9.479c-12.635,11.967-71.367,71.687-71.367,71.687
		C742.809,92.736,741.049,89.923,739.303,88.537z"/>
	<path d="M94.833,888.401c-1.986,1.88-5.306,5.533-7.919,2.533c-32.898-31.336-40.103-41.055-53.315-53.342
		C28.092,831.846,21.946,826.7,17,820.448c2.64-3.64,5.586-7.133,9.479-9.506c11.967,12.635,71.687,71.367,71.687,71.367
		C99.032,884.895,96.219,886.655,94.833,888.401z"/>
	<path d="M894.697,1532.871c1.88,1.987,5.533,5.306,2.533,7.919c-31.336,32.898-41.055,40.103-53.342,53.315
		c-5.746,5.506-10.892,11.652-17.145,16.598c-3.64-2.64-7.133-5.586-9.506-9.479c12.635-11.967,71.367-71.687,71.367-71.687
		C891.191,1528.672,892.951,1531.485,894.697,1532.871z"/>
	<path d="M817,73.744c8.476-5.325,16.832-10.857,25.489-15.818c3.4,2.893,6.453,6.159,9.253,9.612
		c-7.746,13.239-16.518,25.864-24.024,39.25c-4.44,7.344-7.307,15.443-10.717,23.281c-3.41-7.838-6.277-15.937-10.717-23.281
		c-7.506-13.385-16.278-26.011-24.024-39.25c2.8-3.453,5.853-6.719,9.253-9.612C800.168,62.887,808.524,68.419,817,73.744z"/>
	<path d="M1553.96,810.704c5.325,8.476,10.857,16.832,15.818,25.489c-2.893,3.4-6.159,6.453-9.612,9.253
		c-13.239-7.746-25.864-16.518-39.25-24.024c-7.344-4.44-15.443-7.307-23.281-10.717c7.838-3.41,15.937-6.277,23.281-10.717
		c13.385-7.506,26.011-16.278,39.25-24.024c3.453,2.8,6.719,5.853,9.612,9.253C1564.817,793.872,1559.285,802.228,1553.96,810.704z"
		/>
	<path d="M817,1547.664c-8.476,5.325-16.832,10.857-25.489,15.818c-3.4-2.893-6.453-6.159-9.253-9.612
		c7.746-13.239,16.518-25.864,24.024-39.25c4.44-7.344,7.307-15.443,10.717-23.281c3.41,7.838,6.277,15.937,10.717,23.281
		c7.506,13.385,16.278,26.011,24.024,39.25c-2.8,3.453-5.853,6.719-9.253,9.612C833.832,1558.521,825.476,1552.989,817,1547.664z"/>
	<path d="M80.04,810.704c-5.325-8.476-10.857-16.832-15.818-25.489c2.893-3.4,6.159-6.453,9.612-9.253
		c13.239,7.746,25.864,16.518,39.25,24.024c7.344,4.44,15.443,7.307,23.281,10.717c-7.838,3.41-15.937,6.277-23.281,10.717
		c-13.385,7.506-26.011,16.278-39.25,24.024c-3.453-2.8-6.719-5.853-9.612-9.253C69.183,827.536,74.715,819.18,80.04,810.704z"/>
	<path d="M817,55.151c4.595-2.844,8.985-6.02,13.116-9.544c-3.84-4.613-8.372-8.573-12.905-12.466
		c-0.07,0.039-0.141,0.077-0.211,0.116c-0.07-0.039-0.141-0.078-0.211-0.116c-4.533,3.893-9.066,7.853-12.905,12.466
		C808.015,49.131,812.405,52.307,817,55.151z"/>
	<path d="M1572.553,810.704c2.844,4.595,6.02,8.985,9.544,13.116c4.613-3.84,8.573-8.372,12.466-12.905
		c-0.039-0.07-0.077-0.141-0.116-0.211c0.039-0.07,0.078-0.141,0.116-0.211c-3.893-4.533-7.853-9.066-12.466-12.905
		C1578.573,801.719,1575.397,806.11,1572.553,810.704z"/>
	<path d="M817,1566.257c-4.595,2.844-8.985,6.02-13.116,9.544c3.84,4.613,8.372,8.573,12.905,12.466
		c0.07-0.039,0.141-0.077,0.211-0.116c0.07,0.039,0.141,0.078,0.211,0.116c4.533-3.893,9.066-7.853,12.905-12.466
		C825.985,1572.277,821.595,1569.101,817,1566.257z"/>
	<path d="M61.447,810.704c-2.844-4.595-6.02-8.985-9.544-13.116c-4.613,3.84-8.573,8.372-12.466,12.905
		c0.039,0.07,0.077,0.141,0.116,0.211c-0.039,0.07-0.078,0.141-0.116,0.211c3.893,4.533,7.853,9.066,12.466,12.905
		C55.427,819.689,58.603,815.299,61.447,810.704z"/>
</g>
</svg>
