<?xml version="1.0" encoding="utf-8"?>
<!-- Generator: Adobe Illustrator 24.2.1, SVG Export Plug-In . SVG Version: 6.00 Build 0)  -->
<svg version="1.1" id="Layer_1" xmlns="http://www.w3.org/2000/svg" xmlns:xlink="http://www.w3.org/1999/xlink" x="0px" y="0px"
	 viewBox="0 0 1648 1636.8" style="enable-background:new 0 0 1648 1636.8;" xml:space="preserve">
<style type="text/css">
	.st0{fill:#FFFFFF;}
</style>
<g>
	<path class="st0" d="M18.5,818.4c138.4,138.3,308.6,307.7,309.6,308.7c23.6,23.1,81.8,88.8,163.1,116.1
		c69.7,20.3,132.9,14.6,197.2-25.3c73-47.5,94.1-137.1,93.4-156.5c-10.2-1.1-20.4-0.6-30.5,0.7c-3.8,11-4.1,22.9-8.3,33.8
		c-6.6,17.7-14.4,35.1-25.5,50.5c-35.8,44.8-81.1,69-124.6,72.8c-18.4,1.5-37.1,2.9-55.4-0.3c-48.9-7.9-93.6-33.2-130.1-66
		C389.6,1135.8,222,969.5,70.4,818.4C222,667.3,389.6,501.1,407.3,483.9c36.5-32.7,81.2-58.1,130.1-66c18.3-3.2,37-1.8,55.4-0.3
		c43.5,3.8,88.8,28.1,124.6,72.8c11.1,15.3,18.9,32.8,25.5,50.5c4.1,10.9,4.5,22.8,8.3,33.8c10.1,1.3,20.3,1.8,30.5,0.7
		c0.8-19.5-20.4-109.1-93.4-156.5c-64.3-39.9-127.5-45.7-197.2-25.3c-81.3,27.4-139.5,93.1-163.1,116.1
		C327.1,510.7,156.9,680.1,18.5,818.4z"/>
	<path class="st0" d="M1577.1,818.4c-169.4,168.8-324.7,323.4-336.2,334.5c-36.5,32.7-81.2,58.1-130.1,66c-18.3,3.2-37,1.8-55.4,0.3
		c-43.5-3.8-88.8-28.1-124.6-72.8c-11.1-15.3-18.9-32.8-25.5-50.5c-4.1-10.9-4.5-22.8-8.3-33.8c-10.1-1.3-20.3-1.8-30.5-0.7
		c-0.8,19.5,20.4,109.1,93.4,156.5c64.3,39.9,127.5,45.7,197.2,25.3c81.3-27.4,139.5-93.1,163.1-116.1
		c0.6-0.6,148.2-147.9,309.2-308.7c-161-160.8-308.6-308.1-309.2-308.7c-23.6-23.1-81.8-88.8-163.1-116.1
		c-69.7-20.3-132.9-14.6-197.2,25.3c-73,47.5-94.1,137.1-93.4,156.5c10.2,1.1,20.4,0.6,30.5-0.7c3.8-11,4.1-22.9,8.3-33.8
		c6.6-17.7,14.4-35.1,25.5-50.5c35.8-44.8,81.1-69,124.6-72.8c18.4-1.5,37.1-2.9,55.4,0.3c48.9,7.9,93.6,33.2,130.1,66
		C1252.5,495,1407.8,649.6,1577.1,818.4z"/>
	<path class="st0" d="M807.6,1009.2c5.5,0.2,11,0.2,16.5-0.2c5.5,0.3,11,0.3,16.5,0.2c3.3-10,1-20.6,1.7-30.9
		c1.5-21.9,5.1-44.6,10.1-66.6c-9.3,2.1-18.8,4-28.3,5.5c-9.5-1.6-18.9-3.4-28.3-5.5c5,22,8.6,44.7,10.1,66.6
		C806.7,988.5,804.3,999.1,807.6,1009.2z"/>
	<path class="st0" d="M807.6,627.7c5.5-0.2,11-0.2,16.5,0.2c5.5-0.3,11-0.3,16.5-0.2c3.3,10,1,20.6,1.7,30.9
		c1.5,21.9,5.1,44.6,10.1,66.6c-9.3-2.1-18.8-4-28.3-5.5c-9.5,1.6-18.9,3.4-28.3,5.5c5-22,8.6-44.7,10.1-66.6
		C806.7,648.3,804.3,637.7,807.6,627.7z"/>
	<path class="st0" d="M151.6,818.4c9.4,13.1,25.7,22.4,44,22.1c30.6-0.7,86.4-12,147.1-22.1C282,808.2,226.2,797,195.6,796.3
		C177.3,796,160.9,805.3,151.6,818.4z"/>
	<path class="st0" d="M1305.6,818.4c60.6,10.2,116.4,21.4,147.1,22.1c18.4,0.3,34.7-9.1,44-22.1c-9.4-13.1-25.7-22.4-44-22.1
		C1422,797,1366.3,808.2,1305.6,818.4z"/>
	<path class="st0" d="M405.8,818.4c-5.4,1.1-10.9,2.3-16.4,3.2c-69,10.9-74.2,15.8-109.7,24.7c-16.7,5.5-36,8.4-48,22.7
		c-10.8,13.4-0.1,35.7,16.4,37.8c20.5,1.5,39.3-19.6,76.1-37.9c41-23.6,97.8-35.2,114.8-42.8c-0.5-2.2-1-5.4-2.2-7.8
		c1.1-2.4,1.6-5.5,2.2-7.8c-17-7.6-73.8-19.1-114.8-42.8c-36.9-18.3-55.7-39.4-76.1-37.9c-16.5,2.1-27.2,24.4-16.4,37.8
		c11.9,14.3,31.2,17.3,48,22.7c35.5,8.9,40.7,13.8,109.7,24.7C394.9,816.1,400.4,817.3,405.8,818.4z"/>
	<path class="st0" d="M1211.3,818.4c-1.1,2.4-1.6,5.5-2.2,7.8c17,7.6,73.8,19.1,114.8,42.8c36.9,18.3,55.7,39.4,76.1,37.9
		c16.5-2.1,27.2-24.4,16.4-37.8c-11.9-14.3-31.2-17.3-48-22.7c-35.5-8.9-40.7-13.8-109.7-24.7c-5.5-0.9-10.9-2-16.4-3.2
		c5.4-1.1,10.9-2.3,16.4-3.2c69-10.9,74.2-15.8,109.7-24.7c16.7-5.5,36-8.4,48-22.7c10.8-13.4,0.1-35.7-16.4-37.8
		c-20.5-1.5-39.3,19.6-76.1,37.9c-41,23.6-97.8,35.2-114.8,42.8C1209.7,812.9,1210.2,816,1211.3,818.4z"/>
	<path class="st0" d="M447.5,818.4c5.1,11.8,11.6,24,19.5,35.6c4.7-0.5,8.5-3.2,11.1-7c-5.2-9.4-10.6-18.8-15.3-28.6
		c4.7-9.7,10.1-19.2,15.3-28.6c-2.6-3.9-6.4-6.5-11.1-7C459.1,794.4,452.6,806.6,447.5,818.4z"/>
	<path class="st0" d="M1185.4,818.4c-4.7,9.7-10.1,19.2-15.3,28.6c2.6,3.9,6.4,6.5,11.1,7c7.9-11.6,14.4-23.9,19.5-35.6
		c-5.1-11.8-11.6-24-19.5-35.6c-4.7,0.5-8.5,3.2-11.1,7C1175.4,799.2,1180.7,808.7,1185.4,818.4z"/>
	<path class="st0" d="M319.1,969.9c1-11.5-1.6-24.1,5.3-34.4c29.5-47.7,97.1-78.6,123.2-92c-0.4-3.3-1.6-6.4-3.6-9
		c-31.8,8.4-62.7,20.6-92.6,34.4c-21.2,10.2-42.5,22-57.4,40.7C275.5,933.8,288.8,970.9,319.1,969.9z"/>
	<path class="st0" d="M319.1,666.9c1,11.5-1.6,24.1,5.3,34.4c29.5,47.7,97.1,78.6,123.2,92c-0.4,3.3-1.6,6.4-3.6,9
		c-31.8-8.4-62.7-20.6-92.6-34.4c-21.2-10.2-42.5-22-57.4-40.7C275.5,703,288.8,665.9,319.1,666.9z"/>
	<path class="st0" d="M1354.4,909.7c-14.9-18.8-36.2-30.5-57.4-40.7c-29.9-13.8-60.7-25.9-92.6-34.4c-2,2.6-3.2,5.6-3.6,9
		c26,13.4,93.6,44.2,123.2,92c6.9,10.2,4.3,22.8,5.3,34.4C1359.5,970.9,1372.8,933.8,1354.4,909.7z"/>
	<path class="st0" d="M1354.4,727.1c-14.9,18.8-36.2,30.5-57.4,40.7c-29.9,13.8-60.7,25.9-92.6,34.4c-2-2.6-3.2-5.6-3.6-9
		c26-13.4,93.6-44.2,123.2-92c6.9-10.2,4.3-22.8,5.3-34.4C1359.5,665.9,1372.8,703,1354.4,727.1z"/>
	<path class="st0" d="M478.5,818.4c1.6,0.8,3.3,1.6,4.9,2.5c-0.9,7.9-3.1,18,4.3,23.6c22-13.7,46.8-22.5,72.4-26.1
		c-25.6-3.7-50.5-12.4-72.4-26.1c-7.3,5.6-5.2,15.7-4.3,23.6C481.7,816.8,480.1,817.6,478.5,818.4z"/>
	<path class="st0" d="M1088.3,818.4c25.6,3.7,50.5,12.4,72.4,26.1c7.3-5.6,5.2-15.7,4.3-23.6c1.6-0.9,3.2-1.7,4.9-2.5
		c-1.6-0.8-3.3-1.6-4.9-2.5c0.9-7.9,3.1-18-4.3-23.6C1138.7,806,1113.9,814.7,1088.3,818.4z"/>
	<path class="st0" d="M341.9,991.1c2.1,11.7,9.4,22.1,19.1,28.9c10,6,24.4,7.1,33.4-1.3c-4.9-6.1-11.4-11.7-12.4-19.9
		c-5.1-27.4,7.1-54.2,20-77.7c15-24,35.9-43.6,57.1-62c-1.2-3.9-2.8-7.6-4.5-11.2C428,857.8,329.3,931,341.9,991.1z"/>
	<path class="st0" d="M341.9,645.7c2.1-11.7,9.4-22.1,19.1-28.9c10-6,24.4-7.1,33.4,1.3c-4.9,6.1-11.4,11.7-12.4,19.9
		c-5.1,27.4,7.1,54.2,20,77.7c15,24,35.9,43.6,57.1,62c-1.2,3.9-2.8,7.6-4.5,11.2C428,779,329.3,705.8,341.9,645.7z"/>
	<path class="st0" d="M1287.3,1020c9.7-6.7,17-17.2,19.1-28.9c12.6-60.1-86.1-133.3-112.7-143.3c-1.8,3.6-3.3,7.4-4.5,11.2
		c21.2,18.5,42.1,38.1,57.1,62c13,23.4,25.2,50.3,20,77.7c-1,8.2-7.5,13.8-12.4,19.9C1262.9,1027.1,1277.3,1026,1287.3,1020z"/>
	<path class="st0" d="M1287.3,616.8c9.7,6.7,17,17.2,19.1,28.9c12.6,60.1-86.1,133.3-112.7,143.3c-1.8-3.6-3.3-7.4-4.5-11.2
		c21.2-18.5,42.1-38.1,57.1-62c13-23.4,25.2-50.3,20-77.7c-1-8.2-7.5-13.8-12.4-19.9C1262.9,609.7,1277.3,610.8,1287.3,616.8z"/>
	<path class="st0" d="M449.8,1091c23.6,32.5,62.4,52.2,101.8,57.1c70.6,8.4,143.1-50.7,135.3-130.1c-5.3-37.3-31.5-73-68.6-83.6
		c-13.9-3.6-28.6-4.4-42.9-3c-17.4,2-32,13.2-44.4,24.8c-25.6,24.3-23.5,70.1,2.7,93.2c31.9,25.5,72.4,4.9,72.1-23.4
		c0.1-6.5-4.3-11.6-8.6-15.9c-2.2,5.6-2.6,11.9-5.1,17.4c-7.2,8.8-20.5,10.3-30.8,6.8c-16.7-8.5-26-30.7-17.3-48
		c26.1-47.3,85.7-30.8,106,6.2c36.5,74.7-46.8,161-138.1,112.4c-47.8-21.2-68.9-80.9-58.9-126.6c6.1-26.6,17.3-53.5,38.5-71.5
		c37.2-33,90.7-48.7,139.5-36.1c102.4,31.5,111.8,110.6,122.1,138.8c9.6-0.2,19.7,1.6,29-1.9c-5.7-55.2-40.4-113.8-90.6-144.6
		c-41.1-30.5-115.9-42-186-6.9C421.4,897.8,390.9,1014.5,449.8,1091z"/>
	<path class="st0" d="M449.8,545.8c23.6-32.5,62.4-52.2,101.8-57.1c70.6-8.4,143.1,50.7,135.3,130.1c-5.3,37.3-31.5,73-68.6,83.6
		c-13.9,3.6-28.6,4.4-42.9,3c-17.4-2-32-13.2-44.4-24.8c-25.6-24.3-23.5-70.1,2.7-93.2c31.9-25.5,72.4-4.9,72.1,23.4
		c0.1,6.5-4.3,11.6-8.6,15.9c-2.2-5.6-2.6-11.9-5.1-17.4c-7.2-8.8-20.5-10.3-30.8-6.8c-16.7,8.5-26,30.7-17.3,48
		c26.1,47.3,85.7,30.8,106-6.2c36.5-74.7-46.8-161-138.1-112.4c-47.8,21.2-68.9,80.9-58.9,126.6c6.1,26.6,17.3,53.5,38.5,71.5
		c37.2,33,90.7,48.7,139.5,36.1C733.3,734.6,742.8,655.5,753,627.3c9.6,0.2,19.7-1.6,29,1.9c-5.7,55.2-40.4,113.8-90.6,144.6
		c-41.1,30.5-115.9,42-186,6.9C421.4,739,390.9,622.3,449.8,545.8z"/>
	<path class="st0" d="M1096.7,1148.1c39.4-4.8,78.2-24.6,101.8-57.1c58.9-76.5,28.4-193.2-55.6-234.9c-70.2-35.1-145-23.6-186,6.9
		c-50.2,30.7-84.9,89.3-90.6,144.6c9.3,3.5,19.3,1.7,29,1.9c10.3-28.2,19.7-107.3,122.1-138.8c48.7-12.6,102.2,3.2,139.5,36.1
		c21.3,18,32.4,44.9,38.5,71.5c10,45.7-11.2,105.4-58.9,126.6c-91.3,48.6-174.6-37.7-138.1-112.4c20.3-37.1,79.9-53.5,106-6.2
		c8.8,17.3-0.6,39.5-17.3,48c-10.3,3.4-23.6,2-30.8-6.8c-2.5-5.5-2.9-11.8-5.1-17.4c-4.3,4.3-8.7,9.4-8.6,15.9
		c-0.4,28.3,40.2,48.9,72.1,23.4c26.2-23,28.3-68.8,2.7-93.2c-12.4-11.6-26.9-22.8-44.4-24.8c-14.3-1.4-28.9-0.6-42.9,3
		c-37.1,10.5-63.3,46.3-68.6,83.6C953.6,1097.3,1026.1,1156.5,1096.7,1148.1z"/>
	<path class="st0" d="M1096.7,488.7c39.4,4.8,78.2,24.6,101.8,57.1c58.9,76.5,28.4,193.2-55.6,234.9c-70.2,35.1-145,23.6-186-6.9
		c-50.2-30.7-84.9-89.3-90.6-144.6c9.3-3.5,19.3-1.7,29-1.9c10.3,28.2,19.7,107.3,122.1,138.8c48.7,12.6,102.2-3.2,139.5-36.1
		c21.3-18,32.4-44.9,38.5-71.5c10-45.7-11.2-105.4-58.9-126.6c-91.3-48.6-174.6,37.7-138.1,112.4c20.3,37.1,79.9,53.5,106,6.2
		c8.8-17.3-0.6-39.5-17.3-48c-10.3-3.4-23.6-2-30.8,6.8c-2.5,5.5-2.9,11.8-5.1,17.4c-4.3-4.3-8.7-9.4-8.6-15.9
		c-0.4-28.3,40.2-48.9,72.1-23.4c26.2,23,28.3,68.8,2.7,93.2c-12.4,11.6-26.9,22.8-44.4,24.8c-14.3,1.4-28.9,0.6-42.9-3
		c-37.1-10.5-63.3-46.3-68.6-83.6C953.6,539.5,1026.1,480.3,1096.7,488.7z"/>
	<path class="st0" d="M914.1,1035.5c-0.1-4.6,0.3-12.9-6.4-12.5c-40.1-1-64.8-0.6-83.5-0.2c-18.7-0.4-43.4-0.8-83.5,0.2
		c-6.7-0.5-6.3,7.8-6.4,12.5c0.4,3.7-0.8,9.2,3.3,11.2c0,0,43.1-0.4,86.6-0.5c43.5,0.2,86.6,0.5,86.6,0.5
		C914.9,1044.7,913.6,1039.2,914.1,1035.5z"/>
	<path class="st0" d="M914.1,601.3c-0.1,4.6,0.3,12.9-6.4,12.5c-40.1,1-64.8,0.6-83.5,0.2c-18.7,0.4-43.4,0.8-83.5-0.2
		c-6.7,0.5-6.3-7.8-6.4-12.5c0.4-3.7-0.8-9.2,3.3-11.2c0,0,43.1,0.4,86.6,0.5c43.5-0.2,86.6-0.5,86.6-0.5
		C914.9,592.1,913.6,597.6,914.1,601.3z"/>
	<path class="st0" d="M756.9,1210.5c-13.5,14.3-58.5,82.5-133.9,98.2c-16.2,2.9-34.6,6.2-49.3-3.2c-8.9-4.5-13.3-13.8-18.9-21.4
		c-11.9,9.2-13.3,25.1-12.3,38.9c1.1,14.2,11.3,26.3,23.2,33.3c34.5,15.8,79.9-3.4,109.5-27.2c34.7-29.2,65.5-63.6,88-103
		C767.6,1220.2,762.1,1213.6,756.9,1210.5z"/>
	<path class="st0" d="M756.9,426.3c-13.5-14.3-58.5-82.5-133.9-98.2c-16.2-2.9-34.6-6.2-49.3,3.2c-8.9,4.5-13.3,13.8-18.9,21.4
		c-11.9-9.2-13.3-25.1-12.3-38.9c1.1-14.2,11.3-26.3,23.2-33.3c34.5-15.8,79.9,3.4,109.5,27.2c34.7,29.2,65.5,63.6,88,103
		C767.6,416.6,762.1,423.2,756.9,426.3z"/>
	<path class="st0" d="M1025.2,1308.7c-75.4-15.6-120.4-83.9-133.9-98.2c-5.2,3-10.6,9.6-6.3,15.6c22.6,39.5,53.3,73.9,88,103
		c29.5,23.8,75,43,109.5,27.2c11.9-7,22.1-19.1,23.2-33.3c1-13.9-0.5-29.7-12.3-38.9c-5.6,7.6-10,16.9-18.9,21.4
		C1059.8,1315,1041.4,1311.6,1025.2,1308.7z"/>
	<path class="st0" d="M1025.2,328.1c-75.4,15.6-120.4,83.9-133.9,98.2c-5.2-3-10.6-9.6-6.3-15.6c22.6-39.5,53.3-73.9,88-103
		c29.5-23.8,75-43,109.5-27.2c11.9,7,22.1,19.1,23.2,33.3c1,13.9-0.5,29.7-12.3,38.9c-5.6-7.6-10-16.9-18.9-21.4
		C1059.8,321.8,1041.4,325.2,1025.2,328.1z"/>
	<path class="st0" d="M872.8,1182.5c-5.6-15.1-13-29.6-16.8-45.4c-7-24.9-11.6-50.4-18.1-75.4c-4.5-0.5-9.1-0.8-13.7-0.8
		c-4.6,0-9.2,0.3-13.7,0.8c-6.5,25-11.1,50.5-18.1,75.4c-3.9,15.7-11.2,30.2-16.8,45.4c7.8,5.1,17.4,1.7,26,1.5
		c1.3,13.8-2.7,29.8,20.6,53c0.7-0.7,1.4-1.4,2.1-2.1c0.7,0.7,1.4,1.4,2.1,2.1c23.2-23.2,19.2-39.3,20.6-53
		C855.5,1184.1,865,1187.6,872.8,1182.5z"/>
	<path class="st0" d="M872.8,454.4c-5.6,15.1-13,29.6-16.8,45.4c-7,24.9-11.6,50.4-18.1,75.4c-4.5,0.5-9.1,0.8-13.7,0.8
		c-4.6,0-9.2-0.3-13.7-0.8c-6.5-25-11.1-50.5-18.1-75.4c-3.9-15.7-11.2-30.2-16.8-45.4c7.8-5.1,17.4-1.7,26-1.5
		c1.3-13.8-2.7-29.8,20.6-53c0.7,0.7,1.4,1.4,2.1,2.1c0.7-0.7,1.4-1.4,2.1-2.1c23.2,23.2,19.2,39.3,20.6,53
		C855.5,452.7,865,449.2,872.8,454.4z"/>
	<path class="st0" d="M824.9,1248.9c-0.3-0.2-0.5-0.4-0.8-0.6c-0.3,0.2-0.5,0.4-0.8,0.6c-3.5-1.9-7.2-3.7-10.1-6.4
		c-16.2-14.8-29.8-32.5-39.8-52.1c-5.5-2.3-7.5,5.5-10.5,8.7c14.8,25.6,34.9,48.5,58.6,66.2c0.9-0.5,1.7-1,2.5-1.6
		c0.8,0.5,1.7,1.1,2.5,1.6c23.7-17.7,43.8-40.6,58.6-66.2c-3-3.1-5.1-11-10.5-8.7c-9.9,19.6-23.5,37.2-39.8,52.1
		C832.1,1245.3,828.5,1247.1,824.9,1248.9z"/>
	<path class="st0" d="M824.9,387.9c-0.3,0.2-0.5,0.4-0.8,0.6c-0.3-0.2-0.5-0.4-0.8-0.6c-3.5,1.9-7.2,3.7-10.1,6.4
		c-16.2,14.8-29.8,32.5-39.8,52.1c-5.5,2.3-7.5-5.5-10.5-8.7c14.8-25.6,34.9-48.5,58.6-66.2c0.9,0.5,1.7,1,2.5,1.6
		c0.8-0.5,1.7-1.1,2.5-1.6c23.7,17.7,43.8,40.6,58.6,66.2c-3,3.1-5.1,11-10.5,8.7c-9.9-19.6-23.5-37.2-39.8-52.1
		C832.1,391.5,828.5,389.7,824.9,387.9z"/>
	<path class="st0" d="M758.5,1308.8c9.1-21,18-42.1,25.7-63.6c-3.1-4.4-6.5-8.6-10.3-12.5c-9.5,11.5-15.2,25.5-23.7,37.7
		c-18.2,25.9-36.2,52.4-59.8,73.8c-27.5,23-56.6,50.3-55.5,86.1c13.5,2.7,28.5,1.9,40.5-5.4c16.9-9.8,31.5-23.5,42.3-39.7
		C734.3,1361.5,747.8,1335.7,758.5,1308.8z"/>
	<path class="st0" d="M758.5,328c9.1,21,18,42.1,25.7,63.6c-3.1,4.4-6.5,8.6-10.3,12.5c-9.5-11.5-15.2-25.5-23.7-37.7
		C732,340.5,714,314,690.4,292.6c-27.5-23-56.6-50.3-55.5-86.1c13.5-2.7,28.5-1.9,40.5,5.4c16.9,9.8,31.5,23.5,42.3,39.7
		C734.3,275.3,747.8,301.2,758.5,328z"/>
	<path class="st0" d="M957.8,1344.2c-23.5-21.4-41.6-47.9-59.8-73.8c-8.5-12.2-14.2-26.2-23.7-37.7c-3.8,3.8-7.2,8-10.3,12.5
		c7.7,21.5,16.6,42.7,25.7,63.6c10.7,26.9,24.2,52.7,40.7,76.4c10.8,16.2,25.4,29.9,42.3,39.7c12,7.4,27,8.1,40.5,5.4
		C1014.5,1394.5,985.4,1367.2,957.8,1344.2z"/>
	<path class="st0" d="M957.8,292.6c-23.5,21.5-41.6,47.9-59.8,73.8c-8.5,12.2-14.2,26.2-23.7,37.7c-3.8-3.8-7.2-8-10.3-12.5
		c7.7-21.5,16.6-42.7,25.7-63.6c10.7-26.9,24.2-52.7,40.7-76.4c10.8-16.2,25.4-29.9,42.3-39.7c12-7.4,27-8.1,40.5-5.4
		C1014.5,242.3,985.4,269.6,957.8,292.6z"/>
	<path class="st0" d="M791.4,1251.2c-7.1,25.1-12.2,65.8-35.7,121.2c-7.1,16.5-17.8,31.1-25.5,47.3c-10.2,20.8-24.3,41.4-23.5,65.5
		c0.9,8.9,1,19.2,7.9,25.9c59.2-17.9,67.4-63.5,89.3-238.9C806,1262.8,798.5,1255.9,791.4,1251.2z"/>
	<path class="st0" d="M791.4,385.6c-7.1-25.1-12.2-65.8-35.7-121.2c-7.1-16.5-17.8-31.1-25.5-47.3c-10.2-20.8-24.3-41.4-23.5-65.5
		c0.9-8.9,1-19.2,7.9-25.9c59.2,17.9,67.4,63.5,89.3,238.9C806,374,798.5,380.9,791.4,385.6z"/>
	<path class="st0" d="M918,1419.7c-7.6-16.2-18.3-30.8-25.5-47.3c-23.5-55.4-28.6-96.1-35.7-121.2c-7.1,4.7-14.6,11.6-12.5,21
		c21.9,175.4,30.1,221,89.3,238.9c6.9-6.7,7-17,7.9-25.9C942.3,1461.1,928.2,1440.5,918,1419.7z"/>
	<path class="st0" d="M918,217.1c-7.6,16.2-18.3,30.8-25.5,47.3c-23.5,55.4-28.6,96.1-35.7,121.2c-7.1-4.7-14.6-11.6-12.5-21
		c21.9-175.4,30.1-221,89.3-238.9c6.9,6.7,7,17,7.9,25.9C942.3,175.7,928.2,196.3,918,217.1z"/>
	<path class="st0" d="M849.1,1454.9c-9.4-60.8-10.7-122.4-13.8-183.7c-3.7,1-7.4,1.3-11.2,1.7c-3.8-0.3-7.5-0.7-11.2-1.7
		c-3.1,61.3-4.4,122.9-13.8,183.7c-6.9,41.6-24.8,121.3,25,163.5C873.9,1576.2,856,1496.5,849.1,1454.9z"/>
	<path class="st0" d="M849.1,181.9c-9.4,60.8-10.7,122.4-13.8,183.7c-3.7-1-7.4-1.3-11.2-1.7c-3.8,0.3-7.5,0.7-11.2,1.7
		c-3.1-61.3-4.4-122.9-13.8-183.7c-6.9-41.6-24.8-121.3,25-163.5C873.9,60.6,856,140.3,849.1,181.9z"/>
</g>
</svg>
