<?xml version="1.0" encoding="utf-8"?>

<!DOCTYPE svg PUBLIC "-//W3C//DTD SVG 1.1//EN" "http://www.w3.org/Graphics/SVG/1.1/DTD/svg11.dtd">
<svg version="1.1" id="Layer_1" xmlns="http://www.w3.org/2000/svg" xmlns:xlink="http://www.w3.org/1999/xlink" x="0px" y="0px"
	 viewBox="0 0 2618 530" enable-background="new 0 0 2618 530" xml:space="preserve">
<g>
	<path d="M2247.129,265c4.417-22.049,5.576-46.653,0.226-71.928c-15.464-66.233-51.983-110.057-109.223-141.437
		c-69.06-34.257-147.77-29.492-177.447-29.81c-1.465-0.005-310.359-0.685-490.137-0.548c-183.926-0.137-811.769,0.543-813.233,0.548
		c-29.677,0.318-108.387-4.446-177.447,29.81c-57.239,31.379-93.758,75.203-109.223,141.437c-5.35,25.275-4.191,49.879,0.226,71.928
		c-4.417,22.049-5.576,46.653-0.226,71.928c15.464,66.233,51.983,110.057,109.223,141.437c69.06,34.257,147.77,29.492,177.447,29.81
		c1.465,0.005,629.308,0.685,813.233,0.548c179.778,0.137,488.672-0.543,490.137-0.548c29.677-0.318,108.387,4.447,177.447-29.81
		c57.24-31.379,93.759-75.203,109.223-141.437C2252.705,311.653,2251.546,287.049,2247.129,265z M2220.393,272.966
		c5.693,51.195-7.716,95.389-32.92,125.481c-10.745,12.643-21.752,25.427-35.425,35.041
		c-36.051,26.054-80.584,38.333-124.593,40.757c-27.25,0.418-341.545,1.644-553.342,1.635v0c-0.875,0-1.778,0-2.668,0
		c-1.469,0-2.953,0-4.412,0v0.001c-218.675,0.009-849.232-1.217-876.487-1.636c-44.008-2.423-88.542-14.703-124.593-40.757
		c-13.673-9.614-24.68-22.398-35.425-35.041c-25.204-30.093-38.614-74.287-32.92-125.481c0.431-2.674,0.431-13.257,0-15.932
		c-5.693-51.195,7.716-95.389,32.92-125.481c10.745-12.643,21.752-25.427,35.425-35.041c36.051-26.054,80.584-38.333,124.593-40.757
		c27.255-0.418,657.812-1.645,876.487-1.636v0.001c1.459,0,2.943,0,4.412,0c0.89,0,1.793,0,2.668,0v0
		c211.797-0.009,526.092,1.217,553.342,1.635c44.008,2.423,88.542,14.703,124.593,40.757c13.673,9.614,24.68,22.398,35.425,35.041
		c25.204,30.093,38.614,74.287,32.92,125.481C2219.962,259.709,2219.962,270.291,2220.393,272.966z"/>
	<path d="M2286.274,288.659c0.487,17.67,15.295,89.614-22.701,147.496c-8.462,12.118-17.996,25.932-33.365,29.346
		c-8.503,2.807-17.188-0.323-25.609-1.616c-1.677,13.39,7.493,24.377,16.925,32.577c9.755,8.301,23.872,9.553,35.889,6.402
		c31.961-11.894,48.662-52.96,52.309-86.865c3.534-40.615,1.212-81.998-9.533-121.422
		C2299.16,288.012,2291.505,287.285,2286.274,288.659z"/>
	<path d="M2230.208,64.5c15.369,3.413,24.902,17.228,33.365,29.346c37.996,57.882,23.188,129.826,22.701,147.495
		c5.231,1.373,12.886,0.646,13.915-5.918c10.745-39.424,13.068-80.806,9.533-121.422c-3.647-33.905-20.347-74.971-52.309-86.865
		c-12.017-3.151-26.135-1.898-35.889,6.402c-9.432,8.2-18.601,19.187-16.925,32.577C2213.021,64.824,2221.706,61.693,2230.208,64.5z
		"/>
	<path d="M2342.441,273.208c-19.752,0.889-39.605-1.676-58.368-7.836c-4.948,1.979-1.292,8.301-1.171,12.178
		c25.649,6.847,52.996,8.664,79.271,4.827c1.417-5.732,2.349-11.537,2.865-17.378c-0.516-5.841-1.448-11.646-2.865-17.377
		c-26.276-3.837-53.622-2.02-79.271,4.827c-0.121,3.878-3.777,10.199,1.171,12.179c18.763-6.16,38.616-8.725,58.368-7.836
		c3.555,0.141,7.008,1.293,10.442,2.363c0.253,1.946,0.458,3.894,0.617,5.845c-0.16,1.951-0.364,3.9-0.617,5.845
		C2349.449,271.916,2345.995,273.067,2342.441,273.208z"/>
	<path d="M2349.691,350.117c-7.513-19.126-15.289-38.192-24.095-56.772c-4.787-0.848-9.634-1.333-14.46-1.373
		c1.272,13.37,6.564,25.872,8.906,39.02c4.908,28.013,10.24,56.308,8.927,84.886c-2.896,32.116-4.045,67.951,19.409,89.996
		c10.3-6.907,19.348-16.884,22.317-29.204c4.483-16.945,5.09-34.9,1.656-52.107C2367.788,398.972,2359.971,373.989,2349.691,350.117
		z"/>
	<path d="M2311.136,238.029c4.827-0.04,9.674-0.525,14.46-1.373c8.806-18.581,16.581-37.646,24.095-56.773
		c10.28-23.872,18.096-48.855,22.66-74.444c3.434-17.207,2.828-35.162-1.656-52.107c-2.969-12.32-12.017-22.297-22.317-29.204
		c-23.454,22.045-22.305,57.88-19.409,89.996c1.313,28.578-4.019,56.874-8.927,84.886
		C2317.7,212.157,2312.409,224.659,2311.136,238.029z"/>
	<path d="M2334.059,292.597c11.437,20.435,34.018,49.569,54.329,99.69c5.938,15.006,8.422,31.083,13.875,46.25
		c6.746,19.651,10.886,41.746,26.7,56.591c6.22,5.11,12.865,11.552,21.489,11.451c26.236-49.048,2.441-83.204-95.106-208.61
		C2350.661,290.678,2341.532,291.042,2334.059,292.597z"/>
	<path d="M2355.346,232.031c97.547-125.406,121.342-159.562,95.106-208.61c-8.624-0.101-15.269,6.342-21.489,11.451
		c-15.814,14.845-19.954,36.94-26.7,56.591c-5.453,15.168-7.937,31.244-13.875,46.25c-20.312,50.121-42.893,79.255-54.329,99.69
		C2341.532,238.958,2350.661,239.322,2355.346,232.031z"/>
	<path d="M2542.366,418.058c-33.994-27.805-50.871-30.757-146.809-117.807c-7.352-6.22-13.774-13.996-22.358-18.5
		c-4.262,3.292-8.099,7.17-12.784,9.856c37.02,40.918,75.353,80.887,107.99,125.501c22.179,30.943,61.655,93.357,120.493,87.996
		c-0.364-14.218-2.868-28.679-9.674-41.302C2570.258,446.212,2556.969,431.186,2542.366,418.058z"/>
	<path d="M2373.2,248.249c8.583-4.504,15.006-12.28,22.358-18.5c95.938-87.05,112.814-90.002,146.809-117.806
		c14.602-13.128,27.892-28.154,36.859-45.745c6.807-12.623,9.31-27.084,9.674-41.302c-58.838-5.36-98.314,57.054-120.493,87.996
		c-32.637,44.614-70.97,84.583-107.99,125.501C2365.101,241.079,2368.938,244.957,2373.2,248.249z"/>
	<path d="M2572.762,343.108c-9.553-8.462-21.913-12.502-33.687-16.804c-48.306-16.053-71.669-16.102-123.947-47.785
		c-7.569-4.209-14.812-9.066-22.259-13.52c7.448-4.454,14.69-9.311,22.259-13.52c52.278-31.683,75.64-31.732,123.947-47.785
		c11.774-4.302,24.134-8.341,33.687-16.804c7.049-6.665,13.633-14.4,16.238-23.953c-16.581-11.209-38.697-14.683-57.499-7.271
		c-45.604,17.43-83.412,49.118-122.432,77.514c-32.131,25.203-35.343,25.365-35.235,31.818c-0.108,6.453,3.104,6.616,35.235,31.818
		c39.02,28.396,76.828,60.085,122.432,77.514c18.802,7.412,40.918,3.938,57.499-7.271
		C2586.395,357.509,2579.811,349.773,2572.762,343.108z"/>
	<path d="M2556.888,240.715c-38.826-10.079-86.46,4.895-123.947,20.479c-3.144,1.295-6.302,2.557-9.467,3.805
		c3.165,1.248,6.323,2.511,9.467,3.805c37.487,15.584,85.12,30.558,123.947,20.479c12.138-4.261,24.619-11.068,31.244-22.56
		c-0.708-0.592-1.417-1.167-2.126-1.725c0.709-0.558,1.417-1.133,2.126-1.725C2581.507,251.783,2569.026,244.977,2556.888,240.715z"
		/>
	<path d="M331.726,241.341c-0.487-17.67-15.295-89.614,22.701-147.495c8.462-12.118,17.995-25.932,33.365-29.346
		c8.503-2.807,17.187,0.323,25.609,1.616c1.676-13.39-7.493-24.377-16.925-32.577c-9.755-8.301-23.872-9.553-35.889-6.402
		c-31.962,11.894-48.662,52.96-52.309,86.865c-3.534,40.615-1.212,81.998,9.533,121.422
		C318.841,241.988,326.495,242.715,331.726,241.341z"/>
	<path d="M387.792,465.5c-15.37-3.413-24.903-17.228-33.365-29.346c-37.996-57.882-23.188-129.826-22.701-147.496
		c-5.231-1.373-12.885-0.646-13.915,5.918c-10.745,39.424-13.067,80.806-9.533,121.422c3.647,33.905,20.347,74.971,52.309,86.865
		c12.017,3.151,26.134,1.898,35.889-6.402c9.432-8.2,18.601-19.187,16.925-32.577C404.979,465.176,396.295,468.307,387.792,465.5z"
		/>
	<path d="M275.559,256.792c19.752-0.889,39.605,1.676,58.368,7.836c4.948-1.979,1.293-8.301,1.171-12.179
		c-25.65-6.847-52.996-8.664-79.271-4.827c-1.417,5.732-2.349,11.537-2.866,17.377c0.516,5.841,1.448,11.646,2.866,17.378
		c26.276,3.837,53.622,2.02,79.271-4.827c0.121-3.878,3.777-10.199-1.171-12.178c-18.763,6.16-38.616,8.725-58.368,7.836
		c-3.555-0.141-7.008-1.293-10.441-2.363c-0.253-1.946-0.458-3.894-0.617-5.845c0.16-1.951,0.364-3.9,0.617-5.845
		C268.551,258.084,272.005,256.933,275.559,256.792z"/>
	<path d="M268.309,179.883c7.513,19.126,15.289,38.192,24.095,56.773c4.787,0.848,9.634,1.333,14.461,1.373
		c-1.272-13.37-6.564-25.872-8.907-39.02c-4.908-28.013-10.24-56.308-8.927-84.886c2.896-32.116,4.045-67.951-19.409-89.996
		c-10.3,6.907-19.348,16.884-22.317,29.204c-4.484,16.945-5.09,34.9-1.656,52.107C250.213,131.028,258.029,156.011,268.309,179.883z
		"/>
	<path d="M306.864,291.971c-4.827,0.04-9.674,0.525-14.461,1.373c-8.806,18.581-16.582,37.646-24.095,56.772
		c-10.28,23.872-18.096,48.855-22.66,74.445c-3.434,17.207-2.828,35.162,1.656,52.107c2.969,12.32,12.017,22.297,22.317,29.204
		c23.454-22.045,22.305-57.879,19.409-89.996c-1.313-28.578,4.019-56.873,8.927-84.886
		C300.3,317.843,305.592,305.341,306.864,291.971z"/>
	<path d="M283.941,237.403c-11.437-20.435-34.017-49.569-54.329-99.69c-5.938-15.006-8.422-31.083-13.875-46.25
		c-6.746-19.651-10.886-41.746-26.7-56.591c-6.22-5.11-12.865-11.552-21.489-11.451c-26.236,49.048-2.441,83.204,95.106,208.61
		C267.34,239.322,276.468,238.958,283.941,237.403z"/>
	<path d="M262.654,297.969c-97.547,125.406-121.342,159.562-95.106,208.61c8.624,0.101,15.269-6.342,21.489-11.451
		c15.814-14.845,19.954-36.94,26.7-56.591c5.453-15.168,7.937-31.244,13.875-46.25c20.311-50.121,42.892-79.255,54.329-99.69
		C276.468,291.042,267.34,290.678,262.654,297.969z"/>
	<path d="M75.634,111.942c33.994,27.805,50.871,30.756,146.809,117.806c7.352,6.221,13.774,13.996,22.357,18.5
		c4.261-3.292,8.099-7.17,12.784-9.856c-37.02-40.918-75.353-80.887-107.991-125.501C127.415,81.949,87.938,19.535,29.101,24.895
		c0.364,14.218,2.868,28.679,9.674,41.302C47.742,83.788,61.032,98.814,75.634,111.942z"/>
	<path d="M244.8,281.751c-8.584,4.504-15.006,12.28-22.357,18.5c-95.938,87.05-112.814,90.002-146.809,117.807
		c-14.602,13.128-27.891,28.154-36.859,45.745c-6.806,12.623-9.311,27.084-9.674,41.302c58.838,5.36,98.314-57.054,120.493-87.996
		c32.638-44.614,70.971-84.583,107.991-125.501C252.899,288.921,249.062,285.043,244.8,281.751z"/>
	<path d="M86.5,374.332c45.604-17.43,83.412-49.118,122.432-77.514c32.132-25.203,35.343-25.365,35.236-31.818
		c0.108-6.453-3.104-6.615-35.236-31.818c-39.02-28.396-76.828-60.085-122.432-77.514c-18.803-7.412-40.918-3.938-57.5,7.271
		c2.605,9.553,9.189,17.288,16.238,23.953c9.553,8.462,21.913,12.502,33.688,16.804c48.306,16.053,71.668,16.102,123.946,47.785
		c7.569,4.209,14.812,9.066,22.259,13.52c-7.447,4.454-14.69,9.311-22.259,13.52c-52.278,31.683-75.64,31.732-123.946,47.785
		c-11.775,4.302-24.135,8.341-33.688,16.804c-7.049,6.665-13.633,14.4-16.238,23.953C45.581,378.271,67.697,381.745,86.5,374.332z"
		/>
	<path d="M61.113,289.285c38.826,10.079,86.459-4.895,123.946-20.479c3.144-1.295,6.302-2.557,9.467-3.805
		c-3.165-1.248-6.324-2.511-9.467-3.805c-37.487-15.584-85.12-30.558-123.946-20.479c-12.138,4.262-24.62,11.068-31.244,22.56
		c0.708,0.592,1.417,1.167,2.126,1.725c-0.709,0.559-1.418,1.133-2.126,1.725C36.493,278.217,48.974,285.023,61.113,289.285z"/>
</g>
</svg>
