<?xml version="1.0" encoding="utf-8"?>
<!-- Generator: Adobe Illustrator 24.2.1, SVG Export Plug-In . SVG Version: 6.00 Build 0)  -->
<svg version="1.1" id="Layer_1" xmlns="http://www.w3.org/2000/svg" xmlns:xlink="http://www.w3.org/1999/xlink" x="0px" y="0px"
	 viewBox="0 0 2618 530" style="enable-background:new 0 0 2618 530;" xml:space="preserve">
<style type="text/css">
	.st0{fill:#FFFFFF;}
</style>
<g>
	<path class="st0" d="M2247.1,265c4.4-22,5.6-46.7,0.2-71.9c-15.5-66.2-52-110.1-109.2-141.4c-69.1-34.3-147.8-29.5-177.4-29.8
		c-1.5,0-310.4-0.7-490.1-0.5c-183.9-0.1-811.8,0.5-813.2,0.5c-29.7,0.3-108.4-4.4-177.4,29.8c-57.2,31.4-93.8,75.2-109.2,141.4
		c-5.4,25.3-4.2,49.9,0.2,71.9c-4.4,22-5.6,46.7-0.2,71.9c15.5,66.2,52,110.1,109.2,141.4c69.1,34.3,147.8,29.5,177.4,29.8
		c1.5,0,629.3,0.7,813.2,0.5c179.8,0.1,488.7-0.5,490.1-0.5c29.7-0.3,108.4,4.4,177.4-29.8c57.2-31.4,93.8-75.2,109.2-141.4
		C2252.7,311.7,2251.5,287,2247.1,265z M2220.4,273c5.7,51.2-7.7,95.4-32.9,125.5c-10.7,12.6-21.8,25.4-35.4,35
		c-36.1,26.1-80.6,38.3-124.6,40.8c-27.3,0.4-341.5,1.6-553.3,1.6l0,0c-0.9,0-1.8,0-2.7,0c-1.5,0-3,0-4.4,0v0
		c-218.7,0-849.2-1.2-876.5-1.6c-44-2.4-88.5-14.7-124.6-40.8c-13.7-9.6-24.7-22.4-35.4-35c-25.2-30.1-38.6-74.3-32.9-125.5
		c0.4-2.7,0.4-13.3,0-15.9c-5.7-51.2,7.7-95.4,32.9-125.5c10.7-12.6,21.8-25.4,35.4-35c36.1-26.1,80.6-38.3,124.6-40.8
		c27.3-0.4,657.8-1.6,876.5-1.6v0c1.5,0,2.9,0,4.4,0c0.9,0,1.8,0,2.7,0l0,0c211.8,0,526.1,1.2,553.3,1.6
		c44,2.4,88.5,14.7,124.6,40.8c13.7,9.6,24.7,22.4,35.4,35c25.2,30.1,38.6,74.3,32.9,125.5C2220,259.7,2220,270.3,2220.4,273z"/>
	<path class="st0" d="M2286.3,288.7c0.5,17.7,15.3,89.6-22.7,147.5c-8.5,12.1-18,25.9-33.4,29.3c-8.5,2.8-17.2-0.3-25.6-1.6
		c-1.7,13.4,7.5,24.4,16.9,32.6c9.8,8.3,23.9,9.6,35.9,6.4c32-11.9,48.7-53,52.3-86.9c3.5-40.6,1.2-82-9.5-121.4
		C2299.2,288,2291.5,287.3,2286.3,288.7z"/>
	<path class="st0" d="M2230.2,64.5c15.4,3.4,24.9,17.2,33.4,29.3c38,57.9,23.2,129.8,22.7,147.5c5.2,1.4,12.9,0.6,13.9-5.9
		c10.7-39.4,13.1-80.8,9.5-121.4c-3.6-33.9-20.3-75-52.3-86.9c-12-3.2-26.1-1.9-35.9,6.4c-9.4,8.2-18.6,19.2-16.9,32.6
		C2213,64.8,2221.7,61.7,2230.2,64.5z"/>
	<path class="st0" d="M2342.4,273.2c-19.8,0.9-39.6-1.7-58.4-7.8c-4.9,2-1.3,8.3-1.2,12.2c25.6,6.8,53,8.7,79.3,4.8
		c1.4-5.7,2.3-11.5,2.9-17.4c-0.5-5.8-1.4-11.6-2.9-17.4c-26.3-3.8-53.6-2-79.3,4.8c-0.1,3.9-3.8,10.2,1.2,12.2
		c18.8-6.2,38.6-8.7,58.4-7.8c3.6,0.1,7,1.3,10.4,2.4c0.3,1.9,0.5,3.9,0.6,5.8c-0.2,2-0.4,3.9-0.6,5.8
		C2349.4,271.9,2346,273.1,2342.4,273.2z"/>
	<path class="st0" d="M2349.7,350.1c-7.5-19.1-15.3-38.2-24.1-56.8c-4.8-0.8-9.6-1.3-14.5-1.4c1.3,13.4,6.6,25.9,8.9,39
		c4.9,28,10.2,56.3,8.9,84.9c-2.9,32.1-4,68,19.4,90c10.3-6.9,19.3-16.9,22.3-29.2c4.5-16.9,5.1-34.9,1.7-52.1
		C2367.8,399,2360,374,2349.7,350.1z"/>
	<path class="st0" d="M2311.1,238c4.8,0,9.7-0.5,14.5-1.4c8.8-18.6,16.6-37.6,24.1-56.8c10.3-23.9,18.1-48.9,22.7-74.4
		c3.4-17.2,2.8-35.2-1.7-52.1c-3-12.3-12-22.3-22.3-29.2c-23.5,22-22.3,57.9-19.4,90c1.3,28.6-4,56.9-8.9,84.9
		C2317.7,212.2,2312.4,224.7,2311.1,238z"/>
	<path class="st0" d="M2334.1,292.6c11.4,20.4,34,49.6,54.3,99.7c5.9,15,8.4,31.1,13.9,46.3c6.7,19.7,10.9,41.7,26.7,56.6
		c6.2,5.1,12.9,11.6,21.5,11.5c26.2-49,2.4-83.2-95.1-208.6C2350.7,290.7,2341.5,291,2334.1,292.6z"/>
	<path class="st0" d="M2355.3,232c97.5-125.4,121.3-159.6,95.1-208.6c-8.6-0.1-15.3,6.3-21.5,11.5c-15.8,14.8-20,36.9-26.7,56.6
		c-5.5,15.2-7.9,31.2-13.9,46.3c-20.3,50.1-42.9,79.3-54.3,99.7C2341.5,239,2350.7,239.3,2355.3,232z"/>
	<path class="st0" d="M2542.4,418.1c-34-27.8-50.9-30.8-146.8-117.8c-7.4-6.2-13.8-14-22.4-18.5c-4.3,3.3-8.1,7.2-12.8,9.9
		c37,40.9,75.4,80.9,108,125.5c22.2,30.9,61.7,93.4,120.5,88c-0.4-14.2-2.9-28.7-9.7-41.3C2570.3,446.2,2557,431.2,2542.4,418.1z"/>
	<path class="st0" d="M2373.2,248.2c8.6-4.5,15-12.3,22.4-18.5c95.9-87.1,112.8-90,146.8-117.8c14.6-13.1,27.9-28.2,36.9-45.7
		c6.8-12.6,9.3-27.1,9.7-41.3c-58.8-5.4-98.3,57.1-120.5,88c-32.6,44.6-71,84.6-108,125.5C2365.1,241.1,2368.9,245,2373.2,248.2z"/>
	<path class="st0" d="M2572.8,343.1c-9.6-8.5-21.9-12.5-33.7-16.8c-48.3-16.1-71.7-16.1-123.9-47.8c-7.6-4.2-14.8-9.1-22.3-13.5
		c7.4-4.5,14.7-9.3,22.3-13.5c52.3-31.7,75.6-31.7,123.9-47.8c11.8-4.3,24.1-8.3,33.7-16.8c7-6.7,13.6-14.4,16.2-24
		c-16.6-11.2-38.7-14.7-57.5-7.3c-45.6,17.4-83.4,49.1-122.4,77.5c-32.1,25.2-35.3,25.4-35.2,31.8c-0.1,6.5,3.1,6.6,35.2,31.8
		c39,28.4,76.8,60.1,122.4,77.5c18.8,7.4,40.9,3.9,57.5-7.3C2586.4,357.5,2579.8,349.8,2572.8,343.1z"/>
	<path class="st0" d="M2556.9,240.7c-38.8-10.1-86.5,4.9-123.9,20.5c-3.1,1.3-6.3,2.6-9.5,3.8c3.2,1.2,6.3,2.5,9.5,3.8
		c37.5,15.6,85.1,30.6,123.9,20.5c12.1-4.3,24.6-11.1,31.2-22.6c-0.7-0.6-1.4-1.2-2.1-1.7c0.7-0.6,1.4-1.1,2.1-1.7
		C2581.5,251.8,2569,245,2556.9,240.7z"/>
	<path class="st0" d="M331.7,241.3c-0.5-17.7-15.3-89.6,22.7-147.5c8.5-12.1,18-25.9,33.4-29.3c8.5-2.8,17.2,0.3,25.6,1.6
		c1.7-13.4-7.5-24.4-16.9-32.6c-9.8-8.3-23.9-9.6-35.9-6.4c-32,11.9-48.7,53-52.3,86.9c-3.5,40.6-1.2,82,9.5,121.4
		C318.8,242,326.5,242.7,331.7,241.3z"/>
	<path class="st0" d="M387.8,465.5c-15.4-3.4-24.9-17.2-33.4-29.3c-38-57.9-23.2-129.8-22.7-147.5c-5.2-1.4-12.9-0.6-13.9,5.9
		c-10.7,39.4-13.1,80.8-9.5,121.4c3.6,33.9,20.3,75,52.3,86.9c12,3.2,26.1,1.9,35.9-6.4c9.4-8.2,18.6-19.2,16.9-32.6
		C405,465.2,396.3,468.3,387.8,465.5z"/>
	<path class="st0" d="M275.6,256.8c19.8-0.9,39.6,1.7,58.4,7.8c4.9-2,1.3-8.3,1.2-12.2c-25.6-6.8-53-8.7-79.3-4.8
		c-1.4,5.7-2.3,11.5-2.9,17.4c0.5,5.8,1.4,11.6,2.9,17.4c26.3,3.8,53.6,2,79.3-4.8c0.1-3.9,3.8-10.2-1.2-12.2
		c-18.8,6.2-38.6,8.7-58.4,7.8c-3.6-0.1-7-1.3-10.4-2.4c-0.3-1.9-0.5-3.9-0.6-5.8c0.2-2,0.4-3.9,0.6-5.8
		C268.6,258.1,272,256.9,275.6,256.8z"/>
	<path class="st0" d="M268.3,179.9c7.5,19.1,15.3,38.2,24.1,56.8c4.8,0.8,9.6,1.3,14.5,1.4c-1.3-13.4-6.6-25.9-8.9-39
		c-4.9-28-10.2-56.3-8.9-84.9c2.9-32.1,4-68-19.4-90C259.3,31,250.3,41,247.3,53.3c-4.5,16.9-5.1,34.9-1.7,52.1
		C250.2,131,258,156,268.3,179.9z"/>
	<path class="st0" d="M306.9,292c-4.8,0-9.7,0.5-14.5,1.4c-8.8,18.6-16.6,37.6-24.1,56.8C258,374,250.2,399,245.6,424.6
		c-3.4,17.2-2.8,35.2,1.7,52.1c3,12.3,12,22.3,22.3,29.2c23.5-22,22.3-57.9,19.4-90c-1.3-28.6,4-56.9,8.9-84.9
		C300.3,317.8,305.6,305.3,306.9,292z"/>
	<path class="st0" d="M283.9,237.4c-11.4-20.4-34-49.6-54.3-99.7c-5.9-15-8.4-31.1-13.9-46.3C209,71.8,204.9,49.7,189,34.9
		c-6.2-5.1-12.9-11.6-21.5-11.5c-26.2,49-2.4,83.2,95.1,208.6C267.3,239.3,276.5,239,283.9,237.4z"/>
	<path class="st0" d="M262.7,298c-97.5,125.4-121.3,159.6-95.1,208.6c8.6,0.1,15.3-6.3,21.5-11.5c15.8-14.8,20-36.9,26.7-56.6
		c5.5-15.2,7.9-31.2,13.9-46.3c20.3-50.1,42.9-79.3,54.3-99.7C276.5,291,267.3,290.7,262.7,298z"/>
	<path class="st0" d="M75.6,111.9c34,27.8,50.9,30.8,146.8,117.8c7.4,6.2,13.8,14,22.4,18.5c4.3-3.3,8.1-7.2,12.8-9.9
		c-37-40.9-75.4-80.9-108-125.5c-22.2-30.9-61.7-93.4-120.5-88c0.4,14.2,2.9,28.7,9.7,41.3C47.7,83.8,61,98.8,75.6,111.9z"/>
	<path class="st0" d="M244.8,281.8c-8.6,4.5-15,12.3-22.4,18.5c-95.9,87.1-112.8,90-146.8,117.8c-14.6,13.1-27.9,28.2-36.9,45.7
		c-6.8,12.6-9.3,27.1-9.7,41.3c58.8,5.4,98.3-57.1,120.5-88c32.6-44.6,71-84.6,108-125.5C252.9,288.9,249.1,285,244.8,281.8z"/>
	<path class="st0" d="M86.5,374.3c45.6-17.4,83.4-49.1,122.4-77.5c32.1-25.2,35.3-25.4,35.2-31.8c0.1-6.5-3.1-6.6-35.2-31.8
		c-39-28.4-76.8-60.1-122.4-77.5c-18.8-7.4-40.9-3.9-57.5,7.3c2.6,9.6,9.2,17.3,16.2,24c9.6,8.5,21.9,12.5,33.7,16.8
		c48.3,16.1,71.7,16.1,123.9,47.8c7.6,4.2,14.8,9.1,22.3,13.5c-7.4,4.5-14.7,9.3-22.3,13.5c-52.3,31.7-75.6,31.7-123.9,47.8
		c-11.8,4.3-24.1,8.3-33.7,16.8c-7,6.7-13.6,14.4-16.2,24C45.6,378.3,67.7,381.7,86.5,374.3z"/>
	<path class="st0" d="M61.1,289.3c38.8,10.1,86.5-4.9,123.9-20.5c3.1-1.3,6.3-2.6,9.5-3.8c-3.2-1.2-6.3-2.5-9.5-3.8
		c-37.5-15.6-85.1-30.6-123.9-20.5C49,245,36.5,251.8,29.9,263.3c0.7,0.6,1.4,1.2,2.1,1.7c-0.7,0.6-1.4,1.1-2.1,1.7
		C36.5,278.2,49,285,61.1,289.3z"/>
</g>
</svg>
