<?xml version="1.0" encoding="utf-8"?>
<!-- Generator: Adobe Illustrator 24.2.1, SVG Export Plug-In . SVG Version: 6.00 Build 0)  -->
<svg version="1.1" id="Layer_1" xmlns="http://www.w3.org/2000/svg" xmlns:xlink="http://www.w3.org/1999/xlink" x="0px" y="0px"
	 viewBox="0 0 1634 1621.4" style="enable-background:new 0 0 1634 1621.4;" xml:space="preserve">
<style type="text/css">
	.st0{fill:#FFFFFF;}
</style>
<g>
	<path class="st0" d="M1330,297.7c-120.2,0-302.4-0.4-303.3-0.4c-19.6-0.2-71.5,2.9-117.1-19.7c-37.8-20.7-61.9-49.6-72.1-93.4
		c-10.7-50.5,18-97,26.5-104.8c4.7,3.8,8.8,8.3,12.5,13.1c-3.1,6.2-7.9,11.3-10.7,17.7c-4.6,10.2-8.7,20.8-10.5,31.9
		c-3.8,33.8,5.1,63,21.7,82.8c7.1,8.3,14.4,16.8,23.4,23.1c23.8,17.2,53.2,25.3,82.2,26.9c18.2,0.3,229.3,1.1,369.1,1.1
		c0,139.8,0.8,350.9,1.1,369.1c1.6,29.1,9.7,58.4,26.9,82.2c6.3,9,14.8,16.3,23.1,23.4c19.9,16.6,49,25.5,82.8,21.7
		c11.1-1.8,21.7-5.9,31.9-10.5c6.3-2.9,11.5-7.7,17.7-10.7c4.8,3.7,9.3,7.8,13.1,12.5c-7.9,8.5-54.3,37.2-104.8,26.5
		c-43.7-10.2-72.7-34.3-93.4-72.1c-22.6-45.6-19.5-97.5-19.7-117.1C1330.4,600.1,1330,417.9,1330,297.7z"/>
	<path class="st0" d="M1330,1323.7c0-120.2,0.4-302.4,0.4-303.3c0.2-19.6-2.9-71.5,19.7-117.1c20.7-37.8,49.6-61.9,93.4-72.1
		c50.5-10.7,97,18,104.8,26.5c-3.8,4.7-8.3,8.8-13.1,12.5c-6.2-3.1-11.3-7.9-17.7-10.7c-10.2-4.6-20.8-8.7-31.9-10.5
		c-33.8-3.8-63,5.1-82.8,21.7c-8.3,7.1-16.8,14.4-23.1,23.4c-17.2,23.8-25.3,53.2-26.9,82.2c-0.3,18.2-1.1,229.3-1.1,369.1
		c-139.8,0-350.9,0.8-369.1,1.1c-29.1,1.6-58.4,9.7-82.2,26.9c-9,6.3-16.3,14.8-23.4,23.1c-16.6,19.9-25.5,49-21.7,82.8
		c1.8,11.1,5.9,21.7,10.5,31.9c2.9,6.3,7.7,11.5,10.7,17.7c-3.7,4.8-7.8,9.3-12.5,13.1c-8.5-7.9-37.2-54.3-26.5-104.8
		c10.2-43.7,34.3-72.7,72.1-93.4c45.6-22.6,97.5-19.5,117.1-19.7C1027.6,1324.1,1209.8,1323.7,1330,1323.7z"/>
	<path class="st0" d="M304,1323.7c120.2,0,302.4,0.4,303.3,0.4c19.6,0.2,71.5-2.9,117.1,19.7c37.8,20.7,61.9,49.6,72.1,93.4
		c10.7,50.5-18,97-26.5,104.8c-4.7-3.8-8.8-8.3-12.5-13.1c3.1-6.2,7.9-11.3,10.7-17.7c4.6-10.2,8.7-20.8,10.5-31.9
		c3.8-33.8-5.1-63-21.7-82.8c-7.1-8.3-14.4-16.8-23.4-23.1c-23.8-17.2-53.2-25.3-82.2-26.9c-18.2-0.3-229.3-1.1-369.1-1.1
		c0-139.8-0.8-350.9-1.1-369.1c-1.6-29.1-9.7-58.4-26.9-82.2c-6.3-9-14.8-16.3-23.1-23.4c-19.9-16.6-49-25.5-82.8-21.7
		c-11.1,1.8-21.7,5.9-31.9,10.5c-6.3,2.9-11.5,7.7-17.7,10.7c-4.8-3.7-9.3-7.8-13.1-12.5c7.9-8.5,54.3-37.2,104.8-26.5
		c43.7,10.2,72.7,34.3,93.4,72.1c22.6,45.6,19.5,97.5,19.7,117.1C303.6,1021.3,304,1203.5,304,1323.7z"/>
	<path class="st0" d="M304,297.7c0,120.2-0.4,302.4-0.4,303.3c-0.2,19.6,2.9,71.5-19.7,117.1c-20.7,37.8-49.6,61.9-93.4,72.1
		c-50.5,10.7-97-18-104.8-26.5c3.8-4.7,8.3-8.8,13.1-12.5c6.2,3.1,11.3,7.9,17.7,10.7c10.2,4.6,20.8,8.7,31.9,10.5
		c33.8,3.8,63-5.1,82.8-21.7c8.3-7.1,16.8-14.4,23.1-23.4c17.2-23.8,25.3-53.2,26.9-82.2c0.3-18.2,1.1-229.3,1.1-369.1
		c139.8,0,350.9-0.8,369.1-1.1c29.1-1.6,58.4-9.7,82.2-26.9c9-6.3,16.3-14.8,23.4-23.1c16.6-19.9,25.5-49,21.7-82.8
		c-1.8-11.1-5.9-21.7-10.5-31.9c-2.9-6.3-7.7-11.5-10.7-17.7c3.7-4.8,7.8-9.3,12.5-13.1c8.5,7.9,37.2,54.3,26.5,104.8
		c-10.2,43.7-34.3,72.7-72.1,93.4c-45.6,22.6-97.5,19.5-117.1,19.7C606.4,297.3,424.2,297.7,304,297.7z"/>
	<path class="st0" d="M1346,222.4c5-9.3,7.3-22.2-0.4-30.8c-4.9,7-14.6,25.6-51.6,17.3c-20-6.5-38.8-16.1-56.4-27.5
		c-22-13-100.9-71.3-100.9-71.3c-2.9-1.6-5.2,1.9-7.2,3.5c9.3,9.4,19.8,17.4,29.5,26.3c90.2,78.2,100.6,85,121.7,95.6
		c12.9,5.5,27.5,9.5,41.4,5.8C1331.8,237.9,1341.7,232.2,1346,222.4z"/>
	<path class="st0" d="M228.7,281.7c-9.3-5-22.2-7.3-30.8,0.4c7,4.9,25.6,14.6,17.3,51.6c-6.5,20-16.1,38.8-27.5,56.4
		c-13,22-71.3,100.9-71.3,100.9c-1.6,2.9,1.9,5.2,3.5,7.2c9.4-9.3,17.4-19.8,26.3-29.5c78.2-90.2,85-100.6,95.6-121.7
		c5.5-12.9,9.5-27.5,5.8-41.4C244.2,295.9,238.5,286,228.7,281.7z"/>
	<path class="st0" d="M288,1399c-5,9.3-7.3,22.2,0.4,30.8c4.9-7,14.6-25.6,51.6-17.3c20,6.5,38.8,16.1,56.4,27.5
		c22,13,100.9,71.3,100.9,71.3c2.9,1.6,5.2-1.9,7.2-3.5c-9.3-9.4-19.8-17.4-29.5-26.3c-90.2-78.2-100.6-85-121.7-95.6
		c-12.9-5.5-27.5-9.5-41.4-5.8C302.2,1383.5,292.3,1389.2,288,1399z"/>
	<path class="st0" d="M1405.3,1339.7c9.3,5,22.2,7.3,30.8-0.4c-7-4.9-25.6-14.6-17.3-51.6c6.5-20,16.1-38.8,27.5-56.4
		c13-22,71.3-100.9,71.3-100.9c1.6-2.9-1.9-5.2-3.5-7.2c-9.4,9.3-17.4,19.8-26.3,29.5c-78.2,90.2-85,100.6-95.6,121.7
		c-5.5,12.9-9.5,27.5-5.8,41.4C1389.8,1325.5,1395.5,1335.4,1405.3,1339.7z"/>
	<path class="st0" d="M1405.3,281.7c9.3-5,22.2-7.3,30.8,0.4c-7,4.9-25.6,14.6-17.3,51.6c6.5,20,16.1,38.8,27.5,56.4
		c13,22,71.3,100.9,71.3,100.9c1.6,2.9-1.9,5.2-3.5,7.2c-9.4-9.3-17.4-19.8-26.3-29.5c-78.2-90.2-85-100.6-95.6-121.7
		c-5.5-12.9-9.5-27.5-5.8-41.4C1389.8,295.9,1395.5,286,1405.3,281.7z"/>
	<path class="st0" d="M288,222.4c-5-9.3-7.3-22.2,0.4-30.8c4.9,7,14.6,25.6,51.6,17.3c20-6.5,38.8-16.1,56.4-27.5
		c22-13,100.9-71.3,100.9-71.3c2.9-1.6,5.2,1.9,7.2,3.5c-9.3,9.4-19.8,17.4-29.5,26.3c-90.2,78.2-100.6,85-121.7,95.6
		c-12.9,5.5-27.5,9.5-41.4,5.8C302.2,237.9,292.3,232.2,288,222.4z"/>
	<path class="st0" d="M228.7,1339.7c-9.3,5-22.2,7.3-30.8-0.4c7-4.9,25.6-14.6,17.3-51.6c-6.5-20-16.1-38.8-27.5-56.4
		c-13-22-71.3-100.9-71.3-100.9c-1.6-2.9,1.9-5.2,3.5-7.2c9.4,9.3,17.4,19.8,26.3,29.5c78.2,90.2,85,100.6,95.6,121.7
		c5.5,12.9,9.5,27.5,5.8,41.4C244.2,1325.5,238.5,1335.4,228.7,1339.7z"/>
	<path class="st0" d="M1346,1399c5,9.3,7.3,22.2-0.4,30.8c-4.9-7-14.6-25.6-51.6-17.3c-20,6.5-38.8,16.1-56.4,27.5
		c-22,13-100.9,71.3-100.9,71.3c-2.9,1.6-5.2-1.9-7.2-3.5c9.3-9.4,19.8-17.4,29.5-26.3c90.2-78.2,100.6-85,121.7-95.6
		c12.9-5.5,27.5-9.5,41.4-5.8C1331.8,1383.5,1341.7,1389.2,1346,1399z"/>
	<path class="st0" d="M1249.6,224.9c-24.9-2.1-23.6,1-108.8-91.9c-4.7-5.1-8.8-10.8-14.1-15.3c-2.4-2.4-5.3,0.3-7.6,1.5
		c3.5,6.7,8.9,12.2,13.2,18.4c28.3,37.6,54.1,78.5,70.1,95.2C1217.5,248.2,1244.9,244.5,1249.6,224.9z"/>
	<path class="st0" d="M231.2,378.1c-2.1,24.9,1,23.6-91.9,108.8c-5.1,4.7-10.8,8.8-15.3,14.1c-2.4,2.4,0.3,5.3,1.5,7.6
		c6.7-3.5,12.2-8.9,18.4-13.2c37.6-28.3,78.5-54.1,95.2-70.1C254.5,410.2,250.8,382.8,231.2,378.1z"/>
	<path class="st0" d="M384.4,1396.6c24.9,2.1,23.6-1,108.8,91.9c4.7,5.1,8.8,10.8,14.1,15.3c2.4,2.4,5.3-0.3,7.6-1.5
		c-3.5-6.7-8.9-12.2-13.2-18.4c-28.3-37.6-54.1-78.5-70.1-95.2C416.5,1373.3,389.1,1376.9,384.4,1396.6z"/>
	<path class="st0" d="M1402.8,1243.3c2.1-24.9-1-23.6,91.9-108.8c5.1-4.7,10.8-8.8,15.3-14.1c2.4-2.4-0.3-5.3-1.5-7.6
		c-6.7,3.5-12.2,8.9-18.4,13.2c-37.6,28.3-78.5,54.1-95.2,70.1C1379.5,1211.2,1383.2,1238.6,1402.8,1243.3z"/>
	<path class="st0" d="M1402.8,378.1c2.1,24.9-1,23.6,91.9,108.8c5.1,4.7,10.8,8.8,15.3,14.1c2.4,2.4-0.3,5.3-1.5,7.6
		c-6.7-3.5-12.2-8.9-18.4-13.2c-37.6-28.3-78.5-54.1-95.2-70.1C1379.5,410.2,1383.2,382.8,1402.8,378.1z"/>
	<path class="st0" d="M384.4,224.9c24.9-2.1,23.6,1,108.8-91.9c4.7-5.1,8.8-10.8,14.1-15.3c2.4-2.4,5.3,0.3,7.6,1.5
		c-3.5,6.7-8.9,12.2-13.2,18.4c-28.3,37.6-54.1,78.5-70.1,95.2C416.5,248.2,389.1,244.5,384.4,224.9z"/>
	<path class="st0" d="M231.2,1243.3c-2.1-24.9,1-23.6-91.9-108.8c-5.1-4.7-10.8-8.8-15.3-14.1c-2.4-2.4,0.3-5.3,1.5-7.6
		c6.7,3.5,12.2,8.9,18.4,13.2c37.6,28.3,78.5,54.1,95.2,70.1C254.5,1211.2,250.8,1238.6,231.2,1243.3z"/>
	<path class="st0" d="M1249.6,1396.6c-24.9,2.1-23.6-1-108.8,91.9c-4.7,5.1-8.8,10.8-14.1,15.3c-2.4,2.4-5.3-0.3-7.6-1.5
		c3.5-6.7,8.9-12.2,13.2-18.4c28.3-37.6,54.1-78.5,70.1-95.2C1217.5,1373.3,1244.9,1376.9,1249.6,1396.6z"/>
	<path class="st0" d="M1175.3,229.5c1-11-5.9-20.3-10.6-29.7c-11.2-18.6-11.3-22.9-35.7-56.4c-4.9-6.7-8.8-14.1-14.5-20.2
		c-2.2-3.1-5.9-0.1-8.2,1.3c3.9,10.3,22.9,39,30.2,66.1c7.8,23.1,6.8,39.9,16.1,47.8C1160.4,244.5,1174.2,239.6,1175.3,229.5z"/>
	<path class="st0" d="M235.8,452.4c-11-1-20.3,5.9-29.7,10.6c-18.6,11.2-22.9,11.3-56.4,35.6c-6.7,4.9-14.1,8.8-20.2,14.5
		c-3.1,2.2-0.1,5.9,1.3,8.2c10.3-3.9,39-22.9,66.1-30.2c23.1-7.8,39.9-6.8,47.8-16.1C250.8,467.3,245.9,453.5,235.8,452.4z"/>
	<path class="st0" d="M458.7,1391.9c-1,11,5.9,20.3,10.6,29.7c11.2,18.6,11.3,22.9,35.6,56.4c4.9,6.7,8.8,14.1,14.5,20.2
		c2.2,3.1,5.9,0.1,8.2-1.3c-3.9-10.3-22.9-39-30.2-66.1c-7.8-23.1-6.8-39.9-16.1-47.8C473.6,1376.9,459.8,1381.8,458.7,1391.9z"/>
	<path class="st0" d="M1398.2,1169c11,1,20.3-5.9,29.7-10.6c18.6-11.2,22.9-11.3,56.4-35.7c6.7-4.9,14.1-8.8,20.2-14.5
		c3.1-2.2,0.1-5.9-1.3-8.2c-10.3,3.9-39,22.9-66.1,30.2c-23.1,7.8-39.9,6.8-47.8,16.1C1383.2,1154.1,1388.1,1167.9,1398.2,1169z"/>
	<path class="st0" d="M1398.2,452.4c11-1,20.3,5.9,29.7,10.6c18.6,11.2,22.9,11.3,56.4,35.6c6.7,4.9,14.1,8.8,20.2,14.5
		c3.1,2.2,0.1,5.9-1.3,8.2c-10.3-3.9-39-22.9-66.1-30.2c-23.1-7.8-39.9-6.8-47.8-16.1C1383.2,467.3,1388.1,453.5,1398.2,452.4z"/>
	<path class="st0" d="M458.7,229.5c-1-11,5.9-20.3,10.6-29.7c11.2-18.6,11.3-22.9,35.6-56.4c4.9-6.7,8.8-14.1,14.5-20.2
		c2.2-3.1,5.9-0.1,8.2,1.3c-3.9,10.3-22.9,39-30.2,66.1c-7.8,23.1-6.8,39.9-16.1,47.8C473.6,244.5,459.8,239.6,458.7,229.5z"/>
	<path class="st0" d="M235.8,1169c-11,1-20.3-5.9-29.7-10.6c-18.6-11.2-22.9-11.3-56.4-35.7c-6.7-4.9-14.1-8.8-20.2-14.5
		c-3.1-2.2-0.1-5.9,1.3-8.2c10.3,3.9,39,22.9,66.1,30.2c23.1,7.8,39.9,6.8,47.8,16.1C250.8,1154.1,245.9,1167.9,235.8,1169z"/>
	<path class="st0" d="M1175.3,1391.9c1,11-5.9,20.3-10.6,29.7c-11.2,18.6-11.3,22.9-35.7,56.4c-4.9,6.7-8.8,14.1-14.5,20.2
		c-2.2,3.1-5.9,0.1-8.2-1.3c3.9-10.3,22.9-39,30.2-66.1c7.8-23.1,6.8-39.9,16.1-47.8C1160.4,1376.9,1174.2,1381.8,1175.3,1391.9z"/>
	<path class="st0" d="M1136.4,99.4c-2.6-2.1-6.3-6-9.5-2.7c-13,11-29.7,15.6-45.7,20.1c-0.5,2.7,0,5.4,1.7,7.6
		C1108.4,119.6,1130.6,106.5,1136.4,99.4z"/>
	<path class="st0" d="M105.7,491.3c-2.1,2.6-6,6.3-2.7,9.5c11,13,15.6,29.7,20.1,45.7c2.7,0.5,5.4,0,7.6-1.7
		C125.9,519.3,112.8,497.1,105.7,491.3z"/>
	<path class="st0" d="M497.6,1522c2.6,2.1,6.3,6,9.5,2.7c13-11,29.7-15.6,45.7-20.1c0.5-2.7,0-5.4-1.7-7.6
		C525.6,1501.8,503.4,1514.9,497.6,1522z"/>
	<path class="st0" d="M1528.3,1130.2c2.1-2.6,6-6.3,2.7-9.5c-11-13-15.6-29.7-20.1-45.7c-2.7-0.5-5.4,0-7.6,1.7
		C1508.1,1102.1,1521.2,1124.3,1528.3,1130.2z"/>
	<path class="st0" d="M1528.3,491.3c2.1,2.6,6,6.3,2.7,9.5c-11,13-15.6,29.7-20.1,45.7c-2.7,0.5-5.4,0-7.6-1.7
		C1508.1,519.3,1521.2,497.1,1528.3,491.3z"/>
	<path class="st0" d="M497.6,99.4c2.6-2.1,6.3-6,9.5-2.7c13,11,29.7,15.6,45.7,20.1c0.5,2.7,0,5.4-1.7,7.6
		C525.6,119.6,503.4,106.5,497.6,99.4z"/>
	<path class="st0" d="M105.7,1130.2c-2.1-2.6-6-6.3-2.7-9.5c11-13,15.6-29.7,20.1-45.7c2.7-0.5,5.4,0,7.6,1.7
		C125.9,1102.1,112.8,1124.3,105.7,1130.2z"/>
	<path class="st0" d="M1136.4,1522c-2.6,2.1-6.3,6-9.5,2.7c-13-11-29.7-15.6-45.7-20.1c-0.5-2.7,0-5.4,1.7-7.6
		C1108.4,1501.8,1130.6,1514.9,1136.4,1522z"/>
	<path class="st0" d="M1132.2,220.5c1.6-14.1-2.4-28-7-41.2c-6.8-18.3-14.6-36.4-24.4-53.2c-1.9,0.2-3.7,1-5.3,2.2
		c5.3,16.5,20.7,57.8,13.1,90.3c-1.4,7.2-7.8,11.4-12.2,16.6C1108.7,248.3,1129.8,238.3,1132.2,220.5z"/>
	<path class="st0" d="M226.8,495.5c-14.1-1.6-28,2.4-41.2,7c-18.3,6.8-36.4,14.6-53.2,24.4c0.2,1.9,1,3.7,2.2,5.3
		c16.5-5.3,57.8-20.7,90.3-13.1c7.2,1.4,11.4,7.8,16.6,12.2C254.6,519,244.6,497.9,226.8,495.5z"/>
	<path class="st0" d="M501.8,1400.9c-1.6,14.1,2.4,28,7,41.2c6.8,18.3,14.6,36.4,24.4,53.2c1.9-0.2,3.7-1,5.3-2.2
		c-5.3-16.5-20.7-57.8-13.1-90.3c1.4-7.2,7.8-11.4,12.2-16.6C525.3,1373.1,504.2,1383.1,501.8,1400.9z"/>
	<path class="st0" d="M1407.2,1125.9c14.1,1.6,28-2.4,41.2-7c18.3-6.8,36.4-14.6,53.2-24.4c-0.2-1.9-1-3.7-2.2-5.3
		c-16.5,5.3-57.8,20.7-90.3,13.1c-7.2-1.4-11.4-7.8-16.6-12.2C1379.4,1102.4,1389.4,1123.5,1407.2,1125.9z"/>
	<path class="st0" d="M1407.2,495.5c14.1-1.6,28,2.4,41.2,7c18.3,6.8,36.4,14.6,53.2,24.4c-0.2,1.9-1,3.7-2.2,5.3
		c-16.5-5.3-57.8-20.7-90.3-13.1c-7.2,1.4-11.4,7.8-16.6,12.2C1379.4,519,1389.4,497.9,1407.2,495.5z"/>
	<path class="st0" d="M501.8,220.5c-1.6-14.1,2.4-28,7-41.2c6.8-18.3,14.6-36.4,24.4-53.2c1.9,0.2,3.7,1,5.3,2.2
		c-5.3,16.5-20.7,57.8-13.1,90.3c1.4,7.2,7.8,11.4,12.2,16.6C525.3,248.3,504.2,238.3,501.8,220.5z"/>
	<path class="st0" d="M226.8,1125.9c-14.1,1.6-28-2.4-41.2-7c-18.3-6.8-36.4-14.6-53.2-24.4c0.2-1.9,1-3.7,2.2-5.3
		c16.5,5.3,57.8,20.7,90.3,13.1c7.2-1.4,11.4-7.8,16.6-12.2C254.6,1102.4,244.6,1123.5,226.8,1125.9z"/>
	<path class="st0" d="M1132.2,1400.9c1.6,14.1-2.4,28-7,41.2c-6.8,18.3-14.6,36.4-24.4,53.2c-1.9-0.2-3.7-1-5.3-2.2
		c5.3-16.5,20.7-57.8,13.1-90.3c-1.4-7.2-7.8-11.4-12.2-16.6C1108.7,1373.1,1129.8,1383.1,1132.2,1400.9z"/>
	<path class="st0" d="M1105.7,99.3c5.6-0.8,12.7,0.2,16.4-5.1c-6.5-2.6-13.5-4.3-19.4-8.4c-15.5-11.6-54.8-42.2-73.9-43.9
		c3.3,4.5,8.7,6.6,12.8,10.3c18,15.4,31.3,36.6,36.6,59.7c5.4,0.7,8.8-4.4,11.7-8.1c3.3,1,6.5,2.4,9.9,2.4
		C1103.4,105.9,1104.1,101.7,1105.7,99.3z"/>
	<path class="st0" d="M105.6,522c-0.8-5.6,0.2-12.7-5.1-16.4c-2.6,6.5-4.3,13.5-8.4,19.4c-11.6,15.5-42.2,54.8-43.9,73.9
		c4.5-3.3,6.6-8.7,10.3-12.8c15.4-18,36.6-31.3,59.7-36.6c0.7-5.4-4.4-8.8-8.1-11.7c1-3.3,2.4-6.5,2.4-9.9
		C112.2,524.3,108,523.6,105.6,522z"/>
	<path class="st0" d="M528.3,1522.1c-5.6,0.8-12.7-0.2-16.4,5.1c6.5,2.6,13.5,4.3,19.4,8.4c15.5,11.6,54.8,42.2,73.9,43.9
		c-3.3-4.5-8.7-6.6-12.8-10.3c-18-15.4-31.3-36.6-36.6-59.7c-5.4-0.7-8.8,4.4-11.7,8.1c-3.3-1-6.5-2.4-9.9-2.4
		C530.6,1515.5,529.9,1519.7,528.3,1522.1z"/>
	<path class="st0" d="M1528.4,1099.4c0.8,5.6-0.2,12.7,5.1,16.4c2.6-6.5,4.3-13.5,8.4-19.4c11.6-15.5,42.2-54.8,43.9-73.9
		c-4.5,3.3-6.6,8.7-10.3,12.8c-15.4,18-36.6,31.3-59.7,36.6c-0.7,5.4,4.4,8.8,8.1,11.7c-1,3.3-2.4,6.5-2.4,9.9
		C1521.8,1097.1,1526,1097.8,1528.4,1099.4z"/>
	<path class="st0" d="M1528.4,522c0.8-5.6-0.2-12.7,5.1-16.4c2.6,6.5,4.3,13.5,8.4,19.4c11.6,15.5,42.2,54.8,43.9,73.9
		c-4.5-3.3-6.6-8.7-10.3-12.8c-15.4-18-36.6-31.3-59.7-36.6c-0.7-5.4,4.4-8.8,8.1-11.7c-1-3.3-2.4-6.5-2.4-9.9
		C1521.8,524.3,1526,523.6,1528.4,522z"/>
	<path class="st0" d="M528.3,99.3c-5.6-0.8-12.7,0.2-16.4-5.1c6.5-2.6,13.5-4.3,19.4-8.4c15.5-11.6,54.8-42.2,73.9-43.9
		c-3.3,4.5-8.7,6.6-12.8,10.3c-18,15.4-31.3,36.6-36.6,59.7c-5.4,0.7-8.8-4.4-11.7-8.1c-3.3,1-6.5,2.4-9.9,2.4
		C530.6,105.9,529.9,101.7,528.3,99.3z"/>
	<path class="st0" d="M105.6,1099.4c-0.8,5.6,0.2,12.7-5.1,16.4c-2.6-6.5-4.3-13.5-8.4-19.4c-11.6-15.5-42.2-54.8-43.9-73.9
		c4.5,3.3,6.6,8.7,10.3,12.8c15.4,18,36.6,31.3,59.7,36.6c0.7,5.4-4.4,8.8-8.1,11.7c1,3.3,2.4,6.5,2.4,9.9
		C112.2,1097.1,108,1097.8,105.6,1099.4z"/>
	<path class="st0" d="M1105.7,1522.1c5.6,0.8,12.7-0.2,16.4,5.1c-6.5,2.6-13.5,4.3-19.4,8.4c-15.5,11.6-54.8,42.2-73.9,43.9
		c3.3-4.5,8.7-6.6,12.8-10.3c18-15.4,31.3-36.6,36.6-59.7c5.4-0.7,8.8,4.4,11.7,8.1c3.3-1,6.5-2.4,9.9-2.4
		C1103.4,1515.5,1104.1,1519.7,1105.7,1522.1z"/>
	<path class="st0" d="M1090.7,127.1c-2.3,0.8-4.5,1.7-6.6,2.8c1.1,16.6,1.7,33.6-2.1,50c-4.4,15.3-10.5,31.6-24.2,41
		c-3.8,3-8.9,2.7-13.6,3.2c0.3,7.3,6.8,12.9,13.5,14.5c6.9,1.2,14.4-0.1,20.1-4.1C1108.4,214.6,1097.7,142.5,1090.7,127.1z"/>
	<path class="st0" d="M133.4,537c0.8,2.3,1.7,4.5,2.8,6.6c16.6-1.1,33.6-1.7,50,2.1c15.3,4.4,31.6,10.5,41,24.2
		c3,3.8,2.7,8.9,3.2,13.6c7.3-0.3,12.9-6.8,14.5-13.5c1.2-6.9-0.1-14.4-4.1-20.1C220.9,519.3,148.8,530,133.4,537z"/>
	<path class="st0" d="M543.3,1494.3c2.3-0.8,4.5-1.7,6.6-2.8c-1.1-16.6-1.7-33.6,2.1-50c4.4-15.3,10.5-31.7,24.2-41
		c3.8-3,8.9-2.7,13.6-3.2c-0.3-7.3-6.8-12.9-13.5-14.5c-6.9-1.2-14.4,0.1-20.1,4.1C525.6,1406.8,536.3,1479,543.3,1494.3z"/>
	<path class="st0" d="M1500.6,1084.4c-0.8-2.3-1.7-4.5-2.8-6.6c-16.6,1.1-33.6,1.7-50-2.1c-15.3-4.4-31.7-10.5-41-24.2
		c-3-3.8-2.7-8.9-3.2-13.6c-7.3,0.3-12.9,6.8-14.5,13.5c-1.2,6.9,0.1,14.4,4.1,20.1C1413.1,1102.1,1485.2,1091.4,1500.6,1084.4z"/>
	<path class="st0" d="M1500.6,537c-0.8,2.3-1.7,4.5-2.8,6.6c-16.6-1.1-33.6-1.7-50,2.1c-15.3,4.4-31.7,10.5-41,24.2
		c-3,3.8-2.7,8.9-3.2,13.6c-7.3-0.3-12.9-6.8-14.5-13.5c-1.2-6.9,0.1-14.4,4.1-20.1C1413.1,519.3,1485.2,530,1500.6,537z"/>
	<path class="st0" d="M543.3,127.1c2.3,0.8,4.5,1.7,6.6,2.8c-1.1,16.6-1.7,33.6,2.1,50c4.4,15.3,10.5,31.6,24.2,41
		c3.8,3,8.9,2.7,13.6,3.2c-0.3,7.3-6.8,12.9-13.5,14.5c-6.9,1.2-14.4-0.1-20.1-4.1C525.6,214.6,536.3,142.5,543.3,127.1z"/>
	<path class="st0" d="M133.4,1084.4c0.8-2.3,1.7-4.5,2.8-6.6c16.6,1.1,33.6,1.7,50-2.1c15.3-4.4,31.6-10.5,41-24.2
		c3-3.8,2.7-8.9,3.2-13.6c7.3,0.3,12.9,6.8,14.5,13.5c1.2,6.9-0.1,14.4-4.1,20.1C220.9,1102.1,148.8,1091.4,133.4,1084.4z"/>
	<path class="st0" d="M1090.7,1494.3c-2.3-0.8-4.5-1.7-6.6-2.8c1.1-16.6,1.7-33.6-2.1-50c-4.4-15.3-10.5-31.7-24.2-41
		c-3.8-3-8.9-2.7-13.6-3.2c0.3-7.3,6.8-12.9,13.5-14.5c6.9-1.2,14.4,0.1,20.1,4.1C1108.4,1406.8,1097.7,1479,1090.7,1494.3z"/>
	<path class="st0" d="M1066,109.3c-14.7-44.2-50.9-70.7-80.9-75.2c-33.9-8.2-73.1,1.9-98.7,22.6c2.4,5.4,7.4,8.8,11.4,13
		c16.1-7.5,53.3-36.8,109.4-7c25.7,15.2,41.6,44.2,43.3,73.7c1.4,16.5-5.3,32.4-13.8,46.2c-15,23.4-48.9,39.5-77.8,28.4
		c-58.7-17.9-57.4-89.1-10.8-105.1c24.1-7.1,56,11.1,47.1,41.8c-3.6,10.9-16.8,16.3-27.4,12.9c-5.8-2.9-10.7-9-10.1-15.8
		c1.3-3.4,3.7-6.1,5.2-9.4c-3.6,0-7.6,0.3-10.3,3.1c-12,11.7-3.7,37.4,20.4,40c20.7,1.3,40.8-17,40.2-38c-0.3-10.1-1.7-20.9-8.2-29
		c-5.4-6.6-11.9-12.4-19.3-16.7c-20-11.1-46-7.1-63.8,6.3c-36.6,30-31,85.2,2.2,111.3c18.6,14.5,43.1,22.5,66.7,18.8
		C1047.6,223.8,1083.7,162,1066,109.3z"/>
	<path class="st0" d="M115.6,561.7c-44.2,14.7-70.7,50.9-75.2,80.9c-8.2,33.9,1.9,73.1,22.6,98.7c5.4-2.4,8.8-7.4,13-11.4
		c-7.5-16.1-36.8-53.3-7-109.4c15.2-25.7,44.2-41.6,73.7-43.3c16.5-1.4,32.4,5.3,46.2,13.8c23.4,15,39.5,48.9,28.4,77.8
		c-17.9,58.7-89.1,57.4-105.1,10.8c-7.1-24.1,11.1-56,41.8-47.1c10.9,3.6,16.3,16.8,12.9,27.4c-2.9,5.8-9,10.7-15.8,10.1
		c-3.4-1.3-6.1-3.7-9.4-5.2c0,3.6,0.3,7.6,3.1,10.3c11.7,12,37.4,3.7,40-20.4c1.3-20.7-17-40.8-38-40.2c-10.1,0.3-20.9,1.7-29,8.2
		c-6.6,5.4-12.4,11.9-16.7,19.3c-11.1,20-7.1,46,6.3,63.8c30,36.6,85.2,31,111.3-2.2c14.5-18.6,22.5-43.1,18.8-66.7
		C230.1,580.1,168.3,544,115.6,561.7z"/>
	<path class="st0" d="M568,1512.1c14.7,44.2,50.9,70.7,80.9,75.2c33.9,8.2,73.1-1.9,98.7-22.6c-2.4-5.4-7.4-8.8-11.4-13
		c-16.1,7.5-53.3,36.8-109.4,7c-25.7-15.2-41.6-44.2-43.3-73.7c-1.4-16.5,5.3-32.4,13.8-46.2c15-23.4,48.9-39.5,77.8-28.4
		c58.7,17.9,57.4,89.1,10.8,105.1c-24.1,7.1-56-11.1-47.1-41.8c3.6-10.9,16.8-16.3,27.4-12.9c5.8,2.9,10.7,9,10.1,15.8
		c-1.3,3.4-3.7,6.1-5.2,9.4c3.6,0,7.6-0.3,10.3-3.1c12-11.7,3.7-37.4-20.4-40c-20.7-1.3-40.8,17-40.2,38c0.3,10.1,1.7,20.9,8.2,29
		c5.4,6.6,11.9,12.4,19.3,16.7c20,11.1,46,7.1,63.8-6.3c36.6-30,31-85.2-2.2-111.3c-18.6-14.5-43.1-22.5-66.7-18.8
		C586.4,1397.6,550.3,1459.4,568,1512.1z"/>
	<path class="st0" d="M1518.4,1059.7c44.2-14.7,70.7-50.9,75.2-80.9c8.2-33.9-1.9-73.1-22.6-98.7c-5.4,2.4-8.8,7.4-13,11.4
		c7.5,16.1,36.8,53.3,7,109.4c-15.2,25.7-44.2,41.6-73.7,43.3c-16.5,1.4-32.4-5.3-46.2-13.8c-23.4-15-39.5-48.9-28.4-77.8
		c17.9-58.7,89.1-57.4,105.1-10.8c7.1,24.1-11.1,56-41.8,47.1c-10.9-3.6-16.3-16.8-12.9-27.4c2.9-5.8,9-10.7,15.8-10.1
		c3.4,1.3,6.1,3.7,9.4,5.2c0-3.6-0.3-7.6-3.1-10.3c-11.7-12-37.4-3.7-40,20.4c-1.3,20.7,17,40.8,38,40.2c10.1-0.3,20.9-1.7,29-8.2
		c6.6-5.4,12.4-11.9,16.7-19.3c11.1-20,7.1-46-6.3-63.8c-30-36.6-85.2-31-111.3,2.2c-14.5,18.6-22.5,43.1-18.8,66.7
		C1403.9,1041.3,1465.7,1077.4,1518.4,1059.7z"/>
	<path class="st0" d="M1518.4,561.7c44.2,14.7,70.7,50.9,75.2,80.9c8.2,33.9-1.9,73.1-22.6,98.7c-5.4-2.4-8.8-7.4-13-11.4
		c7.5-16.1,36.8-53.3,7-109.4c-15.2-25.7-44.2-41.6-73.7-43.3c-16.5-1.4-32.4,5.3-46.2,13.8c-23.4,15-39.5,48.9-28.4,77.8
		c17.9,58.7,89.1,57.4,105.1,10.8c7.1-24.1-11.1-56-41.8-47.1c-10.9,3.6-16.3,16.8-12.9,27.4c2.9,5.8,9,10.7,15.8,10.1
		c3.4-1.3,6.1-3.7,9.4-5.2c0,3.6-0.3,7.6-3.1,10.3c-11.7,12-37.4,3.7-40-20.4c-1.3-20.7,17-40.8,38-40.2c10.1,0.3,20.9,1.7,29,8.2
		c6.6,5.4,12.4,11.9,16.7,19.3c11.1,20,7.1,46-6.3,63.8c-30,36.6-85.2,31-111.3-2.2c-14.5-18.6-22.5-43.1-18.8-66.7
		C1403.9,580.1,1465.7,544,1518.4,561.7z"/>
	<path class="st0" d="M568,109.3C582.8,65.1,619,38.6,649,34.1c33.9-8.2,73.1,1.9,98.7,22.6c-2.4,5.4-7.4,8.8-11.4,13
		c-16.1-7.5-53.3-36.8-109.4-7c-25.7,15.2-41.6,44.2-43.3,73.7c-1.4,16.5,5.3,32.4,13.8,46.2c15,23.4,48.9,39.5,77.8,28.4
		c58.7-17.9,57.4-89.1,10.8-105.1c-24.1-7.1-56,11.1-47.1,41.8c3.6,10.9,16.8,16.3,27.4,12.9c5.8-2.9,10.7-9,10.1-15.8
		c-1.3-3.4-3.7-6.1-5.2-9.4c3.6,0,7.6,0.3,10.3,3.1c12,11.7,3.7,37.4-20.4,40c-20.7,1.3-40.8-17-40.2-38c0.3-10.1,1.7-20.9,8.2-29
		c5.4-6.6,11.9-12.4,19.3-16.7c20-11.1,46-7.1,63.8,6.3c36.6,30,31,85.2-2.2,111.3c-18.6,14.5-43.1,22.5-66.7,18.8
		C586.4,223.8,550.3,162,568,109.3z"/>
	<path class="st0" d="M115.6,1059.7c-44.2-14.7-70.7-50.9-75.2-80.9c-8.2-33.9,1.9-73.1,22.6-98.7c5.4,2.4,8.8,7.4,13,11.4
		c-7.5,16.1-36.8,53.3-7,109.4c15.2,25.7,44.2,41.6,73.7,43.3c16.5,1.4,32.4-5.3,46.2-13.8c23.4-15,39.5-48.9,28.4-77.8
		c-17.9-58.7-89.1-57.4-105.1-10.8c-7.1,24.1,11.1,56,41.8,47.1c10.9-3.6,16.3-16.8,12.9-27.4c-2.9-5.8-9-10.7-15.8-10.1
		c-3.4,1.3-6.1,3.7-9.4,5.2c0-3.6,0.3-7.6,3.1-10.3c11.7-12,37.4-3.7,40,20.4c1.3,20.7-17,40.8-38,40.2c-10.1-0.3-20.9-1.7-29-8.2
		c-6.6-5.4-12.4-11.9-16.7-19.3c-11.1-20-7.1-46,6.3-63.8c30-36.6,85.2-31,111.3,2.2c14.5,18.6,22.5,43.1,18.8,66.7
		C230.1,1041.3,168.3,1077.4,115.6,1059.7z"/>
	<path class="st0" d="M1066,1512.1c-14.7,44.2-50.9,70.7-80.9,75.2c-33.9,8.2-73.1-1.9-98.7-22.6c2.4-5.4,7.4-8.8,11.4-13
		c16.1,7.5,53.3,36.8,109.4,7c25.7-15.2,41.6-44.2,43.3-73.7c1.4-16.5-5.3-32.4-13.8-46.2c-15-23.4-48.9-39.5-77.8-28.4
		c-58.7,17.9-57.4,89.1-10.8,105.1c24.1,7.1,56-11.1,47.1-41.8c-3.6-10.9-16.8-16.3-27.4-12.9c-5.8,2.9-10.7,9-10.1,15.8
		c1.3,3.4,3.7,6.1,5.2,9.4c-3.6,0-7.6-0.3-10.3-3.1c-12-11.7-3.7-37.4,20.4-40c20.7-1.3,40.8,17,40.2,38c-0.3,10.1-1.7,20.9-8.2,29
		c-5.4,6.6-11.9,12.4-19.3,16.7c-20,11.1-46,7.1-63.8-6.3c-36.6-30-31-85.2,2.2-111.3c18.6-14.5,43.1-22.5,66.7-18.8
		C1047.6,1397.6,1083.7,1459.4,1066,1512.1z"/>
	<path class="st0" d="M894.7,88.5c1.9-2,5.5-5.3,2.5-7.9c-31.3-32.9-41.1-40.1-53.3-53.3c-5.7-5.5-10.9-11.7-17.1-16.6
		c-3.6,2.6-7.1,5.6-9.5,9.5c12.6,12,71.4,71.7,71.4,71.7C891.2,92.7,893,89.9,894.7,88.5z"/>
	<path class="st0" d="M94.8,733c-2-1.9-5.3-5.5-7.9-2.5c-32.9,31.3-40.1,41.1-53.3,53.3c-5.5,5.7-11.7,10.9-16.6,17.1
		c2.6,3.6,5.6,7.1,9.5,9.5c12-12.6,71.7-71.4,71.7-71.4C99,736.5,96.2,734.8,94.8,733z"/>
	<path class="st0" d="M739.3,1532.9c-1.9,2-5.5,5.3-2.5,7.9c31.3,32.9,41.1,40.1,53.3,53.3c5.7,5.5,10.9,11.7,17.1,16.6
		c3.6-2.6,7.1-5.6,9.5-9.5c-12.6-12-71.4-71.7-71.4-71.7C742.8,1528.7,741,1531.5,739.3,1532.9z"/>
	<path class="st0" d="M1539.2,888.4c2,1.9,5.3,5.5,7.9,2.5c32.9-31.3,40.1-41.1,53.3-53.3c5.5-5.7,11.7-10.9,16.6-17.1
		c-2.6-3.6-5.6-7.1-9.5-9.5c-12,12.6-71.7,71.4-71.7,71.4C1535,884.9,1537.8,886.7,1539.2,888.4z"/>
	<path class="st0" d="M1539.2,733c2-1.9,5.3-5.5,7.9-2.5c32.9,31.3,40.1,41.1,53.3,53.3c5.5,5.7,11.7,10.9,16.6,17.1
		c-2.6,3.6-5.6,7.1-9.5,9.5c-12-12.6-71.7-71.4-71.7-71.4C1535,736.5,1537.8,734.8,1539.2,733z"/>
	<path class="st0" d="M739.3,88.5c-1.9-2-5.5-5.3-2.5-7.9c31.3-32.9,41.1-40.1,53.3-53.3c5.7-5.5,10.9-11.7,17.1-16.6
		c3.6,2.6,7.1,5.6,9.5,9.5c-12.6,12-71.4,71.7-71.4,71.7C742.8,92.7,741,89.9,739.3,88.5z"/>
	<path class="st0" d="M94.8,888.4c-2,1.9-5.3,5.5-7.9,2.5c-32.9-31.3-40.1-41.1-53.3-53.3c-5.5-5.7-11.7-10.9-16.6-17.1
		c2.6-3.6,5.6-7.1,9.5-9.5c12,12.6,71.7,71.4,71.7,71.4C99,884.9,96.2,886.7,94.8,888.4z"/>
	<path class="st0" d="M894.7,1532.9c1.9,2,5.5,5.3,2.5,7.9c-31.3,32.9-41.1,40.1-53.3,53.3c-5.7,5.5-10.9,11.7-17.1,16.6
		c-3.6-2.6-7.1-5.6-9.5-9.5c12.6-12,71.4-71.7,71.4-71.7C891.2,1528.7,893,1531.5,894.7,1532.9z"/>
	<path class="st0" d="M817,73.7c8.5-5.3,16.8-10.9,25.5-15.8c3.4,2.9,6.5,6.2,9.3,9.6c-7.7,13.2-16.5,25.9-24,39.3
		c-4.4,7.3-7.3,15.4-10.7,23.3c-3.4-7.8-6.3-15.9-10.7-23.3c-7.5-13.4-16.3-26-24-39.3c2.8-3.5,5.9-6.7,9.3-9.6
		C800.2,62.9,808.5,68.4,817,73.7z"/>
	<path class="st0" d="M1554,810.7c5.3,8.5,10.9,16.8,15.8,25.5c-2.9,3.4-6.2,6.5-9.6,9.3c-13.2-7.7-25.9-16.5-39.3-24
		c-7.3-4.4-15.4-7.3-23.3-10.7c7.8-3.4,15.9-6.3,23.3-10.7c13.4-7.5,26-16.3,39.3-24c3.5,2.8,6.7,5.9,9.6,9.3
		C1564.8,793.9,1559.3,802.2,1554,810.7z"/>
	<path class="st0" d="M817,1547.7c-8.5,5.3-16.8,10.9-25.5,15.8c-3.4-2.9-6.5-6.2-9.3-9.6c7.7-13.2,16.5-25.9,24-39.3
		c4.4-7.3,7.3-15.4,10.7-23.3c3.4,7.8,6.3,15.9,10.7,23.3c7.5,13.4,16.3,26,24,39.3c-2.8,3.5-5.9,6.7-9.3,9.6
		C833.8,1558.5,825.5,1553,817,1547.7z"/>
	<path class="st0" d="M80,810.7c-5.3-8.5-10.9-16.8-15.8-25.5c2.9-3.4,6.2-6.5,9.6-9.3c13.2,7.7,25.9,16.5,39.3,24
		c7.3,4.4,15.4,7.3,23.3,10.7c-7.8,3.4-15.9,6.3-23.3,10.7c-13.4,7.5-26,16.3-39.3,24c-3.5-2.8-6.7-5.9-9.6-9.3
		C69.2,827.5,74.7,819.2,80,810.7z"/>
	<path class="st0" d="M817,55.2c4.6-2.8,9-6,13.1-9.5c-3.8-4.6-8.4-8.6-12.9-12.5c-0.1,0-0.1,0.1-0.2,0.1c-0.1,0-0.1-0.1-0.2-0.1
		c-4.5,3.9-9.1,7.9-12.9,12.5C808,49.1,812.4,52.3,817,55.2z"/>
	<path class="st0" d="M1572.6,810.7c2.8,4.6,6,9,9.5,13.1c4.6-3.8,8.6-8.4,12.5-12.9c0-0.1-0.1-0.1-0.1-0.2c0-0.1,0.1-0.1,0.1-0.2
		c-3.9-4.5-7.9-9.1-12.5-12.9C1578.6,801.7,1575.4,806.1,1572.6,810.7z"/>
	<path class="st0" d="M817,1566.3c-4.6,2.8-9,6-13.1,9.5c3.8,4.6,8.4,8.6,12.9,12.5c0.1,0,0.1-0.1,0.2-0.1c0.1,0,0.1,0.1,0.2,0.1
		c4.5-3.9,9.1-7.9,12.9-12.5C826,1572.3,821.6,1569.1,817,1566.3z"/>
	<path class="st0" d="M61.4,810.7c-2.8-4.6-6-9-9.5-13.1c-4.6,3.8-8.6,8.4-12.5,12.9c0,0.1,0.1,0.1,0.1,0.2c0,0.1-0.1,0.1-0.1,0.2
		c3.9,4.5,7.9,9.1,12.5,12.9C55.4,819.7,58.6,815.3,61.4,810.7z"/>
</g>
</svg>
