<?xml version="1.0" encoding="utf-8"?>
<!-- Generator: Adobe Illustrator 24.2.1, SVG Export Plug-In . SVG Version: 6.00 Build 0)  -->
<svg version="1.1" id="Layer_1" xmlns="http://www.w3.org/2000/svg" xmlns:xlink="http://www.w3.org/1999/xlink" x="0px" y="0px"
	 viewBox="0 0 2586 454.2" style="enable-background:new 0 0 2586 454.2;" xml:space="preserve">
<style type="text/css">
	.st0{fill:#FFFFFF;}
</style>
<g>
	<path class="st0" d="M545.8,393.9c7.3-2.6,14.7-6.9,17.9-14.3c3.7-7,5.5-16.7-0.3-23.1c-3.7,5.3-10.9,19.2-38.7,13
		c-15-4.9-29.1-12.1-42.3-20.6c-16.5-9.8-75.7-53.5-75.7-53.5c-2.2-1.2-3.9,1.4-5.4,2.6c6.9,7,14.9,13,22.1,19.7
		c67.7,58.6,75.4,63.8,91.2,71.7C524.4,393.7,535.3,396.7,545.8,393.9z"/>
	<path class="st0" d="M491.3,381.5c-18.7-1.6-17.7,0.7-81.6-68.9c-3.5-3.8-6.6-8.1-10.6-11.5c-1.8-1.8-4,0.2-5.7,1.1
		c2.6,5.1,6.6,9.1,9.9,13.8c21.2,28.2,40.6,58.9,52.6,71.4C467.2,398.9,487.8,396.2,491.3,381.5z"/>
	<path class="st0" d="M418.6,391.7c5.9,4.5,16.2,0.9,17.1-6.7c0.8-8.3-4.4-15.3-7.9-22.2c-8.4-14-8.4-17.1-26.7-42.3
		c-3.7-5-6.6-10.6-10.9-15.2c-1.7-2.3-4.4-0.1-6.2,1c2.9,7.7,17.2,29.2,22.7,49.6C412.4,373.1,411.6,385.7,418.6,391.7z"/>
	<path class="st0" d="M406.5,287.4c-1.9-1.6-4.7-4.5-7.1-2c-9.7,8.2-22.3,11.7-34.3,15.1c-0.4,2,0,4.1,1.3,5.7
		C385.4,302.5,402,292.7,406.5,287.4z"/>
	<path class="st0" d="M403.3,378.2c1.2-10.6-1.8-21-5.3-30.9c-5.1-13.7-11-27.3-18.3-39.9c-1.5,0.2-2.8,0.8-4,1.7
		c4,12.4,15.5,43.4,9.8,67.7c-1,5.4-5.8,8.5-9.1,12.5C385.6,399,401.5,391.6,403.3,378.2z"/>
	<path class="st0" d="M335.4,251.9c13.5,11.6,23.4,27.4,27.5,44.8c4.1,0.5,6.6-3.3,8.8-6.1c2.5,0.7,4.9,1.8,7.5,1.8
		c2.6-0.2,3.1-3.4,4.4-5.2c4.2-0.6,9.5,0.2,12.3-3.9c-4.9-1.9-10.1-3.3-14.5-6.3c-11.6-8.7-41.1-31.6-55.4-32.9
		C328.2,247.6,332.3,249.2,335.4,251.9z"/>
	<path class="st0" d="M347.4,391.8c5.2,0.9,10.8,0,15.1-3.1c22.9-15,14.8-69,9.6-80.6c-1.7,0.6-3.4,1.3-5,2.1
		c0.9,12.5,1.3,25.2-1.6,37.5c-3.3,11.5-7.9,23.7-18.1,30.7c-2.9,2.3-6.7,2-10.2,2.4C337.5,386.3,342.4,390.5,347.4,391.8z"/>
	<path class="st0" d="M247.2,372.1c13.9,10.9,32.3,16.9,50,14.1c42.6-5.5,69.7-51.9,56.4-91.4c-11-33.1-38.2-53.1-60.7-56.4
		c-25.5-6.1-54.8,1.4-74,17c1.8,4,5.6,6.6,8.5,9.7c12.1-5.6,40-27.6,82.1-5.3c19.3,11.4,31.2,33.2,32.5,55.3
		c1,12.4-3.9,24.3-10.4,34.6c-11.2,17.5-36.7,29.6-58.4,21.3c-44-13.4-43.1-66.8-8.1-78.9c18-5.3,42,8.3,35.3,31.4
		c-2.7,8.2-12.6,12.2-20.5,9.7c-4.3-2.2-8.1-6.8-7.5-11.8c1-2.5,2.8-4.6,3.9-7.1c-2.7,0-5.7,0.2-7.7,2.3c-9,8.8-2.7,28,15.3,30
		c15.5,1,30.6-12.8,30.2-28.5c-0.3-7.5-1.3-15.6-6.2-21.8c-4-4.9-8.9-9.3-14.4-12.5c-15-8.4-34.5-5.4-47.9,4.7
		C218.1,311.1,222.3,352.5,247.2,372.1z"/>
	<path class="st0" d="M225.1,279.2c1.4-1.5,4.1-4,1.9-5.9c-23.5-24.7-30.8-30.1-40-40c-2.1-2-4.1-4.1-6.1-6.2c2-2.1,4-4.2,6.1-6.2
		c9.2-9.9,16.5-15.3,40-40c2.3-2-0.5-4.4-1.9-5.9c-1.3-1-2.6-3.1-4.6-2.5c0,0-44.1,44.8-53.5,53.8c0.2,0.3,0.4,0.6,0.6,0.9
		c-0.2,0.3-0.4,0.6-0.6,0.9c9.5,9,53.5,53.8,53.5,53.8C222.5,282.4,223.8,280.2,225.1,279.2z"/>
	<path class="st0" d="M190.6,414.7c-7.6-1.7-12.3-8.5-16.5-14.5c-18.8-28.7-11.5-64.3-11.2-73c-2.6-0.7-6.4-0.3-6.9,2.9
		c-5.3,19.5-6.5,40-4.7,60.1c1.8,16.8,10.1,37.1,25.9,43c5.9,1.6,12.9,0.9,17.8-3.2c4.7-4.1,9.2-9.5,8.4-16.1
		C199.2,414.5,194.9,416.1,190.6,414.7z"/>
	<path class="st0" d="M174.9,292.9c5.6-10,12.2-19.5,18-29.4c-2.1-2.6-4.4-5-6.9-7.2c-12.8,7.3-24.7,16.4-38.2,22.5
		c-3.6,1.5-7.2,2.8-10.6,4.7c1.2,4.2,5.3,6,8.9,7.6c-7.6,5.5-12.1,14.5-11.9,23.9c14.6,0,18.4-6.3,23.2-10.2
		c2.7,2.8,4.6,6.9,8.6,7.7C168.9,305.9,171.1,299.1,174.9,292.9z"/>
	<path class="st0" d="M125.3,324c13,1.9,26.6,1,39.3-2.4c0.1-1.9,1.9-5-0.6-6c-9.3,3-19.1,4.3-28.9,3.9c-1.8-0.1-3.5-0.6-5.2-1.2
		c-1.3-10.1,0-20.3,2.3-30.2c0.4-1.4,0.3-2.9-0.1-4.3c-1.6,0.5-3.3,0.9-4.9,1.4C123.8,297.8,122.2,311.3,125.3,324z"/>
	<path class="st0" d="M150.6,328.8c-2.4,0-4.8,0.3-7.2,0.7c-4.4,9.2-8.2,18.6-11.9,28.1c-5.1,11.8-9,24.2-11.2,36.9
		c-1.7,8.5-1.4,17.4,0.8,25.8c1.5,6.1,5.9,11,11,14.5c11.6-10.9,11-28.7,9.6-44.6c-0.6-14.1,2-28.2,4.4-42
		C147.3,341.6,149.9,335.4,150.6,328.8z"/>
	<path class="st0" d="M128.7,331.7c-48.3,62.1-60.1,79-47.1,103.3c4.3,0,7.6-3.1,10.6-5.7c7.8-7.4,9.9-18.3,13.2-28
		c2.7-7.5,3.9-15.5,6.9-22.9c10.1-24.8,21.2-39.2,26.9-49.4C135.5,328.3,131,328.1,128.7,331.7z"/>
	<path class="st0" d="M119.8,323.7c-4.3,2.2-7.4,6.1-11.1,9.2c-47.5,43.1-55.9,44.6-72.7,58.3c-7.2,6.5-13.8,13.9-18.3,22.6
		c-3.4,6.3-4.6,13.4-4.8,20.5c29.1,2.7,48.7-28.2,59.7-43.6c16.2-22.1,35.1-41.9,53.5-62.1C123.9,327.3,122,325.3,119.8,323.7z"/>
	<path class="st0" d="M122.1,286.3c-6.9-0.2-43.1,7.1-72-10.1c-6.5-4.3-13.6-9-16.4-16.6c-2.1-4.4-0.7-9.2,0.1-13.7
		c-6.2-0.6-11.4,3.5-15.3,7.8c-6.4,6.8-7,21,6.9,31.3c16.2,12,34,13.6,54.7,13.3c13.7-0.1,27.1-2.9,40.4-5.8
		C121.3,290.4,121.8,288.4,122.1,286.3z"/>
	<path class="st0" d="M41.5,369.6c22.6-8.6,41.3-24.3,60.6-38.4c21.1-16.6,17-11.3,17.3-20.4c-7.3,2.8-13.5,7.6-20.3,11.4
		c-25.9,15.7-37.5,15.7-61.4,23.7c-5.8,2.1-12,4.1-16.7,8.3c-3.5,3.3-6.8,7.1-8,11.9C21.2,371.5,32.2,373.2,41.5,369.6z"/>
	<path class="st0" d="M13.4,316.3c3.3,5.7,9.5,9.1,15.5,11.2c19.2,5,42.8-2.4,61.4-10.1c9.7-4,19.7-7.4,29-12.2
		c0.1-2.3,0.2-4.6,0.1-6.9c-3.3,0.5-29.6,8.3-53.2,8.8C48.8,307.7,30.8,301.8,13.4,316.3z"/>
	<path class="st0" d="M2384,272.4c-3.6,2.8-6.6,6.2-9.4,9.8c2.3,4.7,5.9,8.5,8,13.3c3.5,7.6,6.5,15.6,7.9,23.9
		c2.8,25.3-3.8,47.2-16.3,62.1c-5.3,6.3-10.8,12.6-17.5,17.4c-17.9,12.9-39.9,19-61.7,20.2c-12.9,0.2-1488.1,0.8-1744.8,0.8
		c-104.1,0-246.3-0.6-259.1-0.8c-21.8-1.2-43.8-7.3-61.7-20.2c-6.8-4.8-12.2-11.1-17.5-17.4c-12.5-14.9-19.1-36.8-16.3-62.1
		c1.3-8.3,4.4-16.3,7.9-23.9c2.1-4.7,5.8-8.6,8-13.3c-2.8-3.6-5.8-7-9.4-9.8c-6.4,5.9-27.9,40.7-19.9,78.6
		c7.7,32.8,25.7,54.5,54.1,70c34.2,17,73.2,14.6,87.9,14.8c0.7,0,137,0.3,227.2,0.3c253.8,0,1709.9-0.3,1710.6-0.3
		c14.7-0.2,53.7,2.2,87.9-14.8c28.3-15.5,46.4-37.2,54.1-70C2411.9,313.1,2390.3,278.3,2384,272.4z"/>
	<path class="st0" d="M2022.4,379.6c3.2,7.4,10.6,11.7,17.9,14.3c10.4,2.8,21.4-0.2,31-4.3c15.8-8,23.6-13.1,91.3-71.7
		c7.3-6.7,15.2-12.7,22.1-19.7c-1.5-1.2-3.2-3.9-5.4-2.6c0,0-59.2,43.7-75.7,53.5c-13.2,8.5-27.3,15.8-42.3,20.6
		c-27.7,6.2-35-7.7-38.7-13C2016.9,362.9,2018.6,372.6,2022.4,379.6z"/>
	<path class="st0" d="M2130,387.3c12-12.5,31.3-43.2,52.6-71.4c3.2-4.6,7.3-8.7,9.9-13.8c-1.7-0.9-3.9-2.9-5.7-1.1
		c-4,3.4-7,7.7-10.6,11.5c-63.9,69.7-62.9,67.4-81.6,68.9C2098.2,396.2,2118.8,398.9,2130,387.3z"/>
	<path class="st0" d="M2167.4,391.7c6.9-6,6.2-18.5,12-35.9c5.5-20.3,19.7-41.8,22.7-49.6c-1.8-1.1-4.5-3.3-6.2-1
		c-4.3,4.6-7.3,10.1-10.9,15.2c-18.3,25.2-18.4,28.3-26.7,42.3c-3.6,7-8.7,14-7.9,22.2C2151.2,392.5,2161.6,396.2,2167.4,391.7z"/>
	<path class="st0" d="M2219.7,306.2c1.3-1.6,1.7-3.7,1.3-5.7c-12-3.4-24.6-6.9-34.3-15.1c-2.4-2.5-5.2,0.4-7.1,2
		C2184,292.7,2200.6,302.5,2219.7,306.2z"/>
	<path class="st0" d="M2209.6,389.2c-3.3-3.9-8.1-7.1-9.1-12.5c-5.7-24.3,5.9-55.3,9.8-67.7c-1.2-0.9-2.5-1.5-4-1.7
		c-7.4,12.7-13.3,26.2-18.3,39.9c-3.4,9.9-6.5,20.3-5.3,30.9C2184.5,391.6,2200.4,399,2209.6,389.2z"/>
	<path class="st0" d="M2223.2,296.7c4-17.4,13.9-33.2,27.5-44.8c3.1-2.7,7.1-4.3,9.6-7.7c-14.3,1.3-43.8,24.2-55.4,32.9
		c-4.4,3-9.6,4.3-14.5,6.3c2.8,4,8.1,3.3,12.3,3.9c1.3,1.8,1.7,5,4.4,5.2c2.6,0,5-1.1,7.4-1.8
		C2216.6,293.4,2219.1,297.3,2223.2,296.7z"/>
	<path class="st0" d="M2223.4,388.7c4.3,3,9.9,4,15.1,3.1c5-1.3,9.9-5.4,10.1-10.9c-3.5-0.4-7.3-0.1-10.2-2.4
		c-10.2-7-14.9-19.3-18.1-30.7c-2.8-12.3-2.4-25-1.6-37.5c-1.6-0.8-3.3-1.5-5-2.1C2208.6,319.6,2200.6,373.7,2223.4,388.7z"/>
	<path class="st0" d="M2288.8,386.2c17.6,2.8,36.1-3.2,50-14.1c24.9-19.6,29.1-61,1.6-83.5c-13.4-10.1-32.9-13.1-47.9-4.7
		c-5.5,3.3-10.4,7.6-14.4,12.5c-4.9,6.1-5.9,14.2-6.2,21.8c-0.4,15.7,14.7,29.5,30.2,28.5c18.1-2,24.3-21.2,15.3-30
		c-2-2.1-5-2.3-7.7-2.3c1.1,2.5,2.9,4.5,3.9,7.1c0.5,5.1-3.2,9.7-7.6,11.8c-7.9,2.6-17.9-1.5-20.5-9.7
		c-6.7-23.1,17.3-36.7,35.3-31.4c35,12,35.9,65.4-8.1,78.9c-21.7,8.4-47.1-3.8-58.4-21.3c-6.4-10.3-11.4-22.3-10.4-34.6
		c1.3-22.1,13.2-43.9,32.5-55.3c42.1-22.3,70-0.4,82.1,5.3c3-3.1,6.7-5.7,8.5-9.7c-19.2-15.6-48.5-23.1-74-17
		c-22.5,3.3-49.7,23.3-60.7,56.4C2219.1,334.3,2246.2,380.6,2288.8,386.2z"/>
	<path class="st0" d="M2365.4,281.7c0,0,44.1-44.8,53.5-53.8c-0.2-0.3-0.4-0.6-0.6-0.9c0.2-0.3,0.4-0.6,0.6-0.9
		c-9.5-9-53.5-53.8-53.5-53.8c-1.9-0.6-3.3,1.5-4.6,2.5c-1.4,1.5-4.1,4-1.9,5.9c23.5,24.7,30.8,30.1,40,40c2.1,2,4.1,4.1,6.1,6.2
		c-2,2.1-4,4.2-6.1,6.2c-9.2,9.9-16.5,15.3-40,40c-2.3,2,0.5,4.5,1.9,5.9C2362.2,280.2,2363.5,282.4,2365.4,281.7z"/>
	<path class="st0" d="M2423.1,327.1c0.2,8.7,7.6,44.4-11.2,73c-4.2,6-8.9,12.8-16.5,14.5c-4.2,1.4-8.5-0.2-12.7-0.8
		c-0.8,6.6,3.7,12.1,8.4,16.1c4.8,4.1,11.8,4.7,17.8,3.2c15.8-5.9,24.1-26.2,25.9-43c1.8-20.1,0.6-40.6-4.7-60.1
		C2429.5,326.8,2425.7,326.5,2423.1,327.1z"/>
	<path class="st0" d="M2420.1,312.5c4.1-0.9,6-4.9,8.6-7.7c4.7,3.9,8.5,10.2,23.2,10.2c0.2-9.4-4.3-18.4-11.9-23.9
		c3.6-1.7,7.7-3.5,8.9-7.6c-3.4-1.9-7.1-3.2-10.6-4.7c-13.5-6.2-25.4-15.2-38.2-22.5c-2.6,2.2-4.8,4.6-6.9,7.2
		c5.8,9.9,12.4,19.4,18,29.4C2414.9,299.1,2417.1,305.9,2420.1,312.5z"/>
	<path class="st0" d="M2460.7,324c3.1-12.7,1.5-26.2-2-38.7c-1.6-0.5-3.3-1-4.9-1.4c-0.4,1.4-0.5,2.9-0.1,4.3
		c2.3,9.8,3.6,20.1,2.3,30.2c-1.7,0.5-3.4,1.1-5.2,1.2c-9.8,0.4-19.6-0.8-28.9-3.9c-2.4,1-0.6,4.1-0.6,6
		C2434.1,325,2447.7,325.9,2460.7,324z"/>
	<path class="st0" d="M2454.5,357.6c-3.7-9.5-7.6-18.9-11.9-28.1c-2.4-0.4-4.8-0.7-7.2-0.7c0.6,6.6,3.3,12.8,4.4,19.3
		c2.4,13.9,5.1,27.9,4.4,42c-1.4,15.9-2,33.6,9.6,44.6c5.1-3.4,9.6-8.4,11.1-14.5c2.2-8.4,2.5-17.3,0.8-25.8
		C2463.5,381.8,2459.6,369.4,2454.5,357.6z"/>
	<path class="st0" d="M2446.8,329.1c5.7,10.1,16.8,24.5,26.9,49.4c2.9,7.4,4.2,15.4,6.9,22.9c3.3,9.7,5.4,20.7,13.2,28
		c3.1,2.5,6.4,5.7,10.6,5.7c13-24.3,1.2-41.2-47.1-103.3C2455,328.1,2450.5,328.3,2446.8,329.1z"/>
	<path class="st0" d="M2549.9,391.2c-16.8-13.8-25.2-15.2-72.7-58.3c-3.6-3.1-6.8-6.9-11.1-9.2c-2.1,1.6-4,3.5-6.3,4.9
		c18.3,20.3,37.3,40,53.5,62.1c11,15.3,30.5,46.2,59.7,43.6c-0.2-7-1.4-14.2-4.8-20.5C2563.7,405.1,2557.1,397.7,2549.9,391.2z"/>
	<path class="st0" d="M2465.5,292.4c13.3,2.9,26.7,5.7,40.4,5.8c20.6,0.4,38.5-1.3,54.7-13.3c13.8-10.3,13.3-24.4,6.9-31.3
		c-3.9-4.3-9.1-8.5-15.3-7.8c0.8,4.5,2.3,9.3,0.1,13.7c-2.8,7.7-9.9,12.3-16.4,16.6c-28.9,17.3-65.1,9.9-72,10.1
		C2464.2,288.4,2464.7,290.4,2465.5,292.4z"/>
	<path class="st0" d="M2565,354.1c-4.7-4.2-10.9-6.2-16.7-8.3c-23.9-7.9-35.5-8-61.4-23.7c-6.8-3.8-13-8.6-20.3-11.4
		c0.3,9.2-3.8,3.9,17.3,20.4c19.3,14.1,38,29.8,60.6,38.4c9.3,3.7,20.3,2,28.5-3.6C2571.7,361.2,2568.4,357.4,2565,354.1z"/>
	<path class="st0" d="M2495.7,317.3c18.6,7.7,42.1,15.1,61.4,10.1c6-2.1,12.2-5.5,15.5-11.2c-17.3-14.5-35.3-8.5-52.7-9.3
		c-23.6-0.5-49.9-8.2-53.1-8.8c-0.1,2.3-0.1,4.6,0.1,6.9C2476.1,309.9,2486,313.3,2495.7,317.3z"/>
	<path class="st0" d="M202,181.8c3.6-2.8,6.6-6.2,9.4-9.8c-2.3-4.7-5.9-8.5-8-13.3c-3.5-7.6-6.5-15.6-7.9-23.9
		c-2.8-25.3,3.8-47.2,16.3-62.1c5.3-6.3,10.8-12.6,17.5-17.3c17.9-12.9,39.9-19,61.7-20.2c13.3-0.2,1551.7-0.8,1735-0.8
		c104.7,0,255.7,0.6,268.9,0.8c21.8,1.2,43.8,7.3,61.7,20.2c6.8,4.8,12.2,11.1,17.5,17.3c12.5,14.9,19.1,36.8,16.3,62.1
		c-1.3,8.3-4.4,16.3-7.9,23.9c-2.1,4.7-5.8,8.6-8,13.3c2.8,3.6,5.8,7,9.4,9.8c6.4-5.9,27.9-40.7,19.9-78.6
		c-7.7-32.8-25.7-54.5-54.1-70c-34.2-17-73.2-14.6-87.9-14.8c-0.7,0-146.2-0.3-236-0.3c-175.4,0-1701.1,0.3-1701.8,0.3
		c-14.7,0.2-53.7-2.2-87.9,14.8c-28.3,15.5-46.4,37.2-54.1,70C174.1,141,195.7,175.9,202,181.8z"/>
	<path class="st0" d="M563.6,74.6c-3.2-7.4-10.6-11.7-17.9-14.3c-10.4-2.8-21.4,0.2-31,4.3c-15.8,8-23.6,13.1-91.3,71.7
		c-7.3,6.7-15.2,12.7-22.1,19.7c1.5,1.2,3.2,3.9,5.4,2.6c0,0,59.2-43.7,75.7-53.5c13.2-8.5,27.3-15.8,42.3-20.6
		c27.7-6.2,35,7.7,38.7,13C569.1,91.2,567.4,81.5,563.6,74.6z"/>
	<path class="st0" d="M409.8,141.6c63.9-69.7,62.9-67.4,81.6-68.9c-3.5-14.7-24.1-17.5-35.4-5.9c-12,12.5-31.3,43.2-52.6,71.4
		c-3.2,4.6-7.3,8.7-9.9,13.8c1.7,0.9,3.9,2.9,5.7,1.1C403.2,149.7,406.2,145.4,409.8,141.6z"/>
	<path class="st0" d="M418.6,62.5c-6.9,6-6.2,18.5-12,35.9c-5.5,20.3-19.7,41.8-22.7,49.6c1.8,1.1,4.5,3.3,6.2,1
		c4.3-4.6,7.3-10.1,10.9-15.2c18.3-25.2,18.4-28.3,26.7-42.3c3.5-7,8.7-14,7.9-22.2C434.8,61.6,424.4,58,418.6,62.5z"/>
	<path class="st0" d="M366.3,148c-1.3,1.6-1.7,3.7-1.3,5.7c12,3.4,24.6,6.9,34.3,15.1c2.5,2.5,5.2-0.4,7.1-2
		C402,161.4,385.4,151.6,366.3,148z"/>
	<path class="st0" d="M376.4,65c3.3,3.9,8.1,7.1,9.1,12.5c5.7,24.3-5.9,55.3-9.8,67.7c1.2,0.9,2.5,1.5,4,1.7
		c7.4-12.7,13.3-26.2,18.3-39.9c3.4-9.9,6.5-20.3,5.3-30.9C401.5,62.6,385.6,55.1,376.4,65z"/>
	<path class="st0" d="M395.7,170.8c-2.8-4-8.1-3.3-12.3-3.9c-1.3-1.8-1.7-5-4.4-5.2c-2.6,0-5,1.1-7.5,1.8c-2.2-2.8-4.7-6.6-8.8-6.1
		c-4,17.4-14,33.2-27.5,44.8c-3.1,2.7-7.1,4.3-9.6,7.7c14.3-1.3,43.8-24.2,55.4-32.9C385.6,174,390.8,172.7,395.7,170.8z"/>
	<path class="st0" d="M362.5,65.5c-4.3-3-9.9-4-15.1-3.1c-5,1.3-9.9,5.4-10.1,10.9c3.5,0.4,7.3,0.1,10.2,2.4
		c10.2,7,14.9,19.3,18.1,30.7c2.8,12.3,2.4,25,1.6,37.5c1.6,0.8,3.3,1.5,5,2.1C377.4,134.5,385.4,80.4,362.5,65.5z"/>
	<path class="st0" d="M297.2,68c-17.6-2.8-36.1,3.2-50,14.1c-24.9,19.6-29.1,61-1.6,83.5c13.4,10.1,32.9,13.1,47.9,4.7
		c5.5-3.3,10.4-7.6,14.4-12.5c4.9-6.1,5.9-14.2,6.2-21.8c0.4-15.7-14.7-29.5-30.2-28.5c-18.1,2-24.3,21.2-15.3,30
		c2,2.1,5,2.3,7.7,2.3c-1.1-2.5-2.9-4.6-3.9-7.1c-0.5-5.1,3.2-9.7,7.5-11.8c7.9-2.6,17.9,1.5,20.5,9.7c6.7,23.1-17.3,36.7-35.3,31.4
		c-35-12-35.9-65.4,8.1-78.8c21.7-8.4,47.1,3.8,58.4,21.3c6.4,10.3,11.4,22.3,10.4,34.6c-1.3,22.1-13.2,43.9-32.5,55.3
		c-42.1,22.3-70,0.4-82.1-5.3c-3,3.1-6.7,5.7-8.5,9.7c19.2,15.6,48.5,23.1,74,17c22.5-3.3,49.7-23.3,60.7-56.4
		C366.9,119.9,339.8,73.5,297.2,68z"/>
	<path class="st0" d="M162.9,127c-0.2-8.7-7.6-44.4,11.2-73c4.2-6,8.9-12.8,16.5-14.5c4.2-1.4,8.5,0.2,12.7,0.8
		c0.8-6.6-3.7-12.1-8.4-16.1c-4.8-4.1-11.8-4.7-17.8-3.2c-15.8,5.9-24.1,26.2-25.9,43c-1.8,20.1-0.6,40.6,4.7,60.1
		C156.5,127.3,160.3,127.7,162.9,127z"/>
	<path class="st0" d="M137.1,170.7c3.4,1.9,7.1,3.2,10.6,4.7c13.5,6.2,25.4,15.2,38.2,22.5c2.6-2.2,4.8-4.6,6.9-7.2
		c-5.8-9.9-12.4-19.4-18-29.4c-3.7-6.2-6-13.1-9-19.6c-4.1,0.9-6,4.9-8.6,7.7c-4.7-3.9-8.5-10.2-23.2-10.2
		c-0.2,9.4,4.3,18.4,11.9,23.9C142.4,164.8,138.3,166.5,137.1,170.7z"/>
	<path class="st0" d="M125.3,130.1c-3.2,12.7-1.5,26.2,2,38.7c1.6,0.5,3.3,0.9,4.9,1.4c0.4-1.4,0.5-2.9,0.1-4.3
		c-2.3-9.8-3.6-20.1-2.3-30.2c1.7-0.5,3.4-1.1,5.2-1.2c9.8-0.4,19.6,0.8,28.9,3.9c2.4-1,0.6-4.1,0.6-6
		C151.9,129.1,138.3,128.2,125.3,130.1z"/>
	<path class="st0" d="M131.5,96.6c3.7,9.5,7.6,18.9,11.9,28.1c2.4,0.4,4.8,0.7,7.2,0.7c-0.6-6.6-3.3-12.8-4.4-19.3
		c-2.4-13.9-5.1-27.9-4.4-42c1.4-15.9,2-33.6-9.6-44.6c-5.1,3.4-9.6,8.4-11.1,14.5c-2.2,8.4-2.5,17.3-0.8,25.8
		C122.5,72.4,126.4,84.8,131.5,96.6z"/>
	<path class="st0" d="M139.2,125.1c-5.7-10.1-16.8-24.5-26.9-49.4c-2.9-7.4-4.2-15.4-6.9-22.9c-3.3-9.7-5.4-20.7-13.2-28
		c-3.1-2.5-6.4-5.7-10.6-5.7c-13,24.3-1.2,41.2,47.1,103.3C131,126,135.5,125.8,139.2,125.1z"/>
	<path class="st0" d="M36.1,63c16.8,13.8,25.2,15.2,72.7,58.3c3.6,3.1,6.8,6.9,11.1,9.2c2.1-1.6,4-3.6,6.3-4.9
		c-18.3-20.3-37.3-40-53.5-62.1C61.7,48.1,42.2,17.2,13,19.9c0.2,7,1.4,14.2,4.8,20.5C22.3,49,28.9,56.5,36.1,63z"/>
	<path class="st0" d="M120.5,161.7c-13.3-2.9-26.7-5.7-40.4-5.8c-20.6-0.4-38.5,1.3-54.7,13.3c-13.8,10.3-13.3,24.4-6.9,31.3
		c3.9,4.3,9.1,8.5,15.3,7.8c-0.8-4.5-2.3-9.3-0.1-13.7c2.8-7.7,9.9-12.3,16.4-16.6c28.9-17.3,65.1-9.9,72-10.1
		C121.8,165.8,121.3,163.7,120.5,161.7z"/>
	<path class="st0" d="M21,100.1c4.7,4.2,10.9,6.2,16.7,8.3c23.9,7.9,35.5,8,61.4,23.7c6.8,3.8,13,8.6,20.3,11.4
		c-0.3-9.2,3.8-3.9-17.3-20.4c-19.3-14.1-38-29.8-60.6-38.4c-9.3-3.7-20.3-1.9-28.5,3.6C14.3,92.9,17.5,96.8,21,100.1z"/>
	<path class="st0" d="M66.2,147.2c23.6,0.5,49.9,8.2,53.2,8.8c0.1-2.3,0.1-4.6-0.1-6.9c-9.3-4.8-19.3-8.2-29-12.2
		c-18.6-7.7-42.1-15.1-61.4-10.1c-6,2.1-12.2,5.5-15.5,11.2C30.8,152.4,48.8,146.4,66.2,147.2z"/>
	<path class="st0" d="M2040.2,60.3c-7.3,2.6-14.7,6.9-17.9,14.3c-3.7,7-5.5,16.7,0.3,23.1c3.7-5.3,10.9-19.2,38.7-13
		c15,4.8,29.1,12.1,42.3,20.6c16.5,9.8,75.7,53.5,75.7,53.5c2.2,1.2,3.9-1.4,5.4-2.6c-6.9-7.1-14.9-13-22.1-19.7
		c-67.7-58.6-75.4-63.8-91.3-71.7C2061.6,60.5,2050.6,57.5,2040.2,60.3z"/>
	<path class="st0" d="M2094.7,72.7c18.7,1.6,17.7-0.7,81.6,68.9c3.6,3.8,6.6,8.1,10.6,11.5c1.8,1.8,4-0.2,5.7-1.1
		c-2.6-5.1-6.6-9.1-9.9-13.8c-21.2-28.2-40.6-58.9-52.6-71.4C2118.8,55.2,2098.2,58,2094.7,72.7z"/>
	<path class="st0" d="M2167.4,62.5c-5.9-4.5-16.2-0.9-17.1,6.7c-0.8,8.3,4.4,15.3,7.9,22.2c8.4,14,8.4,17.1,26.7,42.3
		c3.7,5,6.6,10.6,10.9,15.2c1.7,2.3,4.4,0.1,6.2-1c-2.9-7.7-17.2-29.2-22.7-49.6C2173.6,81,2174.4,68.5,2167.4,62.5z"/>
	<path class="st0" d="M2186.7,168.8c9.7-8.2,22.3-11.7,34.3-15.1c0.4-2,0-4.1-1.3-5.7c-19.1,3.6-35.7,13.5-40.1,18.8
		C2181.5,168.4,2184.2,171.3,2186.7,168.8z"/>
	<path class="st0" d="M2182.7,76c-1.2,10.6,1.8,21,5.3,30.9c5.1,13.7,10.9,27.3,18.3,39.9c1.4-0.2,2.8-0.8,4-1.7
		c-4-12.4-15.5-43.4-9.8-67.7c1.1-5.4,5.8-8.5,9.1-12.5C2200.4,55.1,2184.5,62.6,2182.7,76z"/>
	<path class="st0" d="M2250.6,202.2c-13.5-11.6-23.4-27.4-27.5-44.8c-4.1-0.5-6.6,3.3-8.8,6.1c-2.4-0.7-4.9-1.8-7.4-1.8
		c-2.6,0.2-3.1,3.4-4.4,5.2c-4.2,0.6-9.5-0.2-12.3,3.9c4.9,1.9,10.1,3.3,14.5,6.3c11.6,8.7,41.1,31.6,55.4,32.9
		C2257.8,206.5,2253.7,205,2250.6,202.2z"/>
	<path class="st0" d="M2238.6,62.4c-5.2-0.9-10.8,0-15.1,3.1c-22.9,15-14.8,69-9.6,80.6c1.7-0.6,3.4-1.3,5-2.1
		c-0.9-12.5-1.3-25.2,1.6-37.5c3.3-11.4,7.9-23.7,18.1-30.7c2.9-2.3,6.7-2,10.2-2.4C2248.5,67.8,2243.6,63.6,2238.6,62.4z"/>
	<path class="st0" d="M2309.7,139.9c2.7,0,5.7-0.2,7.7-2.3c9-8.8,2.7-28-15.3-30c-15.5-1-30.6,12.8-30.2,28.5
		c0.3,7.6,1.3,15.6,6.2,21.8c4.1,4.9,8.9,9.3,14.4,12.5c15,8.4,34.5,5.4,47.9-4.7c27.4-22.5,23.2-63.9-1.6-83.5
		c-13.9-10.9-32.4-16.9-50-14.1c-42.6,5.5-69.7,51.9-56.4,91.4c11,33.1,38.2,53.1,60.7,56.4c25.5,6.1,54.8-1.4,74-17
		c-1.8-4-5.6-6.6-8.5-9.7c-12.1,5.6-40,27.6-82.1,5.3c-19.3-11.4-31.2-33.2-32.5-55.3c-1-12.4,3.9-24.3,10.4-34.6
		c11.2-17.5,36.7-29.6,58.4-21.3c44,13.4,43.1,66.8,8.1,78.8c-18,5.3-42-8.3-35.3-31.4c2.7-8.2,12.6-12.2,20.5-9.7
		c4.3,2.2,8.1,6.8,7.6,11.8C2312.6,135.3,2310.8,137.4,2309.7,139.9z"/>
	<path class="st0" d="M2395.4,39.5c7.6,1.7,12.3,8.5,16.5,14.5c18.8,28.7,11.5,64.3,11.2,73c2.6,0.7,6.4,0.3,6.9-2.9
		c5.3-19.5,6.5-40,4.7-60.1c-1.8-16.8-10.1-37.1-25.9-43c-5.9-1.6-12.9-0.9-17.8,3.2c-4.7,4.1-9.2,9.5-8.4,16.1
		C2386.8,39.6,2391.1,38.1,2395.4,39.5z"/>
	<path class="st0" d="M2451.9,139.2c-14.6,0-18.4,6.3-23.2,10.2c-2.7-2.8-4.6-6.9-8.6-7.7c-3,6.5-5.3,13.4-9,19.6
		c-5.6,10-12.2,19.5-18,29.4c2.1,2.6,4.4,5,6.9,7.2c12.8-7.3,24.7-16.4,38.2-22.5c3.6-1.5,7.2-2.8,10.6-4.7
		c-1.2-4.2-5.3-5.9-8.9-7.6C2447.6,157.6,2452.1,148.6,2451.9,139.2z"/>
	<path class="st0" d="M2460.7,130.1c-13-1.9-26.6-1-39.3,2.4c-0.1,1.9-1.9,5.1,0.6,6c9.3-3.1,19.1-4.3,28.9-3.9
		c1.8,0.1,3.5,0.6,5.2,1.2c1.3,10.1,0,20.3-2.3,30.2c-0.4,1.4-0.3,2.9,0.1,4.3c1.6-0.5,3.3-0.9,4.9-1.4
		C2462.1,156.3,2463.8,142.9,2460.7,130.1z"/>
	<path class="st0" d="M2435.4,125.4c2.4,0,4.8-0.3,7.2-0.7c4.4-9.2,8.2-18.6,11.9-28.1c5.1-11.8,9-24.2,11.2-36.9
		c1.7-8.5,1.4-17.4-0.8-25.8c-1.5-6.1-5.9-11-11.1-14.5c-11.6,10.9-11,28.7-9.6,44.6c0.6,14.2-2,28.2-4.4,42
		C2438.7,112.6,2436.1,118.8,2435.4,125.4z"/>
	<path class="st0" d="M2457.3,122.4c48.3-62.1,60.1-79,47.1-103.3c-4.3,0-7.6,3.1-10.6,5.7c-7.8,7.4-9.9,18.3-13.2,28
		c-2.7,7.5-3.9,15.5-6.9,22.9c-10.1,24.8-21.2,39.2-26.9,49.4C2450.5,125.8,2455,126,2457.3,122.4z"/>
	<path class="st0" d="M2466.1,130.4c4.3-2.2,7.4-6.1,11.1-9.2c47.5-43.1,55.9-44.6,72.7-58.3c7.2-6.5,13.8-13.9,18.3-22.7
		c3.4-6.3,4.6-13.4,4.8-20.5c-29.1-2.7-48.7,28.2-59.7,43.6c-16.2,22.1-35.1,41.9-53.5,62.1C2462.1,126.9,2464,128.8,2466.1,130.4z"
		/>
	<path class="st0" d="M2567.4,200.5c6.4-6.8,7-21-6.9-31.3c-16.2-12-34-13.6-54.7-13.3c-13.7,0.1-27.1,2.9-40.4,5.8
		c-0.8,2-1.3,4.1-1.6,6.1c6.9,0.2,43.1-7.1,72,10.1c6.5,4.3,13.6,8.9,16.4,16.6c2.1,4.4,0.7,9.2-0.1,13.7
		C2558.3,209,2563.5,204.8,2567.4,200.5z"/>
	<path class="st0" d="M2544.5,84.6c-22.6,8.6-41.3,24.3-60.6,38.4c-21.1,16.6-17,11.3-17.3,20.4c7.3-2.8,13.5-7.6,20.3-11.4
		c25.9-15.7,37.5-15.7,61.4-23.7c5.8-2.1,11.9-4.1,16.7-8.3c3.5-3.3,6.8-7.1,8-11.9C2564.8,82.7,2553.8,80.9,2544.5,84.6z"/>
	<path class="st0" d="M2557.1,126.7c-19.2-5-42.8,2.4-61.4,10.1c-9.7,4-19.7,7.4-29,12.2c-0.1,2.3-0.1,4.6-0.1,6.9
		c3.3-0.5,29.6-8.3,53.1-8.8c17.4-0.8,35.4,5.2,52.7-9.3C2569.3,132.2,2563.1,128.8,2557.1,126.7z"/>
</g>
</svg>
