<?xml version="1.0" encoding="utf-8"?>

<!DOCTYPE svg PUBLIC "-//W3C//DTD SVG 1.1//EN" "http://www.w3.org/Graphics/SVG/1.1/DTD/svg11.dtd">
<svg version="1.1" id="Layer_1" xmlns="http://www.w3.org/2000/svg" xmlns:xlink="http://www.w3.org/1999/xlink" x="0px" y="0px"
	 viewBox="0 0 1643.803 1643.803" enable-background="new 0 0 1643.803 1643.803" xml:space="preserve">
<g>
	<path d="M67.251,67.251c-8.971,9.849-16.847,21.161-23.847,33.931C19.155,150.067,22.527,205.783,22.302,226.79
		c-0.004,1.009-0.46,466.345-0.395,611.882c-0.065,128.401,0.391,335.499,0.395,336.508c0.225,21.007-3.148,76.724,21.101,125.608
		c22.212,40.518,53.234,66.368,100.118,77.315c54.177,11.468,104-19.316,112.427-28.421c-4.06-5.075-8.921-9.436-14.025-13.396
		c-6.662,3.274-12.166,8.435-18.943,11.494c-10.937,4.961-22.288,9.321-34.183,11.237c-36.239,4.03-67.522-5.462-88.824-23.303
		c-8.95-7.606-17.999-15.397-24.804-25.076c-18.442-25.519-27.135-57.043-28.85-88.195c-0.291-18.947-1.133-233.951-1.157-383.659
		c0.024-164.615,0.867-640.311,1.157-659.259c1.715-31.152,10.408-62.676,28.85-88.195c2.211-3.145,4.66-6.091,7.265-8.896
		c2.805-2.605,5.751-5.053,8.896-7.265c25.519-18.442,57.043-27.135,88.195-28.85c18.947-0.291,494.644-1.133,659.259-1.157
		c149.708,0.024,364.712,0.867,383.659,1.157c31.152,1.715,62.676,10.408,88.195,28.85c9.679,6.805,17.47,15.855,25.076,24.804
		c17.841,21.302,27.333,52.585,23.303,88.824c-1.916,11.895-6.276,23.246-11.237,34.183c-3.06,6.776-8.22,12.281-11.494,18.943
		c3.96,5.104,8.321,9.965,13.396,14.025c9.105-8.427,39.889-58.25,28.421-112.427c-10.947-46.884-36.797-77.906-77.315-100.118
		c-48.885-24.249-104.601-20.876-125.608-21.101c-1.009-0.004-208.106-0.46-336.508-0.395
		c-145.537-0.065-610.873,0.391-611.882,0.395c-21.007,0.225-76.723-3.148-125.608,21.101C88.412,50.404,77.099,58.28,67.251,67.251
		z"/>
	<path d="M1561.367,1561.367c-2.805,2.605-5.751,5.053-8.896,7.265c-25.519,18.442-57.043,27.135-88.195,28.85
		c-19.182,0.294-239.303,1.154-389.187,1.158c-158.369-0.004-634.548-0.864-653.73-1.158c-31.152-1.715-62.676-10.408-88.195-28.85
		c-9.679-6.805-17.47-15.855-25.076-24.804c-17.841-21.302-27.333-52.585-23.303-88.824c1.916-11.895,6.276-23.246,11.237-34.183
		c3.059-6.776,8.22-12.281,11.494-18.943c-3.96-5.104-8.321-9.965-13.396-14.025c-9.105,8.427-39.889,58.25-28.421,112.427
		c10.947,46.884,36.797,77.906,77.315,100.118c48.885,24.249,104.601,20.876,125.608,21.101
		c1.023,0.004,468.674,0.473,606.424,0.392c127.896,0.081,340.942-0.388,341.966-0.392c21.007-0.225,76.724,3.148,125.609-21.101
		c12.77-7,24.082-14.876,33.931-23.847c8.971-9.849,16.847-21.161,23.847-33.931c24.249-48.885,20.876-104.602,21.101-125.609
		c0.004-1.023,0.473-214.07,0.392-341.966c0.081-137.75-0.388-605.4-0.392-606.424c-0.225-21.007,3.148-76.724-21.101-125.608
		c-22.212-40.518-53.234-66.368-100.118-77.315c-54.177-11.468-104,19.316-112.427,28.421c4.06,5.075,8.921,9.436,14.025,13.396
		c6.662-3.274,12.166-8.435,18.943-11.494c10.937-4.961,22.288-9.321,34.183-11.237c36.239-4.03,67.522,5.462,88.824,23.303
		c8.95,7.606,17.999,15.397,24.804,25.076c18.442,25.519,27.135,57.043,28.85,88.195c0.294,19.182,1.154,495.361,1.158,653.73
		c-0.004,149.884-0.864,370.005-1.158,389.187c-1.715,31.152-10.408,62.676-28.85,88.195
		C1566.421,1555.616,1563.972,1558.562,1561.367,1561.367z"/>
	<path d="M102.691,832.723c-10.536,4.589-16.698,15.197-20.444,25.562c-4.017,14.883,0.286,30.58,6.19,44.362
		c11.414,22.597,18.74,33.693,102.563,130.455c9.564,10.408,18.114,21.745,28.193,31.667c1.716-2.159,5.518-4.561,3.774-7.72
		c0,0-62.461-84.612-76.429-108.167c-12.166-18.9-22.517-39.086-29.451-60.488c-8.828-39.662,11.061-50.025,18.6-55.284
		C126.523,824.874,112.67,827.376,102.691,832.723z"/>
	<path d="M832.723,102.691c4.589-10.536,15.197-16.698,25.562-20.444c14.883-4.017,30.58,0.286,44.362,6.19
		c22.597,11.414,33.693,18.74,130.455,102.563c10.408,9.564,21.745,18.114,31.667,28.193c-2.159,1.716-4.561,5.518-7.72,3.774
		c0,0-84.612-62.461-108.167-76.429c-18.9-12.166-39.086-22.517-60.488-29.451c-39.662-8.828-50.025,11.061-55.284,18.6
		C824.874,126.523,827.376,112.67,832.723,102.691z"/>
	<path d="M785.517,1561.555c10.365-3.746,20.973-9.907,25.562-20.444c5.347-9.979,7.849-23.832-0.386-32.996
		c-5.259,7.538-15.622,27.427-55.284,18.6c-21.402-6.934-41.588-17.284-60.488-29.451c-23.554-13.968-108.167-76.429-108.167-76.429
		c-3.159-1.744-5.561,2.059-7.72,3.774c9.922,10.079,21.259,18.628,31.667,28.193c96.762,83.822,107.858,91.148,130.455,102.563
		C754.937,1561.269,770.635,1565.573,785.517,1561.555z"/>
	<path d="M1561.555,785.517c-3.746,10.365-9.907,20.973-20.444,25.562c-9.979,5.347-23.832,7.849-32.996-0.386
		c7.538-5.259,27.427-15.622,18.6-55.284c-6.934-21.402-17.284-41.588-29.451-60.488c-13.968-23.554-76.429-108.167-76.429-108.167
		c-1.744-3.159,2.059-5.561,3.774-7.72c10.079,9.922,18.628,21.259,28.193,31.667c83.822,96.762,91.148,107.858,102.563,130.455
		C1561.269,754.937,1565.573,770.635,1561.555,785.517z"/>
	<path d="M291.104,1337.859c2.399,2.539,4.87,5.031,7.494,7.346c2.315,2.624,4.807,5.094,7.346,7.494
		c5.99-3.017,9.707-8.85,14.654-13.138c10.518-9.184,22.375-17.752,34.519-25.433c-5.149-3.257-10.247-6.673-15.213-10.229
		c-3.555-4.966-6.972-10.064-10.229-15.213c-7.681,12.144-16.249,24.001-25.433,34.519
		C299.953,1328.151,294.12,1331.869,291.104,1337.859z"/>
	<path d="M1337.859,291.104c2.539,2.399,5.031,4.87,7.346,7.494c2.624,2.315,5.094,4.807,7.494,7.346
		c-3.017,5.99-8.85,9.707-13.138,14.654c-9.184,10.518-17.752,22.375-25.433,34.519c-3.257-5.149-6.673-10.247-10.229-15.213
		c-4.966-3.555-10.064-6.972-15.213-10.229c12.144-7.681,24.001-16.249,34.519-25.433
		C1328.151,299.953,1331.869,294.12,1337.859,291.104z"/>
	<path d="M198.577,1052.717c-99.588-91.312-96.327-89.886-98.545-116.616c-21.066,5.014-24.986,34.46-8.421,50.566
		c17.921,17.105,61.759,44.814,102.091,75.142c6.619,4.618,12.452,10.393,19.686,14.125c1.315-2.373,4.16-5.561,1.615-8.106
		C210.172,1062.138,204.01,1057.792,198.577,1052.717z"/>
	<path d="M1052.717,198.577c-91.312-99.588-89.886-96.327-116.616-98.545c5.014-21.066,34.46-24.986,50.566-8.421
		c17.105,17.921,44.814,61.759,75.142,102.091c4.618,6.619,10.393,12.452,14.125,19.686c-2.373,1.315-5.561,4.16-8.106,1.615
		C1062.138,210.172,1057.792,204.01,1052.717,198.577z"/>
	<path d="M707.702,1543.771c-26.73-2.218-25.304,1.042-116.616-98.545c-5.075-5.433-9.421-11.594-15.111-16.427
		c-2.545-2.545-5.733,0.3-8.106,1.615c3.731,7.234,9.507,13.067,14.125,19.686c30.328,40.332,58.036,84.169,75.142,102.091
		C673.242,1568.757,702.688,1564.836,707.702,1543.771z"/>
	<path d="M1543.771,707.702c-2.218-26.73,1.042-25.304-98.545-116.616c-5.433-5.075-11.594-9.421-16.427-15.111
		c-2.545-2.545,0.3-5.733,1.615-8.106c7.234,3.731,13.067,9.507,19.686,14.125c40.332,30.328,84.169,58.036,102.091,75.142
		C1568.757,673.242,1564.836,702.688,1543.771,707.702z"/>
	<path d="M85.435,1040.136c8.519,9.898,26.49,8.848,51.296,17.213c29.088,7.815,59.826,28.199,70.896,32.396
		c1.53-2.502,4.704-6.433,1.401-8.821c-6.519-6.133-14.482-10.365-21.688-15.597c-35.96-26.153-40.476-26.26-60.474-38.229
		c-9.993-5.075-19.986-12.438-31.795-11.351C84.177,1016.918,78.988,1031.772,85.435,1040.136z"/>
	<path d="M1040.136,85.435c9.898,8.519,8.848,26.49,17.213,51.296c7.815,29.088,28.199,59.826,32.396,70.896
		c-2.502,1.53-6.433,4.704-8.821,1.401c-6.133-6.519-10.365-14.482-15.597-21.688c-26.153-35.96-26.26-40.476-38.229-60.474
		c-5.075-9.993-12.438-19.986-11.351-31.795C1016.918,84.177,1031.772,78.988,1040.136,85.435z"/>
	<path d="M586.454,1507.072c8.365,24.806,7.315,42.777,17.213,51.296c8.364,6.448,23.217,1.258,24.39-9.636
		c1.087-11.809-6.276-21.802-11.351-31.795c-11.968-19.998-12.076-24.514-38.229-60.474c-5.232-7.205-9.464-15.168-15.597-21.688
		c-2.388-3.302-6.319-0.129-8.821,1.401C558.255,1447.246,578.639,1477.983,586.454,1507.072z"/>
	<path d="M1507.072,586.454c24.806,8.365,42.777,7.315,51.296,17.213c6.448,8.364,1.258,23.217-9.636,24.39
		c-11.809,1.087-21.802-6.276-31.795-11.351c-19.998-11.968-24.514-12.076-60.474-38.229c-7.205-5.232-15.168-9.464-21.688-15.597
		c-3.302-2.388-0.129-6.319,1.401-8.821C1447.246,558.255,1477.983,578.639,1507.072,586.454z"/>
	<path d="M207.655,1114.835c2.345,1.858,5.247,2.387,8.163,1.83c4.861-17.17,9.793-35.112,21.545-49.008
		c3.574-3.503-0.586-7.434-2.845-10.208C226.9,1063.763,212.86,1087.518,207.655,1114.835z"/>
	<path d="M1114.835,207.655c1.858,2.345,2.387,5.247,1.83,8.163c-17.17,4.861-35.112,9.793-49.008,21.545
		c-3.503,3.574-7.434-0.586-10.208-2.845C1063.763,226.9,1087.518,212.86,1114.835,207.655z"/>
	<path d="M586.354,1409.284c-2.773-2.259-6.705-6.419-10.208-2.845c-13.896,11.752-31.838,16.684-49.008,21.545
		c-0.558,2.917-0.029,5.819,1.83,8.163C556.285,1430.943,580.04,1416.903,586.354,1409.284z"/>
	<path d="M1409.284,586.354c-2.259-2.773-6.419-6.705-2.845-10.208c11.752-13.896,16.684-31.838,21.545-49.008
		c2.917-0.558,5.819-0.029,8.163,1.83C1430.943,556.285,1416.903,580.04,1409.284,586.354z"/>
	<path d="M88.967,1100.381c5.618-4.761,10.136-11.58,17.828-13.081c34.758-8.173,79.046,8.366,96.787,14.053
		c1.315-1.673,2.144-3.588,2.402-5.661c-18.114-10.536-37.457-18.943-57.1-26.191c-14.139-4.918-29.022-9.25-44.162-7.506
		C85.595,1064.58,74.91,1087.218,88.967,1100.381z"/>
	<path d="M1100.381,88.967c-4.761,5.618-11.58,10.136-13.081,17.828c-8.173,34.758,8.366,79.046,14.053,96.787
		c-1.673,1.315-3.588,2.144-5.661,2.402c-10.536-18.114-18.943-37.457-26.191-57.1c-4.918-14.139-9.25-29.022-7.506-44.162
		C1064.58,85.595,1087.218,74.91,1100.381,88.967z"/>
	<path d="M581.808,1539.081c1.744-15.14-2.588-30.023-7.506-44.162c-7.248-19.643-15.655-38.986-26.191-57.1
		c-2.073,0.257-3.989,1.087-5.661,2.402c5.687,17.741,22.226,62.029,14.053,96.787c-1.501,7.691-8.32,12.209-13.081,17.828
		C556.585,1568.893,579.223,1558.208,581.808,1539.081z"/>
	<path d="M1539.081,581.808c-15.14,1.744-30.023-2.588-44.162-7.506c-19.643-7.248-38.986-15.655-57.1-26.191
		c0.257-2.073,1.087-3.989,2.402-5.661c17.741,5.687,62.029,22.226,96.787,14.053c7.691-1.501,12.209-8.32,17.828-13.081
		C1568.893,556.585,1558.208,579.223,1539.081,581.808z"/>
	<path d="M240.223,1072.803c-5.747,3.932-4.661,11.537-5.518,17.57c-2.588,1.787-7.091,2.474-7.406,6.233
		c0.043,3.674,1.544,7.148,2.588,10.651c-3.974,3.131-9.479,6.734-8.721,12.552c24.847,5.776,47.493,19.943,64.048,39.287
		c3.889,4.403,6.162,10.179,11.008,13.71c-1.822-20.419-34.622-62.618-47.035-79.217
		C244.883,1087.285,242.996,1079.808,240.223,1072.803z"/>
	<path d="M1072.803,240.223c3.932-5.747,11.537-4.661,17.57-5.518c1.787-2.588,2.474-7.091,6.233-7.406
		c3.674,0.043,7.148,1.544,10.651,2.588c3.131-3.974,6.734-9.479,12.552-8.721c5.776,24.847,19.943,47.493,39.287,64.048
		c4.403,3.889,10.179,6.162,13.71,11.008c-20.419-1.822-62.618-34.622-79.217-47.035
		C1087.285,244.883,1079.808,242.996,1072.803,240.223z"/>
	<path d="M484.706,1358.589c19.343,16.555,33.511,39.201,39.287,64.048c5.819,0.758,9.421-4.746,12.552-8.721
		c3.503,1.044,6.977,2.545,10.651,2.588c3.76-0.314,4.446-4.818,6.233-7.406c6.033-0.858,13.639,0.229,17.57-5.518
		c-7.005-2.773-14.482-4.661-20.787-8.964c-16.599-12.413-58.797-45.213-79.216-47.035
		C474.527,1352.427,480.303,1354.7,484.706,1358.589z"/>
	<path d="M1358.589,484.706c16.555,19.343,39.201,33.511,64.048,39.287c0.758,5.819-4.746,9.421-8.721,12.552
		c1.044,3.503,2.545,6.977,2.588,10.651c-0.314,3.76-4.818,4.446-7.406,6.233c-0.858,6.033,0.229,13.639-5.518,17.57
		c-2.773-7.005-4.661-14.482-8.964-20.787c-12.413-16.599-45.213-58.797-47.035-79.216
		C1352.427,474.527,1354.7,480.303,1358.589,484.706z"/>
	<path d="M89.681,1120.21c-4.317,6.19-5.719,14.211-4.389,21.602c1.787,7.191,7.763,14.153,15.597,14.468
		c0.558-4.947,0.143-10.422,3.403-14.539c10.007-14.64,27.578-21.23,43.947-25.934c17.542-4.031,35.755-3.46,53.597-2.23
		c1.187-2.288,2.187-4.675,3.017-7.091C188.392,1099.008,111.076,1087.512,89.681,1120.21z"/>
	<path d="M1120.21,89.681c6.19-4.317,14.211-5.719,21.602-4.389c7.191,1.787,14.153,7.763,14.468,15.597
		c-4.947,0.558-10.422,0.143-14.539,3.403c-14.64,10.007-21.23,27.578-25.934,43.947c-4.031,17.542-3.46,35.755-2.23,53.597
		c-2.288,1.187-4.675,2.187-7.091,3.017C1099.008,188.392,1087.512,111.076,1120.21,89.681z"/>
	<path d="M501.991,1558.51c7.391,1.329,15.412-0.072,21.602-4.389c32.698-21.394,21.202-98.711,13.725-115.172
		c-2.416,0.829-4.804,1.83-7.091,3.017c1.229,17.842,1.801,36.056-2.23,53.597c-4.704,16.369-11.294,33.94-25.934,43.947
		c-4.117,3.26-9.593,2.845-14.54,3.403C487.837,1550.747,494.8,1556.723,501.991,1558.51z"/>
	<path d="M1558.51,501.991c1.329,7.391-0.072,15.412-4.389,21.602c-21.394,32.698-98.711,21.202-115.172,13.725
		c0.829-2.416,1.83-4.804,3.017-7.091c17.842,1.229,36.056,1.801,53.597-2.23c16.369-4.704,33.94-11.294,43.947-25.934
		c3.26-4.117,2.845-9.593,3.403-14.54C1550.747,487.837,1556.723,494.8,1558.51,501.991z"/>
	<path d="M93.284,1213.68c-4.003,25.233,4.561,51.567,20.129,71.482c27.998,35.548,87.2,41.544,119.389,2.33
		c14.382-19.171,18.671-47.049,6.719-68.465c-4.646-7.892-10.851-14.854-17.913-20.644c-8.721-6.948-20.301-8.464-31.095-8.821
		c-22.474-0.6-42.132,20.959-40.702,43.118c2.85,25.816,30.372,34.784,42.932,21.902c2.974-2.874,3.303-7.148,3.303-11.023
		c-3.531,1.544-6.505,4.16-10.108,5.547c-7.234,0.729-13.839-4.603-16.927-10.794c-3.674-11.309,2.102-25.519,13.81-29.351
		c32.995-9.534,52.432,24.687,44.862,50.481c-17.179,50.033-93.515,51.377-112.727-11.551
		c-11.943-31.032,5.369-67.384,30.437-83.463c14.725-9.193,31.81-16.284,49.509-14.825c31.581,1.901,62.733,18.9,79.002,46.478
		c31.896,60.229,0.534,100.065-7.52,117.359c4.446,4.232,8.149,9.593,13.896,12.181c22.263-27.422,33.025-69.398,24.275-105.793
		c-4.748-32.199-33.239-71.006-80.603-86.794C167.451,1113.983,101.193,1152.759,93.284,1213.68z"/>
	<path d="M1213.68,93.284c25.233-4.003,51.567,4.561,71.482,20.129c35.548,27.998,41.544,87.2,2.33,119.389
		c-19.171,14.382-47.049,18.671-68.465,6.719c-7.892-4.646-14.854-10.851-20.644-17.913c-6.948-8.721-8.464-20.301-8.821-31.095
		c-0.6-22.474,20.959-42.132,43.118-40.702c25.816,2.85,34.784,30.372,21.902,42.932c-2.874,2.974-7.148,3.303-11.023,3.303
		c1.544-3.531,4.16-6.505,5.547-10.108c0.729-7.234-4.603-13.839-10.794-16.927c-11.309-3.674-25.519,2.102-29.351,13.81
		c-9.534,32.995,24.687,52.432,50.481,44.862c50.033-17.179,51.377-93.515-11.551-112.727
		c-31.032-11.943-67.384,5.369-83.463,30.437c-9.193,14.725-16.284,31.81-14.825,49.509c1.901,31.581,18.9,62.733,46.478,79.002
		c60.229,31.896,100.065,0.534,117.359-7.52c4.232,4.446,9.593,8.149,12.181,13.896c-27.422,22.263-69.398,33.025-105.793,24.275
		c-32.199-4.748-71.006-33.239-86.794-80.603C1113.983,167.451,1152.759,101.193,1213.68,93.284z"/>
	<path d="M358.64,1530.389c19.915,15.569,46.249,24.132,71.482,20.129c60.921-7.909,99.697-74.167,80.646-130.669
		c-15.788-47.364-54.595-75.855-86.793-80.603c-36.396-8.75-78.371,2.012-105.794,24.275c2.588,5.747,7.949,9.45,12.181,13.896
		c17.294-8.054,57.13-39.416,117.359-7.52c27.578,16.269,44.576,47.421,46.478,79.002c1.458,17.699-5.633,34.783-14.825,49.509
		c-16.078,25.068-52.43,42.38-83.463,30.437c-62.928-19.212-61.584-95.548-11.551-112.727c25.793-7.57,60.015,11.867,50.481,44.862
		c-3.831,11.709-18.042,17.484-29.351,13.81c-6.19-3.088-11.523-9.693-10.794-16.927c1.387-3.603,4.003-6.576,5.547-10.108
		c-3.874,0-8.149,0.329-11.023,3.302c-12.882,12.56-3.914,40.082,21.902,42.932c22.159,1.43,43.718-18.228,43.118-40.702
		c-0.357-10.794-1.873-22.374-8.821-31.095c-5.79-7.062-12.752-13.267-20.644-17.913c-21.416-11.952-49.294-7.663-68.465,6.719
		C317.096,1443.189,323.093,1502.391,358.64,1530.389z"/>
	<path d="M1530.389,358.64c15.569,19.915,24.132,46.249,20.129,71.482c-7.909,60.921-74.167,99.697-130.669,80.646
		c-47.364-15.788-75.855-54.595-80.603-86.793c-8.75-36.396,2.012-78.371,24.275-105.794c5.747,2.588,9.45,7.949,13.896,12.181
		c-8.054,17.294-39.416,57.13-7.52,117.359c16.269,27.578,47.421,44.576,79.002,46.478c17.699,1.458,34.783-5.633,49.509-14.825
		c25.068-16.078,42.38-52.43,30.437-83.463c-19.212-62.928-95.548-61.584-112.727-11.551c-7.57,25.793,11.867,60.015,44.862,50.481
		c11.709-3.831,17.484-18.042,13.81-29.351c-3.088-6.19-9.693-11.523-16.927-10.794c-3.603,1.387-6.576,4.003-10.108,5.547
		c0-3.874,0.329-8.149,3.302-11.023c12.56-12.882,40.082-3.914,42.932,21.902c1.43,22.159-18.228,43.718-40.702,43.118
		c-10.794-0.357-22.374-1.873-31.095-8.821c-7.062-5.79-13.267-12.752-17.913-20.644c-11.952-21.416-7.663-49.294,6.719-68.465
		C1443.189,317.096,1502.391,323.093,1530.389,358.64z"/>
	<path d="M327.117,1397.59c2.016-2.13,5.933-5.69,2.716-8.492c-17.613-18.491-28.858-29.413-37.468-37.66
		c-8.247-8.61-19.169-19.855-37.66-37.468c-2.802-3.217-6.362,0.701-8.492,2.716c-1.487,1.873-4.503,3.76-3.574,6.534
		c0,0,19.555,19.232,39.218,38.726c19.495,19.663,38.726,39.218,38.726,39.218C323.357,1402.093,325.244,1399.077,327.117,1397.59z"
		/>
	<path d="M1397.59,327.117c-2.13,2.016-5.69,5.933-8.492,2.716c-18.491-17.613-29.413-28.858-37.66-37.468
		c-8.61-8.247-19.855-19.169-37.468-37.66c-3.217-2.802,0.701-6.362,2.716-8.492c1.873-1.487,3.76-4.503,6.534-3.574
		c0,0,19.232,19.555,38.726,39.218c19.663,19.495,39.218,38.726,39.218,38.726C1402.093,323.357,1399.077,325.244,1397.59,327.117z"
		/>
	<path d="M177.69,1405.652c-12.508,0.344-63.434,10.827-104.407-16.069c-8.578-5.99-18.357-12.738-20.773-23.618
		c-1.987-6.019,0.229-12.166,1.144-18.128c-9.479-1.187-17.256,5.304-23.06,11.98c-5.876,6.905-6.762,16.898-4.532,25.405
		c8.419,22.624,37.488,34.446,61.489,37.028c28.75,2.502,58.043,0.858,85.95-6.748
		C178.148,1414.774,178.662,1409.355,177.69,1405.652z"/>
	<path d="M1405.652,177.69c0.344-12.508,10.827-63.434-16.069-104.407c-5.99-8.578-12.738-18.357-23.618-20.773
		c-6.019-1.987-12.166,0.229-18.128,1.144c-1.187-9.479,5.304-17.256,11.98-23.06c6.905-5.876,16.898-6.762,25.405-4.532
		c22.624,8.419,34.446,37.488,37.028,61.489c2.502,28.75,0.858,58.043-6.748,85.95
		C1414.774,178.148,1409.355,178.662,1405.652,177.69z"/>
	<path d="M254.219,1570.519c-26.896-40.973-16.414-91.899-16.069-104.407c-3.703-0.972-9.121-0.458-9.85,4.189
		c-7.606,27.907-9.25,57.2-6.748,85.95c2.582,24,14.403,53.07,37.028,61.489c8.506,2.23,18.5,1.344,25.405-4.532
		c6.677-5.804,13.167-13.582,11.98-23.06c-5.961,0.915-12.109,3.131-18.128,1.144
		C266.957,1588.876,260.209,1579.097,254.219,1570.519z"/>
	<path d="M1570.519,254.219c-40.973-26.896-91.899-16.414-104.407-16.069c-0.972-3.703-0.458-9.121,4.189-9.85
		c27.907-7.606,57.2-9.25,85.95-6.748c24,2.582,53.07,14.403,61.489,37.028c2.23,8.506,1.344,18.5-4.532,25.405
		c-5.804,6.677-13.582,13.167-23.06,11.98c0.915-5.961,3.131-12.109,1.144-18.128
		C1588.876,266.957,1579.097,260.209,1570.519,254.219z"/>
	<path d="M242.453,1445.14c4.289-9.321,7.506-19.157,12.838-27.978c8.049-14.354,17.456-27.892,25.762-42.089
		c-1.831-2.258-3.763-4.442-5.818-6.506c-2.064-2.056-4.247-3.988-6.506-5.818c-14.196,8.306-27.735,17.713-42.089,25.762
		c-8.821,5.333-18.657,8.549-27.978,12.838c1.215,5.833,7.048,8.564,11.023,12.366c-5.589,6.787-14.611,12.222-14.611,33.111
		c0.635,0.015,1.27,0.015,1.902,0c-0.015,0.632-0.015,1.267,0,1.902c20.888,0,26.324-9.022,33.111-14.611
		C233.89,1438.091,236.62,1443.924,242.453,1445.14z"/>
	<path d="M1445.14,242.453c-9.321,4.289-19.157,7.506-27.978,12.838c-14.354,8.049-27.892,17.456-42.089,25.762
		c-2.258-1.831-4.442-3.763-6.506-5.818c-2.056-2.064-3.988-4.247-5.818-6.506c8.306-14.196,17.713-27.735,25.762-42.089
		c5.333-8.821,8.549-18.657,12.838-27.978c5.833,1.215,8.564,7.048,12.366,11.023c6.787-5.589,12.222-14.611,33.111-14.611
		c0.015,0.635,0.015,1.27,0,1.902c0.632-0.015,1.267-0.015,1.902,0c0,20.888-9.022,26.324-14.611,33.111
		C1438.091,233.89,1443.924,236.62,1445.14,242.453z"/>
	<path d="M191.001,1453.503c-0.027-0.207-0.053-0.415-0.079-0.622c-0.208-0.025-0.415-0.052-0.622-0.079
		c-0.758-2.43-1.573-4.875-1.673-7.391c-0.629-13.982,1.187-28.035,5.547-41.317c-1.401-3.503-5.876-0.915-8.621-0.829
		c-4.846,18.156-6.133,37.514-3.417,56.113c0.617,0.153,1.235,0.297,1.854,0.434c0.137,0.619,0.281,1.237,0.434,1.854
		c18.6,2.716,37.957,1.43,56.113-3.417c0.086-2.745,2.673-7.22-0.829-8.621c-13.281,4.36-27.335,6.176-41.317,5.547
		C195.876,1455.076,193.431,1454.261,191.001,1453.503z"/>
	<path d="M1453.503,191.001c-0.207-0.027-0.415-0.053-0.622-0.079c-0.025-0.208-0.052-0.415-0.079-0.622
		c-2.43-0.758-4.875-1.573-7.391-1.673c-13.982-0.629-28.035,1.187-41.317,5.547c-3.503-1.401-0.915-5.876-0.829-8.621
		c18.156-4.846,37.514-6.133,56.113-3.417c0.153,0.617,0.297,1.235,0.434,1.854c0.619,0.137,1.237,0.281,1.854,0.434
		c2.716,18.6,1.43,37.957-3.417,56.113c-2.745,0.086-7.22,2.673-8.621-0.829c4.36-13.281,6.176-27.335,5.547-41.317
		C1455.076,195.876,1454.261,193.431,1453.503,191.001z"/>
	<path d="M134.186,1450.543c13.539-5.318,27.035-10.822,40.187-17.056c0.6-3.388,0.944-6.819,0.972-10.236
		c-9.464,0.901-18.314,4.646-27.621,6.305c-19.829,3.474-39.858,7.248-60.088,6.319c-22.734-2.05-48.1-2.863-63.705,13.739
		c4.889,7.291,11.952,13.696,20.673,15.798c11.995,3.174,24.704,3.603,36.885,1.172
		C99.603,1463.353,117.288,1457.82,134.186,1450.543z"/>
	<path d="M1450.543,134.186c-5.318,13.539-10.822,27.035-17.056,40.187c-3.388,0.6-6.819,0.944-10.236,0.972
		c0.901-9.464,4.646-18.314,6.305-27.621c3.474-19.829,7.248-39.858,6.319-60.088c-2.05-22.734-2.863-48.1,13.739-63.705
		c7.291,4.889,13.696,11.952,15.798,20.673c3.174,11.995,3.603,24.704,1.172,36.885
		C1463.353,99.603,1457.82,117.288,1450.543,134.186z"/>
	<path d="M207.927,1556.166c-0.929-20.229,2.845-40.259,6.319-60.088c1.658-9.307,5.404-18.156,6.305-27.621
		c-3.417,0.029-6.848,0.372-10.236,0.972c-6.233,13.153-11.737,26.649-17.056,40.187c-7.277,16.898-12.81,34.583-16.041,52.697
		c-2.43,12.181-2.001,24.89,1.172,36.885c2.101,8.721,8.506,15.783,15.798,20.673C210.791,1604.265,209.977,1578.9,207.927,1556.166
		z"/>
	<path d="M1556.166,207.927c-20.229-0.929-40.259,2.845-60.088,6.319c-9.307,1.658-18.156,5.404-27.621,6.305
		c0.029-3.417,0.372-6.848,0.972-10.236c13.153-6.233,26.649-11.737,40.187-17.056c16.898-7.277,34.583-12.81,52.697-16.041
		c12.181-2.43,24.89-2.001,36.885,1.172c8.721,2.101,15.783,8.506,20.673,15.798C1604.265,210.791,1578.9,209.977,1556.166,207.927z
		"/>
	<path d="M174.902,1439.478c-14.465,8.095-35.088,24.08-70.567,38.457c-10.622,4.203-22.002,5.962-32.739,9.822
		c-13.91,4.775-29.551,7.706-40.059,18.9c-3.617,4.403-8.178,9.107-8.106,15.211c34.719,18.572,58.897,1.728,147.668-67.322
		C176.26,1451.229,176.003,1444.767,174.902,1439.478z"/>
	<path d="M1439.478,174.902c8.095-14.465,24.08-35.088,38.457-70.567c4.203-10.622,5.962-22.002,9.822-32.739
		c4.775-13.91,7.706-29.551,18.9-40.059c4.403-3.617,9.107-8.178,15.211-8.106c18.572,34.719,1.728,58.897-67.322,147.668
		C1451.229,176.26,1444.767,176.003,1439.478,174.902z"/>
	<path d="M156.046,1572.206c3.86-10.737,5.619-22.117,9.822-32.739c14.378-35.479,30.362-56.102,38.457-70.567
		c-5.29-1.101-11.752-1.358-15.069,3.803c-69.05,88.771-85.893,112.948-67.322,147.668c6.105,0.071,10.808-4.489,15.211-8.106
		C148.34,1601.757,151.271,1586.117,156.046,1572.206z"/>
	<path d="M1572.206,156.046c-10.737,3.86-22.117,5.619-32.739,9.822c-35.479,14.378-56.102,30.362-70.567,38.457
		c-1.101-5.29-1.358-11.752,3.803-15.069c88.771-69.05,112.948-85.893,147.668-67.322c0.071,6.105-4.489,10.808-8.106,15.211
		C1601.757,148.34,1586.117,151.271,1572.206,156.046z"/>
	<path d="M109.225,1557.038c23.103-31.581,50.238-59.873,76.443-88.838c-2.09-1.198-3.942-2.731-5.78-4.285
		c-1.553-1.839-3.086-3.69-4.285-5.78c-28.965,26.205-57.257,53.34-88.838,76.443c-21.816,15.637-65.73,43.42-62.333,84.793
		C65.805,1622.768,93.588,1578.853,109.225,1557.038z"/>
	<path d="M1557.038,109.225c-31.581,23.103-59.873,50.238-88.838,76.443c-1.198-2.09-2.731-3.942-4.285-5.78
		c-1.839-1.553-3.69-3.086-5.78-4.285c26.205-28.965,53.34-57.257,76.443-88.838c15.637-21.816,43.42-65.73,84.793-62.333
		C1622.768,65.805,1578.853,93.588,1557.038,109.225z"/>
</g>
</svg>
