<?xml version="1.0" encoding="utf-8"?>

<!DOCTYPE svg PUBLIC "-//W3C//DTD SVG 1.1//EN" "http://www.w3.org/Graphics/SVG/1.1/DTD/svg11.dtd">
<svg version="1.1" id="Layer_1" xmlns="http://www.w3.org/2000/svg" xmlns:xlink="http://www.w3.org/1999/xlink" x="0px" y="0px"
	 viewBox="0 0 2586 454.161" enable-background="new 0 0 2586 454.161" xml:space="preserve">
<g>
	<path d="M545.76,393.896c7.25-2.62,14.67-6.93,17.88-14.3c3.74-6.98,5.49-16.67-0.27-23.08c-3.679,5.273-10.927,19.185-38.67,13.01
		c-14.97-4.85-29.09-12.09-42.31-20.6c-16.476-9.77-75.66-53.46-75.66-53.46c-2.21-1.22-3.89,1.44-5.4,2.64
		c6.94,7.05,14.87,13.03,22.15,19.72c67.683,58.632,75.444,63.756,91.25,71.74C524.37,393.696,535.35,396.706,545.76,393.896z"/>
	<path d="M491.33,381.456c-18.697-1.552-17.7,0.729-81.57-68.93c-3.55-3.8-6.59-8.11-10.57-11.49c-1.78-1.78-4.01,0.21-5.67,1.13
		c2.61,5.06,6.65,9.14,9.88,13.77c21.214,28.211,40.595,58.874,52.56,71.41C467.226,398.933,487.823,396.191,491.33,381.456z"/>
	<path d="M418.56,391.666c5.85,4.51,16.24,0.88,17.06-6.74c0.76-8.26-4.39-15.25-7.94-22.24c-8.371-13.988-8.447-17.147-26.74-42.3
		c-3.66-5.04-6.62-10.61-10.91-15.17c-1.67-2.31-4.42-0.09-6.17,0.98c2.936,7.743,17.193,29.243,22.66,49.59
		C412.371,373.137,411.636,385.708,418.56,391.666z"/>
	<path d="M406.45,287.386c-1.94-1.58-4.69-4.49-7.14-1.99c-9.72,8.22-22.27,11.67-34.28,15.07c-0.39,2.04-0.02,4.07,1.28,5.71
		C385.417,302.536,402.033,292.715,406.45,287.386z"/>
	<path d="M403.27,378.176c1.22-10.59-1.81-21-5.25-30.89c-5.07-13.74-10.95-27.27-18.32-39.94c-1.45,0.18-2.79,0.76-3.96,1.68
		c3.978,12.409,15.547,43.388,9.83,67.7c-1.05,5.38-5.82,8.54-9.15,12.47C385.627,399.029,401.462,391.554,403.27,378.176z"/>
	<path d="M335.35,251.926c13.53,11.58,23.44,27.42,27.48,44.8c4.07,0.53,6.59-3.32,8.78-6.1c2.45,0.73,4.88,1.78,7.45,1.81
		c2.63-0.22,3.11-3.37,4.36-5.18c4.22-0.6,9.54,0.16,12.29-3.86c-4.9-1.94-10.13-3.26-14.54-6.27
		c-11.611-8.683-41.127-31.625-55.41-32.9C328.23,247.616,332.27,249.206,335.35,251.926z"/>
	<path d="M347.44,391.766c5.17,0.93,10.78-0.05,15.11-3.07c22.871-14.965,14.83-69.046,9.6-80.56c-1.69,0.58-3.36,1.28-4.96,2.11
		c0.86,12.48,1.26,25.22-1.56,37.49c-3.29,11.45-7.9,23.74-18.14,30.74c-2.88,2.28-6.71,1.99-10.17,2.38
		C337.54,386.336,342.41,390.516,347.44,391.766z"/>
	<path d="M247.17,372.096c13.93,10.89,32.35,16.88,50,14.08c42.613-5.532,69.735-51.878,56.41-91.4
		c-11.043-33.13-38.188-53.059-60.71-56.38c-25.458-6.12-54.819,1.407-74,16.98c1.81,4.02,5.56,6.61,8.52,9.72
		c12.097-5.634,39.961-27.57,82.09-5.26c19.29,11.38,31.18,33.17,32.51,55.26c1.02,12.38-3.94,24.33-10.37,34.63
		c-11.246,17.534-36.674,29.644-58.38,21.29c-44.017-13.438-43.077-66.834-8.08-78.85c18.042-5.295,41.979,8.301,35.31,31.38
		c-2.68,8.19-12.62,12.23-20.53,9.66c-4.33-2.16-8.06-6.78-7.55-11.84c0.97-2.52,2.8-4.6,3.88-7.07c-2.71,0-5.7,0.23-7.71,2.31
		c-9.011,8.786-2.738,28.037,15.32,30.03c15.5,1,30.58-12.75,30.16-28.47c-0.25-7.55-1.31-15.65-6.17-21.75
		c-4.05-4.94-8.92-9.28-14.44-12.53c-14.98-8.36-34.48-5.36-47.89,4.7C218.111,311.102,222.305,352.512,247.17,372.096z"/>
	<path d="M225.12,279.206c1.41-1.49,4.15-3.98,1.9-5.94c-23.504-24.676-30.794-30.08-40.01-39.99
		c-2.092-2.005-4.079-4.122-6.106-6.196c2.027-2.073,4.014-4.191,6.106-6.196c9.216-9.91,16.506-15.314,40.01-39.99
		c2.25-1.96-0.49-4.45-1.9-5.94c-1.31-1.04-2.63-3.15-4.57-2.5c0,0-44.053,44.794-53.53,53.77c0.179,0.294,0.373,0.576,0.568,0.856
		c-0.195,0.28-0.389,0.562-0.568,0.856c9.477,8.976,53.53,53.77,53.53,53.77C222.49,282.356,223.81,280.246,225.12,279.206z"/>
	<path d="M190.65,414.696c-7.61-1.69-12.33-8.53-16.52-14.53c-18.813-28.659-11.481-64.281-11.24-73.03
		c-2.59-0.68-6.38-0.32-6.89,2.93c-5.32,19.52-6.47,40.01-4.72,60.12c1.806,16.788,10.075,37.121,25.9,43.01
		c5.95,1.56,12.94,0.94,17.77-3.17c4.67-4.06,9.21-9.5,8.38-16.13C199.16,414.536,194.86,416.086,190.65,414.696z"/>
	<path d="M174.88,292.896c5.63-10.04,12.21-19.51,18.02-29.44c-2.1-2.59-4.39-5.04-6.94-7.21c-12.81,7.34-24.74,16.35-38.22,22.54
		c-3.57,1.5-7.23,2.81-10.65,4.66c1.16,4.18,5.33,5.95,8.89,7.63c-7.63,5.48-12.11,14.5-11.89,23.9
		c14.611,0,18.413-6.31,23.16-10.22c2.66,2.78,4.57,6.86,8.65,7.71C168.9,305.946,171.15,299.066,174.88,292.896z"/>
	<path d="M125.31,324.026c13.01,1.9,26.55,1,39.25-2.39c0.06-1.92,1.87-5.05-0.58-6.03c-9.29,3.05-19.12,4.32-28.9,3.88
		c-1.76-0.07-3.47-0.64-5.17-1.17c-1.31-10.08-0.02-20.33,2.32-30.16c0.42-1.41,0.32-2.86-0.06-4.27c-1.62,0.46-3.25,0.93-4.89,1.41
		C123.85,297.816,122.16,311.286,125.31,324.026z"/>
	<path d="M150.58,328.776c-2.39,0.02-4.79,0.26-7.16,0.68c-4.36,9.2-8.21,18.64-11.93,28.11c-5.09,11.82-8.96,24.19-11.22,36.86
		c-1.7,8.52-1.4,17.41,0.82,25.8c1.47,6.1,5.95,11.04,11.05,14.46c11.613-10.915,11.044-28.658,9.61-44.56
		c-0.65-14.15,1.99-28.16,4.42-42.03C147.33,341.586,149.95,335.396,150.58,328.776z"/>
	<path d="M128.69,331.746c-48.299,62.093-60.08,79.005-47.09,103.29c4.27,0.05,7.56-3.14,10.64-5.67
		c7.83-7.35,9.88-18.29,13.22-28.02c2.7-7.51,3.93-15.47,6.87-22.9c10.057-24.817,21.237-39.242,26.9-49.36
		C135.53,328.316,131.01,328.136,128.69,331.746z"/>
	<path d="M119.85,323.716c-4.25,2.23-7.43,6.08-11.07,9.16c-47.502,43.101-55.858,44.563-72.69,58.33
		c-7.23,6.5-13.81,13.94-18.25,22.65c-3.37,6.25-4.61,13.41-4.79,20.45c29.133,2.654,48.679-28.249,59.66-43.57
		c16.16-22.09,35.14-41.88,53.47-62.14C123.86,327.266,121.96,325.346,119.85,323.716z"/>
	<path d="M122.11,286.266c-6.875-0.174-43.073,7.15-71.98-10.12c-6.51-4.27-13.62-8.95-16.4-16.61c-2.11-4.37-0.7-9.21,0.14-13.7
		c-6.17-0.64-11.39,3.51-15.28,7.82c-6.425,6.818-6.971,21.007,6.85,31.26c16.207,12.033,34.046,13.65,54.67,13.3
		c13.66-0.11,27.12-2.86,40.4-5.8C121.27,290.426,121.8,288.366,122.11,286.266z"/>
	<path d="M41.47,369.556c22.58-8.63,41.3-24.32,60.62-38.38c21.119-16.565,17.006-11.282,17.31-20.44
		c-7.28,2.79-13.53,7.61-20.31,11.38c-25.885,15.688-37.452,15.712-61.37,23.66c-5.83,2.13-11.95,4.13-16.68,8.32
		c-3.49,3.3-6.75,7.13-8.04,11.86C21.21,371.506,32.16,373.226,41.47,369.556z"/>
	<path d="M13.43,316.276c3.28,5.69,9.46,9.06,15.47,11.17c19.224,4.99,42.809-2.424,61.37-10.14c9.69-3.99,19.66-7.37,28.98-12.19
		c0.12-2.31,0.15-4.62,0.05-6.94c-3.287,0.545-29.552,8.325-53.15,8.78C48.758,307.748,30.773,301.783,13.43,316.276z"/>
	<path d="M2383.96,272.396c-3.55,2.84-6.6,6.24-9.37,9.81c2.29,4.66,5.9,8.51,8.04,13.25c3.47,7.65,6.52,15.59,7.86,23.91
		c2.819,25.348-3.821,47.23-16.3,62.13c-5.32,6.26-10.77,12.59-17.54,17.35c-17.85,12.9-39.9,18.98-61.69,20.18
		c-12.862,0.197-1488.12,0.758-1744.799,0.807c-104.102-0.048-246.253-0.609-259.121-0.807c-21.79-1.2-43.84-7.28-61.69-20.18
		c-6.77-4.76-12.22-11.09-17.54-17.35c-12.479-14.9-19.119-36.782-16.3-62.13c1.34-8.32,4.39-16.26,7.86-23.91
		c2.14-4.74,5.75-8.59,8.04-13.25c-2.77-3.57-5.82-6.97-9.37-9.81c-6.369,5.894-27.901,40.744-19.88,78.64
		c7.657,32.794,25.739,54.493,54.08,70.03c34.194,16.962,73.166,14.603,87.86,14.76c0.685,0.003,137.042,0.303,227.191,0.279
		c253.821,0.023,1709.925-0.277,1710.609-0.279c14.694-0.157,53.667,2.202,87.86-14.76c28.341-15.537,46.423-37.236,54.08-70.03
		C2411.861,313.141,2390.329,278.29,2383.96,272.396z"/>
	<path d="M2022.36,379.596c3.21,7.37,10.63,11.68,17.88,14.3c10.41,2.81,21.39-0.2,31.03-4.33
		c15.806-7.984,23.567-13.108,91.25-71.74c7.28-6.69,15.21-12.67,22.15-19.72c-1.51-1.2-3.19-3.86-5.4-2.64
		c0,0-59.184,43.69-75.66,53.46c-13.22,8.51-27.34,15.75-42.31,20.6c-27.743,6.175-34.991-7.737-38.67-13.01
		C2016.87,362.926,2018.62,372.616,2022.36,379.596z"/>
	<path d="M2130.04,387.346c11.965-12.536,31.346-43.199,52.56-71.41c3.23-4.63,7.27-8.71,9.88-13.77c-1.66-0.92-3.89-2.91-5.67-1.13
		c-3.98,3.38-7.02,7.69-10.57,11.49c-63.87,69.659-62.873,67.379-81.57,68.93C2098.177,396.191,2118.774,398.933,2130.04,387.346z"
		/>
	<path d="M2167.44,391.666c6.924-5.959,6.189-18.529,12.04-35.88c5.467-20.347,19.725-41.847,22.66-49.59
		c-1.75-1.07-4.5-3.29-6.17-0.98c-4.29,4.56-7.25,10.13-10.91,15.17c-18.293,25.153-18.369,28.312-26.74,42.3
		c-3.55,6.99-8.7,13.98-7.94,22.24C2151.2,392.546,2161.59,396.176,2167.44,391.666z"/>
	<path d="M2219.69,306.176c1.3-1.64,1.67-3.67,1.28-5.71c-12.01-3.4-24.56-6.85-34.28-15.07c-2.45-2.5-5.2,0.41-7.14,1.99
		C2183.967,292.715,2200.583,302.536,2219.69,306.176z"/>
	<path d="M2209.58,389.196c-3.33-3.93-8.1-7.09-9.15-12.47c-5.717-24.313,5.852-55.291,9.83-67.7c-1.17-0.92-2.51-1.5-3.96-1.68
		c-7.37,12.67-13.25,26.2-18.32,39.94c-3.44,9.89-6.47,20.3-5.25,30.89C2184.538,391.554,2200.373,399.029,2209.58,389.196z"/>
	<path d="M2223.17,296.726c4.04-17.38,13.95-33.22,27.48-44.8c3.08-2.72,7.12-4.31,9.59-7.7c-14.283,1.275-43.8,24.217-55.41,32.9
		c-4.41,3.01-9.64,4.33-14.54,6.27c2.75,4.02,8.07,3.26,12.29,3.86c1.25,1.81,1.73,4.96,4.36,5.18c2.57-0.03,5-1.08,7.45-1.81
		C2216.58,293.406,2219.1,297.256,2223.17,296.726z"/>
	<path d="M2223.45,388.696c4.33,3.02,9.94,4,15.11,3.07c5.03-1.25,9.9-5.43,10.12-10.91c-3.46-0.39-7.29-0.1-10.17-2.38
		c-10.24-7-14.85-19.29-18.14-30.74c-2.82-12.27-2.42-25.01-1.56-37.49c-1.6-0.83-3.27-1.53-4.96-2.11
		C2208.62,319.65,2200.579,373.731,2223.45,388.696z"/>
	<path d="M2288.83,386.176c17.65,2.8,36.07-3.19,50-14.08c24.865-19.584,29.059-60.995,1.63-83.51
		c-13.41-10.06-32.91-13.06-47.89-4.7c-5.52,3.25-10.39,7.59-14.44,12.53c-4.86,6.1-5.92,14.2-6.17,21.75
		c-0.42,15.72,14.66,29.47,30.16,28.47c18.058-1.993,24.331-21.244,15.32-30.03c-2.01-2.08-5-2.31-7.71-2.31
		c1.08,2.47,2.91,4.55,3.88,7.07c0.51,5.06-3.22,9.68-7.55,11.84c-7.91,2.57-17.85-1.47-20.53-9.66
		c-6.669-23.079,17.268-36.675,35.31-31.38c34.997,12.016,35.937,65.412-8.08,78.85c-21.706,8.354-47.134-3.756-58.38-21.29
		c-6.43-10.3-11.39-22.25-10.37-34.63c1.33-22.09,13.22-43.88,32.51-55.26c42.129-22.31,69.993-0.374,82.09,5.26
		c2.96-3.11,6.71-5.7,8.52-9.72c-19.181-15.573-48.542-23.1-74-16.98c-22.522,3.321-49.667,23.25-60.71,56.38
		C2219.094,334.298,2246.217,380.644,2288.83,386.176z"/>
	<path d="M2365.45,281.706c0,0,44.053-44.794,53.53-53.77c-0.179-0.294-0.373-0.576-0.568-0.856c0.196-0.28,0.389-0.562,0.568-0.856
		c-9.477-8.976-53.53-53.77-53.53-53.77c-1.94-0.65-3.26,1.46-4.57,2.5c-1.41,1.49-4.15,3.98-1.9,5.94
		c23.504,24.676,30.794,30.08,40.01,39.99c2.093,2.005,4.079,4.122,6.106,6.196c-2.027,2.073-4.014,4.191-6.106,6.196
		c-9.216,9.91-16.506,15.314-40.01,39.99c-2.25,1.96,0.49,4.45,1.9,5.94C2362.19,280.246,2363.51,282.356,2365.45,281.706z"/>
	<path d="M2423.11,327.136c0.241,8.749,7.573,44.371-11.24,73.03c-4.19,6-8.91,12.84-16.52,14.53c-4.21,1.39-8.51-0.16-12.68-0.8
		c-0.83,6.63,3.71,12.07,8.38,16.13c4.83,4.11,11.82,4.73,17.77,3.17c15.825-5.889,24.094-26.222,25.9-43.01
		c1.75-20.11,0.6-40.6-4.72-60.12C2429.49,326.816,2425.7,326.456,2423.11,327.136z"/>
	<path d="M2420.1,312.466c4.08-0.85,5.99-4.93,8.65-7.71c4.747,3.91,8.549,10.22,23.16,10.22c0.22-9.4-4.26-18.42-11.89-23.9
		c3.56-1.68,7.73-3.45,8.89-7.63c-3.42-1.85-7.08-3.16-10.65-4.66c-13.48-6.19-25.41-15.2-38.22-22.54
		c-2.55,2.17-4.84,4.62-6.94,7.21c5.81,9.93,12.39,19.4,18.02,29.44C2414.85,299.066,2417.1,305.946,2420.1,312.466z"/>
	<path d="M2460.69,324.026c3.15-12.74,1.46-26.21-1.97-38.73c-1.64-0.48-3.27-0.95-4.89-1.41c-0.38,1.41-0.48,2.86-0.06,4.27
		c2.34,9.83,3.63,20.08,2.32,30.16c-1.7,0.53-3.41,1.1-5.17,1.17c-9.78,0.44-19.61-0.83-28.9-3.88c-2.45,0.98-0.64,4.11-0.58,6.03
		C2434.14,325.026,2447.68,325.926,2460.69,324.026z"/>
	<path d="M2454.51,357.566c-3.72-9.47-7.57-18.91-11.93-28.11c-2.37-0.42-4.77-0.66-7.16-0.68c0.63,6.62,3.25,12.81,4.41,19.32
		c2.43,13.87,5.07,27.88,4.42,42.03c-1.434,15.902-2.003,33.645,9.61,44.56c5.1-3.42,9.58-8.36,11.05-14.46
		c2.22-8.39,2.52-17.28,0.82-25.8C2463.47,381.756,2459.6,369.386,2454.51,357.566z"/>
	<path d="M2446.77,329.086c5.663,10.118,16.843,24.543,26.9,49.36c2.94,7.43,4.17,15.39,6.87,22.9c3.34,9.73,5.39,20.67,13.22,28.02
		c3.08,2.53,6.37,5.72,10.64,5.67c12.991-24.285,1.209-41.197-47.09-103.29C2454.99,328.136,2450.47,328.316,2446.77,329.086z"/>
	<path d="M2549.91,391.206c-16.832-13.767-25.188-15.229-72.69-58.33c-3.64-3.08-6.82-6.93-11.07-9.16
		c-2.11,1.63-4.01,3.55-6.33,4.88c18.33,20.26,37.31,40.05,53.47,62.14c10.981,15.321,30.528,46.224,59.66,43.57
		c-0.18-7.04-1.42-14.2-4.79-20.45C2563.72,405.146,2557.14,397.706,2549.91,391.206z"/>
	<path d="M2465.49,292.416c13.28,2.94,26.74,5.69,40.4,5.8c20.624,0.35,38.463-1.267,54.67-13.3
		c13.821-10.253,13.275-24.442,6.85-31.26c-3.89-4.31-9.11-8.46-15.28-7.82c0.84,4.49,2.25,9.33,0.14,13.7
		c-2.78,7.66-9.89,12.34-16.4,16.61c-28.907,17.27-65.105,9.946-71.98,10.12C2464.2,288.366,2464.73,290.426,2465.49,292.416z"/>
	<path d="M2564.96,354.096c-4.73-4.19-10.85-6.19-16.68-8.32c-23.918-7.948-35.486-7.972-61.37-23.66
		c-6.78-3.77-13.03-8.59-20.31-11.38c0.304,9.158-3.809,3.875,17.31,20.44c19.32,14.06,38.04,29.75,60.62,38.38
		c9.31,3.67,20.26,1.95,28.47-3.6C2571.71,361.226,2568.45,357.396,2564.96,354.096z"/>
	<path d="M2495.73,317.306c18.561,7.716,42.146,15.13,61.37,10.14c6.01-2.11,12.19-5.48,15.47-11.17
		c-17.343-14.494-35.328-8.528-52.72-9.32c-23.598-0.455-49.863-8.235-53.15-8.78c-0.1,2.32-0.07,4.63,0.05,6.94
		C2476.07,309.936,2486.04,313.316,2495.73,317.306z"/>
	<path d="M202.04,181.765c3.55-2.84,6.6-6.24,9.37-9.81c-2.29-4.66-5.9-8.51-8.04-13.25c-3.47-7.65-6.52-15.59-7.86-23.91
		c-2.819-25.348,3.82-47.23,16.3-62.13c5.32-6.26,10.77-12.59,17.54-17.35c17.85-12.9,39.9-18.98,61.69-20.18
		c13.257-0.203,1551.749-0.793,1734.987-0.81c104.741,0.015,255.655,0.606,268.933,0.81c21.79,1.2,43.84,7.28,61.69,20.18
		c6.77,4.76,12.22,11.09,17.54,17.35c12.479,14.9,19.119,36.782,16.3,62.13c-1.34,8.32-4.39,16.26-7.86,23.91
		c-2.14,4.74-5.75,8.59-8.04,13.25c2.77,3.57,5.82,6.97,9.37,9.81c6.369-5.894,27.901-40.744,19.88-78.64
		c-7.657-32.794-25.739-54.493-54.08-70.03c-34.194-16.962-73.166-14.603-87.86-14.76c-0.707-0.003-146.213-0.323-235.98-0.276
		c-175.405-0.047-1701.113,0.273-1701.82,0.276c-14.694,0.157-53.666-2.202-87.86,14.76c-28.341,15.537-46.423,37.236-54.08,70.03
		C174.139,141.02,195.671,175.87,202.04,181.765z"/>
	<path d="M563.64,74.565c-3.21-7.37-10.63-11.68-17.88-14.3c-10.41-2.81-21.39,0.2-31.03,4.33
		c-15.806,7.984-23.567,13.109-91.25,71.74c-7.28,6.69-15.21,12.67-22.15,19.72c1.51,1.2,3.19,3.86,5.4,2.64
		c0,0,59.184-43.69,75.66-53.46c13.22-8.51,27.34-15.75,42.31-20.6c27.743-6.175,34.991,7.737,38.67,13.01
		C569.13,91.235,567.38,81.545,563.64,74.565z"/>
	<path d="M409.76,141.635c63.87-69.659,62.873-67.379,81.57-68.93c-3.507-14.735-24.104-17.477-35.37-5.89
		c-11.965,12.536-31.346,43.199-52.56,71.41c-3.23,4.63-7.27,8.71-9.88,13.77c1.66,0.92,3.89,2.91,5.67,1.13
		C403.17,149.745,406.21,145.435,409.76,141.635z"/>
	<path d="M418.56,62.495c-6.924,5.959-6.189,18.529-12.04,35.88c-5.467,20.347-19.724,41.847-22.66,49.59
		c1.75,1.07,4.5,3.29,6.17,0.98c4.29-4.56,7.25-10.13,10.91-15.17c18.293-25.153,18.369-28.312,26.74-42.3
		c3.55-6.99,8.7-13.98,7.94-22.24C434.8,61.615,424.41,57.985,418.56,62.495z"/>
	<path d="M366.31,147.985c-1.3,1.64-1.67,3.67-1.28,5.71c12.01,3.4,24.56,6.85,34.28,15.07c2.45,2.5,5.2-0.41,7.14-1.99
		C402.033,161.446,385.417,151.625,366.31,147.985z"/>
	<path d="M376.42,64.965c3.33,3.93,8.1,7.09,9.15,12.47c5.717,24.312-5.852,55.29-9.83,67.7c1.17,0.92,2.51,1.5,3.96,1.68
		c7.37-12.67,13.25-26.2,18.32-39.94c3.44-9.89,6.47-20.3,5.25-30.89C401.462,62.606,385.627,55.132,376.42,64.965z"/>
	<path d="M395.71,170.765c-2.75-4.02-8.07-3.26-12.29-3.86c-1.25-1.81-1.73-4.96-4.36-5.18c-2.57,0.03-5,1.08-7.45,1.81
		c-2.19-2.78-4.71-6.63-8.78-6.1c-4.04,17.38-13.95,33.22-27.48,44.8c-3.08,2.72-7.12,4.31-9.59,7.7
		c14.283-1.275,43.799-24.217,55.41-32.9C385.58,174.025,390.81,172.705,395.71,170.765z"/>
	<path d="M362.55,65.465c-4.33-3.02-9.94-4-15.11-3.07c-5.03,1.25-9.9,5.43-10.12,10.91c3.46,0.39,7.29,0.1,10.17,2.38
		c10.24,7,14.85,19.29,18.14,30.74c2.82,12.27,2.42,25.01,1.56,37.49c1.6,0.83,3.27,1.53,4.96,2.11
		C377.38,134.511,385.421,80.43,362.55,65.465z"/>
	<path d="M297.17,67.985c-17.65-2.8-36.07,3.19-50,14.08c-24.865,19.584-29.059,60.995-1.63,83.51
		c13.41,10.06,32.91,13.06,47.89,4.7c5.52-3.25,10.39-7.59,14.44-12.53c4.86-6.1,5.92-14.2,6.17-21.75
		c0.42-15.72-14.66-29.47-30.16-28.47c-18.058,1.993-24.331,21.245-15.32,30.03c2.01,2.08,5,2.31,7.71,2.31
		c-1.08-2.47-2.91-4.55-3.88-7.07c-0.51-5.06,3.22-9.68,7.55-11.84c7.91-2.57,17.85,1.47,20.53,9.66
		c6.669,23.079-17.268,36.675-35.31,31.38c-34.997-12.016-35.937-65.412,8.08-78.85c21.706-8.354,47.134,3.756,58.38,21.29
		c6.43,10.3,11.39,22.25,10.37,34.63c-1.33,22.09-13.22,43.88-32.51,55.26c-42.129,22.31-69.993,0.374-82.09-5.26
		c-2.96,3.11-6.71,5.7-8.52,9.72c19.181,15.573,48.542,23.1,74,16.98c22.522-3.321,49.667-23.25,60.71-56.38
		C366.905,119.862,339.783,73.517,297.17,67.985z"/>
	<path d="M162.89,127.025c-0.241-8.749-7.573-44.371,11.24-73.03c4.19-6,8.91-12.84,16.52-14.53c4.21-1.39,8.51,0.16,12.68,0.8
		c0.83-6.63-3.71-12.07-8.38-16.13c-4.83-4.11-11.82-4.73-17.77-3.17c-15.825,5.889-24.094,26.222-25.9,43.01
		c-1.75,20.11-0.6,40.6,4.72,60.12C156.51,127.345,160.3,127.705,162.89,127.025z"/>
	<path d="M137.09,170.715c3.42,1.85,7.08,3.16,10.65,4.66c13.48,6.19,25.41,15.2,38.22,22.54c2.55-2.17,4.84-4.62,6.94-7.21
		c-5.81-9.93-12.39-19.4-18.02-29.44c-3.73-6.17-5.98-13.05-8.98-19.57c-4.08,0.85-5.99,4.93-8.65,7.71
		c-4.747-3.91-8.549-10.22-23.16-10.22c-0.22,9.4,4.26,18.42,11.89,23.9C142.42,164.765,138.25,166.535,137.09,170.715z"/>
	<path d="M125.31,130.135c-3.15,12.74-1.46,26.21,1.97,38.73c1.64,0.48,3.27,0.95,4.89,1.41c0.38-1.41,0.48-2.86,0.06-4.27
		c-2.34-9.83-3.63-20.08-2.32-30.16c1.7-0.53,3.41-1.1,5.17-1.17c9.78-0.44,19.61,0.83,28.9,3.88c2.45-0.98,0.64-4.11,0.58-6.03
		C151.86,129.135,138.32,128.235,125.31,130.135z"/>
	<path d="M131.49,96.595c3.72,9.47,7.57,18.91,11.93,28.11c2.37,0.42,4.77,0.66,7.16,0.68c-0.63-6.62-3.25-12.81-4.41-19.32
		c-2.43-13.87-5.07-27.88-4.42-42.03c1.434-15.902,2.003-33.645-9.61-44.56c-5.1,3.42-9.58,8.36-11.05,14.46
		c-2.22,8.39-2.52,17.28-0.82,25.8C122.53,72.405,126.4,84.775,131.49,96.595z"/>
	<path d="M139.23,125.075c-5.663-10.118-16.843-24.543-26.9-49.36c-2.94-7.43-4.17-15.39-6.87-22.9
		c-3.34-9.73-5.39-20.67-13.22-28.02c-3.08-2.53-6.37-5.72-10.64-5.67c-12.99,24.285-1.209,41.197,47.09,103.29
		C131.01,126.025,135.53,125.845,139.23,125.075z"/>
	<path d="M36.09,62.955c16.832,13.767,25.188,15.229,72.69,58.33c3.64,3.08,6.82,6.93,11.07,9.16c2.11-1.63,4.01-3.55,6.33-4.88
		c-18.33-20.26-37.31-40.05-53.47-62.14c-10.981-15.321-30.528-46.224-59.66-43.57c0.18,7.04,1.42,14.2,4.79,20.45
		C22.28,49.015,28.86,56.455,36.09,62.955z"/>
	<path d="M120.51,161.745c-13.28-2.94-26.74-5.69-40.4-5.8c-20.624-0.35-38.463,1.267-54.67,13.3
		c-13.821,10.253-13.275,24.442-6.85,31.26c3.89,4.31,9.11,8.46,15.28,7.82c-0.84-4.49-2.25-9.33-0.14-13.7
		c2.78-7.66,9.89-12.34,16.4-16.61c28.907-17.27,65.105-9.946,71.98-10.12C121.8,165.795,121.27,163.735,120.51,161.745z"/>
	<path d="M21.04,100.065c4.73,4.19,10.85,6.19,16.68,8.32c23.918,7.948,35.485,7.972,61.37,23.66c6.78,3.77,13.03,8.59,20.31,11.38
		c-0.304-9.158,3.809-3.875-17.31-20.44c-19.32-14.06-38.04-29.75-60.62-38.38c-9.31-3.67-20.26-1.95-28.47,3.6
		C14.29,92.935,17.55,96.765,21.04,100.065z"/>
	<path d="M66.15,147.205c23.598,0.455,49.863,8.235,53.15,8.78c0.1-2.32,0.07-4.63-0.05-6.94c-9.32-4.82-19.29-8.2-28.98-12.19
		c-18.561-7.716-42.146-15.13-61.37-10.14c-6.01,2.11-12.19,5.48-15.47,11.17C30.773,152.378,48.758,146.413,66.15,147.205z"/>
	<path d="M2040.24,60.265c-7.25,2.62-14.67,6.93-17.88,14.3c-3.74,6.98-5.49,16.67,0.27,23.08
		c3.679-5.273,10.927-19.185,38.67-13.01c14.97,4.85,29.09,12.09,42.31,20.6c16.476,9.77,75.66,53.46,75.66,53.46
		c2.21,1.22,3.89-1.44,5.4-2.64c-6.94-7.05-14.87-13.03-22.15-19.72c-67.683-58.632-75.444-63.756-91.25-71.74
		C2061.63,60.465,2050.65,57.455,2040.24,60.265z"/>
	<path d="M2094.67,72.705c18.697,1.551,17.7-0.729,81.57,68.93c3.55,3.8,6.59,8.11,10.57,11.49c1.78,1.78,4.01-0.21,5.67-1.13
		c-2.61-5.06-6.65-9.14-9.88-13.77c-21.214-28.211-40.595-58.874-52.56-71.41C2118.774,55.227,2098.177,57.97,2094.67,72.705z"/>
	<path d="M2167.44,62.495c-5.85-4.51-16.24-0.88-17.06,6.74c-0.76,8.26,4.39,15.25,7.94,22.24c8.371,13.988,8.447,17.147,26.74,42.3
		c3.66,5.04,6.62,10.61,10.91,15.17c1.67,2.31,4.42,0.09,6.17-0.98c-2.936-7.743-17.194-29.243-22.66-49.59
		C2173.629,81.023,2174.364,68.453,2167.44,62.495z"/>
	<path d="M2186.69,168.765c9.72-8.22,22.27-11.67,34.28-15.07c0.39-2.04,0.02-4.07-1.28-5.71
		c-19.107,3.64-35.723,13.461-40.14,18.79C2181.49,168.355,2184.24,171.265,2186.69,168.765z"/>
	<path d="M2182.73,75.985c-1.22,10.59,1.81,21,5.25,30.89c5.07,13.74,10.95,27.27,18.32,39.94c1.45-0.18,2.79-0.76,3.96-1.68
		c-3.978-12.41-15.547-43.388-9.83-67.7c1.05-5.38,5.82-8.54,9.15-12.47C2200.373,55.132,2184.538,62.606,2182.73,75.985z"/>
	<path d="M2250.65,202.235c-13.53-11.58-23.44-27.42-27.48-44.8c-4.07-0.53-6.59,3.32-8.78,6.1c-2.45-0.73-4.88-1.78-7.45-1.81
		c-2.63,0.22-3.11,3.37-4.36,5.18c-4.22,0.6-9.54-0.16-12.29,3.86c4.9,1.94,10.13,3.26,14.54,6.27
		c11.61,8.683,41.127,31.625,55.41,32.9C2257.77,206.545,2253.73,204.955,2250.65,202.235z"/>
	<path d="M2238.56,62.395c-5.17-0.93-10.78,0.05-15.11,3.07c-22.871,14.965-14.83,69.046-9.6,80.56c1.69-0.58,3.36-1.28,4.96-2.11
		c-0.86-12.48-1.26-25.22,1.56-37.49c3.29-11.45,7.9-23.74,18.14-30.74c2.88-2.28,6.71-1.99,10.17-2.38
		C2248.46,67.825,2243.59,63.645,2238.56,62.395z"/>
	<path d="M2309.73,139.865c2.71,0,5.7-0.23,7.71-2.31c9.011-8.786,2.738-28.037-15.32-30.03c-15.5-1-30.58,12.75-30.16,28.47
		c0.25,7.55,1.31,15.65,6.17,21.75c4.05,4.94,8.92,9.28,14.44,12.53c14.98,8.36,34.48,5.36,47.89-4.7
		c27.429-22.515,23.235-63.926-1.63-83.51c-13.93-10.89-32.35-16.88-50-14.08c-42.613,5.532-69.736,51.878-56.41,91.4
		c11.043,33.13,38.188,53.059,60.71,56.38c25.458,6.12,54.819-1.407,74-16.98c-1.81-4.02-5.56-6.61-8.52-9.72
		c-12.097,5.634-39.961,27.57-82.09,5.26c-19.29-11.38-31.18-33.17-32.51-55.26c-1.02-12.38,3.94-24.33,10.37-34.63
		c11.246-17.534,36.674-29.644,58.38-21.29c44.017,13.438,43.077,66.833,8.08,78.85c-18.042,5.295-41.979-8.301-35.31-31.38
		c2.68-8.19,12.62-12.23,20.53-9.66c4.33,2.16,8.06,6.78,7.55,11.84C2312.64,135.315,2310.81,137.395,2309.73,139.865z"/>
	<path d="M2395.35,39.465c7.61,1.69,12.33,8.53,16.52,14.53c18.813,28.659,11.481,64.281,11.24,73.03c2.59,0.68,6.38,0.32,6.89-2.93
		c5.32-19.52,6.47-40.01,4.72-60.12c-1.806-16.788-10.075-37.121-25.9-43.01c-5.95-1.56-12.94-0.94-17.77,3.17
		c-4.67,4.06-9.21,9.5-8.38,16.13C2386.84,39.625,2391.14,38.075,2395.35,39.465z"/>
	<path d="M2451.91,139.185c-14.611,0-18.413,6.31-23.16,10.22c-2.66-2.78-4.57-6.86-8.65-7.71c-3,6.52-5.25,13.4-8.98,19.57
		c-5.63,10.04-12.21,19.51-18.02,29.44c2.1,2.59,4.39,5.04,6.94,7.21c12.81-7.34,24.74-16.35,38.22-22.54
		c3.57-1.5,7.23-2.81,10.65-4.66c-1.16-4.18-5.33-5.95-8.89-7.63C2447.65,157.605,2452.13,148.585,2451.91,139.185z"/>
	<path d="M2460.69,130.135c-13.01-1.9-26.55-1-39.25,2.39c-0.06,1.92-1.87,5.05,0.58,6.03c9.29-3.05,19.12-4.32,28.9-3.88
		c1.76,0.07,3.47,0.64,5.17,1.17c1.31,10.08,0.02,20.33-2.32,30.16c-0.42,1.41-0.32,2.86,0.06,4.27c1.62-0.46,3.25-0.93,4.89-1.41
		C2462.15,156.345,2463.84,142.875,2460.69,130.135z"/>
	<path d="M2435.42,125.385c2.39-0.02,4.79-0.26,7.16-0.68c4.36-9.2,8.21-18.64,11.93-28.11c5.09-11.82,8.96-24.19,11.22-36.86
		c1.7-8.52,1.4-17.41-0.82-25.8c-1.47-6.1-5.95-11.04-11.05-14.46c-11.613,10.915-11.044,28.658-9.61,44.56
		c0.65,14.15-1.99,28.16-4.42,42.03C2438.67,112.575,2436.05,118.765,2435.42,125.385z"/>
	<path d="M2457.31,122.415c48.299-62.093,60.081-79.005,47.09-103.29c-4.27-0.05-7.56,3.14-10.64,5.67
		c-7.83,7.35-9.88,18.29-13.22,28.02c-2.7,7.51-3.93,15.47-6.87,22.9c-10.057,24.817-21.237,39.242-26.9,49.36
		C2450.47,125.845,2454.99,126.025,2457.31,122.415z"/>
	<path d="M2466.15,130.445c4.25-2.23,7.43-6.08,11.07-9.16c47.502-43.101,55.858-44.563,72.69-58.33
		c7.23-6.5,13.81-13.94,18.25-22.65c3.37-6.25,4.61-13.41,4.79-20.45c-29.133-2.654-48.679,28.249-59.66,43.57
		c-16.16,22.09-35.14,41.88-53.47,62.14C2462.14,126.895,2464.04,128.815,2466.15,130.445z"/>
	<path d="M2567.41,200.505c6.425-6.818,6.971-21.007-6.85-31.26c-16.207-12.033-34.046-13.65-54.67-13.3
		c-13.66,0.11-27.12,2.86-40.4,5.8c-0.76,1.99-1.29,4.05-1.6,6.15c6.875,0.174,43.073-7.15,71.98,10.12
		c6.51,4.27,13.62,8.95,16.4,16.61c2.11,4.37,0.7,9.21-0.14,13.7C2558.3,208.965,2563.52,204.815,2567.41,200.505z"/>
	<path d="M2544.53,84.605c-22.58,8.63-41.3,24.32-60.62,38.38c-21.119,16.565-17.006,11.282-17.31,20.44
		c7.28-2.79,13.53-7.61,20.31-11.38c25.884-15.688,37.452-15.712,61.37-23.66c5.83-2.13,11.95-4.13,16.68-8.32
		c3.49-3.3,6.75-7.13,8.04-11.86C2564.79,82.655,2553.84,80.935,2544.53,84.605z"/>
	<path d="M2557.1,126.715c-19.224-4.99-42.809,2.424-61.37,10.14c-9.69,3.99-19.66,7.37-28.98,12.19c-0.12,2.31-0.15,4.62-0.05,6.94
		c3.287-0.545,29.552-8.325,53.15-8.78c17.392-0.792,35.377,5.174,52.72-9.32C2569.29,132.195,2563.11,128.825,2557.1,126.715z"/>
</g>
</svg>
