<?xml version="1.0" encoding="utf-8"?>

<!DOCTYPE svg PUBLIC "-//W3C//DTD SVG 1.1//EN" "http://www.w3.org/Graphics/SVG/1.1/DTD/svg11.dtd">
<svg version="1.1" id="Layer_1" xmlns="http://www.w3.org/2000/svg" xmlns:xlink="http://www.w3.org/1999/xlink" x="0px" y="0px"
	 viewBox="0 0 1647.955 1636.809" enable-background="new 0 0 1647.955 1636.809" xml:space="preserve">
<g>
	<path d="M18.53,818.405c138.394,138.274,308.601,307.733,309.568,308.692c23.597,23.097,81.772,88.769,163.054,116.149
		c69.718,20.345,132.926,14.598,197.199-25.343c72.958-47.467,94.118-137.055,93.364-156.54
		c-10.153-1.128-20.402-0.572-30.475,0.699c-3.766,11.043-4.147,22.896-8.278,33.828c-6.642,17.669-14.411,35.131-25.502,50.48
		c-35.797,44.755-81.115,68.974-124.618,72.82c-18.4,1.494-37.117,2.892-55.437-0.302c-48.859-7.865-93.555-33.24-130.084-65.956
		c-17.709-17.174-185.322-183.411-336.927-334.528C221.998,667.287,389.611,501.051,407.32,483.877
		c36.529-32.716,81.225-58.091,130.084-65.956c18.32-3.194,37.038-1.795,55.437-0.302c43.503,3.846,88.821,28.065,124.618,72.82
		c11.091,15.349,18.86,32.811,25.502,50.479c4.131,10.932,4.513,22.785,8.278,33.828c10.074,1.271,20.322,1.827,30.475,0.7
		c0.754-19.485-20.406-109.072-93.364-156.54c-64.273-39.941-127.481-45.688-197.199-25.343
		c-81.281,27.38-139.456,93.052-163.054,116.149C327.131,510.672,156.924,680.13,18.53,818.405z"/>
	<path d="M1577.121,818.405c-169.37,168.786-324.654,323.366-336.163,334.528c-36.529,32.716-81.225,58.091-130.084,65.956
		c-18.32,3.194-37.037,1.795-55.437,0.302c-43.503-3.846-88.821-28.065-124.618-72.82c-11.091-15.349-18.86-32.811-25.502-50.48
		c-4.131-10.931-4.513-22.785-8.278-33.828c-10.074-1.271-20.322-1.827-30.476-0.699c-0.754,19.485,20.406,109.072,93.364,156.539
		c64.274,39.941,127.481,45.688,197.199,25.343c81.281-27.38,139.457-93.052,163.054-116.149
		c0.607-0.603,148.206-147.905,309.244-308.693c-161.038-160.788-308.636-308.09-309.244-308.693
		c-23.597-23.097-81.773-88.769-163.054-116.149c-69.718-20.345-132.926-14.598-197.199,25.343
		c-72.958,47.467-94.118,137.055-93.364,156.539c10.153,1.128,20.402,0.572,30.476-0.699c3.765-11.043,4.147-22.896,8.278-33.828
		c6.642-17.669,14.411-35.131,25.502-50.48c35.797-44.755,81.115-68.974,124.618-72.82c18.4-1.493,37.117-2.892,55.437,0.302
		c48.859,7.865,93.555,33.24,130.084,65.956C1252.467,495.038,1407.751,649.618,1577.121,818.405z"/>
	<path d="M807.646,1009.152c5.488,0.156,11.003,0.179,16.493-0.164c5.489,0.343,11.004,0.32,16.493,0.164
		c3.305-10.01,0.953-20.624,1.684-30.889c1.483-21.897,5.138-44.598,10.098-66.631c-9.343,2.103-18.805,3.972-28.276,5.539
		c-9.47-1.568-18.933-3.436-28.276-5.539c4.96,22.034,8.615,44.734,10.098,66.631C806.692,988.528,804.341,999.142,807.646,1009.152
		z"/>
	<path d="M807.646,627.657c5.488-0.156,11.003-0.179,16.493,0.164c5.489-0.343,11.004-0.32,16.493-0.164
		c3.305,10.01,0.953,20.624,1.684,30.889c1.483,21.897,5.138,44.598,10.098,66.631c-9.343-2.103-18.805-3.972-28.276-5.539
		c-9.47,1.568-18.933,3.436-28.276,5.54c4.96-22.034,8.615-44.734,10.098-66.631C806.692,648.281,804.341,637.667,807.646,627.657z"
		/>
	<path d="M151.575,818.405c9.353,13.056,25.681,22.407,44.039,22.149c30.636-0.714,86.409-11.967,147.056-22.149
		c-60.648-10.182-116.42-21.435-147.056-22.149C177.256,795.998,160.928,805.349,151.575,818.405z"/>
	<path d="M1305.609,818.405c60.647,10.181,116.419,21.435,147.055,22.149c18.358,0.258,34.686-9.093,44.039-22.149
		c-9.353-13.056-25.681-22.407-44.039-22.149C1422.028,796.969,1366.256,808.223,1305.609,818.405z"/>
	<path d="M405.798,818.405c-5.446,1.131-10.886,2.308-16.368,3.177c-69.032,10.9-74.171,15.799-109.698,24.723
		c-16.747,5.466-36.036,8.389-47.953,22.721c-10.805,13.41-0.064,35.687,16.398,37.816c20.469,1.533,39.274-19.607,76.14-37.88
		c41.015-23.643,97.831-35.15,114.799-42.789c-0.542-2.249-1.024-5.358-2.17-7.769c1.145-2.411,1.628-5.52,2.17-7.769
		c-16.968-7.639-73.784-19.146-114.799-42.789c-36.867-18.272-55.672-39.413-76.14-37.88c-16.461,2.129-27.202,24.406-16.398,37.816
		c11.917,14.332,31.206,17.256,47.953,22.721c35.527,8.924,40.666,13.824,109.698,24.723
		C394.912,816.097,400.352,817.274,405.798,818.405z"/>
	<path d="M1211.333,818.405c-1.145,2.411-1.628,5.52-2.17,7.769c16.968,7.639,73.784,19.146,114.799,42.789
		c36.867,18.272,55.672,39.413,76.14,37.88c16.461-2.129,27.202-24.406,16.398-37.816c-11.917-14.332-31.206-17.255-47.954-22.721
		c-35.527-8.924-40.666-13.824-109.698-24.723c-5.482-0.87-10.922-2.047-16.368-3.177c5.446-1.131,10.885-2.308,16.368-3.177
		c69.032-10.9,74.171-15.799,109.698-24.723c16.747-5.466,36.037-8.389,47.954-22.721c10.804-13.41,0.063-35.687-16.398-37.816
		c-20.468-1.533-39.274,19.607-76.14,37.88c-41.015,23.643-97.831,35.15-114.799,42.789
		C1209.706,812.884,1210.188,815.993,1211.333,818.405z"/>
	<path d="M447.541,818.405c5.105,11.762,11.585,23.996,19.491,35.623c4.671-0.54,8.485-3.178,11.106-7.039
		c-5.225-9.351-10.563-18.839-15.299-28.584c4.736-9.744,10.074-19.232,15.299-28.584c-2.622-3.861-6.435-6.499-11.106-7.039
		C459.126,794.409,452.646,806.642,447.541,818.405z"/>
	<path d="M1185.439,818.405c-4.736,9.744-10.074,19.232-15.299,28.584c2.622,3.861,6.435,6.499,11.106,7.039
		c7.906-11.627,14.386-23.861,19.491-35.623c-5.105-11.762-11.585-23.996-19.491-35.623c-4.671,0.541-8.485,3.178-11.106,7.039
		C1175.365,799.172,1180.703,808.66,1185.439,818.405z"/>
	<path d="M319.056,969.874c0.953-11.536-1.605-24.136,5.275-34.352c29.547-47.713,97.15-78.553,123.188-91.95
		c-0.397-3.321-1.605-6.371-3.623-8.961c-31.842,8.421-62.682,20.576-92.57,34.352c-21.18,10.249-42.535,21.975-57.423,40.74
		C275.52,933.832,288.804,970.867,319.056,969.874z"/>
	<path d="M319.056,666.935c0.953,11.536-1.605,24.136,5.275,34.352c29.547,47.713,97.15,78.553,123.188,91.95
		c-0.397,3.321-1.605,6.371-3.623,8.961c-31.842-8.421-62.682-20.576-92.57-34.352c-21.18-10.249-42.535-21.975-57.423-40.74
		C275.52,702.977,288.804,665.942,319.056,666.935z"/>
	<path d="M1354.374,909.703c-14.888-18.765-36.243-30.491-57.423-40.74c-29.887-13.776-60.728-25.931-92.57-34.352
		c-2.018,2.59-3.226,5.641-3.623,8.961c26.038,13.397,93.641,44.237,123.188,91.95c6.88,10.216,4.322,22.817,5.275,34.352
		C1359.474,970.867,1372.758,933.832,1354.374,909.703z"/>
	<path d="M1354.374,727.106c-14.888,18.765-36.243,30.491-57.423,40.74c-29.887,13.776-60.728,25.931-92.57,34.352
		c-2.018-2.59-3.226-5.641-3.623-8.961c26.038-13.397,93.641-44.237,123.188-91.95c6.88-10.216,4.322-22.817,5.275-34.352
		C1359.474,665.942,1372.758,702.977,1354.374,727.106z"/>
	<path d="M478.464,818.405c1.626,0.827,3.263,1.634,4.854,2.494c-0.938,7.897-3.051,18.018,4.258,23.643
		c21.987-13.693,46.846-22.473,72.446-26.137c-25.601-3.664-50.459-12.444-72.446-26.137c-7.309,5.625-5.196,15.746-4.258,23.643
		C481.728,816.771,480.09,817.577,478.464,818.405z"/>
	<path d="M1088.255,818.405c25.601,3.664,50.46,12.443,72.447,26.137c7.309-5.625,5.196-15.746,4.258-23.643
		c1.59-0.86,3.227-1.667,4.854-2.494c-1.626-0.827-3.263-1.634-4.854-2.494c0.938-7.897,3.051-18.018-4.258-23.643
		C1138.715,805.961,1113.856,814.74,1088.255,818.405z"/>
	<path d="M341.889,991.118c2.081,11.678,9.438,22.149,19.131,28.886c9.978,6.006,24.358,7.102,33.415-1.255
		c-4.878-6.117-11.425-11.742-12.378-19.941c-5.148-27.393,7.055-54.245,20.02-77.666c15.015-23.977,35.894-43.584,57.09-62.047
		c-1.224-3.861-2.765-7.627-4.529-11.234C428.033,857.847,329.327,931,341.889,991.118z"/>
	<path d="M341.889,645.691c2.081-11.678,9.438-22.149,19.131-28.886c9.978-6.006,24.358-7.102,33.415,1.255
		c-4.878,6.117-11.425,11.742-12.378,19.941c-5.148,27.393,7.055,54.245,20.02,77.666c15.015,23.977,35.894,43.584,57.09,62.047
		c-1.224,3.861-2.765,7.627-4.529,11.234C428.033,778.962,329.327,705.809,341.889,645.691z"/>
	<path d="M1287.258,1020.005c9.692-6.737,17.049-17.208,19.13-28.886c12.563-60.118-86.144-133.271-112.749-143.256
		c-1.764,3.607-3.305,7.373-4.528,11.234c21.196,18.463,42.074,38.07,57.089,62.047c12.965,23.421,25.168,50.273,20.02,77.666
		c-0.953,8.199-7.5,13.823-12.377,19.941C1262.9,1027.107,1277.28,1026.01,1287.258,1020.005z"/>
	<path d="M1287.258,616.804c9.692,6.737,17.049,17.208,19.13,28.886c12.563,60.118-86.144,133.271-112.749,143.256
		c-1.764-3.607-3.305-7.373-4.528-11.234c21.196-18.463,42.074-38.07,57.089-62.047c12.965-23.421,25.168-50.273,20.02-77.666
		c-0.953-8.199-7.5-13.823-12.377-19.941C1262.9,609.702,1277.28,610.799,1287.258,616.804z"/>
	<path d="M449.776,1090.997c23.595,32.493,62.38,52.243,101.817,57.074c70.625,8.391,143.087-50.742,135.28-130.1
		c-5.322-37.291-31.54-73.042-68.625-83.56c-13.935-3.607-28.569-4.449-42.853-3.035c-17.414,1.97-31.969,13.156-44.362,24.755
		c-25.645,24.311-23.531,70.119,2.686,93.158c31.859,25.525,72.414,4.904,72.057-23.373c0.111-6.499-4.274-11.615-8.58-15.921
		c-2.208,5.641-2.606,11.853-5.068,17.399c-7.23,8.85-20.497,10.264-30.809,6.817c-16.652-8.485-26.027-30.698-17.272-47.969
		c26.075-47.268,85.711-30.836,105.964,6.244c36.513,74.7-46.833,161.033-138.124,112.447
		c-47.763-21.215-68.924-80.859-58.933-126.588c6.149-26.583,17.255-53.451,38.547-71.501
		c37.212-32.986,90.727-48.716,139.459-36.148c102.388,31.49,111.806,110.619,122.076,138.791
		c9.645-0.238,19.719,1.605,28.982-1.907c-5.733-55.221-40.425-113.833-90.599-144.559c-41.063-30.508-115.858-41.973-186.045-6.88
		C421.402,897.765,390.859,1014.499,449.776,1090.997z"/>
	<path d="M449.776,545.812c23.595-32.493,62.38-52.243,101.817-57.074c70.625-8.391,143.087,50.742,135.28,130.1
		c-5.322,37.292-31.54,73.042-68.625,83.56c-13.935,3.607-28.569,4.449-42.853,3.035c-17.414-1.97-31.969-13.156-44.362-24.755
		c-25.645-24.311-23.531-70.119,2.686-93.158c31.859-25.525,72.414-4.904,72.057,23.373c0.111,6.499-4.274,11.615-8.58,15.921
		c-2.208-5.641-2.606-11.853-5.068-17.399c-7.23-8.85-20.497-10.264-30.809-6.817c-16.652,8.485-26.027,30.698-17.272,47.969
		c26.075,47.268,85.711,30.836,105.964-6.244c36.513-74.7-46.833-161.033-138.124-112.447
		c-47.763,21.215-68.924,80.859-58.933,126.588c6.149,26.583,17.255,53.451,38.547,71.501
		c37.212,32.986,90.727,48.716,139.459,36.148c102.388-31.49,111.806-110.619,122.076-138.791
		c9.645,0.238,19.719-1.605,28.982,1.907c-5.733,55.221-40.425,113.833-90.599,144.559c-41.063,30.508-115.858,41.973-186.045,6.88
		C421.402,739.044,390.859,622.31,449.776,545.812z"/>
	<path d="M1096.685,1148.07c39.437-4.83,78.222-24.58,101.817-57.073c58.917-76.498,28.374-193.232-55.596-234.857
		c-70.187-35.094-144.982-23.628-186.045,6.88c-50.175,30.726-84.866,89.339-90.599,144.559c9.263,3.511,19.337,1.668,28.982,1.907
		c10.269-28.172,19.688-107.301,122.076-138.791c48.732-12.568,102.246,3.162,139.458,36.147
		c21.292,18.05,32.398,44.919,38.547,71.501c9.991,45.73-11.169,105.373-58.933,126.588
		c-91.29,48.586-174.637-37.747-138.124-112.447c20.253-37.08,79.89-53.512,105.964-6.244c8.755,17.271-0.62,39.484-17.271,47.969
		c-10.312,3.448-23.579,2.034-30.809-6.816c-2.463-5.545-2.86-11.758-5.068-17.398c-4.306,4.306-8.691,9.422-8.58,15.921
		c-0.357,28.276,40.198,48.897,72.057,23.373c26.217-23.039,28.33-68.847,2.685-93.158c-12.393-11.599-26.948-22.785-44.362-24.755
		c-14.284-1.414-28.918-0.572-42.853,3.035c-37.085,10.519-63.302,46.269-68.625,83.56
		C953.598,1097.328,1026.06,1156.461,1096.685,1148.07z"/>
	<path d="M1096.685,488.739c39.437,4.83,78.222,24.58,101.817,57.073c58.917,76.498,28.374,193.232-55.596,234.857
		c-70.187,35.094-144.982,23.628-186.045-6.88c-50.175-30.726-84.866-89.339-90.599-144.559c9.263-3.511,19.337-1.668,28.982-1.907
		c10.269,28.172,19.688,107.301,122.076,138.791c48.732,12.569,102.246-3.162,139.458-36.147
		c21.292-18.05,32.398-44.919,38.547-71.501c9.991-45.73-11.169-105.373-58.933-126.588
		c-91.29-48.586-174.637,37.747-138.124,112.447c20.253,37.08,79.89,53.512,105.964,6.244c8.755-17.271-0.62-39.484-17.271-47.969
		c-10.312-3.448-23.579-2.034-30.809,6.816c-2.463,5.545-2.86,11.758-5.068,17.399c-4.306-4.306-8.691-9.422-8.58-15.921
		c-0.357-28.276,40.198-48.897,72.057-23.373c26.217,23.039,28.33,68.847,2.685,93.158c-12.393,11.599-26.948,22.785-44.362,24.755
		c-14.284,1.414-28.918,0.572-42.853-3.035c-37.085-10.519-63.302-46.269-68.625-83.56
		C953.598,539.481,1026.06,480.348,1096.685,488.739z"/>
	<path d="M914.056,1035.512c-0.127-4.608,0.27-12.918-6.419-12.457c-40.127-0.975-64.762-0.617-83.498-0.213
		c-18.736-0.404-43.371-0.762-83.498,0.213c-6.689-0.461-6.292,7.849-6.419,12.457c0.429,3.734-0.826,9.184,3.289,11.234
		c0,0,43.107-0.359,86.628-0.547c43.52,0.187,86.628,0.547,86.628,0.547C914.882,1044.696,913.627,1039.246,914.056,1035.512z"/>
	<path d="M914.056,601.297c-0.127,4.608,0.27,12.918-6.419,12.457c-40.127,0.975-64.762,0.617-83.498,0.213
		c-18.736,0.404-43.371,0.762-83.498-0.213c-6.689,0.461-6.292-7.849-6.419-12.457c0.429-3.734-0.826-9.184,3.289-11.234
		c0,0,43.107,0.359,86.628,0.547c43.52-0.187,86.628-0.547,86.628-0.547C914.882,592.113,913.627,597.563,914.056,601.297z"/>
	<path d="M756.943,1210.546c-13.518,14.284-58.468,82.534-133.897,98.178c-16.191,2.876-34.559,6.244-49.336-3.162
		c-8.898-4.481-13.267-13.776-18.876-21.419c-11.854,9.216-13.283,25.073-12.314,38.944c1.144,14.205,11.266,26.297,23.198,33.272
		c34.502,15.788,79.948-3.381,109.492-27.186c34.734-29.173,65.463-63.556,88.026-103.025
		C767.589,1220.175,762.139,1213.581,756.943,1210.546z"/>
	<path d="M756.943,426.263c-13.518-14.284-58.468-82.534-133.897-98.178c-16.191-2.876-34.559-6.244-49.336,3.162
		c-8.898,4.481-13.267,13.776-18.876,21.419c-11.854-9.216-13.283-25.073-12.314-38.944c1.144-14.205,11.266-26.296,23.198-33.272
		c34.502-15.788,79.948,3.381,109.492,27.186c34.734,29.173,65.463,63.556,88.026,103.025
		C767.589,416.634,762.139,423.228,756.943,426.263z"/>
	<path d="M1025.232,1308.725c-75.429-15.645-120.379-83.895-133.897-98.179c-5.196,3.035-10.646,9.629-6.292,15.603
		c22.562,39.469,53.292,73.852,88.025,103.025c29.543,23.805,74.99,42.974,109.492,27.186c11.933-6.976,22.054-19.067,23.198-33.272
		c0.969-13.871-0.461-29.729-12.314-38.944c-5.609,7.643-9.978,16.938-18.876,21.419
		C1059.79,1314.969,1041.423,1311.601,1025.232,1308.725z"/>
	<path d="M1025.232,328.084c-75.429,15.645-120.379,83.895-133.897,98.179c-5.196-3.035-10.646-9.629-6.292-15.603
		c22.562-39.469,53.292-73.852,88.025-103.025c29.543-23.805,74.99-42.974,109.492-27.186c11.933,6.976,22.054,19.067,23.198,33.272
		c0.969,13.871-0.461,29.729-12.314,38.944c-5.609-7.643-9.978-16.938-18.876-21.419
		C1059.79,321.84,1041.423,325.208,1025.232,328.084z"/>
	<path d="M872.808,1182.454c-5.593-15.126-12.95-29.633-16.827-45.363c-7.007-24.898-11.599-50.4-18.145-75.41
		c-4.544-0.474-9.118-0.754-13.697-0.764c-4.578,0.009-9.152,0.289-13.697,0.764c-6.546,25.01-11.138,50.511-18.145,75.41
		c-3.877,15.73-11.234,30.237-16.826,45.363c7.833,5.132,17.351,1.684,25.994,1.494c1.331,13.755-2.655,29.822,20.561,53.038
		c0.722-0.69,1.427-1.395,2.114-2.114c0.686,0.72,1.391,1.425,2.114,2.114c23.216-23.216,19.229-39.283,20.56-53.038
		C855.457,1184.139,864.974,1187.587,872.808,1182.454z"/>
	<path d="M872.808,454.355c-5.593,15.126-12.95,29.633-16.827,45.363c-7.007,24.898-11.599,50.4-18.145,75.41
		c-4.544,0.474-9.118,0.754-13.697,0.764c-4.578-0.009-9.152-0.289-13.697-0.764c-6.546-25.01-11.138-50.512-18.145-75.41
		c-3.877-15.73-11.234-30.237-16.826-45.363c7.833-5.132,17.351-1.684,25.994-1.494c1.331-13.755-2.655-29.822,20.561-53.038
		c0.722,0.69,1.427,1.395,2.114,2.114c0.686-0.72,1.391-1.424,2.114-2.114c23.216,23.216,19.229,39.283,20.56,53.038
		C855.457,452.67,864.974,449.222,872.808,454.355z"/>
	<path d="M824.918,1248.934c-0.261-0.2-0.52-0.402-0.779-0.604c-0.259,0.202-0.519,0.404-0.779,0.605
		c-3.543-1.859-7.166-3.67-10.074-6.355c-16.239-14.841-29.84-32.477-39.754-52.085c-5.45-2.336-7.547,5.513-10.503,8.66
		c14.793,25.565,34.877,48.509,58.567,66.162c0.855-0.516,1.703-1.042,2.543-1.578c0.84,0.536,1.688,1.062,2.543,1.578
		c23.69-17.653,43.775-40.597,58.567-66.162c-2.956-3.146-5.053-10.995-10.503-8.66c-9.915,19.607-23.516,37.244-39.754,52.084
		C832.084,1245.264,828.461,1247.075,824.918,1248.934z"/>
	<path d="M824.918,387.875c-0.261,0.201-0.52,0.402-0.779,0.604c-0.259-0.202-0.519-0.404-0.779-0.605
		c-3.543,1.859-7.166,3.67-10.074,6.355c-16.239,14.841-29.84,32.477-39.754,52.085c-5.45,2.336-7.547-5.513-10.503-8.66
		c14.793-25.565,34.877-48.509,58.567-66.162c0.855,0.516,1.703,1.042,2.543,1.578c0.84-0.536,1.688-1.062,2.543-1.578
		c23.69,17.653,43.775,40.597,58.567,66.162c-2.956,3.146-5.053,10.995-10.503,8.66c-9.915-19.607-23.516-37.244-39.754-52.084
		C832.084,391.545,828.461,389.734,824.918,387.875z"/>
	<path d="M758.485,1308.789c9.136-20.958,18.018-42.074,25.708-63.62c-3.098-4.433-6.53-8.628-10.296-12.457
		c-9.517,11.52-15.19,25.518-23.691,37.705c-18.177,25.899-36.243,52.355-59.759,73.805c-27.545,22.988-56.64,50.276-55.532,86.071
		c13.537,2.669,28.505,1.938,40.533-5.418c16.858-9.804,31.461-23.453,42.297-39.691
		C734.286,1361.461,747.792,1335.657,758.485,1308.789z"/>
	<path d="M758.485,328.02c9.136,20.958,18.018,42.074,25.708,63.62c-3.098,4.433-6.53,8.628-10.296,12.457
		c-9.517-11.52-15.19-25.518-23.691-37.705c-18.177-25.899-36.243-52.355-59.759-73.805c-27.545-22.988-56.64-50.276-55.532-86.071
		c13.537-2.669,28.505-1.938,40.533,5.418c16.858,9.804,31.461,23.452,42.297,39.691
		C734.286,275.348,747.792,301.152,758.485,328.02z"/>
	<path d="M957.83,1344.221c-23.516-21.45-41.582-47.906-59.759-73.805c-8.501-12.187-14.173-26.185-23.691-37.704
		c-3.766,3.829-7.198,8.024-10.296,12.457c7.69,21.546,16.572,42.662,25.709,63.62c10.693,26.869,24.199,52.672,40.74,76.395
		c10.836,16.239,25.439,29.887,42.297,39.691c12.028,7.356,26.996,8.087,40.533,5.418
		C1014.471,1394.497,985.375,1367.209,957.83,1344.221z"/>
	<path d="M957.83,292.588c-23.516,21.45-41.582,47.906-59.759,73.805c-8.501,12.187-14.173,26.185-23.691,37.705
		c-3.766-3.829-7.198-8.024-10.296-12.457c7.69-21.546,16.572-42.662,25.709-63.62c10.693-26.868,24.199-52.672,40.74-76.395
		c10.836-16.239,25.439-29.887,42.297-39.691c12.028-7.356,26.996-8.087,40.533-5.418
		C1014.471,242.312,985.375,269.6,957.83,292.588z"/>
	<path d="M791.439,1251.238c-7.08,25.074-12.235,65.759-35.687,121.17c-7.134,16.477-17.828,31.079-25.47,47.302
		c-10.153,20.767-24.278,41.407-23.516,65.526c0.874,8.914,1.033,19.21,7.897,25.915c59.228-17.947,67.379-63.538,89.296-238.94
		C806.009,1262.79,798.541,1255.894,791.439,1251.238z"/>
	<path d="M791.439,385.571c-7.08-25.074-12.235-65.759-35.687-121.17c-7.134-16.477-17.828-31.079-25.47-47.302
		c-10.153-20.767-24.278-41.407-23.516-65.526c0.874-8.914,1.033-19.21,7.897-25.915c59.228,17.947,67.379,63.538,89.296,238.94
		C806.009,374.019,798.541,380.915,791.439,385.571z"/>
	<path d="M917.996,1419.71c-7.642-16.223-18.336-30.825-25.47-47.302c-23.452-55.411-28.607-96.096-35.687-121.17
		c-7.102,4.656-14.57,11.551-12.521,20.974c21.918,175.402,30.069,220.993,89.297,238.94c6.864-6.705,7.023-17.001,7.897-25.915
		C942.275,1461.117,928.15,1440.477,917.996,1419.71z"/>
	<path d="M917.996,217.099c-7.642,16.223-18.336,30.825-25.47,47.302c-23.452,55.411-28.607,96.096-35.687,121.17
		c-7.102-4.655-14.57-11.551-12.521-20.974c21.918-175.402,30.069-220.993,89.297-238.94c6.864,6.705,7.023,17.001,7.897,25.915
		C942.275,175.692,928.15,196.332,917.996,217.099z"/>
	<path d="M849.101,1454.889c-9.422-60.776-10.709-122.378-13.776-183.694c-3.655,0.991-7.417,1.345-11.186,1.662
		c-3.77-0.317-7.532-0.671-11.186-1.662c-3.067,61.316-4.354,122.917-13.776,183.693c-6.867,41.625-24.796,121.31,24.962,163.516
		C873.897,1576.198,855.968,1496.513,849.101,1454.889z"/>
	<path d="M849.101,181.92c-9.422,60.776-10.709,122.378-13.776,183.694c-3.655-0.991-7.417-1.345-11.186-1.662
		c-3.77,0.317-7.532,0.671-11.186,1.662c-3.067-61.316-4.354-122.918-13.776-183.693c-6.867-41.625-24.796-121.31,24.962-163.516
		C873.897,60.611,855.968,140.296,849.101,181.92z"/>
</g>
</svg>
