<?xml version="1.0" encoding="utf-8"?>

<!DOCTYPE svg PUBLIC "-//W3C//DTD SVG 1.1//EN" "http://www.w3.org/Graphics/SVG/1.1/DTD/svg11.dtd">
<svg version="1.1" id="Layer_1" xmlns="http://www.w3.org/2000/svg" xmlns:xlink="http://www.w3.org/1999/xlink" x="0px" y="0px"
	 viewBox="0 0 2652.148 1129.272" enable-background="new 0 0 2652.148 1129.272" xml:space="preserve">
<g>
	<path d="M1326.074,57.674c594.774,1.872,606.122-5.877,672.478,16.219c37.297,12.798,73.396,31.898,101.044,60.426
		c22.955,22.787,52.132,76.458,54.735,113.745c4.861,31.825,1.368,64.847-11.039,94.597c-4.958,16.951-15.51,31.141-24.083,46.309
		c6.937,9.037,14.41,17.879,23.863,24.4c43.442-49.106,70.022-153.293,20.077-252.429c-20.446-45.652-61.1-78.455-105.685-101.606
		c-30.418-12.925-77.091-38.52-192.808-37.15c-11.872,0.69-272.509,0.168-538.582-0.381c-266.072,0.548-526.71,1.071-538.582,0.381
		c-115.717-1.37-162.39,24.225-192.808,37.15c-44.585,23.152-85.24,55.955-105.685,101.606
		c-49.945,99.136-23.365,203.323,20.077,252.429c9.453-6.521,16.926-15.363,23.863-24.4c-8.573-15.168-19.125-29.358-24.083-46.309
		c-12.407-29.749-15.9-62.771-11.039-94.597c2.603-37.288,31.781-90.959,54.735-113.745c27.649-28.528,63.748-47.628,101.044-60.426
		C719.952,51.797,731.3,59.546,1326.074,57.674z"/>
	<path d="M2565.378,564.636c-14.239-28.45-32.998-54.603-56.84-77.357c-19.71-18.563-44.819-29.627-69.17-40.643
		c-80.371-32.115-177.78-13.271-228.517,30.922c4.812,9.965,13.409,17.195,22.47,23.179c13.19-6.986,25.304-15.974,39.275-21.445
		c39.763-15.779,84.436-19.662,126.031-9.184c58.59,15.651,98.109,47.703,126.315,94.528
		c-28.206,46.824-67.725,78.877-126.315,94.528c-41.594,10.478-86.267,6.595-126.031-9.184
		c-13.971-5.471-26.085-14.459-39.275-21.445c-9.062,5.984-17.659,13.214-22.47,23.179c50.737,44.193,148.146,63.036,228.517,30.922
		c24.351-11.016,49.46-22.08,69.17-40.643C2532.38,619.239,2551.138,593.086,2565.378,564.636z"/>
	<path d="M86.77,564.636c14.239-28.45,32.998-54.603,56.84-77.357c19.71-18.563,44.819-29.627,69.17-40.643
		c80.371-32.115,177.78-13.271,228.517,30.922c-4.812,9.965-13.409,17.195-22.471,23.179c-13.19-6.986-25.304-15.974-39.275-21.445
		c-39.763-15.779-84.436-19.662-126.031-9.184c-58.59,15.651-98.109,47.703-126.315,94.528
		c28.206,46.824,67.725,78.877,126.315,94.528c41.595,10.478,86.267,6.595,126.031-9.184c13.971-5.471,26.085-14.459,39.275-21.445
		c9.061,5.984,17.659,13.214,22.471,23.179c-50.737,44.193-148.146,63.036-228.517,30.922c-24.351-11.016-49.46-22.08-69.17-40.643
		C119.768,619.239,101.009,593.086,86.77,564.636z"/>
	<path d="M2560.367,403.209c2.906,7.327,9.721,14.801,6.252,23.081c-5.422,12.359-23.643,12.115-32.411,3.59
		c-24.664-21.712-69.206-85.629-112.207-95.598c-1.172,1.514-3.517,4.543-4.689,6.057c4.934,6.375,12.286,9.892,18.538,14.679
		c41.904,30.824,44.921,79.15,84.314,115.895c13.287,13.702,33.852,20.15,52.464,15.632
		C2627.802,468.614,2608.345,393.983,2560.367,403.209z"/>
	<path d="M91.781,403.209c-2.906,7.327-9.721,14.801-6.252,23.081c5.422,12.359,23.643,12.115,32.411,3.59
		c24.664-21.712,69.206-85.629,112.207-95.598c1.172,1.514,3.517,4.543,4.689,6.057c-4.934,6.375-12.286,9.892-18.539,14.679
		c-41.904,30.824-44.921,79.15-84.314,115.895c-13.287,13.702-33.852,20.15-52.464,15.632
		C24.346,468.614,43.802,393.983,91.781,403.209z"/>
	<path d="M2572.628,642.726c-18.612-4.518-39.177,1.93-52.464,15.632c-39.393,36.744-42.41,85.071-84.314,115.895
		c-6.253,4.787-13.604,8.304-18.538,14.679c1.172,1.515,3.517,4.543,4.689,6.057c43.001-9.969,87.543-73.886,112.207-95.598
		c8.768-8.524,26.989-8.769,32.411,3.59c3.469,8.28-3.346,15.754-6.252,23.081C2608.345,735.289,2627.802,660.658,2572.628,642.726z
		"/>
	<path d="M79.52,642.726c18.612-4.518,39.177,1.93,52.464,15.632c39.392,36.744,42.41,85.071,84.314,115.895
		c6.253,4.787,13.605,8.304,18.539,14.679c-1.172,1.515-3.517,4.543-4.689,6.057c-43.001-9.969-87.543-73.886-112.207-95.598
		c-8.768-8.524-26.989-8.769-32.411,3.59c-3.469,8.28,3.346,15.754,6.252,23.081C43.802,735.289,24.346,660.658,79.52,642.726z"/>
	<path d="M2571.675,148.363c-8.671-2.125-18.758-2.906-26.428,2.491c5.642,6.131,15.021,11.187,14.85,20.615
		c0.392,35.66-60.2,43.853-97.967,57.813c-44.526,13.824-81.676,42.841-118.923,69.757c0.146,3.078,0.293,6.131,0.464,9.159
		c9.819-2.956,17.928-9.355,26.648-14.484c75.917-45.428,137.595-23.034,192.563-46.895
		C2620.707,221.47,2607.511,159.743,2571.675,148.363z"/>
	<path d="M80.473,148.363c8.671-2.125,18.758-2.906,26.428,2.491c-5.642,6.131-15.021,11.187-14.85,20.615
		c-0.392,35.66,60.2,43.853,97.967,57.813c44.526,13.824,81.676,42.841,118.923,69.757c-0.147,3.078-0.293,6.131-0.464,9.159
		c-9.819-2.956-17.928-9.355-26.648-14.484c-75.917-45.428-137.595-23.034-192.563-46.895
		C31.441,221.47,44.637,159.743,80.473,148.363z"/>
	<path d="M2562.882,882.454c-54.969-23.861-116.647-1.467-192.563-46.895c-8.72-5.129-16.829-11.528-26.648-14.484
		c-0.171,3.029-0.317,6.082-0.464,9.159c37.248,26.916,74.397,55.932,118.923,69.757c37.767,13.961,98.359,22.154,97.967,57.813
		c0.171,9.428-9.208,14.484-14.85,20.615c7.67,5.398,17.757,4.616,26.428,2.491C2607.511,969.529,2620.707,907.802,2562.882,882.454
		z"/>
	<path d="M89.266,882.454c54.969-23.861,116.647-1.467,192.563-46.895c8.72-5.129,16.829-11.528,26.648-14.484
		c0.171,3.029,0.317,6.082,0.464,9.159c-37.248,26.916-74.397,55.932-118.923,69.757c-37.768,13.961-98.359,22.154-97.967,57.813
		c-0.171,9.428,9.208,14.484,14.85,20.615c-7.67,5.398-17.757,4.616-26.428,2.491C44.637,969.529,31.441,907.802,89.266,882.454z"/>
	<path d="M2538.8,315.891c-39.672,0.215-83.117-40.688-151.115-17.171c-14.044,4.836-27.868,10.796-40.178,19.198
		c0.293,1.832,0.88,5.52,1.172,7.352c27.695-3.769,55.921-33.251,132.479,16.071c20.614,12.188,42.573,25.377,67.339,25.035
		c18.294,0.953,36.466-8.939,45.894-24.571c13.092-21.445,5.324-52.782-16.389-65.482c-6.009-3.542-13.262-2.663-19.931-2.711
		c2.052,8.524,8.549,17.488,4.128,26.232C2558.706,309.492,2549.156,316.331,2538.8,315.891z"/>
	<path d="M113.348,315.891c39.672,0.215,83.117-40.688,151.115-17.171c14.044,4.836,27.868,10.796,40.178,19.198
		c-0.293,1.832-0.88,5.52-1.172,7.352c-27.695-3.769-55.921-33.251-132.479,16.071c-20.614,12.188-42.573,25.377-67.339,25.035
		c-18.294,0.953-36.466-8.939-45.894-24.571c-13.092-21.445-5.324-52.782,16.389-65.482c6.009-3.542,13.262-2.663,19.931-2.711
		c-2.052,8.524-8.549,17.488-4.128,26.232C93.442,309.492,102.992,316.331,113.348,315.891z"/>
	<path d="M2578.001,852.949c21.713-12.701,29.481-44.037,16.389-65.482c-9.428-15.632-27.6-25.524-45.894-24.571
		c-24.766-0.342-46.725,12.847-67.339,25.035c-76.558,49.323-104.784,19.84-132.479,16.071c-0.293,1.832-0.879,5.52-1.172,7.352
		c12.31,8.402,26.134,14.362,40.178,19.198c67.998,23.517,111.443-17.385,151.115-17.171c10.356-0.439,19.906,6.4,23.399,16.047
		c4.42,8.744-2.076,17.708-4.128,26.232C2564.739,855.611,2571.992,856.49,2578.001,852.949z"/>
	<path d="M74.147,852.949c-21.713-12.701-29.481-44.037-16.389-65.482c9.428-15.632,27.6-25.524,45.894-24.571
		c24.766-0.342,46.725,12.847,67.339,25.035c76.558,49.323,104.784,19.84,132.479,16.071c0.293,1.832,0.879,5.52,1.172,7.352
		c-12.31,8.402-26.134,14.362-40.178,19.198c-67.998,23.517-111.443-17.385-151.115-17.171c-10.356-0.439-19.906,6.4-23.399,16.047
		c-4.42,8.744,2.076,17.708,4.128,26.232C87.409,855.611,80.155,856.49,74.147,852.949z"/>
	<path d="M2375.228,232.652c-13.971,17.048-30.531,31.801-44.429,48.898c2.468,2.516,4.983,4.983,7.523,7.352
		c23.497-17.903,43.549-40.081,67.461-57.569c21.274-15.241,41.571-31.874,63.357-46.431
		c39.177-25.719,75.521-57.154,101.484-96.502c13.8-20.126,28.967-42.328,28.406-67.73c-21.076-2.329-97.693,34.779-151.506,113.331
		C2425.176,168.122,2400.752,200.827,2375.228,232.652z"/>
	<path d="M276.92,232.652c13.971,17.048,30.531,31.801,44.429,48.898c-2.467,2.516-4.983,4.983-7.523,7.352
		c-23.497-17.903-43.549-40.081-67.461-57.569c-21.274-15.241-41.571-31.874-63.357-46.431
		C143.83,159.183,107.487,127.748,81.523,88.4c-13.8-20.126-28.967-42.328-28.406-67.73c21.076-2.329,97.693,34.779,151.506,113.331
		C226.972,168.122,251.396,200.827,276.92,232.652z"/>
	<path d="M2469.141,944.37c-21.787-14.557-42.083-31.19-63.357-46.431c-23.912-17.488-43.964-39.666-67.461-57.569
		c-2.54,2.369-5.055,4.836-7.523,7.352c13.898,17.097,30.458,31.85,44.429,48.898c25.524,31.825,49.948,64.53,72.297,98.651
		c53.813,78.552,130.43,115.66,151.506,113.331c0.562-25.402-14.606-47.604-28.406-67.73
		C2544.661,1001.524,2508.318,970.089,2469.141,944.37z"/>
	<path d="M183.007,944.37c21.787-14.557,42.084-31.19,63.357-46.431c23.912-17.488,43.964-39.666,67.461-57.569
		c2.54,2.369,5.055,4.836,7.523,7.352c-13.898,17.097-30.458,31.85-44.429,48.898c-25.524,31.825-49.948,64.53-72.297,98.651
		c-53.813,78.552-130.43,115.66-151.506,113.331c-0.562-25.402,14.606-47.604,28.406-67.73
		C107.487,1001.524,143.83,970.089,183.007,944.37z"/>
	<path d="M2163.149,522.988c-10.602,12.322-19.793,26.361-27.249,41.648c7.456,15.287,16.647,29.326,27.249,41.648
		c8.964-5.3,15.852-13.189,23.032-20.541c-4.068-7.522-9.751-14.029-14.508-21.107c4.757-7.079,10.44-13.585,14.508-21.107
		C2179,536.177,2172.113,528.288,2163.149,522.988z"/>
	<path d="M488.999,522.988c10.602,12.322,19.793,26.361,27.249,41.648c-7.456,15.287-16.647,29.326-27.249,41.648
		c-8.964-5.3-15.852-13.189-23.032-20.541c4.068-7.522,9.751-14.029,14.508-21.107c-4.757-7.079-10.44-13.585-14.508-21.107
		C473.147,536.177,480.035,528.288,488.999,522.988z"/>
	<path d="M2311.333,276.226c3.932,1.93,9.55,6.033,12.432,0.317c19.051-25.573,36.808-52.195,51.927-80.283
		c27.284-52.769,28.301-104.854,52.928-127.668c7.596-5.813,18.733-9.843,27.917-5.52c5.275,3.981,9.061,9.55,13.702,14.166
		c11.944-23.008-6.79-50.73-29.994-56.592c-18.245-4.128-39.812-0.244-52.171,14.826c-46.131,52.858-13.271,129.746-55.175,203.555
		C2326.696,251.996,2317.952,263.501,2311.333,276.226z"/>
	<path d="M340.814,276.226c-3.932,1.93-9.55,6.033-12.432,0.317c-19.051-25.573-36.808-52.195-51.927-80.283
		c-27.284-52.769-28.301-104.854-52.929-127.668c-7.596-5.813-18.733-9.843-27.917-5.52c-5.275,3.981-9.061,9.55-13.702,14.166
		c-11.944-23.008,6.79-50.73,29.993-56.592c18.245-4.128,39.812-0.244,52.171,14.826c46.131,52.858,13.271,129.746,55.175,203.555
		C325.452,251.996,334.195,263.501,340.814,276.226z"/>
	<path d="M2456.538,1066.2c-9.184,4.323-20.322,0.293-27.917-5.52c-24.627-22.813-25.645-74.898-52.928-127.668
		c-15.119-28.088-32.875-54.711-51.927-80.283c-2.882-5.716-8.5-1.612-12.432,0.317c6.619,12.725,15.363,24.229,21.567,37.199
		c41.904,73.809,9.045,150.697,55.175,203.555c12.359,15.07,33.926,18.953,52.171,14.826c23.203-5.862,41.938-33.584,29.994-56.592
		C2465.599,1056.65,2461.813,1062.219,2456.538,1066.2z"/>
	<path d="M195.61,1066.2c9.184,4.323,20.321,0.293,27.917-5.52c24.627-22.813,25.645-74.898,52.929-127.668
		c15.119-28.088,32.875-54.711,51.927-80.283c2.882-5.716,8.5-1.612,12.432,0.317c-6.619,12.725-15.363,24.229-21.567,37.199
		c-41.904,73.809-9.045,150.697-55.175,203.555c-12.359,15.07-33.926,18.953-52.171,14.826
		c-23.203-5.862-41.937-33.584-29.993-56.592C186.549,1056.65,190.335,1062.219,195.61,1066.2z"/>
	<path d="M2178.463,416.911c-4.274,5.96-12.188,10.258-13.165,17.928c6.423,8.377,14.85,14.948,22.446,22.202
		c18.436-10.818,10.757-15.871,73.225-48.141c28.699-14.337,60.304-21.762,92.081-25.084c64.381-6.588,76.267,26.598,86.39,47.14
		c13.605-12.237,12.945-34.194,3.322-48.727c-8.133-15.729-25.279-22.568-40.691-29.016c1.881-6.351,5.251-12.066,7.645-18.197
		c0.073-5.569-6.253-4.518-10.087-5.227c-20.736-1.465-40.594,5.398-59.914,11.919c-3.664-12.75-5.52-26.378-12.872-37.736
		c-33.163,30.597-78.038,103.035-92.813,89.296c-7.132-4.567-9.623-15.119-2.637-21.03c26.964-28.699,60.157-50.681,87.88-78.599
		c-12.237-6.595-26.184-8.28-39.275-12.505c5.886-22.886,14.948-46.993,7.669-70.685c-6.399,3.444-12.847,6.79-19.515,9.648
		c-6.179-10.967-9.525-23.814-19.027-32.656c-8.427-7.84-18.709-14.777-30.384-16.218c-11.333-0.269-23.204,3.468-31.239,11.724
		c22.08,7.108,43.012,23.717,47.53,47.531c6.008,35-1.172,70.88-11.821,104.269C2210.924,363.373,2198.491,392.707,2178.463,416.911
		z"/>
	<path d="M473.685,416.911c4.274,5.96,12.188,10.258,13.165,17.928c-6.423,8.377-14.85,14.948-22.446,22.202
		c-18.436-10.818-10.757-15.871-73.225-48.141c-28.699-14.337-60.304-21.762-92.081-25.084c-64.381-6.588-76.267,26.598-86.39,47.14
		c-13.605-12.237-12.945-34.194-3.321-48.727c8.133-15.729,25.279-22.568,40.691-29.016c-1.881-6.351-5.251-12.066-7.645-18.197
		c-0.073-5.569,6.253-4.518,10.087-5.227c20.736-1.465,40.594,5.398,59.914,11.919c3.664-12.75,5.52-26.378,12.872-37.736
		c33.163,30.597,78.038,103.035,92.814,89.296c7.132-4.567,9.623-15.119,2.637-21.03c-26.964-28.699-60.158-50.681-87.88-78.599
		c12.237-6.595,26.184-8.28,39.275-12.505c-5.886-22.886-14.948-46.993-7.669-70.685c6.399,3.444,12.847,6.79,19.515,9.648
		c6.18-10.967,9.525-23.814,19.027-32.656c8.426-7.84,18.709-14.777,30.384-16.218c11.333-0.269,23.203,3.468,31.239,11.724
		c-22.08,7.108-43.012,23.717-47.53,47.531c-6.008,35,1.172,70.88,11.821,104.269C441.224,363.373,453.657,392.707,473.685,416.911z
		"/>
	<path d="M2442.762,747.044c9.624-14.533,10.283-36.491-3.322-48.727c-10.123,20.542-22.009,53.728-86.39,47.14
		c-31.776-3.322-63.382-10.747-92.081-25.084c-62.468-32.271-54.789-37.323-73.225-48.141c-7.596,7.254-16.023,13.825-22.446,22.202
		c0.977,7.669,8.89,11.968,13.165,17.928c20.028,24.205,32.46,53.539,44.746,82.164c10.649,33.388,17.83,69.268,11.821,104.269
		c-4.518,23.814-25.45,40.423-47.53,47.531c8.036,8.256,19.906,11.993,31.239,11.724c11.675-1.441,21.958-8.377,30.384-16.218
		c9.501-8.842,12.847-21.689,19.027-32.656c6.668,2.858,13.116,6.204,19.515,9.648c7.279-23.692-1.783-47.799-7.669-70.685
		c13.091-4.225,27.038-5.911,39.275-12.505c-27.722-27.917-60.916-49.9-87.88-78.599c-6.986-5.911-4.494-16.462,2.637-21.03
		c14.775-13.738,59.651,58.7,92.813,89.296c7.352-11.357,9.208-24.986,12.872-37.736c19.32,6.521,39.177,13.385,59.914,11.919
		c3.834-0.708,10.161,0.342,10.087-5.227c-2.394-6.131-5.764-11.846-7.645-18.197
		C2417.483,769.612,2434.629,762.773,2442.762,747.044z"/>
	<path d="M209.386,747.044c-9.624-14.533-10.283-36.491,3.321-48.727c10.123,20.542,22.009,53.728,86.39,47.14
		c31.776-3.322,63.382-10.747,92.081-25.084c62.468-32.271,54.789-37.323,73.225-48.141c7.596,7.254,16.023,13.825,22.446,22.202
		c-0.977,7.669-8.89,11.968-13.165,17.928c-20.028,24.205-32.46,53.539-44.746,82.164c-10.649,33.388-17.829,69.268-11.821,104.269
		c4.518,23.814,25.45,40.423,47.53,47.531c-8.036,8.256-19.906,11.993-31.239,11.724c-11.675-1.441-21.958-8.377-30.384-16.218
		c-9.502-8.842-12.847-21.689-19.027-32.656c-6.668,2.858-13.116,6.204-19.515,9.648c-7.279-23.692,1.783-47.799,7.669-70.685
		c-13.091-4.225-27.038-5.911-39.275-12.505c27.722-27.917,60.915-49.9,87.88-78.599c6.986-5.911,4.494-16.462-2.637-21.03
		c-14.775-13.738-59.651,58.7-92.814,89.296c-7.352-11.357-9.208-24.986-12.872-37.736c-19.32,6.521-39.177,13.385-59.914,11.919
		c-3.834-0.708-10.16,0.342-10.087-5.227c2.394-6.131,5.764-11.846,7.645-18.197C234.665,769.612,217.519,762.773,209.386,747.044z"
		/>
	<path d="M2305.618,234.362c-0.708,13.58-8.524,25.328-10.576,38.615c2.882,0.318,5.74,0.611,8.622,0.88
		c56.223-88.812,0.503-147.145-0.098-190.536c-0.513-10.967,7.572-21.469,17.952-24.596c8.817-1.27,16.926,3.566,25.133,5.984
		c0.389-60.519-82.935-52.296-91.617-6.057C2241.237,127.766,2315.697,152.651,2305.618,234.362z"/>
	<path d="M346.53,234.362c0.708,13.58,8.524,25.328,10.576,38.615c-2.882,0.318-5.74,0.611-8.622,0.88
		c-56.223-88.812-0.503-147.145,0.098-190.536c0.513-10.967-7.572-21.469-17.952-24.596c-8.817-1.27-16.926,3.566-25.133,5.984
		c-0.389-60.519,82.935-52.296,91.617-6.057C410.911,127.766,336.451,152.651,346.53,234.362z"/>
	<path d="M2321.518,1070.548c-10.38-3.126-18.465-13.629-17.952-24.596c0.601-43.392,56.321-101.724,0.098-190.536
		c-2.882,0.269-5.74,0.562-8.622,0.88c2.052,13.287,9.867,25.035,10.576,38.615c10.079,81.71-64.381,106.596-50.583,175.711
		c8.682,46.239,92.006,54.462,91.617-6.057C2338.445,1066.982,2330.335,1071.818,2321.518,1070.548z"/>
	<path d="M330.63,1070.548c10.38-3.126,18.465-13.629,17.952-24.596c-0.601-43.392-56.321-101.724-0.098-190.536
		c2.882,0.269,5.74,0.562,8.622,0.88c-2.052,13.287-9.868,25.035-10.576,38.615c-10.079,81.71,64.381,106.596,50.583,175.711
		c-8.682,46.239-92.006,54.462-91.617-6.057C313.703,1066.982,321.813,1071.818,330.63,1070.548z"/>
	<path d="M2148.665,104.765c45.262,40.086,77.971,41.24,106.223,69.537c9.354,8.671,15.558,19.881,22.422,30.433
		c2.883-1.368,5.74-2.809,8.598-4.25c-6.363-30.243-46.054-66.264-68.389-86.366c-17.38-15.374-44.574-32.078-30.604-52.879
		c4.274-4.03,11.358-8.646,16.975-4.445c4.323,2.394,8.427,5.178,12.677,7.669c2.97-34.743-20.775-51.434-49.118-47.286
		c-16.755,1.979-28.601,16.658-35.05,31.141C2126.683,68.055,2133.034,91.185,2148.665,104.765z"/>
	<path d="M503.483,104.765c-45.262,40.086-77.971,41.24-106.223,69.537c-9.354,8.671-15.558,19.881-22.422,30.433
		c-2.883-1.368-5.74-2.809-8.598-4.25c6.363-30.243,46.054-66.264,68.389-86.366c17.38-15.374,44.574-32.078,30.604-52.879
		c-4.274-4.03-11.358-8.646-16.975-4.445c-4.323,2.394-8.427,5.178-12.677,7.669c-2.97-34.743,20.775-51.434,49.118-47.286
		c16.755,1.979,28.601,16.658,35.05,31.141C525.465,68.055,519.114,91.185,503.483,104.765z"/>
	<path d="M2277.31,924.537c-6.864,10.552-13.067,21.762-22.422,30.433c-28.252,28.297-60.96,29.451-106.223,69.537
		c-15.632,13.58-21.982,36.71-16.267,56.445c6.448,14.484,18.294,29.163,35.05,31.141c28.344,4.148,52.088-12.543,49.118-47.286
		c-4.25,2.491-8.354,5.276-12.677,7.669c-5.617,4.201-12.701-0.415-16.975-4.445c-13.97-20.801,13.224-37.505,30.604-52.879
		c22.335-20.101,62.026-56.123,68.389-86.366C2283.05,927.346,2280.192,925.905,2277.31,924.537z"/>
	<path d="M374.838,924.537c6.863,10.552,13.067,21.762,22.422,30.433c28.252,28.297,60.96,29.451,106.223,69.537
		c15.632,13.58,21.982,36.71,16.267,56.445c-6.448,14.484-18.295,29.163-35.05,31.141c-28.344,4.148-52.088-12.543-49.118-47.286
		c4.25,2.491,8.354,5.276,12.677,7.669c5.617,4.201,12.701-0.415,16.975-4.445c13.97-20.801-13.224-37.505-30.604-52.879
		c-22.335-20.101-62.026-56.123-68.389-86.366C369.098,927.346,371.956,925.905,374.838,924.537z"/>
	<path d="M2094.247,387.26c-8.207,6.521-15.632,14.069-21.445,22.813c33.144,31.19,63.846,64.921,97.332,95.745
		c39.547,38.59,37.291,41.413,43.305,41.058c8.085-5.862,14.557-13.629,20.883-21.298c-17.048-19.808-37.418-36.393-55.443-55.297
		C2162.678,453.241,2115.972,404.857,2094.247,387.26z"/>
	<path d="M557.901,387.26c8.207,6.521,15.632,14.069,21.445,22.813c-33.144,31.19-63.846,64.921-97.332,95.745
		c-39.547,38.59-37.291,41.413-43.305,41.058c-8.085-5.862-14.557-13.629-20.883-21.298c17.048-19.808,37.418-36.393,55.443-55.297
		C489.469,453.241,536.176,404.857,557.901,387.26z"/>
	<path d="M2094.247,742.012c21.725-17.597,68.431-65.981,84.632-83.019c18.025-18.905,38.395-35.489,55.443-55.297
		c-6.326-7.669-12.798-15.436-20.883-21.298c-6.014-0.355-3.758,2.467-43.305,41.058c-33.486,30.824-64.188,64.554-97.332,95.745
		C2078.615,727.943,2086.04,735.491,2094.247,742.012z"/>
	<path d="M557.901,742.012c-21.725-17.597-68.431-65.981-84.632-83.019c-18.025-18.905-38.395-35.489-55.443-55.297
		c6.326-7.669,12.798-15.436,20.883-21.298c6.014-0.355,3.758,2.467,43.305,41.058c33.486,30.824,64.188,64.554,97.332,95.745
		C573.533,727.943,566.108,735.491,557.901,742.012z"/>
	<path d="M1326.074,1107.468c266.072-0.548,526.709-1.071,538.582-0.381c115.717,1.37,162.39-24.225,192.808-37.15
		c44.585-23.152,85.24-55.955,105.685-101.606c49.945-99.136,23.365-203.323-20.077-252.429c-9.453,6.521-16.926,15.363-23.863,24.4
		c8.573,15.168,19.125,29.358,24.083,46.309c12.407,29.749,15.9,62.771,11.039,94.597c-2.603,37.288-31.781,90.959-54.735,113.745
		c-27.649,28.528-63.748,47.628-101.044,60.426c-66.355,22.095-77.704,14.346-672.478,16.219
		c-594.774-1.872-606.122,5.877-672.478-16.219c-37.296-12.798-73.396-31.898-101.044-60.426
		c-22.955-22.787-52.132-76.458-54.735-113.745c-4.861-31.825-1.368-64.847,11.039-94.597c4.958-16.951,15.51-31.141,24.083-46.309
		c-6.937-9.037-14.41-17.879-23.863-24.4c-43.442,49.106-70.022,153.293-20.077,252.429c20.445,45.652,61.1,78.455,105.685,101.606
		c30.418,12.925,77.091,38.52,192.808,37.15C799.364,1106.398,1060.002,1106.92,1326.074,1107.468z"/>
	<path d="M2134.426,514.366c3.395-3.786,8.866-7.059,8.891-12.75c-6.814-8.94-14.46-17.659-24.083-23.717
		c-20.932,17.952-40.178,37.932-62.429,54.32c-14.462,10.61-27.777,21.296-42.908,32.416c15.131,11.12,28.446,21.806,42.908,32.416
		c22.251,16.389,41.498,36.368,62.429,54.32c9.623-6.057,17.269-14.777,24.083-23.716c-0.024-5.691-5.496-8.964-8.891-12.75
		c-12.945-11.626-23.692-25.304-34.658-38.713c-3.055-3.947-6.047-7.79-8.984-11.557c2.937-3.768,5.93-7.61,8.984-11.557
		C2110.734,539.67,2121.481,525.992,2134.426,514.366z"/>
	<path d="M517.722,514.366c-3.395-3.786-8.866-7.059-8.891-12.75c6.815-8.94,14.46-17.659,24.083-23.717
		c20.932,17.952,40.178,37.932,62.429,54.32c14.462,10.61,27.777,21.296,42.908,32.416c-15.131,11.12-28.446,21.806-42.908,32.416
		c-22.251,16.389-41.497,36.368-62.429,54.32c-9.623-6.057-17.268-14.777-24.083-23.716c0.024-5.691,5.496-8.964,8.891-12.75
		c12.945-11.626,23.692-25.304,34.658-38.713c3.055-3.947,6.047-7.79,8.984-11.557c-2.937-3.768-5.93-7.61-8.984-11.557
		C541.414,539.67,530.667,525.992,517.722,514.366z"/>
	<path d="M1649.743,188.468c-43.335-43.022-129.94-74.931-196.496-57.3c-31.996,9.135-63.528,26.55-81.187,55.761
		c-17.732,22.495-25.621,51.365-25.206,79.722c-1.145,69.082,55.817,120,109.911,124.614
		c78.186,12.777,156.064-78.017,103.023-154.364c-28.43-37.188-85.023-46.245-117.385-13.946
		c-41.319,48.291-2.421,100.414,36.124,97.112c13.385-0.855,25.89-10.307,30.824-22.666c2.125-10.209,1.319-25.279-10.527-29.016
		c-2.394,6.13-3.786,12.774-7.45,18.318c-20.169,18.47-45.46-11.956-33.413-33.34c16.852-31.731,72.129-25.171,86.243,18.636
		c10.234,36.026-13.556,77.206-49.802,86.463c-24.571,7.816-52.073,4.03-74.202-8.939c-10.38-6.497-17.683-16.707-25.035-26.305
		c-13.36-17.342-17.293-40.178-15.73-61.623c1.628-53.956,48.815-106.282,113.013-104.074c27.6,0.904,55.59,5.251,80.626,17.44
		c36.49,18.294,67.998,45.601,94.084,76.791c23.643,30.531,46.504,61.819,65.482,95.5c26.818,42.67,54.491,86.488,95.281,117.263
		c24.864,17.024,51.731,32.216,81.676,37.858c65.287,17.048,137.657-0.806,189.511-43.305c-5.838-9.111-13.605-16.804-22.276-23.203
		c-30.482,22.3-66.41,38.982-104.708,40.154c-29.725,2.003-58.717-7.132-85.779-18.538c-42.523-16.766-85.009-74.955-90.811-119.632
		c-13.222-67.081,28.693-139.835,96.16-159.005c59.354-15.832,109.347,7.292,138.805,53.759
		c31.785,54.574,3.852,122.401-49.607,137.999c-14.191,3.859-29.872,5.642-43.745-0.342c-63.972-23.97-51.199-94.71-9.061-101.582
		c15.437-3.664,36.417,8.818,33.291,26.33c-0.318,8.085-7.767,12.554-13.043,17.513c9.941,6.814,24.62,3.346,31.288-6.473
		c31.335-43.534-44.718-103.309-98.138-44.453c-28.093,30.582-27.464,85.436,15.07,119.632
		c42.684,37.456,114.292,28.509,154.461-21.005c31.053-35.199,31.565-104.941,9.037-142.42
		c-46.639-90.187-180.112-108.722-258.608-19.222c-48.897,61.632-43.109,101.408-43.72,122.441
		C1737.393,297.329,1716.973,248.45,1649.743,188.468z"/>
	<path d="M1002.404,188.468c43.335-43.022,129.94-74.931,196.496-57.3c31.997,9.135,63.529,26.55,81.188,55.761
		c17.732,22.495,25.621,51.365,25.206,79.722c1.146,69.082-55.816,120-109.911,124.614
		c-78.186,12.777-156.064-78.017-103.023-154.364c28.43-37.188,85.024-46.245,117.385-13.946
		c41.319,48.291,2.421,100.414-36.124,97.112c-13.385-0.855-25.89-10.307-30.824-22.666c-2.125-10.209-1.319-25.279,10.527-29.016
		c2.394,6.13,3.786,12.774,7.45,18.318c20.169,18.47,45.46-11.956,33.413-33.34c-16.852-31.731-72.129-25.171-86.244,18.636
		c-10.234,36.026,13.556,77.206,49.802,86.463c24.571,7.816,52.073,4.03,74.202-8.939c10.38-6.497,17.683-16.707,25.035-26.305
		c13.36-17.342,17.293-40.178,15.73-61.623c-1.628-53.956-48.815-106.282-113.013-104.074c-27.6,0.904-55.59,5.251-80.626,17.44
		c-36.49,18.294-67.998,45.601-94.084,76.791c-23.643,30.531-46.504,61.819-65.482,95.5c-26.818,42.67-54.492,86.488-95.281,117.263
		c-24.864,17.024-51.731,32.216-81.676,37.858c-65.287,17.048-137.657-0.806-189.511-43.305
		c5.838-9.111,13.605-16.804,22.276-23.203c30.482,22.3,66.41,38.982,104.708,40.154c29.725,2.003,58.717-7.132,85.779-18.538
		c42.523-16.766,85.009-74.955,90.811-119.632c13.222-67.081-28.693-139.835-96.16-159.005
		c-59.354-15.832-109.347,7.292-138.805,53.759c-31.785,54.574-3.852,122.401,49.607,137.999
		c14.191,3.859,29.872,5.642,43.745-0.342c63.971-23.97,51.199-94.71,9.061-101.582c-15.437-3.664-36.417,8.818-33.291,26.33
		c0.318,8.085,7.767,12.554,13.043,17.513c-9.941,6.814-24.62,3.346-31.288-6.473c-31.335-43.534,44.718-103.309,98.138-44.453
		c28.093,30.582,27.464,85.436-15.07,119.632c-42.684,37.456-114.292,28.509-154.461-21.005
		c-31.053-35.199-31.565-104.941-9.037-142.42c46.639-90.187,180.112-108.722,258.608-19.222
		c48.897,61.632,43.109,101.408,43.72,122.441C914.755,297.329,935.175,248.45,1002.404,188.468z"/>
	<path d="M1801.445,930.692c78.496,89.5,211.969,70.965,258.608-19.222c22.528-37.479,22.016-107.221-9.037-142.42
		c-40.169-49.515-111.777-58.461-154.461-21.005c-42.534,34.195-43.164,89.05-15.07,119.632
		c53.42,58.856,129.473-0.919,98.138-44.453c-6.668-9.819-21.347-13.287-31.288-6.473c5.276,4.958,12.725,9.428,13.043,17.513
		c3.126,17.512-17.854,29.994-33.291,26.33c-42.138-6.872-54.91-77.613,9.061-101.582c13.873-5.984,29.554-4.201,43.745-0.342
		c53.459,15.598,81.392,83.425,49.607,137.999c-29.459,46.467-79.451,69.591-138.805,53.759
		c-67.467-19.17-109.382-91.924-96.16-159.005c5.802-44.677,48.287-102.866,90.811-119.632
		c27.062-11.406,56.055-20.541,85.779-18.538c38.298,1.172,74.226,17.854,104.708,40.154c8.671-6.399,16.438-14.093,22.276-23.203
		c-51.854-42.499-124.223-60.353-189.511-43.305c-29.945,5.642-56.812,20.834-81.676,37.858
		c-40.789,30.775-68.462,74.593-95.281,117.263c-18.978,33.681-41.839,64.969-65.482,95.5
		c-26.086,31.19-57.593,58.497-94.084,76.791c-25.035,12.188-53.026,16.536-80.626,17.44
		c-64.198,2.208-111.385-50.118-113.013-104.074c-1.563-21.445,2.369-44.282,15.73-61.623c7.352-9.599,14.655-19.808,25.035-26.305
		c22.129-12.969,49.631-16.755,74.202-8.939c36.246,9.257,60.036,50.437,49.802,86.463c-14.115,43.807-69.392,50.367-86.243,18.636
		c-12.047-21.384,13.243-51.81,33.413-33.34c3.664,5.544,5.056,12.188,7.45,18.318c11.846-3.737,12.652-18.807,10.527-29.016
		c-4.934-12.359-17.439-21.811-30.824-22.666c-38.545-3.301-77.444,48.821-36.124,97.112
		c32.361,32.299,88.954,23.242,117.385-13.946c53.041-76.347-24.837-167.141-103.023-154.364
		c-54.094,4.614-111.056,55.532-109.911,124.614c-0.415,28.357,7.474,57.227,25.206,79.722
		c17.659,29.212,49.191,46.627,81.187,55.761c66.556,17.631,153.161-14.278,196.496-57.3
		c67.23-59.982,87.65-108.862,107.981-132.552C1758.336,829.284,1752.547,869.06,1801.445,930.692z"/>
	<path d="M850.703,930.692c-78.496,89.5-211.969,70.965-258.608-19.222c-22.528-37.479-22.016-107.221,9.037-142.42
		c40.169-49.515,111.777-58.461,154.461-21.005c42.534,34.195,43.164,89.05,15.07,119.632
		c-53.42,58.856-129.473-0.919-98.138-44.453c6.668-9.819,21.347-13.287,31.288-6.473c-5.275,4.958-12.725,9.428-13.043,17.513
		c-3.126,17.512,17.854,29.994,33.291,26.33c42.138-6.872,54.91-77.613-9.061-101.582c-13.873-5.984-29.554-4.201-43.745-0.342
		c-53.459,15.598-81.392,83.425-49.607,137.999c29.459,46.467,79.451,69.591,138.805,53.759
		c67.467-19.17,109.382-91.924,96.16-159.005c-5.802-44.677-48.288-102.866-90.811-119.632
		c-27.062-11.406-56.055-20.541-85.779-18.538c-38.298,1.172-74.226,17.854-104.708,40.154
		c-8.671-6.399-16.438-14.093-22.276-23.203c51.853-42.499,124.223-60.353,189.511-43.305c29.945,5.642,56.812,20.834,81.676,37.858
		c40.789,30.775,68.462,74.593,95.281,117.263c18.978,33.681,41.839,64.969,65.482,95.5c26.086,31.19,57.593,58.497,94.084,76.791
		c25.035,12.188,53.026,16.536,80.626,17.44c64.198,2.208,111.385-50.118,113.013-104.074c1.563-21.445-2.37-44.282-15.73-61.623
		c-7.352-9.599-14.655-19.808-25.035-26.305c-22.129-12.969-49.631-16.755-74.202-8.939c-36.246,9.257-60.036,50.437-49.802,86.463
		c14.115,43.807,69.392,50.367,86.244,18.636c12.047-21.384-13.243-51.81-33.413-33.34c-3.664,5.544-5.056,12.188-7.45,18.318
		c-11.846-3.737-12.652-18.807-10.527-29.016c4.934-12.359,17.439-21.811,30.824-22.666c38.545-3.301,77.444,48.821,36.124,97.112
		c-32.361,32.299-88.954,23.242-117.385-13.946c-53.041-76.347,24.837-167.141,103.023-154.364
		c54.094,4.614,111.056,55.532,109.911,124.614c0.415,28.357-7.474,57.227-25.206,79.722
		c-17.659,29.212-49.191,46.627-81.188,55.761c-66.556,17.631-153.161-14.278-196.496-57.3
		c-67.23-59.982-87.65-108.862-107.981-132.552C893.812,829.284,899.6,869.06,850.703,930.692z"/>
</g>
</svg>
