<?xml version="1.0" encoding="utf-8"?>

<!DOCTYPE svg PUBLIC "-//W3C//DTD SVG 1.1//EN" "http://www.w3.org/Graphics/SVG/1.1/DTD/svg11.dtd">
<svg version="1.1" id="Layer_1" xmlns="http://www.w3.org/2000/svg" xmlns:xlink="http://www.w3.org/1999/xlink" x="0px" y="0px"
	 viewBox="0 0 1634 1621.408" enable-background="new 0 0 1634 1621.408" xml:space="preserve">
<g>
	<path d="M1348.666,279.038c-65.347,0.013-162.602-0.201-163.094-0.203c-10.651-0.114-38.901,1.596-63.688-10.699
		c-20.544-11.262-33.651-26.991-39.201-50.763c-5.815-27.47,9.794-52.732,14.411-57.004c2.573,2.059,4.784,4.523,6.792,7.111
		c-1.66,3.378-4.277,6.169-5.828,9.605c-2.515,5.545-4.726,11.301-5.698,17.332c-2.043,18.374,2.769,34.236,11.815,45.036
		c3.856,4.538,7.807,9.126,12.714,12.577c12.939,9.351,28.922,13.758,44.718,14.628c9.791,0.15,122.834,0.591,198.852,0.587
		c-0.004,76.018,0.437,189.061,0.587,198.852c0.87,15.795,5.277,31.779,14.628,44.718c3.45,4.907,8.039,8.858,12.577,12.714
		c10.801,9.046,26.662,13.859,45.036,11.815c6.031-0.971,11.786-3.182,17.332-5.698c3.436-1.551,6.227-4.168,9.605-5.828
		c2.588,2.008,5.052,4.219,7.111,6.792c-4.273,4.616-29.535,20.225-57.004,14.411c-23.772-5.55-39.501-18.657-50.763-39.201
		c-12.295-24.786-10.585-53.036-10.699-63.688C1348.867,441.64,1348.653,344.385,1348.666,279.038z"/>
	<path d="M1568.889,810.704c-46.217-46.198-114.835-115.119-115.182-115.468c-7.451-7.612-28.636-26.379-37.469-52.599
		c-6.563-22.49-4.709-42.88,8.176-63.614c15.312-23.535,44.212-30.361,50.498-30.118c0.364,3.275,0.185,6.581-0.226,9.831
		c-3.562,1.215-7.386,1.338-10.912,2.67c-5.7,2.143-11.333,4.649-16.284,8.227c-14.437,11.548-22.25,26.167-23.491,40.2
		c-0.482,5.936-0.933,11.974,0.097,17.883c2.537,15.761,10.723,30.18,21.277,41.964c6.817,7.029,86.439,87.274,140.195,141.025
		c-53.756,53.75-133.378,133.995-140.195,141.025c-10.554,11.784-18.739,26.202-21.277,41.964c-1.03,5.91-0.579,11.948-0.097,17.883
		c1.241,14.034,9.053,28.653,23.491,40.2c4.951,3.578,10.584,6.084,16.284,8.227c3.526,1.333,7.35,1.456,10.912,2.67
		c0.41,3.25,0.589,6.556,0.226,9.831c-6.286,0.243-35.185-6.583-50.498-30.118c-12.885-20.734-14.739-41.124-8.176-63.614
		c8.833-26.22,30.018-44.987,37.469-52.599C1454.054,925.823,1522.672,856.902,1568.889,810.704z"/>
	<path d="M1348.666,1342.37c-0.013-65.347,0.201-162.602,0.203-163.094c0.114-10.651-1.596-38.901,10.699-63.688
		c11.262-20.544,26.991-33.651,50.763-39.201c27.47-5.815,52.732,9.794,57.004,14.411c-2.059,2.573-4.523,4.784-7.111,6.792
		c-3.378-1.66-6.169-4.277-9.605-5.828c-5.545-2.515-11.301-4.726-17.332-5.698c-18.374-2.043-34.236,2.769-45.036,11.815
		c-4.538,3.856-9.126,7.807-12.577,12.714c-9.351,12.939-13.758,28.922-14.628,44.718c-0.15,9.791-0.591,122.834-0.587,198.852
		c-76.018-0.004-189.061,0.437-198.852,0.587c-15.795,0.87-31.779,5.277-44.718,14.628c-4.907,3.45-8.858,8.039-12.714,12.577
		c-9.046,10.801-13.859,26.662-11.815,45.036c0.971,6.031,3.182,11.786,5.698,17.332c1.551,3.436,4.168,6.227,5.828,9.605
		c-2.008,2.588-4.219,5.052-6.792,7.111c-4.616-4.273-20.225-29.535-14.411-57.004c5.55-23.772,18.657-39.501,39.201-50.763
		c24.786-12.295,53.036-10.585,63.688-10.699C1186.064,1342.571,1283.319,1342.357,1348.666,1342.37z"/>
	<path d="M817,1562.593c46.198-46.217,115.119-114.835,115.468-115.182c7.612-7.451,26.379-28.636,52.599-37.468
		c22.49-6.563,42.88-4.709,63.614,8.175c23.535,15.312,30.361,44.212,30.118,50.498c-3.275,0.364-6.581,0.185-9.831-0.226
		c-1.215-3.562-1.338-7.386-2.67-10.912c-2.143-5.7-4.649-11.333-8.227-16.284c-11.548-14.437-26.167-22.25-40.2-23.491
		c-5.936-0.482-11.974-0.933-17.883,0.097c-15.761,2.537-30.18,10.723-41.964,21.277c-7.029,6.817-87.274,86.439-141.025,140.195
		c-53.75-53.756-133.995-133.378-141.025-140.195c-11.784-10.554-26.202-18.739-41.964-21.277c-5.91-1.03-11.948-0.579-17.883-0.097
		c-14.034,1.241-28.653,9.053-40.2,23.491c-3.578,4.951-6.084,10.584-8.227,16.284c-1.333,3.526-1.456,7.35-2.67,10.912
		c-3.25,0.41-6.556,0.589-9.831,0.226c-0.243-6.286,6.583-35.185,30.118-50.498c20.734-12.885,41.124-14.739,63.614-8.175
		c26.22,8.833,44.987,30.018,52.599,37.468C701.881,1447.758,770.802,1516.376,817,1562.593z"/>
	<path d="M285.334,1342.37c65.347-0.013,162.602,0.201,163.094,0.203c10.651,0.114,38.901-1.596,63.688,10.699
		c20.544,11.262,33.651,26.991,39.201,50.763c5.815,27.47-9.794,52.732-14.411,57.004c-2.573-2.059-4.784-4.523-6.792-7.111
		c1.66-3.378,4.277-6.169,5.828-9.605c2.515-5.545,4.726-11.301,5.698-17.332c2.043-18.374-2.769-34.236-11.815-45.036
		c-3.856-4.538-7.807-9.126-12.714-12.577c-12.939-9.351-28.923-13.758-44.718-14.628c-9.791-0.15-122.834-0.591-198.852-0.587
		c0.004-76.019-0.437-189.061-0.587-198.852c-0.87-15.795-5.277-31.779-14.628-44.718c-3.45-4.907-8.039-8.858-12.577-12.714
		c-10.801-9.046-26.662-13.859-45.036-11.815c-6.031,0.971-11.786,3.182-17.332,5.698c-3.436,1.551-6.227,4.168-9.605,5.828
		c-2.588-2.008-5.052-4.219-7.111-6.792c4.273-4.616,29.535-20.225,57.004-14.411c23.772,5.55,39.501,18.657,50.763,39.201
		c12.295,24.786,10.585,53.036,10.699,63.688C285.133,1179.768,285.347,1277.023,285.334,1342.37z"/>
	<path d="M65.111,810.704c46.217,46.198,114.835,115.119,115.182,115.468c7.451,7.612,28.636,26.379,37.468,52.599
		c6.563,22.49,4.709,42.88-8.175,63.614c-15.312,23.535-44.212,30.361-50.498,30.118c-0.364-3.275-0.185-6.581,0.226-9.831
		c3.562-1.215,7.386-1.338,10.912-2.67c5.7-2.143,11.333-4.649,16.284-8.227c14.437-11.548,22.25-26.167,23.491-40.2
		c0.482-5.935,0.933-11.973-0.097-17.883c-2.537-15.761-10.723-30.18-21.277-41.964c-6.817-7.029-86.439-87.274-140.195-141.025
		c53.756-53.75,133.378-133.995,140.195-141.025c10.554-11.784,18.739-26.202,21.277-41.964c1.03-5.91,0.579-11.948,0.097-17.883
		c-1.241-14.034-9.053-28.653-23.491-40.2c-4.951-3.578-10.584-6.084-16.284-8.227c-3.526-1.333-7.35-1.456-10.912-2.67
		c-0.41-3.25-0.589-6.556-0.226-9.831c6.286-0.243,35.185,6.583,50.498,30.118c12.885,20.734,14.738,41.124,8.175,63.614
		c-8.833,26.22-30.018,44.987-37.468,52.599C179.946,695.585,111.328,764.506,65.111,810.704z"/>
	<path d="M285.334,279.038c0.013,65.347-0.201,162.602-0.203,163.094c-0.114,10.651,1.596,38.901-10.699,63.688
		c-11.262,20.544-26.991,33.651-50.763,39.201c-27.47,5.815-52.732-9.794-57.004-14.411c2.059-2.573,4.523-4.784,7.111-6.792
		c3.378,1.66,6.169,4.277,9.605,5.828c5.545,2.515,11.301,4.726,17.332,5.698c18.374,2.043,34.236-2.769,45.036-11.815
		c4.538-3.856,9.126-7.807,12.577-12.714c9.351-12.939,13.758-28.923,14.628-44.718c0.15-9.791,0.591-122.834,0.587-198.852
		c76.019,0.004,189.061-0.437,198.852-0.587c15.795-0.87,31.779-5.277,44.718-14.628c4.907-3.45,8.858-8.039,12.714-12.577
		c9.046-10.801,13.859-26.662,11.815-45.036c-0.971-6.031-3.182-11.786-5.698-17.332c-1.551-3.436-4.168-6.227-5.828-9.605
		c2.008-2.588,4.219-5.052,6.792-7.111c4.617,4.273,20.225,29.535,14.411,57.004c-5.55,23.772-18.657,39.501-39.201,50.763
		c-24.786,12.295-53.036,10.585-63.688,10.699C447.936,278.837,350.681,279.052,285.334,279.038z"/>
	<path d="M817,58.815c-46.198,46.217-115.119,114.835-115.468,115.182c-7.612,7.451-26.379,28.636-52.599,37.468
		c-22.49,6.563-42.88,4.709-63.614-8.175c-23.535-15.312-30.361-44.212-30.118-50.498c3.275-0.364,6.581-0.185,9.831,0.226
		c1.215,3.562,1.338,7.386,2.67,10.912c2.143,5.7,4.649,11.333,8.227,16.284c11.548,14.437,26.167,22.25,40.2,23.491
		c5.936,0.482,11.974,0.933,17.883-0.097c15.761-2.537,30.18-10.723,41.964-21.277C683.005,175.514,763.25,95.892,817,42.136
		c53.75,53.756,133.995,133.378,141.025,140.195c11.784,10.554,26.202,18.739,41.964,21.277c5.91,1.03,11.948,0.579,17.883,0.097
		c14.034-1.241,28.653-9.053,40.2-23.491c3.578-4.951,6.084-10.584,8.227-16.284c1.333-3.526,1.456-7.35,2.67-10.912
		c3.25-0.41,6.556-0.589,9.831-0.226c0.243,6.286-6.583,35.185-30.118,50.498c-20.734,12.885-41.124,14.738-63.614,8.175
		c-26.22-8.833-44.987-30.018-52.599-37.468C932.119,173.65,863.198,105.032,817,58.815z"/>
	<path d="M1359.208,238.076c2.711-5.06,3.98-12.084-0.196-16.73c-2.667,3.822-7.921,13.907-28.031,9.431
		c-10.851-3.516-21.087-8.764-30.67-14.932c-11.943-7.082-54.844-38.752-54.844-38.752c-1.602-0.884-2.82,1.044-3.914,1.914
		c5.031,5.11,10.779,9.445,16.056,14.295c49.062,42.501,54.688,46.215,66.145,52.003c6.988,2.994,14.947,5.176,22.493,3.139
		C1351.503,246.542,1356.881,243.418,1359.208,238.076z"/>
	<path d="M795.49,22.396c-1.661-5.495-5.73-11.358-11.968-11.692c0.817,4.588,4.232,15.434-13.152,26.489
		c-10.159,5.187-21.107,8.714-32.245,11.128C724.671,51.758,671.941,59.7,671.941,59.7c-1.758,0.507-1.256,2.732-1.415,4.121
		c7.171,0.056,14.301-0.943,21.461-1.246c64.744-4.639,71.349-5.991,83.543-10c7.058-2.824,14.229-6.909,18.124-13.685
		C796.028,33.831,797.622,27.819,795.49,22.396z"/>
	<path d="M244.372,268.496c-5.06-2.711-12.084-3.98-16.73,0.196c3.822,2.667,13.907,7.921,9.431,28.031
		c-3.516,10.851-8.764,21.087-14.932,30.669c-7.082,11.943-38.752,54.844-38.752,54.844c-0.884,1.602,1.044,2.82,1.914,3.914
		c5.11-5.031,9.445-10.779,14.295-16.056c42.501-49.062,46.215-54.687,52.003-66.145c2.994-6.988,5.176-14.947,3.139-22.493
		C252.838,276.201,249.714,270.823,244.372,268.496z"/>
	<path d="M28.692,832.214c-5.495,1.661-11.358,5.73-11.692,11.968c4.588-0.817,15.434-4.232,26.489,13.152
		c5.187,10.159,8.714,21.107,11.128,32.245c3.437,13.453,11.379,66.182,11.379,66.182c0.507,1.758,2.732,1.256,4.121,1.415
		c0.056-7.171-0.943-14.301-1.246-21.461c-4.639-64.744-5.991-71.349-10-83.543c-2.824-7.058-6.909-14.229-13.685-18.124
		C40.127,831.676,34.115,830.082,28.692,832.214z"/>
	<path d="M274.792,1383.332c-2.711,5.06-3.98,12.084,0.196,16.73c2.667-3.822,7.921-13.906,28.031-9.431
		c10.851,3.516,21.087,8.764,30.669,14.932c11.943,7.082,54.844,38.752,54.844,38.752c1.602,0.884,2.82-1.044,3.914-1.914
		c-5.031-5.11-10.779-9.445-16.056-14.295c-49.062-42.5-54.687-46.215-66.145-52.003c-6.988-2.994-14.947-5.176-22.493-3.139
		C282.497,1374.866,277.119,1377.99,274.792,1383.332z"/>
	<path d="M838.51,1599.013c1.661,5.495,5.73,11.358,11.968,11.692c-0.817-4.588-4.232-15.434,13.152-26.489
		c10.159-5.187,21.107-8.714,32.245-11.128c13.453-3.437,66.182-11.379,66.182-11.379c1.758-0.507,1.256-2.732,1.415-4.121
		c-7.171-0.056-14.301,0.943-21.461,1.246c-64.744,4.639-71.349,5.991-83.543,10c-7.058,2.824-14.229,6.909-18.124,13.685
		C837.972,1587.577,836.378,1593.59,838.51,1599.013z"/>
	<path d="M1389.628,1352.912c5.06,2.711,12.084,3.979,16.73-0.196c-3.822-2.667-13.906-7.921-9.431-28.031
		c3.516-10.851,8.764-21.087,14.932-30.669c7.082-11.943,38.752-54.844,38.752-54.844c0.884-1.602-1.044-2.82-1.914-3.914
		c-5.11,5.031-9.445,10.779-14.295,16.056c-42.5,49.062-46.215,54.688-52.003,66.145c-2.994,6.988-5.176,14.947-3.139,22.493
		C1381.162,1345.207,1384.286,1350.585,1389.628,1352.912z"/>
	<path d="M1605.308,789.194c5.495-1.661,11.358-5.73,11.692-11.968c-4.588,0.817-15.434,4.232-26.489-13.152
		c-5.187-10.159-8.714-21.107-11.128-32.245c-3.437-13.453-11.379-66.182-11.379-66.182c-0.507-1.758-2.732-1.256-4.121-1.415
		c-0.056,7.171,0.943,14.301,1.246,21.461c4.639,64.744,5.991,71.349,10,83.543c2.824,7.058,6.909,14.229,13.685,18.124
		C1593.873,789.732,1599.885,791.326,1605.308,789.194z"/>
	<path d="M1389.628,268.496c5.06-2.711,12.084-3.98,16.73,0.196c-3.822,2.667-13.906,7.921-9.431,28.031
		c3.516,10.851,8.764,21.087,14.932,30.669c7.082,11.943,38.752,54.844,38.752,54.844c0.884,1.602-1.044,2.82-1.914,3.914
		c-5.11-5.031-9.445-10.779-14.295-16.056c-42.5-49.062-46.215-54.687-52.003-66.145c-2.994-6.988-5.176-14.947-3.139-22.493
		C1381.162,276.201,1384.286,270.823,1389.628,268.496z"/>
	<path d="M838.51,22.396c1.661-5.495,5.73-11.358,11.968-11.692c-0.817,4.588-4.232,15.434,13.152,26.489
		c10.159,5.187,21.107,8.714,32.245,11.128c13.453,3.437,66.182,11.379,66.182,11.379c1.758,0.507,1.256,2.732,1.415,4.121
		c-7.171,0.056-14.301-0.943-21.461-1.246c-64.744-4.639-71.349-5.991-83.543-10c-7.058-2.824-14.229-6.909-18.124-13.685
		C837.972,33.831,836.378,27.819,838.51,22.396z"/>
	<path d="M274.792,238.076c-2.711-5.06-3.98-12.084,0.196-16.73c2.667,3.822,7.921,13.907,28.031,9.431
		c10.851-3.516,21.087-8.764,30.669-14.932c11.943-7.082,54.844-38.752,54.844-38.752c1.602-0.884,2.82,1.044,3.914,1.914
		c-5.031,5.11-10.779,9.445-16.056,14.295c-49.062,42.501-54.687,46.215-66.145,52.003c-6.988,2.994-14.947,5.176-22.493,3.139
		C282.497,246.542,277.119,243.418,274.792,238.076z"/>
	<path d="M28.692,789.194c-5.495-1.661-11.358-5.73-11.692-11.968c4.588,0.817,15.434,4.232,26.489-13.152
		c5.187-10.159,8.714-21.107,11.128-32.245c3.437-13.453,11.379-66.182,11.379-66.182c0.507-1.758,2.732-1.256,4.121-1.415
		c0.056,7.171-0.943,14.301-1.246,21.461c-4.639,64.744-5.991,71.349-10,83.543c-2.824,7.058-6.909,14.229-13.685,18.124
		C40.127,789.732,34.115,791.326,28.692,789.194z"/>
	<path d="M244.372,1352.912c-5.06,2.711-12.084,3.979-16.73-0.196c3.822-2.667,13.907-7.921,9.431-28.031
		c-3.516-10.851-8.764-21.087-14.932-30.669c-7.082-11.943-38.752-54.844-38.752-54.844c-0.884-1.602,1.044-2.82,1.914-3.914
		c5.11,5.031,9.445,10.779,14.295,16.056c42.501,49.062,46.215,54.688,52.003,66.145c2.994,6.988,5.176,14.947,3.139,22.493
		C252.838,1345.207,249.714,1350.585,244.372,1352.912z"/>
	<path d="M795.49,1599.013c-1.661,5.495-5.73,11.358-11.968,11.692c0.817-4.588,4.232-15.434-13.152-26.489
		c-10.159-5.187-21.107-8.714-32.245-11.128c-13.453-3.437-66.182-11.379-66.182-11.379c-1.758-0.507-1.256-2.732-1.415-4.121
		c7.171-0.056,14.301,0.943,21.461,1.246c64.744,4.639,71.349,5.991,83.543,10c7.058,2.824,14.229,6.909,18.124,13.685
		C796.028,1587.577,797.622,1593.59,795.49,1599.013z"/>
	<path d="M1359.208,1383.332c2.711,5.06,3.98,12.084-0.196,16.73c-2.667-3.822-7.921-13.906-28.031-9.431
		c-10.851,3.516-21.087,8.764-30.67,14.932c-11.943,7.082-54.844,38.752-54.844,38.752c-1.602,0.884-2.82-1.044-3.914-1.914
		c5.031-5.11,10.779-9.445,16.056-14.295c49.062-42.5,54.688-46.215,66.145-52.003c6.988-2.994,14.947-5.176,22.493-3.139
		C1351.503,1374.866,1356.881,1377.99,1359.208,1383.332z"/>
	<path d="M1605.308,832.214c5.495,1.661,11.358,5.73,11.692,11.968c-4.588-0.817-15.434-4.232-26.489,13.152
		c-5.187,10.159-8.714,21.107-11.128,32.245c-3.437,13.453-11.379,66.182-11.379,66.182c-0.507,1.758-2.732,1.256-4.121,1.415
		c-0.056-7.171,0.943-14.301,1.246-21.461c4.639-64.744,5.991-71.349,10-83.543c2.824-7.058,6.909-14.229,13.685-18.124
		C1593.873,831.676,1599.885,830.082,1605.308,832.214z"/>
	<path d="M1306.792,239.424c-13.553-1.125-12.83,0.529-59.128-49.966c-2.573-2.755-4.777-5.879-7.662-8.329
		c-1.29-1.29-2.907,0.152-4.11,0.819c1.892,3.668,4.82,6.625,7.162,9.982c15.377,20.45,29.426,42.677,38.099,51.763
		C1289.32,252.093,1304.25,250.105,1306.792,239.424z"/>
	<path d="M759.38,60.413c-10.379,8.788-8.698,9.446-77.141,6.479c-3.767-0.128-7.535-0.779-11.307-0.472
		c-1.825,0-1.948,2.163-2.327,3.485c3.931,1.256,8.093,1.276,12.122,1.994c25.333,3.587,50.984,9.369,63.543,9.662
		C755.983,81.726,765.135,69.763,759.38,60.413z"/>
	<path d="M245.72,320.912c-1.125,13.553,0.529,12.83-49.966,59.128c-2.755,2.573-5.879,4.777-8.329,7.662
		c-1.29,1.29,0.152,2.907,0.819,4.11c3.668-1.892,6.625-4.82,9.982-7.162c20.45-15.377,42.677-29.426,51.763-38.099
		C258.389,338.384,256.401,323.454,245.72,320.912z"/>
	<path d="M66.709,868.325c8.788,10.379,9.446,8.698,6.479,77.141c-0.128,3.767-0.779,7.535-0.472,11.307
		c0,1.825,2.163,1.948,3.485,2.327c1.256-3.931,1.276-8.093,1.994-12.122c3.587-25.333,9.369-50.984,9.662-63.543
		C88.022,871.721,76.059,862.569,66.709,868.325z"/>
	<path d="M327.208,1381.984c13.553,1.125,12.83-0.529,59.128,49.966c2.573,2.755,4.777,5.879,7.662,8.329
		c1.29,1.29,2.907-0.152,4.11-0.819c-1.892-3.668-4.82-6.625-7.162-9.982c-15.377-20.45-29.426-42.677-38.099-51.763
		C344.68,1369.315,329.75,1371.303,327.208,1381.984z"/>
	<path d="M874.62,1560.996c10.379-8.788,8.698-9.446,77.141-6.479c3.767,0.128,7.535,0.779,11.307,0.472
		c1.825,0,1.948-2.163,2.327-3.485c-3.931-1.256-8.093-1.276-12.122-1.994c-25.333-3.587-50.984-9.369-63.543-9.662
		C878.017,1539.682,868.865,1551.646,874.62,1560.996z"/>
	<path d="M1388.28,1300.497c1.125-13.553-0.529-12.83,49.966-59.128c2.755-2.573,5.879-4.777,8.329-7.662
		c1.29-1.29-0.152-2.907-0.819-4.11c-3.668,1.892-6.625,4.82-9.982,7.162c-20.45,15.377-42.677,29.426-51.763,38.099
		C1375.611,1283.024,1377.599,1297.954,1388.28,1300.497z"/>
	<path d="M1567.292,753.084c-8.788-10.379-9.446-8.698-6.479-77.141c0.128-3.767,0.779-7.535,0.471-11.307
		c0-1.825-2.163-1.948-3.485-2.327c-1.256,3.931-1.276,8.093-1.994,12.122c-3.587,25.334-9.369,50.984-9.662,63.543
		C1545.978,749.687,1557.941,758.839,1567.292,753.084z"/>
	<path d="M1388.28,320.912c1.125,13.553-0.529,12.83,49.966,59.128c2.755,2.573,5.879,4.777,8.329,7.662
		c1.29,1.29-0.152,2.907-0.819,4.11c-3.668-1.892-6.625-4.82-9.982-7.162c-20.45-15.377-42.677-29.426-51.763-38.099
		C1375.611,338.384,1377.599,323.454,1388.28,320.912z"/>
	<path d="M874.62,60.413c10.379,8.788,8.698,9.446,77.141,6.479c3.767-0.128,7.535-0.779,11.307-0.472
		c1.825,0,1.948,2.163,2.327,3.485c-3.931,1.256-8.093,1.276-12.122,1.994c-25.333,3.587-50.984,9.369-63.543,9.662
		C878.017,81.726,868.865,69.763,874.62,60.413z"/>
	<path d="M327.208,239.424c13.553-1.125,12.83,0.529,59.128-49.966c2.573-2.755,4.777-5.879,7.662-8.329
		c1.29-1.29,2.907,0.152,4.11,0.819c-1.892,3.668-4.82,6.625-7.162,9.982c-15.377,20.45-29.426,42.677-38.099,51.763
		C344.68,252.093,329.75,250.105,327.208,239.424z"/>
	<path d="M66.709,753.084c8.788-10.379,9.446-8.698,6.479-77.141c-0.128-3.767-0.779-7.535-0.472-11.307
		c0-1.825,2.163-1.948,3.485-2.327c1.256,3.931,1.276,8.093,1.994,12.122c3.587,25.334,9.369,50.984,9.662,63.543
		C88.022,749.687,76.059,758.839,66.709,753.084z"/>
	<path d="M245.72,1300.497c-1.125-13.553,0.529-12.83-49.966-59.128c-2.755-2.573-5.879-4.777-8.329-7.662
		c-1.29-1.29,0.152-2.907,0.819-4.11c3.668,1.892,6.625,4.82,9.982,7.162c20.45,15.377,42.677,29.426,51.763,38.099
		C258.389,1283.024,256.401,1297.954,245.72,1300.497z"/>
	<path d="M759.38,1560.996c-10.379-8.788-8.698-9.446-77.141-6.479c-3.767,0.128-7.535,0.779-11.307,0.472
		c-1.825,0-1.948-2.163-2.327-3.485c3.931-1.256,8.093-1.276,12.122-1.994c25.333-3.587,50.984-9.369,63.543-9.662
		C755.983,1539.682,765.135,1551.646,759.38,1560.996z"/>
	<path d="M1306.792,1381.984c-13.553,1.125-12.83-0.529-59.128,49.966c-2.573,2.755-4.777,5.879-7.662,8.329
		c-1.29,1.29-2.907-0.152-4.11-0.819c1.892-3.668,4.82-6.625,7.162-9.982c15.377-20.45,29.426-42.677,38.099-51.763
		C1289.32,1369.315,1304.25,1371.303,1306.792,1381.984z"/>
	<path d="M1567.292,868.325c-8.788,10.379-9.446,8.698-6.479,77.141c0.128,3.767,0.779,7.535,0.471,11.307
		c0,1.825-2.163,1.948-3.485,2.327c-1.256-3.931-1.276-8.093-1.994-12.122c-3.587-25.333-9.369-50.984-9.662-63.543
		C1545.978,871.721,1557.941,862.569,1567.292,868.325z"/>
	<path d="M1266.41,241.939c0.551-5.987-3.182-11.054-5.756-16.121c-6.068-10.14-6.123-12.429-19.383-30.662
		c-2.653-3.653-4.799-7.691-7.908-10.996c-1.211-1.674-3.204-0.065-4.472,0.71c2.128,5.613,12.463,21.198,16.426,35.947
		c4.241,12.577,3.709,21.689,8.727,26.009C1258.284,250.094,1265.815,247.463,1266.41,241.939z"/>
	<path d="M732.603,90.746c-3.844-4.623-10.067-5.566-15.469-7.33c-11.461-2.879-13.118-4.459-35.387-7.976
		c-4.459-0.707-8.831-2.045-13.368-2.184c-2.04-0.328-2.312,2.219-2.66,3.665c5.474,2.464,23.802,6.176,37.033,13.803
		c11.893,5.894,17.959,12.714,24.562,12.22C732.624,102.258,736.089,95.072,732.603,90.746z"/>
	<path d="M248.235,361.294c-5.987-0.551-11.054,3.182-16.121,5.756c-10.14,6.068-12.429,6.123-30.662,19.383
		c-3.653,2.653-7.691,4.799-10.996,7.908c-1.674,1.211-0.065,3.204,0.71,4.473c5.613-2.128,21.198-12.463,35.947-16.426
		c12.577-4.241,21.689-3.709,26.009-8.727C256.39,369.42,253.759,361.889,248.235,361.294z"/>
	<path d="M97.042,895.101c-4.623,3.844-5.566,10.067-7.33,15.469c-2.879,11.461-4.459,13.118-7.976,35.387
		c-0.707,4.459-2.045,8.831-2.184,13.368c-0.328,2.04,2.219,2.312,3.665,2.66c2.464-5.474,6.176-23.802,13.803-37.033
		c5.894-11.893,12.714-17.959,12.22-24.562C108.554,895.08,101.368,891.615,97.042,895.101z"/>
	<path d="M367.59,1379.469c-0.551,5.988,3.182,11.054,5.756,16.121c6.068,10.139,6.123,12.429,19.383,30.662
		c2.653,3.653,4.799,7.691,7.908,10.996c1.211,1.674,3.204,0.065,4.473-0.71c-2.128-5.613-12.463-21.198-16.426-35.947
		c-4.241-12.578-3.709-21.689-8.727-26.009C375.716,1371.314,368.185,1373.945,367.59,1379.469z"/>
	<path d="M901.397,1530.662c3.844,4.623,10.067,5.566,15.469,7.33c11.461,2.879,13.118,4.459,35.387,7.975
		c4.459,0.707,8.831,2.045,13.368,2.184c2.04,0.328,2.312-2.219,2.66-3.665c-5.474-2.464-23.802-6.176-37.033-13.803
		c-11.893-5.895-17.959-12.714-24.562-12.22C901.376,1519.15,897.911,1526.336,901.397,1530.662z"/>
	<path d="M1385.765,1260.114c5.988,0.551,11.054-3.182,16.121-5.756c10.14-6.068,12.429-6.123,30.662-19.383
		c3.653-2.653,7.691-4.799,10.996-7.908c1.674-1.211,0.065-3.204-0.71-4.472c-5.613,2.128-21.198,12.463-35.947,16.426
		c-12.578,4.241-21.689,3.709-26.009,8.727C1377.61,1251.988,1380.241,1259.519,1385.765,1260.114z"/>
	<path d="M1536.958,726.307c4.623-3.844,5.566-10.067,7.33-15.469c2.879-11.461,4.459-13.118,7.975-35.387
		c0.707-4.459,2.045-8.831,2.184-13.368c0.328-2.04-2.219-2.312-3.665-2.66c-2.464,5.474-6.176,23.802-13.803,37.033
		c-5.895,11.893-12.714,17.959-12.22,24.562C1525.446,726.328,1532.632,729.793,1536.958,726.307z"/>
	<path d="M1385.765,361.294c5.988-0.551,11.054,3.182,16.121,5.756c10.14,6.068,12.429,6.123,30.662,19.383
		c3.653,2.653,7.691,4.799,10.996,7.908c1.674,1.211,0.065,3.204-0.71,4.473c-5.613-2.128-21.198-12.463-35.947-16.426
		c-12.578-4.241-21.689-3.709-26.009-8.727C1377.61,369.42,1380.241,361.889,1385.765,361.294z"/>
	<path d="M901.397,90.746c3.844-4.623,10.067-5.566,15.469-7.33c11.461-2.879,13.118-4.459,35.387-7.976
		c4.459-0.707,8.831-2.045,13.368-2.184c2.04-0.328,2.312,2.219,2.66,3.665c-5.474,2.464-23.802,6.176-37.033,13.803
		c-11.893,5.894-17.959,12.714-24.562,12.22C901.376,102.258,897.911,95.072,901.397,90.746z"/>
	<path d="M367.59,241.939c-0.551-5.987,3.182-11.054,5.756-16.121c6.068-10.14,6.123-12.429,19.383-30.662
		c2.653-3.653,4.799-7.691,7.908-10.996c1.211-1.674,3.204-0.065,4.473,0.71c-2.128,5.613-12.463,21.198-16.426,35.947
		c-4.241,12.577-3.709,21.689-8.727,26.009C375.716,250.094,368.185,247.463,367.59,241.939z"/>
	<path d="M97.042,726.307c-4.623-3.844-5.566-10.067-7.33-15.469c-2.879-11.461-4.459-13.118-7.976-35.387
		c-0.707-4.459-2.045-8.831-2.184-13.368c-0.328-2.04,2.219-2.312,3.665-2.66c2.464,5.474,6.176,23.802,13.803,37.033
		c5.894,11.893,12.714,17.959,12.22,24.562C108.554,726.328,101.368,729.793,97.042,726.307z"/>
	<path d="M248.235,1260.114c-5.987,0.551-11.054-3.182-16.121-5.756c-10.14-6.068-12.429-6.123-30.662-19.383
		c-3.653-2.653-7.691-4.799-10.996-7.908c-1.674-1.211-0.065-3.204,0.71-4.472c5.613,2.128,21.198,12.463,35.947,16.426
		c12.577,4.241,21.689,3.709,26.009,8.727C256.39,1251.988,253.759,1259.519,248.235,1260.114z"/>
	<path d="M732.603,1530.662c-3.844,4.623-10.067,5.566-15.469,7.33c-11.461,2.879-13.118,4.459-35.387,7.975
		c-4.459,0.707-8.831,2.045-13.368,2.184c-2.04,0.328-2.312-2.219-2.66-3.665c5.474-2.464,23.802-6.176,37.033-13.803
		c11.893-5.895,17.959-12.714,24.562-12.22C732.624,1519.15,736.089,1526.336,732.603,1530.662z"/>
	<path d="M1266.41,1379.469c0.551,5.988-3.182,11.054-5.756,16.121c-6.068,10.139-6.123,12.429-19.383,30.662
		c-2.653,3.653-4.799,7.691-7.908,10.996c-1.211,1.674-3.204,0.065-4.472-0.71c2.128-5.613,12.463-21.198,16.426-35.947
		c4.241-12.578,3.709-21.689,8.727-26.009C1258.284,1371.314,1265.815,1373.945,1266.41,1379.469z"/>
	<path d="M1536.958,895.101c4.623,3.844,5.566,10.067,7.33,15.469c2.879,11.461,4.459,13.118,7.975,35.387
		c0.707,4.459,2.045,8.831,2.184,13.368c0.328,2.04-2.219,2.312-3.665,2.66c-2.464-5.474-6.176-23.802-13.803-37.033
		c-5.895-11.893-12.714-17.959-12.22-24.562C1525.446,895.08,1532.632,891.615,1536.958,895.101z"/>
	<path d="M1245.265,171.235c-1.406-1.145-3.4-3.255-5.176-1.443c-7.046,5.958-16.143,8.459-24.849,10.924
		c-0.283,1.479-0.015,2.95,0.928,4.139C1230.019,182.217,1242.064,175.098,1245.265,171.235z"/>
	<path d="M667.656,55.702c-1.804,0.184-4.705,0.102-4.68,2.64c-0.769,9.195-5.433,17.396-9.846,25.295
		c0.846,1.246,2.076,2.096,3.583,2.271C664.641,74.248,668.124,60.697,667.656,55.702z"/>
	<path d="M177.531,382.439c-1.145,1.406-3.255,3.4-1.443,5.176c5.958,7.046,8.459,16.143,10.924,24.849
		c1.479,0.283,2.95,0.014,4.139-0.928C188.513,397.685,181.394,385.641,177.531,382.439z"/>
	<path d="M61.998,960.048c0.184,1.804,0.102,4.705,2.64,4.68c9.195,0.769,17.396,5.433,25.295,9.846
		c1.246-0.846,2.096-2.076,2.271-3.583C80.544,963.063,66.993,959.58,61.998,960.048z"/>
	<path d="M388.735,1450.173c1.406,1.145,3.4,3.255,5.176,1.443c7.046-5.958,16.143-8.459,24.849-10.924
		c0.283-1.479,0.015-2.95-0.928-4.139C403.981,1439.191,391.936,1446.31,388.735,1450.173z"/>
	<path d="M966.344,1565.706c1.804-0.184,4.705-0.102,4.68-2.64c0.769-9.195,5.433-17.396,9.846-25.295
		c-0.846-1.245-2.076-2.096-3.583-2.271C969.359,1547.16,965.876,1560.711,966.344,1565.706z"/>
	<path d="M1456.469,1238.969c1.145-1.406,3.255-3.4,1.443-5.176c-5.958-7.046-8.459-16.143-10.924-24.849
		c-1.479-0.283-2.95-0.015-4.139,0.928C1445.487,1223.723,1452.606,1235.768,1456.469,1238.969z"/>
	<path d="M1572.002,661.36c-0.184-1.804-0.102-4.705-2.64-4.68c-9.195-0.769-17.396-5.433-25.295-9.846
		c-1.246,0.846-2.096,2.076-2.271,3.583C1553.456,658.345,1567.007,661.828,1572.002,661.36z"/>
	<path d="M1456.469,382.439c1.145,1.406,3.255,3.4,1.443,5.176c-5.958,7.046-8.459,16.143-10.924,24.849
		c-1.479,0.283-2.95,0.014-4.139-0.928C1445.487,397.685,1452.606,385.641,1456.469,382.439z"/>
	<path d="M966.344,55.702c1.804,0.184,4.705,0.102,4.68,2.64c0.769,9.195,5.433,17.396,9.846,25.295
		c-0.846,1.246-2.076,2.096-3.583,2.271C969.359,74.248,965.876,60.697,966.344,55.702z"/>
	<path d="M388.735,171.235c1.406-1.145,3.4-3.255,5.176-1.443c7.046,5.958,16.143,8.459,24.849,10.924
		c0.283,1.479,0.015,2.95-0.928,4.139C403.981,182.217,391.936,175.098,388.735,171.235z"/>
	<path d="M61.998,661.36c0.184-1.804,0.102-4.705,2.64-4.68c9.195-0.769,17.396-5.433,25.295-9.846
		c1.246,0.846,2.096,2.076,2.271,3.583C80.544,658.345,66.993,661.828,61.998,661.36z"/>
	<path d="M177.531,1238.969c-1.145-1.406-3.255-3.4-1.443-5.176c5.958-7.046,8.459-16.143,10.924-24.849
		c1.479-0.283,2.95-0.015,4.139,0.928C188.513,1223.723,181.394,1235.768,177.531,1238.969z"/>
	<path d="M667.656,1565.706c-1.804-0.184-4.705-0.102-4.68-2.64c-0.769-9.195-5.433-17.396-9.846-25.295
		c0.846-1.245,2.076-2.096,3.583-2.271C664.641,1547.16,668.124,1560.711,667.656,1565.706z"/>
	<path d="M1245.265,1450.173c-1.406,1.145-3.4,3.255-5.176,1.443c-7.046-5.958-16.143-8.459-24.849-10.924
		c-0.283-1.479-0.015-2.95,0.928-4.139C1230.019,1439.191,1242.064,1446.31,1245.265,1450.173z"/>
	<path d="M1572.002,960.048c-0.184,1.804-0.102,4.705-2.64,4.68c-9.195,0.769-17.396,5.433-25.295,9.846
		c-1.246-0.846-2.096-2.076-2.271-3.583C1553.456,963.063,1567.007,959.58,1572.002,960.048z"/>
	<path d="M1242.96,237.047c0.884-7.676-1.312-15.222-3.806-22.391c-3.675-9.96-7.937-19.767-13.28-28.952
		c-1.051,0.13-2.022,0.551-2.87,1.218c2.884,8.995,11.269,31.451,7.125,49.074c-0.761,3.9-4.219,6.19-6.633,9.039
		C1230.171,252.162,1241.649,246.744,1242.96,237.047z"/>
	<path d="M712.562,103.868c-4.803-6.053-11.692-9.836-18.524-13.142c-9.641-4.444-19.59-8.365-29.862-11.082
		c-0.651,0.835-1.04,1.82-1.169,2.891c8.4,4.322,30.208,14.27,39.739,29.662c2.219,3.296,1.394,7.36,1.702,11.082
		C714.207,123.599,718.492,111.652,712.562,103.868z"/>
	<path d="M243.342,384.744c-7.676-0.884-15.222,1.312-22.391,3.806c-9.96,3.675-19.767,7.937-28.952,13.28
		c0.13,1.051,0.551,2.022,1.218,2.87c8.995-2.884,31.451-11.269,49.074-7.125c3.9,0.761,6.19,4.219,9.039,6.633
		C258.458,397.533,253.04,386.055,243.342,384.744z"/>
	<path d="M110.164,915.142c-6.053,4.803-9.836,11.692-13.142,18.524c-4.444,9.641-8.365,19.59-11.082,29.862
		c0.835,0.651,1.82,1.04,2.891,1.169c4.322-8.4,14.27-30.208,29.662-39.739c3.296-2.219,7.36-1.394,11.082-1.702
		C129.895,913.497,117.948,909.212,110.164,915.142z"/>
	<path d="M391.04,1384.362c-0.884,7.676,1.312,15.222,3.806,22.391c3.675,9.96,7.937,19.767,13.28,28.952
		c1.051-0.13,2.022-0.551,2.87-1.218c-2.884-8.995-11.269-31.451-7.125-49.074c0.761-3.9,4.219-6.19,6.633-9.039
		C403.829,1369.246,392.351,1374.664,391.04,1384.362z"/>
	<path d="M921.438,1517.54c4.803,6.053,11.692,9.836,18.524,13.142c9.641,4.444,19.59,8.365,29.862,11.082
		c0.651-0.835,1.04-1.819,1.169-2.891c-8.4-4.322-30.208-14.27-39.739-29.662c-2.219-3.296-1.394-7.36-1.702-11.082
		C919.793,1497.809,915.508,1509.756,921.438,1517.54z"/>
	<path d="M1390.658,1236.664c7.676,0.884,15.222-1.312,22.391-3.806c9.96-3.675,19.767-7.937,28.952-13.28
		c-0.13-1.051-0.551-2.022-1.218-2.87c-8.995,2.884-31.451,11.269-49.074,7.125c-3.9-0.761-6.19-4.219-9.039-6.633
		C1375.542,1223.875,1380.96,1235.354,1390.658,1236.664z"/>
	<path d="M1523.836,706.266c6.053-4.803,9.836-11.692,13.142-18.524c4.444-9.641,8.365-19.59,11.082-29.862
		c-0.835-0.651-1.82-1.04-2.891-1.169c-4.322,8.4-14.27,30.208-29.662,39.739c-3.296,2.219-7.36,1.394-11.082,1.702
		C1504.105,707.911,1516.052,712.197,1523.836,706.266z"/>
	<path d="M1390.658,384.744c7.676-0.884,15.222,1.312,22.391,3.806c9.96,3.675,19.767,7.937,28.952,13.28
		c-0.13,1.051-0.551,2.022-1.218,2.87c-8.995-2.884-31.451-11.269-49.074-7.125c-3.9,0.761-6.19,4.219-9.039,6.633
		C1375.542,397.533,1380.96,386.055,1390.658,384.744z"/>
	<path d="M921.438,103.868c4.803-6.053,11.692-9.836,18.524-13.142c9.641-4.444,19.59-8.365,29.862-11.082
		c0.651,0.835,1.04,1.82,1.169,2.891c-8.4,4.322-30.208,14.27-39.739,29.662c-2.219,3.296-1.394,7.36-1.702,11.082
		C919.793,123.599,915.508,111.652,921.438,103.868z"/>
	<path d="M391.04,237.047c-0.884-7.676,1.312-15.222,3.806-22.391c3.675-9.96,7.937-19.767,13.28-28.952
		c1.051,0.13,2.022,0.551,2.87,1.218c-2.884,8.995-11.269,31.451-7.125,49.074c0.761,3.9,4.219,6.19,6.633,9.039
		C403.829,252.162,392.351,246.744,391.04,237.047z"/>
	<path d="M110.164,706.266c-6.053-4.803-9.836-11.692-13.142-18.524c-4.444-9.641-8.365-19.59-11.082-29.862
		c0.835-0.651,1.82-1.04,2.891-1.169c4.322,8.4,14.27,30.208,29.662,39.739c3.296,2.219,7.36,1.394,11.082,1.702
		C129.895,707.911,117.948,712.197,110.164,706.266z"/>
	<path d="M243.342,1236.664c-7.676,0.884-15.222-1.312-22.391-3.806c-9.96-3.675-19.767-7.937-28.952-13.28
		c0.13-1.051,0.551-2.022,1.218-2.87c8.995,2.884,31.451,11.269,49.074,7.125c3.9-0.761,6.19-4.219,9.039-6.633
		C258.458,1223.875,253.04,1235.354,243.342,1236.664z"/>
	<path d="M712.562,1517.54c-4.803,6.053-11.692,9.836-18.524,13.142c-9.641,4.444-19.59,8.365-29.862,11.082
		c-0.651-0.835-1.04-1.819-1.169-2.891c8.4-4.322,30.208-14.27,39.739-29.662c2.219-3.296,1.394-7.36,1.702-11.082
		C714.207,1497.809,718.492,1509.756,712.562,1517.54z"/>
	<path d="M1242.96,1384.362c0.884,7.676-1.312,15.222-3.806,22.391c-3.675,9.96-7.937,19.767-13.28,28.952
		c-1.051-0.13-2.022-0.551-2.87-1.218c2.884-8.995,11.269-31.451,7.125-49.074c-0.761-3.9-4.219-6.19-6.633-9.039
		C1230.171,1369.246,1241.649,1374.664,1242.96,1384.362z"/>
	<path d="M1523.836,915.142c6.053,4.803,9.836,11.692,13.142,18.524c4.444,9.641,8.365,19.59,11.082,29.862
		c-0.835,0.651-1.82,1.04-2.891,1.169c-4.322-8.4-14.27-30.208-29.662-39.739c-3.296-2.219-7.36-1.394-11.082-1.702
		C1504.105,913.497,1516.052,909.212,1523.836,915.142z"/>
	<path d="M1228.571,171.141c3.059-0.435,6.915,0.116,8.909-2.798c-3.552-1.406-7.343-2.363-10.54-4.545
		c-8.416-6.294-29.812-22.924-40.165-23.848c1.79,2.457,4.719,3.61,6.951,5.582c9.808,8.394,16.991,19.876,19.92,32.474
		c2.95,0.384,4.777-2.407,6.365-4.422c1.776,0.529,3.537,1.29,5.4,1.312C1227.317,174.736,1227.665,172.453,1228.571,171.141z"/>
	<path d="M655.785,67.44c1.855-2.471,4.972-4.808,4.321-8.278c-3.506,1.517-6.863,3.521-10.666,4.239
		c-10.402,1.501-37.29,4.87-45.265,11.538c3.004,0.472,5.889-0.784,8.862-0.969c12.87-1,26.069,2.04,37.048,8.878
		c2.358-1.815,1.676-5.08,1.374-7.627c1.63-0.882,3.414-1.589,4.746-2.891C657.441,70.869,656.072,69.008,655.785,67.44z"/>
	<path d="M177.437,399.133c-0.435-3.059,0.116-6.915-2.798-8.909c-1.406,3.552-2.363,7.343-4.545,10.54
		c-6.294,8.416-22.924,29.812-23.848,40.165c2.457-1.79,3.61-4.719,5.582-6.952c8.394-9.808,19.876-16.991,32.474-19.92
		c0.384-2.95-2.407-4.777-4.422-6.364c0.529-1.776,1.29-3.537,1.312-5.4C181.032,400.387,178.749,400.039,177.437,399.133z"/>
	<path d="M73.736,971.919c-2.471-1.855-4.808-4.972-8.278-4.321c1.517,3.506,3.521,6.863,4.239,10.666
		c1.501,10.402,4.87,37.29,11.538,45.265c0.472-3.004-0.784-5.889-0.969-8.862c-1-12.87,2.04-26.069,8.878-37.048
		c-1.815-2.358-5.08-1.676-7.627-1.374c-0.882-1.63-1.589-3.414-2.891-4.746C77.165,970.263,75.304,971.632,73.736,971.919z"/>
	<path d="M405.429,1450.267c-3.059,0.435-6.915-0.116-8.909,2.798c3.552,1.406,7.343,2.363,10.54,4.545
		c8.416,6.294,29.812,22.924,40.165,23.848c-1.79-2.457-4.719-3.61-6.952-5.582c-9.808-8.394-16.991-19.876-19.92-32.474
		c-2.95-0.384-4.777,2.407-6.364,4.422c-1.776-0.529-3.537-1.29-5.4-1.312C406.683,1446.672,406.335,1448.955,405.429,1450.267z"/>
	<path d="M978.215,1553.968c-1.855,2.471-4.972,4.808-4.321,8.278c3.506-1.517,6.863-3.521,10.666-4.239
		c10.402-1.501,37.29-4.87,45.265-11.538c-3.004-0.472-5.889,0.784-8.862,0.969c-12.87,1-26.069-2.04-37.048-8.878
		c-2.358,1.815-1.676,5.08-1.374,7.627c-1.63,0.882-3.414,1.589-4.746,2.891C976.559,1550.539,977.928,1552.4,978.215,1553.968z"/>
	<path d="M1456.563,1222.275c0.435,3.059-0.116,6.915,2.798,8.909c1.406-3.552,2.363-7.343,4.545-10.54
		c6.294-8.416,22.924-29.812,23.848-40.165c-2.457,1.79-3.61,4.719-5.582,6.952c-8.394,9.807-19.876,16.991-32.474,19.92
		c-0.384,2.95,2.406,4.777,4.422,6.364c-0.529,1.776-1.29,3.537-1.312,5.4C1452.968,1221.021,1455.251,1221.369,1456.563,1222.275z"
		/>
	<path d="M1560.264,649.489c2.471,1.855,4.808,4.972,8.278,4.321c-1.517-3.506-3.521-6.863-4.239-10.666
		c-1.501-10.402-4.87-37.29-11.538-45.265c-0.472,3.004,0.784,5.889,0.969,8.862c1,12.871-2.04,26.069-8.878,37.048
		c1.814,2.358,5.08,1.676,7.627,1.374c0.882,1.63,1.589,3.414,2.891,4.746C1556.835,651.145,1558.696,649.776,1560.264,649.489z"/>
	<path d="M1456.563,399.133c0.435-3.059-0.116-6.915,2.798-8.909c1.406,3.552,2.363,7.343,4.545,10.54
		c6.294,8.416,22.924,29.812,23.848,40.165c-2.457-1.79-3.61-4.719-5.582-6.952c-8.394-9.808-19.876-16.991-32.474-19.92
		c-0.384-2.95,2.406-4.777,4.422-6.364c-0.529-1.776-1.29-3.537-1.312-5.4C1452.968,400.387,1455.251,400.039,1456.563,399.133z"/>
	<path d="M978.215,67.44c-1.855-2.471-4.972-4.808-4.321-8.278c3.506,1.517,6.863,3.521,10.666,4.239
		c10.402,1.501,37.29,4.87,45.265,11.538c-3.004,0.472-5.889-0.784-8.862-0.969c-12.87-1-26.069,2.04-37.048,8.878
		c-2.358-1.815-1.676-5.08-1.374-7.627c-1.63-0.882-3.414-1.589-4.746-2.891C976.559,70.869,977.928,69.008,978.215,67.44z"/>
	<path d="M405.429,171.141c-3.059-0.435-6.915,0.116-8.909-2.798c3.552-1.406,7.343-2.363,10.54-4.545
		c8.416-6.294,29.812-22.924,40.165-23.848c-1.79,2.457-4.719,3.61-6.952,5.582c-9.808,8.394-16.991,19.876-19.92,32.474
		c-2.95,0.384-4.777-2.407-6.364-4.422c-1.776,0.529-3.537,1.29-5.4,1.312C406.683,174.736,406.335,172.453,405.429,171.141z"/>
	<path d="M73.736,649.489c-2.471,1.855-4.808,4.972-8.278,4.321c1.517-3.506,3.521-6.863,4.239-10.666
		c1.501-10.402,4.87-37.29,11.538-45.265c0.472,3.004-0.784,5.889-0.969,8.862c-1,12.871,2.04,26.069,8.878,37.048
		c-1.815,2.358-5.08,1.676-7.627,1.374c-0.882,1.63-1.589,3.414-2.891,4.746C77.165,651.145,75.304,649.776,73.736,649.489z"/>
	<path d="M177.437,1222.275c-0.435,3.059,0.116,6.915-2.798,8.909c-1.406-3.552-2.363-7.343-4.545-10.54
		c-6.294-8.416-22.924-29.812-23.848-40.165c2.457,1.79,3.61,4.719,5.582,6.952c8.394,9.807,19.876,16.991,32.474,19.92
		c0.384,2.95-2.407,4.777-4.422,6.364c0.529,1.776,1.29,3.537,1.312,5.4C181.032,1221.021,178.749,1221.369,177.437,1222.275z"/>
	<path d="M655.785,1553.968c1.855,2.471,4.972,4.808,4.321,8.278c-3.506-1.517-6.863-3.521-10.666-4.239
		c-10.402-1.501-37.29-4.87-45.265-11.538c3.004-0.472,5.889,0.784,8.862,0.969c12.87,1,26.069-2.04,37.048-8.878
		c2.358,1.815,1.676,5.08,1.374,7.627c1.63,0.882,3.414,1.589,4.746,2.891C657.441,1550.539,656.072,1552.4,655.785,1553.968z"/>
	<path d="M1228.571,1450.267c3.059,0.435,6.915-0.116,8.909,2.798c-3.552,1.406-7.343,2.363-10.54,4.545
		c-8.416,6.294-29.812,22.924-40.165,23.848c1.79-2.457,4.719-3.61,6.951-5.582c9.808-8.394,16.991-19.876,19.92-32.474
		c2.95-0.384,4.777,2.407,6.365,4.422c1.776-0.529,3.537-1.29,5.4-1.312C1227.317,1446.672,1227.665,1448.955,1228.571,1450.267z"/>
	<path d="M1560.264,971.919c2.471-1.855,4.808-4.972,8.278-4.321c-1.517,3.506-3.521,6.863-4.239,10.666
		c-1.501,10.402-4.87,37.29-11.538,45.265c-0.472-3.004,0.784-5.889,0.969-8.862c1-12.87-2.04-26.069-8.878-37.048
		c1.814-2.358,5.08-1.676,7.627-1.374c0.882-1.63,1.589-3.414,2.891-4.746C1556.835,970.263,1558.696,971.632,1560.264,971.919z"/>
	<path d="M1220.402,186.276c-1.225,0.42-2.436,0.928-3.595,1.529c0.623,9.046,0.913,18.281-1.131,27.176
		c-2.385,8.3-5.727,17.209-13.149,22.283c-2.088,1.653-4.864,1.443-7.372,1.725c0.16,3.972,3.69,7.002,7.336,7.908
		c3.748,0.674,7.814-0.036,10.953-2.225C1230.022,233.825,1224.193,194.623,1220.402,186.276z"/>
	<path d="M660.711,83.919c-0.569,1.164-1.066,2.378-1.461,3.624c6.838,5.956,13.573,12.281,18.417,20.016
		c4.182,7.555,8.119,16.218,6.458,25.054c-0.307,2.645-2.419,4.459-3.993,6.433c2.922,2.696,7.56,2.342,10.779,0.405
		c3.127-2.173,5.5-5.551,6.171-9.318C701.135,110.738,669.293,87.14,660.711,83.919z"/>
	<path d="M192.572,407.302c0.42,1.225,0.928,2.436,1.529,3.595c9.046-0.623,18.281-0.913,27.176,1.131
		c8.3,2.385,17.209,5.727,22.283,13.149c1.653,2.088,1.443,4.864,1.725,7.372c3.972-0.16,7.002-3.69,7.908-7.336
		c0.674-3.748-0.036-7.814-2.225-10.953C240.12,397.682,200.918,403.511,192.572,407.302z"/>
	<path d="M90.215,966.993c1.164,0.569,2.378,1.066,3.624,1.461c5.956-6.838,12.281-13.573,20.016-18.416
		c7.555-4.182,16.218-8.119,25.054-6.458c2.645,0.308,4.459,2.419,6.433,3.993c2.696-2.922,2.342-7.56,0.405-10.779
		c-2.173-3.127-5.551-5.5-9.318-6.171C117.034,926.569,93.436,958.411,90.215,966.993z"/>
	<path d="M413.598,1435.132c1.225-0.42,2.436-0.928,3.595-1.529c-0.623-9.047-0.913-18.281,1.131-27.176
		c2.385-8.3,5.727-17.208,13.149-22.283c2.088-1.653,4.864-1.443,7.372-1.725c-0.16-3.972-3.69-7.002-7.336-7.908
		c-3.748-0.674-7.814,0.036-10.953,2.225C403.978,1387.584,409.807,1426.786,413.598,1435.132z"/>
	<path d="M973.289,1537.49c0.569-1.164,1.066-2.378,1.461-3.624c-6.838-5.956-13.573-12.281-18.417-20.016
		c-4.182-7.555-8.119-16.218-6.458-25.054c0.307-2.645,2.419-4.459,3.993-6.433c-2.922-2.696-7.56-2.342-10.779-0.405
		c-3.127,2.173-5.5,5.551-6.171,9.318C932.865,1510.67,964.707,1534.268,973.289,1537.49z"/>
	<path d="M1441.428,1214.106c-0.42-1.225-0.928-2.436-1.53-3.595c-9.046,0.623-18.281,0.913-27.176-1.131
		c-8.3-2.385-17.208-5.727-22.283-13.149c-1.653-2.088-1.443-4.864-1.725-7.372c-3.972,0.16-7.002,3.69-7.908,7.336
		c-0.674,3.748,0.036,7.814,2.225,10.953C1393.88,1223.726,1433.082,1217.897,1441.428,1214.106z"/>
	<path d="M1543.785,654.415c-1.163-0.569-2.378-1.066-3.624-1.461c-5.956,6.838-12.281,13.573-20.016,18.417
		c-7.555,4.182-16.218,8.119-25.054,6.458c-2.645-0.308-4.459-2.419-6.433-3.993c-2.696,2.922-2.342,7.56-0.405,10.779
		c2.173,3.127,5.551,5.5,9.318,6.171C1516.966,694.839,1540.564,662.998,1543.785,654.415z"/>
	<path d="M1441.428,407.302c-0.42,1.225-0.928,2.436-1.53,3.595c-9.046-0.623-18.281-0.913-27.176,1.131
		c-8.3,2.385-17.208,5.727-22.283,13.149c-1.653,2.088-1.443,4.864-1.725,7.372c-3.972-0.16-7.002-3.69-7.908-7.336
		c-0.674-3.748,0.036-7.814,2.225-10.953C1393.88,397.682,1433.082,403.511,1441.428,407.302z"/>
	<path d="M973.289,83.919c0.569,1.164,1.066,2.378,1.461,3.624c-6.838,5.956-13.573,12.281-18.417,20.016
		c-4.182,7.555-8.119,16.218-6.458,25.054c0.307,2.645,2.419,4.459,3.993,6.433c-2.922,2.696-7.56,2.342-10.779,0.405
		c-3.127-2.173-5.5-5.551-6.171-9.318C932.865,110.738,964.707,87.14,973.289,83.919z"/>
	<path d="M413.598,186.276c1.225,0.42,2.436,0.928,3.595,1.529c-0.623,9.046-0.913,18.281,1.131,27.176
		c2.385,8.3,5.727,17.209,13.149,22.283c2.088,1.653,4.864,1.443,7.372,1.725c-0.16,3.972-3.69,7.002-7.336,7.908
		c-3.748,0.674-7.814-0.036-10.953-2.225C403.978,233.825,409.807,194.623,413.598,186.276z"/>
	<path d="M90.215,654.415c1.164-0.569,2.378-1.066,3.624-1.461c5.956,6.838,12.281,13.573,20.016,18.417
		c7.555,4.182,16.218,8.119,25.054,6.458c2.645-0.308,4.459-2.419,6.433-3.993c2.696,2.922,2.342,7.56,0.405,10.779
		c-2.173,3.127-5.551,5.5-9.318,6.171C117.034,694.839,93.436,662.998,90.215,654.415z"/>
	<path d="M192.572,1214.106c0.42-1.225,0.928-2.436,1.529-3.595c9.046,0.623,18.281,0.913,27.176-1.131
		c8.3-2.385,17.209-5.727,22.283-13.149c1.653-2.088,1.443-4.864,1.725-7.372c3.972,0.16,7.002,3.69,7.908,7.336
		c0.674,3.748-0.036,7.814-2.225,10.953C240.12,1223.726,200.918,1217.897,192.572,1214.106z"/>
	<path d="M660.711,1537.49c-0.569-1.164-1.066-2.378-1.461-3.624c6.838-5.956,13.573-12.281,18.417-20.016
		c4.182-7.555,8.119-16.218,6.458-25.054c-0.307-2.645-2.419-4.459-3.993-6.433c2.922-2.696,7.56-2.342,10.779-0.405
		c3.127,2.173,5.5,5.551,6.171,9.318C701.135,1510.67,669.293,1534.268,660.711,1537.49z"/>
	<path d="M1220.402,1435.132c-1.225-0.42-2.436-0.928-3.595-1.529c0.623-9.047,0.913-18.281-1.131-27.176
		c-2.385-8.3-5.727-17.208-13.149-22.283c-2.088-1.653-4.864-1.443-7.372-1.725c0.16-3.972,3.69-7.002,7.336-7.908
		c3.748-0.674,7.814,0.036,10.953,2.225C1230.022,1387.584,1224.193,1426.786,1220.402,1435.132z"/>
	<path d="M1543.785,966.993c-1.163,0.569-2.378,1.066-3.624,1.461c-5.956-6.838-12.281-13.573-20.016-18.416
		c-7.555-4.182-16.218-8.119-25.054-6.458c-2.645,0.308-4.459,2.419-6.433,3.993c-2.696-2.922-2.342-7.56-0.405-10.779
		c2.173-3.127,5.551-5.5,9.318-6.171C1516.966,926.569,1540.564,958.411,1543.785,966.993z"/>
	<path d="M1206.941,176.592c-8.005-24.015-27.681-38.461-44.007-40.868c-18.454-4.436-39.737,1.02-53.641,12.308
		c1.312,2.914,4.03,4.791,6.176,7.046c8.769-4.084,28.967-19.985,59.505-3.813c13.983,8.249,22.602,24.044,23.566,40.057
		c0.739,8.974-2.856,17.636-7.517,25.102c-8.152,12.71-26.584,21.488-42.318,15.433c-31.907-9.741-31.225-48.446-5.857-57.156
		c13.078-3.838,30.43,6.017,25.595,22.747c-1.943,5.937-9.148,8.865-14.882,7.002c-3.139-1.566-5.843-4.915-5.473-8.583
		c0.703-1.827,2.03-3.334,2.813-5.125c-1.964,0-4.132,0.167-5.589,1.674c-6.531,6.368-1.984,20.323,11.105,21.768
		c11.235,0.725,22.167-9.242,21.862-20.637c-0.181-5.473-0.95-11.344-4.473-15.766c-2.936-3.581-6.466-6.727-10.467-9.083
		c-10.859-6.06-24.994-3.885-34.714,3.407c-19.883,16.321-16.842,46.338,1.182,60.534c10.098,7.894,23.45,12.236,36.244,10.206
		C1196.939,238.835,1216.6,205.241,1206.941,176.592z"/>
	<path d="M644.345,86.589c-22.641-11.321-46.77-7.622-60.016,2.219c-16.186,9.912-27.377,28.82-29.226,46.633
		c2.988,1.133,6.238,0.538,9.349,0.615c3.313-9.088,6.351-34.614,39.38-44.772c15.72-4.054,32.984,1.02,44.988,11.661
		c6.868,5.823,10.451,14.49,12.435,23.065c3.223,14.752-3.603,33.992-19.011,40.836c-29.449,15.673-56.336-12.177-44.557-36.274
		c6.533-11.962,25.772-17.262,34.183-2.014c2.824,5.572-0.2,12.737-5.572,15.474c-3.326,1.112-7.606,0.656-9.939-2.199
		c-0.794-1.789-0.923-3.793-1.635-5.613c-1.389,1.389-2.804,3.04-2.768,5.136c-0.115,9.122,12.967,15.774,23.245,7.54
		c8.457-7.432,9.139-22.209,0.866-30.052c-3.998-3.742-8.693-7.35-14.311-7.986c-4.608-0.456-9.329-0.184-13.824,0.979
		c-11.963,3.393-20.421,14.926-22.138,26.956c-2.519,25.6,20.857,44.675,43.64,41.969c12.722-1.558,25.234-7.929,32.845-18.411
		C681.285,137.674,671.433,100.017,644.345,86.589z"/>
	<path d="M182.888,420.763c-24.015,8.005-38.461,27.681-40.868,44.007c-4.436,18.454,1.02,39.737,12.308,53.641
		c2.914-1.312,4.791-4.03,7.046-6.176c-4.084-8.769-19.985-28.967-3.813-59.505c8.249-13.983,24.044-22.602,40.057-23.566
		c8.974-0.739,17.636,2.856,25.102,7.517c12.71,8.152,21.488,26.584,15.433,42.318c-9.741,31.907-48.446,31.225-57.156,5.857
		c-3.838-13.078,6.017-30.43,22.747-25.595c5.937,1.943,8.865,9.148,7.002,14.882c-1.566,3.139-4.915,5.842-8.583,5.473
		c-1.827-0.703-3.334-2.03-5.125-2.813c0,1.964,0.167,4.132,1.674,5.589c6.368,6.532,20.323,1.984,21.768-11.105
		c0.725-11.236-9.242-22.167-20.637-21.862c-5.473,0.181-11.344,0.95-15.766,4.473c-3.581,2.936-6.727,6.466-9.083,10.467
		c-6.06,10.859-3.885,24.994,3.407,34.714c16.321,19.883,46.338,16.842,60.534-1.182c7.894-10.097,12.236-23.45,10.206-36.244
		C245.131,430.765,211.536,411.104,182.888,420.763z"/>
	<path d="M92.885,983.359c-11.321,22.642-7.622,46.77,2.219,60.016c9.912,16.186,28.82,27.377,46.633,29.226
		c1.133-2.988,0.538-6.238,0.615-9.349c-9.088-3.313-34.614-6.351-44.772-39.38c-4.054-15.72,1.02-32.984,11.661-44.988
		c5.823-6.868,14.49-10.451,23.065-12.435c14.752-3.223,33.992,3.603,40.836,19.011c15.673,29.449-12.177,56.336-36.274,44.557
		c-11.962-6.533-17.262-25.772-2.014-34.183c5.572-2.824,12.737,0.2,15.474,5.572c1.112,3.327,0.656,7.606-2.199,9.939
		c-1.789,0.794-3.793,0.923-5.613,1.635c1.389,1.389,3.04,2.804,5.136,2.768c9.122,0.115,15.774-12.967,7.54-23.245
		c-7.432-8.457-22.209-9.139-30.052-0.866c-3.742,3.998-7.35,8.693-7.986,14.311c-0.456,4.608-0.184,9.329,0.979,13.824
		c3.393,11.963,14.926,20.421,26.956,22.138c25.6,2.519,44.675-20.857,41.969-43.64c-1.558-12.722-7.929-25.234-18.411-32.845
		C143.97,946.419,106.313,956.271,92.885,983.359z"/>
	<path d="M427.059,1444.816c8.005,24.015,27.681,38.461,44.007,40.869c18.454,4.436,39.737-1.02,53.641-12.308
		c-1.312-2.914-4.03-4.791-6.176-7.046c-8.769,4.084-28.967,19.985-59.505,3.813c-13.983-8.249-22.602-24.044-23.566-40.057
		c-0.739-8.974,2.856-17.636,7.517-25.102c8.152-12.71,26.584-21.488,42.318-15.432c31.907,9.741,31.225,48.446,5.857,57.156
		c-13.078,3.838-30.43-6.017-25.595-22.747c1.943-5.937,9.148-8.865,14.882-7.002c3.139,1.566,5.842,4.915,5.473,8.583
		c-0.703,1.827-2.03,3.334-2.813,5.125c1.964,0,4.132-0.167,5.589-1.674c6.532-6.368,1.984-20.323-11.105-21.768
		c-11.236-0.725-22.167,9.242-21.862,20.637c0.181,5.473,0.95,11.344,4.473,15.766c2.936,3.581,6.466,6.727,10.467,9.083
		c10.859,6.06,24.994,3.885,34.714-3.407c19.883-16.321,16.842-46.338-1.182-60.534c-10.097-7.894-23.45-12.236-36.244-10.206
		C437.061,1382.573,417.4,1416.168,427.059,1444.816z"/>
	<path d="M989.655,1534.819c22.641,11.321,46.77,7.622,60.016-2.219c16.186-9.912,27.377-28.82,29.226-46.633
		c-2.988-1.133-6.238-0.538-9.349-0.615c-3.313,9.088-6.351,34.614-39.38,44.772c-15.72,4.054-32.984-1.02-44.988-11.661
		c-6.868-5.823-10.451-14.49-12.435-23.065c-3.223-14.752,3.603-33.992,19.011-40.836c29.449-15.673,56.336,12.177,44.557,36.274
		c-6.533,11.962-25.772,17.262-34.183,2.014c-2.824-5.572,0.2-12.737,5.572-15.474c3.326-1.112,7.606-0.656,9.939,2.199
		c0.794,1.789,0.923,3.793,1.635,5.613c1.389-1.389,2.804-3.04,2.768-5.136c0.115-9.122-12.967-15.774-23.245-7.54
		c-8.457,7.432-9.139,22.209-0.866,30.052c3.998,3.742,8.693,7.35,14.311,7.986c4.608,0.456,9.329,0.184,13.824-0.979
		c11.963-3.393,20.421-14.926,22.138-26.956c2.519-25.6-20.857-44.676-43.64-41.969c-12.722,1.558-25.234,7.929-32.845,18.411
		C952.715,1483.734,962.567,1521.391,989.655,1534.819z"/>
	<path d="M1451.112,1200.645c24.015-8.005,38.461-27.681,40.869-44.007c4.436-18.454-1.02-39.737-12.308-53.641
		c-2.914,1.312-4.791,4.03-7.046,6.176c4.084,8.769,19.985,28.967,3.813,59.505c-8.249,13.983-24.044,22.602-40.057,23.566
		c-8.974,0.739-17.636-2.856-25.102-7.517c-12.71-8.152-21.488-26.584-15.433-42.318c9.741-31.907,48.446-31.225,57.156-5.857
		c3.838,13.078-6.017,30.43-22.747,25.595c-5.937-1.943-8.865-9.148-7.002-14.882c1.566-3.139,4.915-5.842,8.583-5.473
		c1.827,0.703,3.334,2.03,5.125,2.813c0-1.964-0.167-4.132-1.674-5.589c-6.368-6.531-20.323-1.984-21.768,11.105
		c-0.725,11.235,9.242,22.167,20.637,21.862c5.473-0.181,11.344-0.95,15.766-4.472c3.581-2.936,6.727-6.466,9.083-10.467
		c6.06-10.859,3.885-24.994-3.407-34.714c-16.321-19.883-46.338-16.842-60.534,1.182c-7.894,10.098-12.236,23.45-10.206,36.244
		C1388.869,1190.644,1422.464,1210.304,1451.112,1200.645z"/>
	<path d="M1541.115,638.049c11.321-22.641,7.622-46.77-2.219-60.016c-9.912-16.186-28.82-27.377-46.633-29.226
		c-1.133,2.988-0.538,6.238-0.615,9.349c9.088,3.313,34.614,6.351,44.772,39.38c4.054,15.72-1.02,32.984-11.661,44.988
		c-5.823,6.868-14.49,10.451-23.065,12.435c-14.752,3.223-33.992-3.603-40.836-19.011c-15.673-29.449,12.177-56.336,36.274-44.557
		c11.962,6.533,17.262,25.772,2.014,34.183c-5.572,2.824-12.737-0.2-15.474-5.572c-1.112-3.326-0.656-7.606,2.199-9.939
		c1.789-0.794,3.793-0.923,5.613-1.635c-1.389-1.389-3.04-2.804-5.136-2.768c-9.122-0.115-15.774,12.967-7.54,23.245
		c7.432,8.457,22.209,9.139,30.052,0.866c3.742-3.998,7.35-8.693,7.986-14.311c0.456-4.608,0.184-9.329-0.979-13.824
		c-3.393-11.963-14.926-20.421-26.956-22.138c-25.6-2.519-44.676,20.857-41.969,43.64c1.558,12.722,7.929,25.234,18.411,32.845
		C1490.03,674.99,1527.687,665.137,1541.115,638.049z"/>
	<path d="M1451.112,420.763c24.015,8.005,38.461,27.681,40.869,44.007c4.436,18.454-1.02,39.737-12.308,53.641
		c-2.914-1.312-4.791-4.03-7.046-6.176c4.084-8.769,19.985-28.967,3.813-59.505c-8.249-13.983-24.044-22.602-40.057-23.566
		c-8.974-0.739-17.636,2.856-25.102,7.517c-12.71,8.152-21.488,26.584-15.433,42.318c9.741,31.907,48.446,31.225,57.156,5.857
		c3.838-13.078-6.017-30.43-22.747-25.595c-5.937,1.943-8.865,9.148-7.002,14.882c1.566,3.139,4.915,5.842,8.583,5.473
		c1.827-0.703,3.334-2.03,5.125-2.813c0,1.964-0.167,4.132-1.674,5.589c-6.368,6.532-20.323,1.984-21.768-11.105
		c-0.725-11.236,9.242-22.167,20.637-21.862c5.473,0.181,11.344,0.95,15.766,4.473c3.581,2.936,6.727,6.466,9.083,10.467
		c6.06,10.859,3.885,24.994-3.407,34.714c-16.321,19.883-46.338,16.842-60.534-1.182c-7.894-10.097-12.236-23.45-10.206-36.244
		C1388.869,430.765,1422.464,411.104,1451.112,420.763z"/>
	<path d="M989.655,86.589c22.641-11.321,46.77-7.622,60.016,2.219c16.186,9.912,27.377,28.82,29.226,46.633
		c-2.988,1.133-6.238,0.538-9.349,0.615c-3.313-9.088-6.351-34.614-39.38-44.772c-15.72-4.054-32.984,1.02-44.988,11.661
		c-6.868,5.823-10.451,14.49-12.435,23.065c-3.223,14.752,3.603,33.992,19.011,40.836c29.449,15.673,56.336-12.177,44.557-36.274
		c-6.533-11.962-25.772-17.262-34.183-2.014c-2.824,5.572,0.2,12.737,5.572,15.474c3.326,1.112,7.606,0.656,9.939-2.199
		c0.794-1.789,0.923-3.793,1.635-5.613c1.389,1.389,2.804,3.04,2.768,5.136c0.115,9.122-12.967,15.774-23.245,7.54
		c-8.457-7.432-9.139-22.209-0.866-30.052c3.998-3.742,8.693-7.35,14.311-7.986c4.608-0.456,9.329-0.184,13.824,0.979
		c11.963,3.393,20.421,14.926,22.138,26.956c2.519,25.6-20.857,44.675-43.64,41.969c-12.722-1.558-25.234-7.929-32.845-18.411
		C952.715,137.674,962.567,100.017,989.655,86.589z"/>
	<path d="M427.059,176.592c8.005-24.015,27.681-38.461,44.007-40.868c18.454-4.436,39.737,1.02,53.641,12.308
		c-1.312,2.914-4.03,4.791-6.176,7.046c-8.769-4.084-28.967-19.985-59.505-3.813c-13.983,8.249-22.602,24.044-23.566,40.057
		c-0.739,8.974,2.856,17.636,7.517,25.102c8.152,12.71,26.584,21.488,42.318,15.433c31.907-9.741,31.225-48.446,5.857-57.156
		c-13.078-3.838-30.43,6.017-25.595,22.747c1.943,5.937,9.148,8.865,14.882,7.002c3.139-1.566,5.842-4.915,5.473-8.583
		c-0.703-1.827-2.03-3.334-2.813-5.125c1.964,0,4.132,0.167,5.589,1.674c6.532,6.368,1.984,20.323-11.105,21.768
		c-11.236,0.725-22.167-9.242-21.862-20.637c0.181-5.473,0.95-11.344,4.473-15.766c2.936-3.581,6.466-6.727,10.467-9.083
		c10.859-6.06,24.994-3.885,34.714,3.407c19.883,16.321,16.842,46.338-1.182,60.534c-10.097,7.894-23.45,12.236-36.244,10.206
		C437.061,238.835,417.4,205.241,427.059,176.592z"/>
	<path d="M92.885,638.049c-11.321-22.641-7.622-46.77,2.219-60.016c9.912-16.186,28.82-27.377,46.633-29.226
		c1.133,2.988,0.538,6.238,0.615,9.349c-9.088,3.313-34.614,6.351-44.772,39.38c-4.054,15.72,1.02,32.984,11.661,44.988
		c5.823,6.868,14.49,10.451,23.065,12.435c14.752,3.223,33.992-3.603,40.836-19.011c15.673-29.449-12.177-56.336-36.274-44.557
		c-11.962,6.533-17.262,25.772-2.014,34.183c5.572,2.824,12.737-0.2,15.474-5.572c1.112-3.326,0.656-7.606-2.199-9.939
		c-1.789-0.794-3.793-0.923-5.613-1.635c1.389-1.389,3.04-2.804,5.136-2.768c9.122-0.115,15.774,12.967,7.54,23.245
		c-7.432,8.457-22.209,9.139-30.052,0.866c-3.742-3.998-7.35-8.693-7.986-14.311c-0.456-4.608-0.184-9.329,0.979-13.824
		c3.393-11.963,14.926-20.421,26.956-22.138c25.6-2.519,44.675,20.857,41.969,43.64c-1.558,12.722-7.929,25.234-18.411,32.845
		C143.97,674.99,106.313,665.137,92.885,638.049z"/>
	<path d="M182.888,1200.645c-24.015-8.005-38.461-27.681-40.868-44.007c-4.436-18.454,1.02-39.737,12.308-53.641
		c2.914,1.312,4.791,4.03,7.046,6.176c-4.084,8.769-19.985,28.967-3.813,59.505c8.249,13.983,24.044,22.602,40.057,23.566
		c8.974,0.739,17.636-2.856,25.102-7.517c12.71-8.152,21.488-26.584,15.433-42.318c-9.741-31.907-48.446-31.225-57.156-5.857
		c-3.838,13.078,6.017,30.43,22.747,25.595c5.937-1.943,8.865-9.148,7.002-14.882c-1.566-3.139-4.915-5.842-8.583-5.473
		c-1.827,0.703-3.334,2.03-5.125,2.813c0-1.964,0.167-4.132,1.674-5.589c6.368-6.531,20.323-1.984,21.768,11.105
		c0.725,11.235-9.242,22.167-20.637,21.862c-5.473-0.181-11.344-0.95-15.766-4.472c-3.581-2.936-6.727-6.466-9.083-10.467
		c-6.06-10.859-3.885-24.994,3.407-34.714c16.321-19.883,46.338-16.842,60.534,1.182c7.894,10.098,12.236,23.45,10.206,36.244
		C245.131,1190.644,211.536,1210.304,182.888,1200.645z"/>
	<path d="M644.345,1534.819c-22.641,11.321-46.77,7.622-60.016-2.219c-16.186-9.912-27.377-28.82-29.226-46.633
		c2.988-1.133,6.238-0.538,9.349-0.615c3.313,9.088,6.351,34.614,39.38,44.772c15.72,4.054,32.984-1.02,44.988-11.661
		c6.868-5.823,10.451-14.49,12.435-23.065c3.223-14.752-3.603-33.992-19.011-40.836c-29.449-15.673-56.336,12.177-44.557,36.274
		c6.533,11.962,25.772,17.262,34.183,2.014c2.824-5.572-0.2-12.737-5.572-15.474c-3.326-1.112-7.606-0.656-9.939,2.199
		c-0.794,1.789-0.923,3.793-1.635,5.613c-1.389-1.389-2.804-3.04-2.768-5.136c-0.115-9.122,12.967-15.774,23.245-7.54
		c8.457,7.432,9.139,22.209,0.866,30.052c-3.998,3.742-8.693,7.35-14.311,7.986c-4.608,0.456-9.329,0.184-13.824-0.979
		c-11.963-3.393-20.421-14.926-22.138-26.956c-2.519-25.6,20.857-44.676,43.64-41.969c12.722,1.558,25.234,7.929,32.845,18.411
		C681.285,1483.734,671.433,1521.391,644.345,1534.819z"/>
	<path d="M1206.941,1444.816c-8.005,24.015-27.681,38.461-44.007,40.869c-18.454,4.436-39.737-1.02-53.641-12.308
		c1.312-2.914,4.03-4.791,6.176-7.046c8.769,4.084,28.967,19.985,59.505,3.813c13.983-8.249,22.602-24.044,23.566-40.057
		c0.739-8.974-2.856-17.636-7.517-25.102c-8.152-12.71-26.584-21.488-42.318-15.432c-31.907,9.741-31.225,48.446-5.857,57.156
		c13.078,3.838,30.43-6.017,25.595-22.747c-1.943-5.937-9.148-8.865-14.882-7.002c-3.139,1.566-5.843,4.915-5.473,8.583
		c0.703,1.827,2.03,3.334,2.813,5.125c-1.964,0-4.132-0.167-5.589-1.674c-6.531-6.368-1.984-20.323,11.105-21.768
		c11.235-0.725,22.167,9.242,21.862,20.637c-0.181,5.473-0.95,11.344-4.473,15.766c-2.936,3.581-6.466,6.727-10.467,9.083
		c-10.859,6.06-24.994,3.885-34.714-3.407c-19.883-16.321-16.842-46.338,1.182-60.534c10.098-7.894,23.45-12.236,36.244-10.206
		C1196.939,1382.573,1216.6,1416.168,1206.941,1444.816z"/>
	<path d="M1541.115,983.359c11.321,22.642,7.622,46.77-2.219,60.016c-9.912,16.186-28.82,27.377-46.633,29.226
		c-1.133-2.988-0.538-6.238-0.615-9.349c9.088-3.313,34.614-6.351,44.772-39.38c4.054-15.72-1.02-32.984-11.661-44.988
		c-5.823-6.868-14.49-10.451-23.065-12.435c-14.752-3.223-33.992,3.603-40.836,19.011c-15.673,29.449,12.177,56.336,36.274,44.557
		c11.962-6.533,17.262-25.772,2.014-34.183c-5.572-2.824-12.737,0.2-15.474,5.572c-1.112,3.327-0.656,7.606,2.199,9.939
		c1.789,0.794,3.793,0.923,5.613,1.635c-1.389,1.389-3.04,2.804-5.136,2.768c-9.122,0.115-15.774-12.967-7.54-23.245
		c7.432-8.457,22.209-9.139,30.052-0.866c3.742,3.998,7.35,8.693,7.986,14.311c0.456,4.608,0.184,9.329-0.979,13.824
		c-3.393,11.963-14.926,20.421-26.956,22.138c-25.6,2.519-44.676-20.857-41.969-43.64c1.558-12.722,7.929-25.234,18.411-32.845
		C1490.03,946.419,1527.687,956.271,1541.115,983.359z"/>
	<path d="M1091.541,147.904c9.652,9.739,18.97,19.214,18.97,19.214c1.406,0.471,2.363-1.058,3.313-1.812
		c1.022-1.08,3.008-2.885,1.377-4.306c-10.033-10.533-15.99-16.222-20.557-20.586c-6.315-0.143-14.55-0.333-29.093,0.021
		c-2.158-0.149-2.03,2.532-2.071,4.019c0.138,1.205-0.267,2.963,1.061,3.624C1064.541,148.076,1077.829,147.966,1091.541,147.904z"
		/>
	<path d="M1479.8,536.163c-0.061,13.711-0.172,27-0.172,27c0.661,1.328,2.419,0.923,3.624,1.061
		c1.486-0.041,4.167,0.087,4.019-2.071c0.354-14.543,0.164-22.778,0.021-29.093c-4.364-4.567-10.053-10.524-20.586-20.557
		c-1.421-1.631-3.226,0.355-4.306,1.377c-0.754,0.95-2.283,1.906-1.812,3.313C1460.586,517.193,1470.061,526.511,1479.8,536.163z"/>
	<path d="M1479.8,1085.245c-9.739,9.652-19.214,18.97-19.214,18.97c-0.471,1.406,1.058,2.363,1.812,3.313
		c1.08,1.022,2.885,3.008,4.306,1.377c10.533-10.033,16.222-15.99,20.586-20.557c0.143-6.315,0.333-14.55-0.021-29.093
		c0.149-2.158-2.532-2.03-4.019-2.071c-1.205,0.138-2.963-0.266-3.624,1.061C1479.628,1058.245,1479.738,1071.533,1479.8,1085.245z"
		/>
	<path d="M1091.541,1473.504c-13.711-0.061-27-0.172-27-0.172c-1.328,0.661-0.923,2.419-1.061,3.624
		c0.041,1.486-0.087,4.167,2.071,4.019c14.543,0.354,22.778,0.164,29.093,0.021c4.567-4.364,10.524-10.053,20.557-20.587
		c1.631-1.421-0.355-3.226-1.377-4.306c-0.95-0.754-1.906-2.283-3.313-1.812C1110.511,1454.29,1101.193,1463.765,1091.541,1473.504z
		"/>
	<path d="M542.459,1473.504c-9.652-9.739-18.97-19.214-18.97-19.214c-1.406-0.471-2.363,1.058-3.313,1.812
		c-1.022,1.08-3.008,2.885-1.377,4.306c10.033,10.533,15.99,16.222,20.557,20.587c6.315,0.143,14.55,0.333,29.093-0.021
		c2.158,0.149,2.03-2.532,2.071-4.019c-0.138-1.204,0.267-2.963-1.061-3.624C569.459,1473.332,556.171,1473.443,542.459,1473.504z"
		/>
	<path d="M154.2,1085.245c0.061-13.711,0.172-27,0.172-27c-0.661-1.328-2.419-0.923-3.624-1.061
		c-1.486,0.041-4.167-0.087-4.019,2.071c-0.354,14.543-0.164,22.778-0.021,29.093c4.364,4.567,10.053,10.524,20.586,20.557
		c1.421,1.631,3.226-0.355,4.306-1.377c0.754-0.95,2.283-1.906,1.812-3.313C173.414,1104.215,163.939,1094.897,154.2,1085.245z"/>
	<path d="M154.2,536.163c9.739-9.652,19.214-18.97,19.214-18.97c0.471-1.406-1.058-2.363-1.812-3.313
		c-1.08-1.022-2.885-3.008-4.306-1.377c-10.533,10.033-16.222,15.99-20.586,20.557c-0.143,6.315-0.333,14.55,0.021,29.093
		c-0.149,2.158,2.532,2.03,4.019,2.071c1.205-0.138,2.963,0.266,3.624-1.061C154.372,563.163,154.262,549.875,154.2,536.163z"/>
	<path d="M542.459,147.904c13.711,0.061,27,0.172,27,0.172c1.328-0.661,0.923-2.419,1.061-3.624
		c-0.041-1.486,0.087-4.167-2.071-4.019c-14.543-0.354-22.778-0.164-29.093-0.021c-4.567,4.364-10.524,10.053-20.557,20.586
		c-1.631,1.421,0.355,3.226,1.377,4.306c0.95,0.754,1.906,2.283,3.313,1.812C523.489,167.118,532.807,157.643,542.459,147.904z"/>
</g>
</svg>
