<?xml version="1.0" standalone="no"?>
<!DOCTYPE svg PUBLIC "-//W3C//DTD SVG 1.1//EN" "http://www.w3.org/Graphics/SVG/1.1/DTD/svg11.dtd" >
<svg xmlns="http://www.w3.org/2000/svg" xmlns:xlink="http://www.w3.org/1999/xlink" version="1.1">
<metadata>
Created by FontForge 20170731 at Thu Feb  3 15:46:54 1994
 By Aleksey,,,
Adonias, v1.1 1994 E.A. Leach
</metadata>
<defs>
<font id="Adonais" horiz-adv-x="279" >
  <font-face 
    font-family="Adonais"
    font-weight="5"
    font-stretch="normal"
    units-per-em="1000"
    panose-1="0 0 0 0 0 0 0 0 0 0"
    ascent="800"
    descent="-200"
    x-height="547"
    cap-height="723"
    bbox="0 -127 878 800"
    underline-thickness="20"
    underline-position="-163"
    unicode-range="U+0020-2022"
  />
<missing-glyph horiz-adv-x="800" 
d="M50 0v800h700v-800h-700zM700 50v700h-600v-700h600z" />
    <glyph glyph-name=".notdef" horiz-adv-x="800" 
d="M50 0v800h700v-800h-700zM700 50v700h-600v-700h600z" />
    <glyph glyph-name=".null" unicode="&#xd7;" horiz-adv-x="0" 
 />
    <glyph glyph-name=".null" unicode="&#x141;" horiz-adv-x="0" 
 />
    <glyph glyph-name=".null" unicode="&#xfd;" horiz-adv-x="0" 
 />
    <glyph glyph-name="nonmarkingreturn" horiz-adv-x="500" 
 />
    <glyph glyph-name="space" unicode=" " horiz-adv-x="500" 
 />
    <glyph glyph-name="space" unicode="&#xa0;" horiz-adv-x="500" 
 />
    <glyph glyph-name="exclam" unicode="!" horiz-adv-x="287" 
d="M206 272v455l-125 -26v-458zM222 85l-69 -69q-7 -7 -17 -7t-17 7l-67 67q-6 6 -6 16q0 9 6 17l70 70q8 6 17 6q10 0 16 -6l67 -66q7 -8 7 -18t-7 -17z" />
    <glyph glyph-name="quotedbl" unicode="&#x22;" horiz-adv-x="339" 
d="M35 714h111l-24 -207h-60zM185 714h111l-24 -207h-60z" />
    <glyph glyph-name="numbersign" unicode="#" horiz-adv-x="426" 
d="M301 460v83l-71 -13v-70h-53v83l-71 -13v-70h-84l13 -73h71v-51h-84l13 -73h71v-83l71 14v69h53v-83l71 14v69h83l-14 73h-69v51h83l-14 73h-69zM230 387v-51h-53v51h53z" />
    <glyph glyph-name="dollar" unicode="$" horiz-adv-x="492" 
d="M170 614l-95 -70q-10 -7 -15 -12q-15 -16 -15 -34q0 -17 15 -35l167 -156q9 -9 9 -19q0 -7 -7 -13q-2 -2 -7 -5l-212 -153l118 -123l138 105v-77h74v133l100 77q15 11 21.5 22.5t6.5 22.5q0 13 -7 24q-2 3 -8 9l-174 164q-8 5 -8 13q0 7 9 15l9 6l190 135l-104 123
l-131 -97v81h-74v-136z" />
    <glyph glyph-name="percent" unicode="%" horiz-adv-x="529" 
d="M136 16l329 755l-122 -14l-331 -758zM192 577l-69 -69q-7 -7 -17 -7t-17 7l-67 67q-6 6 -6 16q0 9 6 17l70 70q8 6 17 6q10 0 16 -6l67 -66q7 -8 7 -18t-7 -17zM474 181l-69 -69q-7 -7 -17 -7t-17 7l-67 67q-6 6 -6 16q0 9 6 17l70 70q8 6 17 6q10 0 16 -6l67 -66
q7 -8 7 -18t-7 -17z" />
    <glyph glyph-name="ampersand" unicode="&#x26;" horiz-adv-x="450" 
d="M232 155l71 -44l101 63q0 3 -16 11q-2 1 -9 4q-13 6 -69 44q-66 44 -66 53q0 8 31 32q52 41 64 51q7 5 0 11q-2 2 -65 56q-12 10 -30 26q0 5 88 45q29 13 89 40q0 3 -43 42q-14 13 -43 39q-3 0 -21 -7.5t-82 -36.5v139l-70 -26v-144l-115 -52q-7 -4 0 -12l115 -103v-14
q-17 -16 -63 -48q-21 -14 -52 -35q-4 -4 -4 -9t4 -8l115 -73v-200l70 29v127z" />
    <glyph glyph-name="quotesingle" unicode="'" horiz-adv-x="210" 
d="M17 714h111l-24 -207h-60z" />
    <glyph glyph-name="parenleft" unicode="(" horiz-adv-x="366" 
d="M206 696h119l-195 -347l189 -343h-117l-197 344z" />
    <glyph glyph-name="parenright" unicode=")" horiz-adv-x="366" 
d="M341 350l-197 -344h-117l189 343l-195 347h119z" />
    <glyph glyph-name="asterisk" unicode="*" horiz-adv-x="366" 
d="M194 584v106l-49 -11v-95l-75 75l-25 -43l65 -66h-106l12 -50h94l-75 -75l44 -25l66 66v-106l49 13v93l75 -75l25 45l-65 64h105l-13 50h-93l75 75l-44 24z" />
    <glyph glyph-name="plus" unicode="+" horiz-adv-x="469" 
d="M281 374v174l-86 -15v-159h-174l15 -86h159v-174l86 17v157h174l-17 86h-157z" />
    <glyph glyph-name="comma" unicode="," 
d="M241 81l-84 -84q-14 -14 -71 -58q-29 -18 -57 -36l53 129l-49 47q-8 8 -8 20q0 11 8 21l85 85q10 8 21 8q12 0 20 -8l82 -81q9 -11 9 -22q0 -12 -9 -21z" />
    <glyph glyph-name="hyphen" unicode="-" horiz-adv-x="408" 
d="M360 420h-347l22 -132h349z" />
    <glyph glyph-name="period" unicode="." 
d="M241 81l-84 -84q-9 -9 -21 -9t-21 9l-82 82q-8 8 -8 20q0 11 8 21l85 85q10 8 21 8q12 0 20 -8l82 -81q9 -11 9 -22q0 -12 -9 -21z" />
    <glyph glyph-name="slash" unicode="/" horiz-adv-x="529" 
d="M154 28l329 755l-140 -26l-331 -758z" />
    <glyph glyph-name="zero" unicode="0" horiz-adv-x="664" 
d="M620 300q24 27 24 64q0 38 -24 65l-233 259q-24 26 -58 26t-58 -26l-240 -267q-23 -28 -23 -64q0 -38 23 -64l233 -259q26 -27 58 -27q34 0 58 27zM450 335l-101 -113q-10 -11 -25 -11t-25 11l-99 110q-10 12 -10 27t10 28l103 113q11 11 24 11q15 0 24 -11l99 -110
q11 -13 11 -28q0 -16 -11 -27z" />
    <glyph glyph-name="one" unicode="1" horiz-adv-x="208" 
d="M168 32v695l-143 -26v-698z" />
    <glyph glyph-name="two" unicode="2" horiz-adv-x="560" 
d="M527 128h-291l201 230q7 8 10 13q22 34 22 73q0 17 -3.5 30.5t-12.5 30.5l-307 183l-74 -141l208 -109q15 -5 21.5 -12t6.5 -14t-6 -15q-2 -2 -6 -7l-269 -282q-2 -5 -3 -8q-4 -12 -4 -20q0 -10 4 -18q10 -17 23 -34q3 -5 9 -12q15 -16 40 -19q4 0 12 -1h355z" />
    <glyph glyph-name="three" unicode="3" horiz-adv-x="400" 
d="M371 293l-83 74q-6 4 -8 6q-8 8 -8 15q0 11 16 17q28 20 55 43q10 9 28 24q4 7 6 11q7 16 7 28q0 11 -5 20.5t-17 17.5q-24 14 -94 57q-29 18 -112 71q-28 17 -55 35l-79 -96l164 -99q22 -16 22 -31q0 -11 -13 -22q-2 -1 -6 -4l-112 -80l121 -87q23 -11 23 -24
q0 -7 -8 -15q-2 -2 -8 -6l-180 -140l68 -109l265 198q6 4 9 7q22 20 22 43q0 22 -18 46z" />
    <glyph glyph-name="four" unicode="4" horiz-adv-x="570" 
d="M546 368h-143v279l-173 61l-220 -320l31 -144h225v-260l134 55l1 205h111zM266 365h-112l112 179v-179z" />
    <glyph glyph-name="five" unicode="5" horiz-adv-x="492" 
d="M479 672h-444l-1 -288l228 -93q25 -8 25 -21q0 -10 -15 -22q-2 -2 -7 -5l-250 -115l80 -128q67 29 108 48q118 56 199 108q34 22 52.5 54t18.5 66q0 55 -50.5 80.5t-163.5 78.5q-39 18 -109 51v49l281 -1z" />
    <glyph glyph-name="six" unicode="6" horiz-adv-x="572" 
d="M545 331q-7 28 -19 35l-133 75l-68 39l99 152q-33 31 -49 46q-26 21 -52 43q-1 -2 -47.5 -78.5t-92.5 -152.5q-52 -85 -77 -128q-69 -120 -80 -135q-4 -7 -4 -20q0 -9 3 -21q9 -28 26 -35.5t129 -74.5l132 -75q5 -4 15 -4q9 0 24 5q30 8 36 19l79 135l80 135q3 5 3 15
q0 12 -4 25zM388 286q5 -12 0 -15l-32 -53l-30 -56l-3 -3q-4 -3 -12.5 -5t-15.5 0l-52 31l-53 30q-7 4 -7 14q-5 10 0 15l32 55l31 56q3 6 14 7q11 4 15 0l53 -30l52 -30q7 -5 8 -16z" />
    <glyph glyph-name="seven" unicode="7" horiz-adv-x="571" 
d="M531 688h-502l22 -151h263l-237 -470l134 -71z" />
    <glyph glyph-name="eight" unicode="8" horiz-adv-x="639" 
d="M598 220q0 24 -9 33l-116 90l-39 32l20 16l107 84q9 6 9 30q0 21 -9 29l-105 82l-104 83q-10 10 -37 10q-29 0 -37 -10l-105 -85l-107 -84q-11 -6 -11 -29q0 -22 11 -30l105 -82l22 -18l-35 -30l-119 -93q-12 -8 -12 -33q0 -24 12 -33q13 -7 116 -90l114 -91q11 -8 41 -8
q31 0 41 8l119 93l119 93q9 8 9 33zM417 497q0 -10 -4 -11l-44 -34l-42 -35q-3 -4 -15 -4t-16 4l-43 33l-41 34q-5 3 -5 11q0 7 5 12l44 35l44 36l15 2l14 -2l42 -34l42 -33q4 -4 4 -14zM429 223q0 -11 -5 -13l-49 -37l-46 -39q-2 -3 -16 -3q-15 0 -19 3l-46 38l-46 36
q-5 4 -5 13q0 10 5 13l48 40l49 38q3 4 16 4q12 0 16 -4l47 -37l46 -37q5 -5 5 -15z" />
    <glyph glyph-name="nine" unicode="9" horiz-adv-x="576" 
d="M549 530q-7 29 -21 35l-134 75l-131 76q-5 3 -14 3q-13 0 -26 -4q-29 -8 -35 -19l-80 -135l-79 -135q-3 -5 -3 -14q0 -12 5.5 -33t17.5 -28l133 -75q26 -14 46 -26q11 -7 22 -13l-85 -152q28 -31 42 -46q22 -22 45 -43q1 3 47 78q70 116 93 153q49 81 76 128l80 135
q5 7 5 17q0 5 -4 23zM399 474l-34 -59l-34 -59q-2 -5 -14 -8q-11 -3 -17 0l-56 32l-56 32q-5 5 -9 17q-3 13 0 17q2 2 35 56l32 58q0 4 14 9q13 3 19 0l56 -32l56 -32q6 -6 8 -15q3 -11 0 -16z" />
    <glyph glyph-name="colon" unicode=":" horiz-adv-x="287" 
d="M222 385l-69 -69q-7 -7 -17 -7t-17 7l-67 67q-6 6 -6 16q0 9 6 17l70 70q8 6 17 6q10 0 16 -6l67 -66q7 -8 7 -18t-7 -17zM234 133l-69 -69q-7 -7 -17 -7t-17 7l-67 67q-6 6 -6 16q0 9 6 17l70 70q8 6 17 6q10 0 16 -6l67 -66q7 -8 7 -18t-7 -17z" />
    <glyph glyph-name="semicolon" unicode=";" 
d="M229 81l-76 -75q-19 -20 -83 -68q-16 -8 -32 -17l48 116l-44 42q-7 7 -7 18q0 12 7 19l76 77q8 7 19 7t18 -7l74 -73q8 -8 8 -20q0 -11 -8 -19zM222 385l-69 -69q-7 -7 -17 -7t-17 7l-67 67q-6 6 -6 16q0 9 6 17l70 70q8 6 17 6q10 0 16 -6l67 -66q7 -8 7 -18t-7 -17z
" />
    <glyph glyph-name="less" unicode="&#x3c;" horiz-adv-x="520" 
d="M475 592q-93 -55 -170 -103q-134 -83 -134 -92q0 -2 61 -60q70 -66 119 -112q63 -59 84 -77q-43 -36 -85 -71q-8 6 -89 80q-29 27 -142 131q-38 34 -75 69q-12 16 -14.5 26t-2.5 12q0 4 3 21t39 47q12 9 36 25q36 23 73 47q86 55 133 84q76 46 89 50z" />
    <glyph glyph-name="equal" unicode="=" horiz-adv-x="408" 
d="M328 299h-278l18 -106h279zM328 443h-278l18 -106h279z" />
    <glyph glyph-name="greater" unicode="&#x3e;" horiz-adv-x="495" 
d="M474 385q-3 -12 -15 -28l-74 -68l-142 -132q-77 -70 -90 -80q-12 8 -41 33l-44 38q35 31 144 133q120 113 120 116q0 8 -133 91q-90 56 -171 104l75 77q14 -4 88 -49q47 -29 133 -84l74 -48q23 -15 35 -24q37 -30 40 -48.5t3 -22.5q0 -2 -2 -8z" />
    <glyph glyph-name="question" unicode="?" horiz-adv-x="406" 
d="M184 190l159 182q10 12 14 21q15 29 15 57q0 27 -14 54l-277 165l-66 -127l187 -98q15 -5 20 -10.5t5 -13.5q0 -7 -5 -14q-1 -2 -6 -6l-159 -189zM171 54l-62 -62q-6 -6 -15 -6q-7 0 -15 6l-61 60q-5 7 -5 15t5 15l63 63q8 5 15 5q8 0 15 -5l60 -60q6 -8 6 -15
q0 -8 -6 -16z" />
    <glyph glyph-name="A" unicode="A" horiz-adv-x="665" 
d="M163 6l29 86l22.5 65t15.5 13h201q9 0 17 -25q14 -44 20 -55.5t24 -63.5q2 -7 7 -20q10 0 50 16q7 2 19 9q22 12 50 21q13 4 11 10l-217 568q-15 40 -17 46q-12 30 -19 30l-95 -26q-25 -8 -50 -15q-3 -1 -17 -43l-190 -560q0 -7 58 -28q21 -7 81 -28zM324 466
q19 -46 41 -102q15 -37 19 -48v-4h-115z" />
    <glyph glyph-name="B" unicode="B" horiz-adv-x="476" 
d="M251 483q0 -5 -42 -46q-14 -13 -42 -41v189q28 -33 42 -49q42 -50 42 -53zM267 257q0 -15 -49 -66q-16 -17 -50 -49v202v26q33 -30 49 -46q50 -50 50 -67zM265 703q-3 0 -20 7t-19 7h-28q-42 -10 -67 -16q-61 -15 -120 -31v-614q0 -12 100 -34q33 -7 101 -20q5 -1 12.5 0
t14.5 11l95 98q47 49 63 66q41 43 41 65q0 16 -49 84t-49 69q0 3 44.5 46.5t44.5 66.5q0 15 -16 31q-2 3 -9 7q-13 14 -87 101q-48 56 -52 56z" />
    <glyph glyph-name="C" unicode="C" horiz-adv-x="573" 
d="M547 632l-145 106q-9 0 -83 -57q-47 -36 -138 -109q-39 -31 -77 -62q-23 -19 -35 -31q-37 -38 -39.5 -56t-2.5 -29q0 -7 2 -15t6 -15.5t9 -13.5q39 -46 79 -91q107 -123 147 -169q80 -91 82 -91l63 51q64 52 68 57q-35 39 -69 78q-59 66 -117 132q-62 71 -62 75
q0 8 80 70q49 37 150 111q81 59 82 59z" />
    <glyph glyph-name="D" unicode="D" horiz-adv-x="612" 
d="M574 358q6 6 6 14q0 6 -6 12l-321 321q-6 4 -13 5h-6q-12 0 -108 -17q-32 -5 -96 -18v-632q0 -6 83 -19.5t96 -13.5q32 0 64 27q10 9 26 28q22 18 103 104q91 96 172 189zM379 361q-3 -2 -96 -87.5t-94 -85.5l4 357l186 -164v-20z" />
    <glyph glyph-name="E" unicode="E" horiz-adv-x="467" 
d="M441 626q0 6 -47 61q-15 18 -48 55q-7 0 -120 -65l-200 -116q-4 -3 -4 -8t4 -9l91 -104q43 -50 43 -54q0 -6 -44 -47.5t-90 -81.5q-5 -5 -5 -12q0 -6 5 -11l284 -231l112 90q0 4 -13 13q-4 3 -15 9.5t-76 62.5q-74 63 -74 76q0 11 35 45q54 53 71 73q4 6 4 8q0 4 -4 8
q-18 21 -86 94q-20 22 -20 23q0 7 98 64q32 19 99 57z" />
    <glyph glyph-name="F" unicode="F" horiz-adv-x="433" 
d="M36 711v-714q41 7 91 20.5t64 23.5v257l4 5h190v145h-180q-14 0 -14 12v80q0 14 7 14h190q10 0 10 7t-18 77q-10 37 -19 74h-97.5t-124.5 1h-61t-42 -2z" />
    <glyph glyph-name="G" unicode="G" horiz-adv-x="558" 
d="M519 70v215.5v115.5h-146v-205q0 -7 -14 -7q-8 0 -74 72t-66 79q0 8 63 80q50 57 117 130q32 34 64 69q-6 1 -41 29q-39 31 -77 63l-102 -108q-92 -97 -144 -158q-74 -86 -74 -105q0 -24 80 -111q62 -67 148 -150q79 -76 81 -76q45 0 109 19q76 22 76 48z" />
    <glyph glyph-name="H" unicode="H" horiz-adv-x="527" 
d="M485 26v715l-145 -46v-222h-164v258l-149 -26v-698l143 29v309h159v-341l3 -4z" />
    <glyph glyph-name="I" unicode="I" horiz-adv-x="237" 
d="M176 28v695l-143 -26v-698z" />
    <glyph glyph-name="J" unicode="J" horiz-adv-x="463" 
d="M421 149v574l-151 -35l-1 -430v-12q-3 -27 -28 -32l-234 -80l89 -139l267 92q30 8 47 36q5 9 11 26z" />
    <glyph glyph-name="K" unicode="K" horiz-adv-x="648" 
d="M626 73l-259 309l211 285l-140 72l-240 -322v306l-172 -30v-701l172 49v276l285 -315z" />
    <glyph glyph-name="L" unicode="L" horiz-adv-x="471" 
d="M448 150h-269v549l-156 -33v-669h370z" />
    <glyph glyph-name="M" unicode="M" horiz-adv-x="677" 
d="M625 705l-166 -30l-126 -230l-124 260l-185 -20v-682l159 13v383l134 -311l152 285v-379l156 22v689z" />
    <glyph glyph-name="N" unicode="N" horiz-adv-x="603" 
d="M548 703l-139 -26v-344l-234 363l-156 -29v-666l157 27l-1 363l250 -390l123 23v679z" />
    <glyph glyph-name="O" unicode="O" horiz-adv-x="741" 
d="M689 296q27 27 27 64q0 38 -27 65l-259 259q-26 26 -64 26q-36 0 -64 -26l-267 -267q-26 -28 -26 -64q0 -38 26 -64l259 -259q27 -27 65 -27q37 0 64 27zM501 331l-113 -113q-10 -11 -27 -11t-28 11l-110 110q-11 11 -11 27q0 15 11 28l114 113q13 11 27 11q16 0 27 -11
l110 -110q11 -11 11 -28t-11 -27z" />
    <glyph glyph-name="P" unicode="P" horiz-adv-x="541" 
d="M497 437q0 19 -46 63q-37 35 -112 96q-68 54 -136 109q-6 5 -14 5q-3 0 -7 -1q-9 -3 -14 -4q-43 -11 -76 -23.5t-42 -20.5l2 -656q48 8 71 12q71 12 71 15v114q0 3 79 75q108 98 145 133q79 74 79 83zM299 439q0 -11 -45 -49q-15 -12 -45 -37h-11v176h9q10 0 51 -38
t41 -52z" />
    <glyph glyph-name="Q" unicode="Q" horiz-adv-x="732" 
d="M501 327l-113 -113q-10 -11 -27 -11t-28 11l-110 110q-11 11 -11 27q0 15 11 28l114 113q13 11 27 11q16 0 27 -11l110 -110q11 -11 11 -28t-11 -27zM458 61l103 -91l101 107l-97 91l124 124q27 27 27 64q0 38 -27 65l-259 259q-26 26 -64 26q-36 0 -64 -26l-267 -267
q-26 -28 -26 -64q0 -38 26 -64l259 -259q27 -27 65 -27q37 0 64 27z" />
    <glyph glyph-name="R" unicode="R" horiz-adv-x="596" 
d="M560 91l14 9q-46 53 -114 136q-77 95 -77 100q0 12 42 61q31 36 53 70q3 5 3 8q0 4 -3 9q-48 60 -156 176q-38 41 -38 45q-9 6 -20.5 11t-25.5 5q-5 0 -19 -2q-2 -2 -96 -23q-31 -7 -94 -21v-670l78 14q77 19 86 24v246l12 -8q9 -9 68 -79q51 -62 103.5 -124.5
t57.5 -62.5t39 21q43 27 87 55zM305 471q0 -19 -53 -59q-44 -33 -58 -39v198q37 -28 55 -42q56 -45 56 -58z" />
    <glyph glyph-name="S" unicode="S" horiz-adv-x="492" 
d="M479 643l-104 123l-300 -222q-10 -7 -15 -12q-15 -16 -15 -34q0 -17 15 -35l167 -156q9 -9 9 -19q0 -7 -7 -13q-2 -2 -7 -5l-212 -153l118 -123l312 238q14 12 20.5 23.5t6.5 22.5q0 12 -7 23q-2 3 -7 9l-174 164q-8 5 -8 13q0 7 9 15l9 6z" />
    <glyph glyph-name="T" unicode="T" horiz-adv-x="664" 
d="M636 700h-565l-69 -137l238 1v-568l161 38l-2 527h165z" />
    <glyph glyph-name="U" unicode="U" horiz-adv-x="611" 
d="M566 708l-163 -32l1 -556l-178 69q-11 5 -15 9q-15 13 -11 31v479l-177 -39l1 -480q0 -55 31 -85q10 -10 31 -19l201 -81l117 84v-88l163 30z" />
    <glyph glyph-name="V" unicode="V" horiz-adv-x="712" 
d="M694 653l-143 59l-175 -455l-195 451l-156 -32l282 -679l138 51z" />
    <glyph glyph-name="W" unicode="W" horiz-adv-x="947" 
d="M878 627l-141 77l-131 -365l-167 317l-118 -298l-141 346l-163 -36l253 -656q8 -9 17 -9q7 0 13 4q2 1 5 5l141 279l153 -279q7 -8 16 -8q5 0 11 4q2 1 5 4z" />
    <glyph glyph-name="X" unicode="X" horiz-adv-x="644" 
d="M321 253l167 -257l133 54l-215 333l180 277l-128 67l-137 -212l-138 213l-128 -66l181 -279l-216 -334l133 -54z" />
    <glyph glyph-name="Y" unicode="Y" horiz-adv-x="676" 
d="M655 671l-141 57l-166 -246l-179 246l-151 -64l247 -345l-2 -320l155 38v285z" />
    <glyph glyph-name="Z" unicode="Z" horiz-adv-x="622" 
d="M600 684h-493l-52 -160h270l-302 -525l497 1l54 156l-259 1z" />
    <glyph glyph-name="asciicircum" unicode="^" horiz-adv-x="511" 
d="M417 349q-20 34 -83 124q-66 95 -73 95q-3 0 -92 -95q-80 -85 -107 -116q-20 22 -36.5 42t-20.5 26q7 10 63 71q40 43 105 114l56 60q14 9 22 12q6 2 19 0q20 -3 44 -32q8 -9 20 -29q37 -50 71 -99q69 -98 73 -113z" />
    <glyph glyph-name="underscore" unicode="_" horiz-adv-x="642" 
d="M0 -40h642v-87h-642v87z" />
    <glyph glyph-name="a" unicode="a" horiz-adv-x="619" 
d="M147 5l26 69q17 41 21 51.5t13 10.5h181q8 0 15 -20q13 -35 17.5 -44t21.5 -51q2 -6 7 -16q9 0 45 13q6 2 17 7q18 8 45 17q12 4 10 8l-195 454q-13 32 -20.5 46.5t-12.5 14.5l-85 -21q-23 -6 -45 -12q-3 -1 -15 -34l-171 -448q0 -5 34 -17q22 -7 91 -28zM292 373
l54 -120l-104 -3z" />
    <glyph glyph-name="b" unicode="b" horiz-adv-x="436" 
d="M226 386q0 -3 -38 -36q-12 -11 -38 -33v151q26 -26 38 -39q38 -40 38 -43zM240 206q0 -12 -44 -53q-14 -13 -45 -39v161v21q30 -24 44 -37q45 -40 45 -53zM238 562q-2 0 -17 6t-18 6h-25l-168 -38v-491q0 -9 90 -27q30 -5 91 -16h10q8 1 14 8l86 79q28 26 57 52
q36 34 36 53q0 10 -29 47t-59 75q0 2 40 37t40 53q0 12 -15 26q-2 2 -7 5q-10 10 -59 61q-61 64 -67 64z" />
    <glyph glyph-name="c" unicode="c" horiz-adv-x="539" 
d="M492 506l-130 84q-7 0 -75 -46q-40 -27 -123 -86l-70 -50q-21 -15 -32 -24q-33 -29 -37 -54q-2 -16 0 -24q4 -13 15 -26q1 0 71 -72l132 -136q72 -73 74 -73l118 87q-78 77 -155 155q-69 70 -69 73q0 7 72 56q27 18 136 89q36 23 73 47z" />
    <glyph glyph-name="d" unicode="d" horiz-adv-x="571" 
d="M517 286q5 7 5 12t-5 9l-289 257q-5 3 -12 4h-5q-9 0 -97 -14q-29 -4 -87 -14v-506q0 -5 74 -15.5t87 -10.5q29 0 58 22q9 7 23 22q20 15 93 83q68 64 155 151zM341 289l-171 -139l4 286l167 -131v-16z" />
    <glyph glyph-name="e" unicode="e" horiz-adv-x="428" 
d="M397 501q0 4 -43 49q-14 14 -43 44q-7 0 -108 -52q-90 -47 -180 -93q-3 -2 -3 -6q0 -5 3 -8q54 -54 82 -83q39 -40 39 -43q0 -5 -40 -39q-34 -29 -81 -64q-4 -4 -4 -10t4 -9l256 -185l101 72q0 4 -16 13q-2 1 -11 6t-67 49q-66 51 -66 61q0 9 31 36q48 43 64 59q6 6 0 12
q-37 38 -65 65q-12 11 -30 29q0 6 88 52q29 15 89 45z" />
    <glyph glyph-name="f" unicode="f" horiz-adv-x="396" 
d="M32 569v-571q9 0 67 13t73 22v205l3 4h171v116h-162q-12 0 -12 10v64q0 11 6 11h171q9 0 9 6q0 4 -11 42t-22 79z" />
    <glyph glyph-name="g" unicode="g" horiz-adv-x="519" 
d="M467 56v172.5v92.5h-131v-164q0 -6 -13 -6q-7 0 -66.5 57.5t-59.5 63.5t57 64t105 104q57 55 58 55q-5 1 -38.5 25t-68.5 49q-3 -3 -91 -86q-80 -75 -130 -127q-67 -69 -67 -84q0 -19 72 -89q50 -49 134 -120q72 -61 73 -61q41 0 98 15q68 18 68 39z" />
    <glyph glyph-name="h" unicode="h" horiz-adv-x="475" 
d="M436 21v572l-130 -37v-178h-148v207l-134 -21v-558l129 23v247h143v-273l3 -3z" />
    <glyph glyph-name="i" unicode="i" horiz-adv-x="209" 
d="M158 22v556l-128 -20v-559z" />
    <glyph glyph-name="j" unicode="j" horiz-adv-x="418" 
d="M379 119v459l-136 -28l-1 -344q0 -10 -1 -15q-5 -17 -24 -20l-211 -64l80 -111q52 16 83 25q99 30 158 49q27 6 42 28q5 7 10 21z" />
    <glyph glyph-name="k" unicode="k" horiz-adv-x="588" 
d="M563 58l-233 248l190 228l-126 57l-216 -257v244l-155 -24v-560l155 39v221l257 -252z" />
    <glyph glyph-name="l" unicode="l" horiz-adv-x="425" 
d="M403 120h-242v439l-140 -26v-535h333z" />
    <glyph glyph-name="m" unicode="m" horiz-adv-x="611" 
d="M562 564l-149 -24l-113 -184l-112 208l-166 -16v-546l143 11v306l120 -249l137 228v-303l140 18v551z" />
    <glyph glyph-name="n" unicode="n" horiz-adv-x="539" 
d="M493 562l-125 -20v-276l-211 291l-140 -23v-533l141 21l-1 291l225 -312l111 18v543z" />
    <glyph glyph-name="o" unicode="o" horiz-adv-x="669" 
d="M620 237q24 21 24 51q0 29 -24 52l-233 207q-24 21 -58 21q-33 0 -57 -21l-241 -213q-11 -10 -17 -23.5t-6 -28.5q0 -30 23 -51l234 -207q23 -22 58 -22t58 22zM451 265l-102 -91q-9 -9 -24 -9q-14 0 -25 9l-99 88q-10 9 -10 22t10 22l102 91q11 9 25 9q13 0 24 -9
l99 -88q10 -9 10 -22t-10 -22z" />
    <glyph glyph-name="p" unicode="p" horiz-adv-x="478" 
d="M447 350q0 14 -42 50q-38 32 -99.5 76t-122.5 88q-5 4 -13 4q-3 0 -8 -1q-2 0 -11 -3q-39 -9 -68 -19t-38 -16l2 -525q43 6 64 9q64 10 64 13v91q0 3 70 60q100 81 131 107q71 59 71 66zM269 351q0 -8 -40 -39q-13 -10 -41 -30h-10v141h8q8 0 45.5 -30.5t37.5 -41.5z" />
    <glyph glyph-name="q" unicode="q" horiz-adv-x="670" 
d="M451 262l-102 -91q-9 -9 -24 -9q-14 0 -25 9l-99 88q-10 9 -10 22t10 22l102 91q11 9 25 9q13 0 24 -9l99 -88q10 -9 10 -22t-10 -22zM412 49l93 -73l91 86l-88 72l112 100q24 21 24 51q0 29 -24 52l-233 207q-24 21 -58 21q-33 0 -57 -21l-241 -214q-23 -21 -23 -51
t23 -51l234 -207q23 -22 58 -22t58 22z" />
    <glyph glyph-name="r" unicode="r" horiz-adv-x="536" 
d="M504 73l13 7q-48 49 -103 109q-69 75 -69 80q0 9 14 24q55 59 71 81q6 6 0 13q-41 46 -140 141q-34 33 -34 36q-2 0 -14 6.5t-28 6.5q-3 0 -17 -2l-171 -35v-536q35 5 70 11q68 15 78 19v197l10 -6q8 -7 61 -63q46 -50 94 -100t52 -50q6 0 54 27q29 17 59 34zM274 377
q0 -11 -30 -34q-40 -30 -69 -45v159q33 -22 49 -33q50 -36 50 -47z" />
    <glyph glyph-name="s" unicode="s" horiz-adv-x="443" 
d="M431 514l-94 99l-270 -178q-9 -6 -13 -10q-14 -13 -14 -27t14 -28l150 -124q8 -8 8 -16q0 -6 -8 -12q-1 -1 -4 -2l-191 -122l106 -99l281 191q14 9 19.5 18t5.5 18q0 10 -6 19q-2 3 -7 7l-157 131q-7 4 -7 10t8 12q2 2 8 5z" />
    <glyph glyph-name="t" unicode="t" horiz-adv-x="598" 
d="M572 560h-508l-62 -110l214 1v-454l145 30l-2 422h149z" />
    <glyph glyph-name="u" unicode="u" horiz-adv-x="557" 
d="M509 566l-146 -25l1 -445l-161 55q-9 4 -13 7q-13 10 -10 25v383l-159 -31l1 -384q0 -44 27 -68q9 -8 28 -15l181 -65l106 67v-70l146 24z" />
    <glyph glyph-name="v" unicode="v" horiz-adv-x="641" 
d="M625 522l-129 48l-158 -364l-175 360l-141 -25l254 -543l124 40z" />
    <glyph glyph-name="w" unicode="w" horiz-adv-x="806" 
d="M790 502l-127 61l-118 -292l-150 254l-106 -239l-127 277l-147 -29l228 -524q7 -8 15 -8q5 0 11 4q2 1 5 4l127 223l138 -223q6 -7 14 -7q6 0 13 5q1 0 2 2z" />
    <glyph glyph-name="x" unicode="x" horiz-adv-x="580" 
d="M289 202l150 -205l120 43l-194 266l162 222l-115 54l-123 -170l-124 170l-116 -52l163 -224l-194 -267l120 -43z" />
    <glyph glyph-name="y" unicode="y" horiz-adv-x="608" 
d="M589 537l-126 45l-150 -196l-161 196l-136 -51l222 -276l-1 -256l139 31v228z" />
    <glyph glyph-name="z" unicode="z" horiz-adv-x="560" 
d="M540 547h-444l-47 -128h243l-271 -420l447 1l49 125l-234 1z" />
    <glyph glyph-name="bullet" unicode="&#x2022;" 
d="M241 363l-84 -84q-9 -9 -21 -9t-21 9l-82 82q-8 8 -8 20q0 11 8 21l85 85q10 8 21 8q12 0 20 -8l82 -81q9 -11 9 -22q0 -12 -9 -21z" />
  </font>
</defs>
</svg>
