<?xml version="1.0" encoding="utf-8"?>
<!-- Generator: Adobe Illustrator 24.2.1, SVG Export Plug-In . SVG Version: 6.00 Build 0)  -->
<svg version="1.1" id="Layer_1" xmlns="http://www.w3.org/2000/svg" xmlns:xlink="http://www.w3.org/1999/xlink" x="0px" y="0px"
	 viewBox="0 0 1634 1621.4" style="enable-background:new 0 0 1634 1621.4;" xml:space="preserve">
<style type="text/css">
	.st0{fill:#FFFFFF;}
</style>
<g>
	<path class="st0" d="M1348.7,279c-65.3,0-162.6-0.2-163.1-0.2c-10.7-0.1-38.9,1.6-63.7-10.7c-20.5-11.3-33.7-27-39.2-50.8
		c-5.8-27.5,9.8-52.7,14.4-57c2.6,2.1,4.8,4.5,6.8,7.1c-1.7,3.4-4.3,6.2-5.8,9.6c-2.5,5.5-4.7,11.3-5.7,17.3
		c-2,18.4,2.8,34.2,11.8,45c3.9,4.5,7.8,9.1,12.7,12.6c12.9,9.4,28.9,13.8,44.7,14.6c9.8,0.1,122.8,0.6,198.9,0.6
		c0,76,0.4,189.1,0.6,198.9c0.9,15.8,5.3,31.8,14.6,44.7c3.4,4.9,8,8.9,12.6,12.7c10.8,9,26.7,13.9,45,11.8c6-1,11.8-3.2,17.3-5.7
		c3.4-1.6,6.2-4.2,9.6-5.8c2.6,2,5.1,4.2,7.1,6.8c-4.3,4.6-29.5,20.2-57,14.4c-23.8-5.5-39.5-18.7-50.8-39.2
		c-12.3-24.8-10.6-53-10.7-63.7C1348.9,441.6,1348.7,344.4,1348.7,279z"/>
	<path class="st0" d="M1568.9,810.7c-46.2-46.2-114.8-115.1-115.2-115.5c-7.5-7.6-28.6-26.4-37.5-52.6c-6.6-22.5-4.7-42.9,8.2-63.6
		c15.3-23.5,44.2-30.4,50.5-30.1c0.4,3.3,0.2,6.6-0.2,9.8c-3.6,1.2-7.4,1.3-10.9,2.7c-5.7,2.1-11.3,4.6-16.3,8.2
		c-14.4,11.5-22.3,26.2-23.5,40.2c-0.5,5.9-0.9,12,0.1,17.9c2.5,15.8,10.7,30.2,21.3,42c6.8,7,86.4,87.3,140.2,141
		c-53.8,53.8-133.4,134-140.2,141c-10.6,11.8-18.7,26.2-21.3,42c-1,5.9-0.6,11.9-0.1,17.9c1.2,14,9.1,28.7,23.5,40.2
		c5,3.6,10.6,6.1,16.3,8.2c3.5,1.3,7.3,1.5,10.9,2.7c0.4,3.3,0.6,6.6,0.2,9.8c-6.3,0.2-35.2-6.6-50.5-30.1
		c-12.9-20.7-14.7-41.1-8.2-63.6c8.8-26.2,30-45,37.5-52.6C1454.1,925.8,1522.7,856.9,1568.9,810.7z"/>
	<path class="st0" d="M1348.7,1342.4c0-65.3,0.2-162.6,0.2-163.1c0.1-10.7-1.6-38.9,10.7-63.7c11.3-20.5,27-33.7,50.8-39.2
		c27.5-5.8,52.7,9.8,57,14.4c-2.1,2.6-4.5,4.8-7.1,6.8c-3.4-1.7-6.2-4.3-9.6-5.8c-5.5-2.5-11.3-4.7-17.3-5.7
		c-18.4-2-34.2,2.8-45,11.8c-4.5,3.9-9.1,7.8-12.6,12.7c-9.4,12.9-13.8,28.9-14.6,44.7c-0.2,9.8-0.6,122.8-0.6,198.9
		c-76,0-189.1,0.4-198.9,0.6c-15.8,0.9-31.8,5.3-44.7,14.6c-4.9,3.4-8.9,8-12.7,12.6c-9,10.8-13.9,26.7-11.8,45
		c1,6,3.2,11.8,5.7,17.3c1.6,3.4,4.2,6.2,5.8,9.6c-2,2.6-4.2,5.1-6.8,7.1c-4.6-4.3-20.2-29.5-14.4-57c5.6-23.8,18.7-39.5,39.2-50.8
		c24.8-12.3,53-10.6,63.7-10.7C1186.1,1342.6,1283.3,1342.4,1348.7,1342.4z"/>
	<path class="st0" d="M817,1562.6c46.2-46.2,115.1-114.8,115.5-115.2c7.6-7.5,26.4-28.6,52.6-37.5c22.5-6.6,42.9-4.7,63.6,8.2
		c23.5,15.3,30.4,44.2,30.1,50.5c-3.3,0.4-6.6,0.2-9.8-0.2c-1.2-3.6-1.3-7.4-2.7-10.9c-2.1-5.7-4.6-11.3-8.2-16.3
		c-11.5-14.4-26.2-22.3-40.2-23.5c-5.9-0.5-12-0.9-17.9,0.1c-15.8,2.5-30.2,10.7-42,21.3c-7,6.8-87.3,86.4-141,140.2
		c-53.8-53.8-134-133.4-141-140.2c-11.8-10.6-26.2-18.7-42-21.3c-5.9-1-11.9-0.6-17.9-0.1c-14,1.2-28.7,9.1-40.2,23.5
		c-3.6,5-6.1,10.6-8.2,16.3c-1.3,3.5-1.5,7.3-2.7,10.9c-3.3,0.4-6.6,0.6-9.8,0.2c-0.2-6.3,6.6-35.2,30.1-50.5
		c20.7-12.9,41.1-14.7,63.6-8.2c26.2,8.8,45,30,52.6,37.5C701.9,1447.8,770.8,1516.4,817,1562.6z"/>
	<path class="st0" d="M285.3,1342.4c65.3,0,162.6,0.2,163.1,0.2c10.7,0.1,38.9-1.6,63.7,10.7c20.5,11.3,33.7,27,39.2,50.8
		c5.8,27.5-9.8,52.7-14.4,57c-2.6-2.1-4.8-4.5-6.8-7.1c1.7-3.4,4.3-6.2,5.8-9.6c2.5-5.5,4.7-11.3,5.7-17.3c2-18.4-2.8-34.2-11.8-45
		c-3.9-4.5-7.8-9.1-12.7-12.6c-12.9-9.4-28.9-13.8-44.7-14.6c-9.8-0.2-122.8-0.6-198.9-0.6c0-76-0.4-189.1-0.6-198.9
		c-0.9-15.8-5.3-31.8-14.6-44.7c-3.4-4.9-8-8.9-12.6-12.7c-10.8-9-26.7-13.9-45-11.8c-6,1-11.8,3.2-17.3,5.7
		c-3.4,1.6-6.2,4.2-9.6,5.8c-2.6-2-5.1-4.2-7.1-6.8c4.3-4.6,29.5-20.2,57-14.4c23.8,5.6,39.5,18.7,50.8,39.2
		c12.3,24.8,10.6,53,10.7,63.7C285.1,1179.8,285.3,1277,285.3,1342.4z"/>
	<path class="st0" d="M65.1,810.7c46.2,46.2,114.8,115.1,115.2,115.5c7.5,7.6,28.6,26.4,37.5,52.6c6.6,22.5,4.7,42.9-8.2,63.6
		c-15.3,23.5-44.2,30.4-50.5,30.1c-0.4-3.3-0.2-6.6,0.2-9.8c3.6-1.2,7.4-1.3,10.9-2.7c5.7-2.1,11.3-4.6,16.3-8.2
		c14.4-11.5,22.3-26.2,23.5-40.2c0.5-5.9,0.9-12-0.1-17.9c-2.5-15.8-10.7-30.2-21.3-42c-6.8-7-86.4-87.3-140.2-141
		c53.8-53.8,133.4-134,140.2-141c10.6-11.8,18.7-26.2,21.3-42c1-5.9,0.6-11.9,0.1-17.9c-1.2-14-9.1-28.7-23.5-40.2
		c-5-3.6-10.6-6.1-16.3-8.2c-3.5-1.3-7.4-1.5-10.9-2.7c-0.4-3.3-0.6-6.6-0.2-9.8c6.3-0.2,35.2,6.6,50.5,30.1
		c12.9,20.7,14.7,41.1,8.2,63.6c-8.8,26.2-30,45-37.5,52.6C179.9,695.6,111.3,764.5,65.1,810.7z"/>
	<path class="st0" d="M285.3,279c0,65.3-0.2,162.6-0.2,163.1c-0.1,10.7,1.6,38.9-10.7,63.7c-11.3,20.5-27,33.7-50.8,39.2
		c-27.5,5.8-52.7-9.8-57-14.4c2.1-2.6,4.5-4.8,7.1-6.8c3.4,1.7,6.2,4.3,9.6,5.8c5.5,2.5,11.3,4.7,17.3,5.7c18.4,2,34.2-2.8,45-11.8
		c4.5-3.9,9.1-7.8,12.6-12.7c9.4-12.9,13.8-28.9,14.6-44.7c0.1-9.8,0.6-122.8,0.6-198.9c76,0,189.1-0.4,198.9-0.6
		c15.8-0.9,31.8-5.3,44.7-14.6c4.9-3.4,8.9-8,12.7-12.6c9-10.8,13.9-26.7,11.8-45c-1-6-3.2-11.8-5.7-17.3c-1.6-3.4-4.2-6.2-5.8-9.6
		c2-2.6,4.2-5.1,6.8-7.1c4.6,4.3,20.2,29.5,14.4,57c-5.5,23.8-18.7,39.5-39.2,50.8c-24.8,12.3-53,10.6-63.7,10.7
		C447.9,278.8,350.7,279.1,285.3,279z"/>
	<path class="st0" d="M817,58.8C770.8,105,701.9,173.6,701.5,174c-7.6,7.5-26.4,28.6-52.6,37.5c-22.5,6.6-42.9,4.7-63.6-8.2
		c-23.5-15.3-30.4-44.2-30.1-50.5c3.3-0.4,6.6-0.2,9.8,0.2c1.2,3.6,1.3,7.4,2.7,10.9c2.1,5.7,4.6,11.3,8.2,16.3
		c11.5,14.4,26.2,22.3,40.2,23.5c5.9,0.5,12,0.9,17.9-0.1c15.8-2.5,30.2-10.7,42-21.3c7-6.8,87.3-86.4,141-140.2
		c53.8,53.8,134,133.4,141,140.2c11.8,10.6,26.2,18.7,42,21.3c5.9,1,11.9,0.6,17.9,0.1c14-1.2,28.7-9.1,40.2-23.5
		c3.6-5,6.1-10.6,8.2-16.3c1.3-3.5,1.5-7.4,2.7-10.9c3.3-0.4,6.6-0.6,9.8-0.2c0.2,6.3-6.6,35.2-30.1,50.5
		c-20.7,12.9-41.1,14.7-63.6,8.2c-26.2-8.8-45-30-52.6-37.5C932.1,173.6,863.2,105,817,58.8z"/>
	<path class="st0" d="M1359.2,238.1c2.7-5.1,4-12.1-0.2-16.7c-2.7,3.8-7.9,13.9-28,9.4c-10.9-3.5-21.1-8.8-30.7-14.9
		c-11.9-7.1-54.8-38.8-54.8-38.8c-1.6-0.9-2.8,1-3.9,1.9c5,5.1,10.8,9.4,16.1,14.3c49.1,42.5,54.7,46.2,66.1,52
		c7,3,14.9,5.2,22.5,3.1C1351.5,246.5,1356.9,243.4,1359.2,238.1z"/>
	<path class="st0" d="M795.5,22.4c-1.7-5.5-5.7-11.4-12-11.7c0.8,4.6,4.2,15.4-13.2,26.5c-10.2,5.2-21.1,8.7-32.2,11.1
		c-13.5,3.4-66.2,11.4-66.2,11.4c-1.8,0.5-1.3,2.7-1.4,4.1c7.2,0.1,14.3-0.9,21.5-1.2c64.7-4.6,71.3-6,83.5-10
		c7.1-2.8,14.2-6.9,18.1-13.7C796,33.8,797.6,27.8,795.5,22.4z"/>
	<path class="st0" d="M244.4,268.5c-5.1-2.7-12.1-4-16.7,0.2c3.8,2.7,13.9,7.9,9.4,28c-3.5,10.9-8.8,21.1-14.9,30.7
		c-7.1,11.9-38.8,54.8-38.8,54.8c-0.9,1.6,1,2.8,1.9,3.9c5.1-5,9.4-10.8,14.3-16.1c42.5-49.1,46.2-54.7,52-66.1
		c3-7,5.2-14.9,3.1-22.5C252.8,276.2,249.7,270.8,244.4,268.5z"/>
	<path class="st0" d="M28.7,832.2c-5.5,1.7-11.4,5.7-11.7,12c4.6-0.8,15.4-4.2,26.5,13.2c5.2,10.2,8.7,21.1,11.1,32.2
		C58.1,903,66,955.8,66,955.8c0.5,1.8,2.7,1.3,4.1,1.4c0.1-7.2-0.9-14.3-1.2-21.5c-4.6-64.7-6-71.3-10-83.5
		C56,845.1,52,837.9,45.2,834C40.1,831.7,34.1,830.1,28.7,832.2z"/>
	<path class="st0" d="M274.8,1383.3c-2.7,5.1-4,12.1,0.2,16.7c2.7-3.8,7.9-13.9,28-9.4c10.9,3.5,21.1,8.8,30.7,14.9
		c11.9,7.1,54.8,38.8,54.8,38.8c1.6,0.9,2.8-1,3.9-1.9c-5-5.1-10.8-9.4-16.1-14.3c-49.1-42.5-54.7-46.2-66.1-52
		c-7-3-14.9-5.2-22.5-3.1C282.5,1374.9,277.1,1378,274.8,1383.3z"/>
	<path class="st0" d="M838.5,1599c1.7,5.5,5.7,11.4,12,11.7c-0.8-4.6-4.2-15.4,13.2-26.5c10.2-5.2,21.1-8.7,32.2-11.1
		c13.5-3.4,66.2-11.4,66.2-11.4c1.8-0.5,1.3-2.7,1.4-4.1c-7.2-0.1-14.3,0.9-21.5,1.2c-64.7,4.6-71.3,6-83.5,10
		c-7.1,2.8-14.2,6.9-18.1,13.7C838,1587.6,836.4,1593.6,838.5,1599z"/>
	<path class="st0" d="M1389.6,1352.9c5.1,2.7,12.1,4,16.7-0.2c-3.8-2.7-13.9-7.9-9.4-28c3.5-10.9,8.8-21.1,14.9-30.7
		c7.1-11.9,38.8-54.8,38.8-54.8c0.9-1.6-1-2.8-1.9-3.9c-5.1,5-9.4,10.8-14.3,16.1c-42.5,49.1-46.2,54.7-52,66.1
		c-3,7-5.2,14.9-3.1,22.5C1381.2,1345.2,1384.3,1350.6,1389.6,1352.9z"/>
	<path class="st0" d="M1605.3,789.2c5.5-1.7,11.4-5.7,11.7-12c-4.6,0.8-15.4,4.2-26.5-13.2c-5.2-10.2-8.7-21.1-11.1-32.2
		c-3.4-13.5-11.4-66.2-11.4-66.2c-0.5-1.8-2.7-1.3-4.1-1.4c-0.1,7.2,0.9,14.3,1.2,21.5c4.6,64.7,6,71.3,10,83.5
		c2.8,7.1,6.9,14.2,13.7,18.1C1593.9,789.7,1599.9,791.3,1605.3,789.2z"/>
	<path class="st0" d="M1389.6,268.5c5.1-2.7,12.1-4,16.7,0.2c-3.8,2.7-13.9,7.9-9.4,28c3.5,10.9,8.8,21.1,14.9,30.7
		c7.1,11.9,38.8,54.8,38.8,54.8c0.9,1.6-1,2.8-1.9,3.9c-5.1-5-9.4-10.8-14.3-16.1c-42.5-49.1-46.2-54.7-52-66.1
		c-3-7-5.2-14.9-3.1-22.5C1381.2,276.2,1384.3,270.8,1389.6,268.5z"/>
	<path class="st0" d="M838.5,22.4c1.7-5.5,5.7-11.4,12-11.7c-0.8,4.6-4.2,15.4,13.2,26.5c10.2,5.2,21.1,8.7,32.2,11.1
		c13.5,3.4,66.2,11.4,66.2,11.4c1.8,0.5,1.3,2.7,1.4,4.1c-7.2,0.1-14.3-0.9-21.5-1.2c-64.7-4.6-71.3-6-83.5-10
		c-7.1-2.8-14.2-6.9-18.1-13.7C838,33.8,836.4,27.8,838.5,22.4z"/>
	<path class="st0" d="M274.8,238.1c-2.7-5.1-4-12.1,0.2-16.7c2.7,3.8,7.9,13.9,28,9.4c10.9-3.5,21.1-8.8,30.7-14.9
		c11.9-7.1,54.8-38.8,54.8-38.8c1.6-0.9,2.8,1,3.9,1.9c-5,5.1-10.8,9.4-16.1,14.3c-49.1,42.5-54.7,46.2-66.1,52
		c-7,3-14.9,5.2-22.5,3.1C282.5,246.5,277.1,243.4,274.8,238.1z"/>
	<path class="st0" d="M28.7,789.2c-5.5-1.7-11.4-5.7-11.7-12c4.6,0.8,15.4,4.2,26.5-13.2c5.2-10.2,8.7-21.1,11.1-32.2
		c3.4-13.5,11.4-66.2,11.4-66.2c0.5-1.8,2.7-1.3,4.1-1.4c0.1,7.2-0.9,14.3-1.2,21.5c-4.6,64.7-6,71.3-10,83.5
		c-2.8,7.1-6.9,14.2-13.7,18.1C40.1,789.7,34.1,791.3,28.7,789.2z"/>
	<path class="st0" d="M244.4,1352.9c-5.1,2.7-12.1,4-16.7-0.2c3.8-2.7,13.9-7.9,9.4-28c-3.5-10.9-8.8-21.1-14.9-30.7
		c-7.1-11.9-38.8-54.8-38.8-54.8c-0.9-1.6,1-2.8,1.9-3.9c5.1,5,9.4,10.8,14.3,16.1c42.5,49.1,46.2,54.7,52,66.1
		c3,7,5.2,14.9,3.1,22.5C252.8,1345.2,249.7,1350.6,244.4,1352.9z"/>
	<path class="st0" d="M795.5,1599c-1.7,5.5-5.7,11.4-12,11.7c0.8-4.6,4.2-15.4-13.2-26.5c-10.2-5.2-21.1-8.7-32.2-11.1
		c-13.5-3.4-66.2-11.4-66.2-11.4c-1.8-0.5-1.3-2.7-1.4-4.1c7.2-0.1,14.3,0.9,21.5,1.2c64.7,4.6,71.3,6,83.5,10
		c7.1,2.8,14.2,6.9,18.1,13.7C796,1587.6,797.6,1593.6,795.5,1599z"/>
	<path class="st0" d="M1359.2,1383.3c2.7,5.1,4,12.1-0.2,16.7c-2.7-3.8-7.9-13.9-28-9.4c-10.9,3.5-21.1,8.8-30.7,14.9
		c-11.9,7.1-54.8,38.8-54.8,38.8c-1.6,0.9-2.8-1-3.9-1.9c5-5.1,10.8-9.4,16.1-14.3c49.1-42.5,54.7-46.2,66.1-52
		c7-3,14.9-5.2,22.5-3.1C1351.5,1374.9,1356.9,1378,1359.2,1383.3z"/>
	<path class="st0" d="M1605.3,832.2c5.5,1.7,11.4,5.7,11.7,12c-4.6-0.8-15.4-4.2-26.5,13.2c-5.2,10.2-8.7,21.1-11.1,32.2
		c-3.4,13.5-11.4,66.2-11.4,66.2c-0.5,1.8-2.7,1.3-4.1,1.4c-0.1-7.2,0.9-14.3,1.2-21.5c4.6-64.7,6-71.3,10-83.5
		c2.8-7.1,6.9-14.2,13.7-18.1C1593.9,831.7,1599.9,830.1,1605.3,832.2z"/>
	<path class="st0" d="M1306.8,239.4c-13.6-1.1-12.8,0.5-59.1-50c-2.6-2.8-4.8-5.9-7.7-8.3c-1.3-1.3-2.9,0.2-4.1,0.8
		c1.9,3.7,4.8,6.6,7.2,10c15.4,20.4,29.4,42.7,38.1,51.8C1289.3,252.1,1304.3,250.1,1306.8,239.4z"/>
	<path class="st0" d="M759.4,60.4c-10.4,8.8-8.7,9.4-77.1,6.5c-3.8-0.1-7.5-0.8-11.3-0.5c-1.8,0-1.9,2.2-2.3,3.5
		c3.9,1.3,8.1,1.3,12.1,2c25.3,3.6,51,9.4,63.5,9.7C756,81.7,765.1,69.8,759.4,60.4z"/>
	<path class="st0" d="M245.7,320.9c-1.1,13.6,0.5,12.8-50,59.1c-2.8,2.6-5.9,4.8-8.3,7.7c-1.3,1.3,0.2,2.9,0.8,4.1
		c3.7-1.9,6.6-4.8,10-7.2c20.4-15.4,42.7-29.4,51.8-38.1C258.4,338.4,256.4,323.5,245.7,320.9z"/>
	<path class="st0" d="M66.7,868.3c8.8,10.4,9.4,8.7,6.5,77.1c-0.1,3.8-0.8,7.5-0.5,11.3c0,1.8,2.2,1.9,3.5,2.3
		c1.3-3.9,1.3-8.1,2-12.1c3.6-25.3,9.4-51,9.7-63.5C88,871.7,76.1,862.6,66.7,868.3z"/>
	<path class="st0" d="M327.2,1382c13.6,1.1,12.8-0.5,59.1,50c2.6,2.8,4.8,5.9,7.7,8.3c1.3,1.3,2.9-0.2,4.1-0.8
		c-1.9-3.7-4.8-6.6-7.2-10c-15.4-20.4-29.4-42.7-38.1-51.8C344.7,1369.3,329.8,1371.3,327.2,1382z"/>
	<path class="st0" d="M874.6,1561c10.4-8.8,8.7-9.4,77.1-6.5c3.8,0.1,7.5,0.8,11.3,0.5c1.8,0,1.9-2.2,2.3-3.5
		c-3.9-1.3-8.1-1.3-12.1-2c-25.3-3.6-51-9.4-63.5-9.7C878,1539.7,868.9,1551.6,874.6,1561z"/>
	<path class="st0" d="M1388.3,1300.5c1.1-13.6-0.5-12.8,50-59.1c2.8-2.6,5.9-4.8,8.3-7.7c1.3-1.3-0.2-2.9-0.8-4.1
		c-3.7,1.9-6.6,4.8-10,7.2c-20.4,15.4-42.7,29.4-51.8,38.1C1375.6,1283,1377.6,1298,1388.3,1300.5z"/>
	<path class="st0" d="M1567.3,753.1c-8.8-10.4-9.4-8.7-6.5-77.1c0.1-3.8,0.8-7.5,0.5-11.3c0-1.8-2.2-1.9-3.5-2.3
		c-1.3,3.9-1.3,8.1-2,12.1c-3.6,25.3-9.4,51-9.7,63.5C1546,749.7,1557.9,758.8,1567.3,753.1z"/>
	<path class="st0" d="M1388.3,320.9c1.1,13.6-0.5,12.8,50,59.1c2.8,2.6,5.9,4.8,8.3,7.7c1.3,1.3-0.2,2.9-0.8,4.1
		c-3.7-1.9-6.6-4.8-10-7.2c-20.4-15.4-42.7-29.4-51.8-38.1C1375.6,338.4,1377.6,323.5,1388.3,320.9z"/>
	<path class="st0" d="M874.6,60.4c10.4,8.8,8.7,9.4,77.1,6.5c3.8-0.1,7.5-0.8,11.3-0.5c1.8,0,1.9,2.2,2.3,3.5
		c-3.9,1.3-8.1,1.3-12.1,2c-25.3,3.6-51,9.4-63.5,9.7C878,81.7,868.9,69.8,874.6,60.4z"/>
	<path class="st0" d="M327.2,239.4c13.6-1.1,12.8,0.5,59.1-50c2.6-2.8,4.8-5.9,7.7-8.3c1.3-1.3,2.9,0.2,4.1,0.8
		c-1.9,3.7-4.8,6.6-7.2,10c-15.4,20.4-29.4,42.7-38.1,51.8C344.7,252.1,329.8,250.1,327.2,239.4z"/>
	<path class="st0" d="M66.7,753.1c8.8-10.4,9.4-8.7,6.5-77.1c-0.1-3.8-0.8-7.5-0.5-11.3c0-1.8,2.2-1.9,3.5-2.3
		c1.3,3.9,1.3,8.1,2,12.1c3.6,25.3,9.4,51,9.7,63.5C88,749.7,76.1,758.8,66.7,753.1z"/>
	<path class="st0" d="M245.7,1300.5c-1.1-13.6,0.5-12.8-50-59.1c-2.8-2.6-5.9-4.8-8.3-7.7c-1.3-1.3,0.2-2.9,0.8-4.1
		c3.7,1.9,6.6,4.8,10,7.2c20.4,15.4,42.7,29.4,51.8,38.1C258.4,1283,256.4,1298,245.7,1300.5z"/>
	<path class="st0" d="M759.4,1561c-10.4-8.8-8.7-9.4-77.1-6.5c-3.8,0.1-7.5,0.8-11.3,0.5c-1.8,0-1.9-2.2-2.3-3.5
		c3.9-1.3,8.1-1.3,12.1-2c25.3-3.6,51-9.4,63.5-9.7C756,1539.7,765.1,1551.6,759.4,1561z"/>
	<path class="st0" d="M1306.8,1382c-13.6,1.1-12.8-0.5-59.1,50c-2.6,2.8-4.8,5.9-7.7,8.3c-1.3,1.3-2.9-0.2-4.1-0.8
		c1.9-3.7,4.8-6.6,7.2-10c15.4-20.4,29.4-42.7,38.1-51.8C1289.3,1369.3,1304.3,1371.3,1306.8,1382z"/>
	<path class="st0" d="M1567.3,868.3c-8.8,10.4-9.4,8.7-6.5,77.1c0.1,3.8,0.8,7.5,0.5,11.3c0,1.8-2.2,1.9-3.5,2.3
		c-1.3-3.9-1.3-8.1-2-12.1c-3.6-25.3-9.4-51-9.7-63.5C1546,871.7,1557.9,862.6,1567.3,868.3z"/>
	<path class="st0" d="M1266.4,241.9c0.6-6-3.2-11.1-5.8-16.1c-6.1-10.1-6.1-12.4-19.4-30.7c-2.7-3.7-4.8-7.7-7.9-11
		c-1.2-1.7-3.2-0.1-4.5,0.7c2.1,5.6,12.5,21.2,16.4,35.9c4.2,12.6,3.7,21.7,8.7,26C1258.3,250.1,1265.8,247.5,1266.4,241.9z"/>
	<path class="st0" d="M732.6,90.7c-3.8-4.6-10.1-5.6-15.5-7.3c-11.5-2.9-13.1-4.5-35.4-8c-4.5-0.7-8.8-2-13.4-2.2
		c-2-0.3-2.3,2.2-2.7,3.7c5.5,2.5,23.8,6.2,37,13.8c11.9,5.9,18,12.7,24.6,12.2C732.6,102.3,736.1,95.1,732.6,90.7z"/>
	<path class="st0" d="M248.2,361.3c-6-0.6-11.1,3.2-16.1,5.8c-10.1,6.1-12.4,6.1-30.7,19.4c-3.7,2.7-7.7,4.8-11,7.9
		c-1.7,1.2-0.1,3.2,0.7,4.5c5.6-2.1,21.2-12.5,35.9-16.4c12.6-4.2,21.7-3.7,26-8.7C256.4,369.4,253.8,361.9,248.2,361.3z"/>
	<path class="st0" d="M97,895.1c-4.6,3.8-5.6,10.1-7.3,15.5c-2.9,11.5-4.5,13.1-8,35.4c-0.7,4.5-2,8.8-2.2,13.4
		c-0.3,2,2.2,2.3,3.7,2.7c2.5-5.5,6.2-23.8,13.8-37c5.9-11.9,12.7-18,12.2-24.6C108.6,895.1,101.4,891.6,97,895.1z"/>
	<path class="st0" d="M367.6,1379.5c-0.6,6,3.2,11.1,5.8,16.1c6.1,10.1,6.1,12.4,19.4,30.7c2.7,3.7,4.8,7.7,7.9,11
		c1.2,1.7,3.2,0.1,4.5-0.7c-2.1-5.6-12.5-21.2-16.4-35.9c-4.2-12.6-3.7-21.7-8.7-26C375.7,1371.3,368.2,1373.9,367.6,1379.5z"/>
	<path class="st0" d="M901.4,1530.7c3.8,4.6,10.1,5.6,15.5,7.3c11.5,2.9,13.1,4.5,35.4,8c4.5,0.7,8.8,2,13.4,2.2
		c2,0.3,2.3-2.2,2.7-3.7c-5.5-2.5-23.8-6.2-37-13.8c-11.9-5.9-18-12.7-24.6-12.2C901.4,1519.2,897.9,1526.3,901.4,1530.7z"/>
	<path class="st0" d="M1385.8,1260.1c6,0.6,11.1-3.2,16.1-5.8c10.1-6.1,12.4-6.1,30.7-19.4c3.7-2.7,7.7-4.8,11-7.9
		c1.7-1.2,0.1-3.2-0.7-4.5c-5.6,2.1-21.2,12.5-35.9,16.4c-12.6,4.2-21.7,3.7-26,8.7C1377.6,1252,1380.2,1259.5,1385.8,1260.1z"/>
	<path class="st0" d="M1537,726.3c4.6-3.8,5.6-10.1,7.3-15.5c2.9-11.5,4.5-13.1,8-35.4c0.7-4.5,2-8.8,2.2-13.4
		c0.3-2-2.2-2.3-3.7-2.7c-2.5,5.5-6.2,23.8-13.8,37c-5.9,11.9-12.7,18-12.2,24.6C1525.4,726.3,1532.6,729.8,1537,726.3z"/>
	<path class="st0" d="M1385.8,361.3c6-0.6,11.1,3.2,16.1,5.8c10.1,6.1,12.4,6.1,30.7,19.4c3.7,2.7,7.7,4.8,11,7.9
		c1.7,1.2,0.1,3.2-0.7,4.5c-5.6-2.1-21.2-12.5-35.9-16.4c-12.6-4.2-21.7-3.7-26-8.7C1377.6,369.4,1380.2,361.9,1385.8,361.3z"/>
	<path class="st0" d="M901.4,90.7c3.8-4.6,10.1-5.6,15.5-7.3c11.5-2.9,13.1-4.5,35.4-8c4.5-0.7,8.8-2,13.4-2.2
		c2-0.3,2.3,2.2,2.7,3.7c-5.5,2.5-23.8,6.2-37,13.8c-11.9,5.9-18,12.7-24.6,12.2C901.4,102.3,897.9,95.1,901.4,90.7z"/>
	<path class="st0" d="M367.6,241.9c-0.6-6,3.2-11.1,5.8-16.1c6.1-10.1,6.1-12.4,19.4-30.7c2.7-3.7,4.8-7.7,7.9-11
		c1.2-1.7,3.2-0.1,4.5,0.7c-2.1,5.6-12.5,21.2-16.4,35.9c-4.2,12.6-3.7,21.7-8.7,26C375.7,250.1,368.2,247.5,367.6,241.9z"/>
	<path class="st0" d="M97,726.3c-4.6-3.8-5.6-10.1-7.3-15.5c-2.9-11.5-4.5-13.1-8-35.4c-0.7-4.5-2-8.8-2.2-13.4
		c-0.3-2,2.2-2.3,3.7-2.7c2.5,5.5,6.2,23.8,13.8,37c5.9,11.9,12.7,18,12.2,24.6C108.6,726.3,101.4,729.8,97,726.3z"/>
	<path class="st0" d="M248.2,1260.1c-6,0.6-11.1-3.2-16.1-5.8c-10.1-6.1-12.4-6.1-30.7-19.4c-3.7-2.7-7.7-4.8-11-7.9
		c-1.7-1.2-0.1-3.2,0.7-4.5c5.6,2.1,21.2,12.5,35.9,16.4c12.6,4.2,21.7,3.7,26,8.7C256.4,1252,253.8,1259.5,248.2,1260.1z"/>
	<path class="st0" d="M732.6,1530.7c-3.8,4.6-10.1,5.6-15.5,7.3c-11.5,2.9-13.1,4.5-35.4,8c-4.5,0.7-8.8,2-13.4,2.2
		c-2,0.3-2.3-2.2-2.7-3.7c5.5-2.5,23.8-6.2,37-13.8c11.9-5.9,18-12.7,24.6-12.2C732.6,1519.2,736.1,1526.3,732.6,1530.7z"/>
	<path class="st0" d="M1266.4,1379.5c0.6,6-3.2,11.1-5.8,16.1c-6.1,10.1-6.1,12.4-19.4,30.7c-2.7,3.7-4.8,7.7-7.9,11
		c-1.2,1.7-3.2,0.1-4.5-0.7c2.1-5.6,12.5-21.2,16.4-35.9c4.2-12.6,3.7-21.7,8.7-26C1258.3,1371.3,1265.8,1373.9,1266.4,1379.5z"/>
	<path class="st0" d="M1537,895.1c4.6,3.8,5.6,10.1,7.3,15.5c2.9,11.5,4.5,13.1,8,35.4c0.7,4.5,2,8.8,2.2,13.4
		c0.3,2-2.2,2.3-3.7,2.7c-2.5-5.5-6.2-23.8-13.8-37c-5.9-11.9-12.7-18-12.2-24.6C1525.4,895.1,1532.6,891.6,1537,895.1z"/>
	<path class="st0" d="M1245.3,171.2c-1.4-1.1-3.4-3.3-5.2-1.4c-7,6-16.1,8.5-24.8,10.9c-0.3,1.5,0,2.9,0.9,4.1
		C1230,182.2,1242.1,175.1,1245.3,171.2z"/>
	<path class="st0" d="M667.7,55.7c-1.8,0.2-4.7,0.1-4.7,2.6c-0.8,9.2-5.4,17.4-9.8,25.3c0.8,1.2,2.1,2.1,3.6,2.3
		C664.6,74.2,668.1,60.7,667.7,55.7z"/>
	<path class="st0" d="M177.5,382.4c-1.1,1.4-3.3,3.4-1.4,5.2c6,7,8.5,16.1,10.9,24.8c1.5,0.3,2.9,0,4.1-0.9
		C188.5,397.7,181.4,385.6,177.5,382.4z"/>
	<path class="st0" d="M62,960c0.2,1.8,0.1,4.7,2.6,4.7c9.2,0.8,17.4,5.4,25.3,9.8c1.2-0.8,2.1-2.1,2.3-3.6
		C80.5,963.1,67,959.6,62,960z"/>
	<path class="st0" d="M388.7,1450.2c1.4,1.1,3.4,3.3,5.2,1.4c7-6,16.1-8.5,24.8-10.9c0.3-1.5,0-2.9-0.9-4.1
		C404,1439.2,391.9,1446.3,388.7,1450.2z"/>
	<path class="st0" d="M966.3,1565.7c1.8-0.2,4.7-0.1,4.7-2.6c0.8-9.2,5.4-17.4,9.8-25.3c-0.8-1.2-2.1-2.1-3.6-2.3
		C969.4,1547.2,965.9,1560.7,966.3,1565.7z"/>
	<path class="st0" d="M1456.5,1239c1.1-1.4,3.3-3.4,1.4-5.2c-6-7-8.5-16.1-10.9-24.8c-1.5-0.3-2.9,0-4.1,0.9
		C1445.5,1223.7,1452.6,1235.8,1456.5,1239z"/>
	<path class="st0" d="M1572,661.4c-0.2-1.8-0.1-4.7-2.6-4.7c-9.2-0.8-17.4-5.4-25.3-9.8c-1.2,0.8-2.1,2.1-2.3,3.6
		C1553.5,658.3,1567,661.8,1572,661.4z"/>
	<path class="st0" d="M1456.5,382.4c1.1,1.4,3.3,3.4,1.4,5.2c-6,7-8.5,16.1-10.9,24.8c-1.5,0.3-2.9,0-4.1-0.9
		C1445.5,397.7,1452.6,385.6,1456.5,382.4z"/>
	<path class="st0" d="M966.3,55.7c1.8,0.2,4.7,0.1,4.7,2.6c0.8,9.2,5.4,17.4,9.8,25.3c-0.8,1.2-2.1,2.1-3.6,2.3
		C969.4,74.2,965.9,60.7,966.3,55.7z"/>
	<path class="st0" d="M388.7,171.2c1.4-1.1,3.4-3.3,5.2-1.4c7,6,16.1,8.5,24.8,10.9c0.3,1.5,0,2.9-0.9,4.1
		C404,182.2,391.9,175.1,388.7,171.2z"/>
	<path class="st0" d="M62,661.4c0.2-1.8,0.1-4.7,2.6-4.7c9.2-0.8,17.4-5.4,25.3-9.8c1.2,0.8,2.1,2.1,2.3,3.6
		C80.5,658.3,67,661.8,62,661.4z"/>
	<path class="st0" d="M177.5,1239c-1.1-1.4-3.3-3.4-1.4-5.2c6-7,8.5-16.1,10.9-24.8c1.5-0.3,2.9,0,4.1,0.9
		C188.5,1223.7,181.4,1235.8,177.5,1239z"/>
	<path class="st0" d="M667.7,1565.7c-1.8-0.2-4.7-0.1-4.7-2.6c-0.8-9.2-5.4-17.4-9.8-25.3c0.8-1.2,2.1-2.1,3.6-2.3
		C664.6,1547.2,668.1,1560.7,667.7,1565.7z"/>
	<path class="st0" d="M1245.3,1450.2c-1.4,1.1-3.4,3.3-5.2,1.4c-7-6-16.1-8.5-24.8-10.9c-0.3-1.5,0-2.9,0.9-4.1
		C1230,1439.2,1242.1,1446.3,1245.3,1450.2z"/>
	<path class="st0" d="M1572,960c-0.2,1.8-0.1,4.7-2.6,4.7c-9.2,0.8-17.4,5.4-25.3,9.8c-1.2-0.8-2.1-2.1-2.3-3.6
		C1553.5,963.1,1567,959.6,1572,960z"/>
	<path class="st0" d="M1243,237c0.9-7.7-1.3-15.2-3.8-22.4c-3.7-10-7.9-19.8-13.3-29c-1.1,0.1-2,0.6-2.9,1.2
		c2.9,9,11.3,31.5,7.1,49.1c-0.8,3.9-4.2,6.2-6.6,9C1230.2,252.2,1241.6,246.7,1243,237z"/>
	<path class="st0" d="M712.6,103.9c-4.8-6.1-11.7-9.8-18.5-13.1c-9.6-4.4-19.6-8.4-29.9-11.1c-0.7,0.8-1,1.8-1.2,2.9
		c8.4,4.3,30.2,14.3,39.7,29.7c2.2,3.3,1.4,7.4,1.7,11.1C714.2,123.6,718.5,111.7,712.6,103.9z"/>
	<path class="st0" d="M243.3,384.7c-7.7-0.9-15.2,1.3-22.4,3.8c-10,3.7-19.8,7.9-29,13.3c0.1,1.1,0.6,2,1.2,2.9
		c9-2.9,31.5-11.3,49.1-7.1c3.9,0.8,6.2,4.2,9,6.6C258.5,397.5,253,386.1,243.3,384.7z"/>
	<path class="st0" d="M110.2,915.1c-6.1,4.8-9.8,11.7-13.1,18.5c-4.4,9.6-8.4,19.6-11.1,29.9c0.8,0.7,1.8,1,2.9,1.2
		c4.3-8.4,14.3-30.2,29.7-39.7c3.3-2.2,7.4-1.4,11.1-1.7C129.9,913.5,117.9,909.2,110.2,915.1z"/>
	<path class="st0" d="M391,1384.4c-0.9,7.7,1.3,15.2,3.8,22.4c3.7,10,7.9,19.8,13.3,29c1.1-0.1,2-0.6,2.9-1.2
		c-2.9-9-11.3-31.5-7.1-49.1c0.8-3.9,4.2-6.2,6.6-9C403.8,1369.2,392.4,1374.7,391,1384.4z"/>
	<path class="st0" d="M921.4,1517.5c4.8,6.1,11.7,9.8,18.5,13.1c9.6,4.4,19.6,8.4,29.9,11.1c0.7-0.8,1-1.8,1.2-2.9
		c-8.4-4.3-30.2-14.3-39.7-29.7c-2.2-3.3-1.4-7.4-1.7-11.1C919.8,1497.8,915.5,1509.8,921.4,1517.5z"/>
	<path class="st0" d="M1390.7,1236.7c7.7,0.9,15.2-1.3,22.4-3.8c10-3.7,19.8-7.9,29-13.3c-0.1-1.1-0.6-2-1.2-2.9
		c-9,2.9-31.5,11.3-49.1,7.1c-3.9-0.8-6.2-4.2-9-6.6C1375.5,1223.9,1381,1235.4,1390.7,1236.7z"/>
	<path class="st0" d="M1523.8,706.3c6.1-4.8,9.8-11.7,13.1-18.5c4.4-9.6,8.4-19.6,11.1-29.9c-0.8-0.7-1.8-1-2.9-1.2
		c-4.3,8.4-14.3,30.2-29.7,39.7c-3.3,2.2-7.4,1.4-11.1,1.7C1504.1,707.9,1516.1,712.2,1523.8,706.3z"/>
	<path class="st0" d="M1390.7,384.7c7.7-0.9,15.2,1.3,22.4,3.8c10,3.7,19.8,7.9,29,13.3c-0.1,1.1-0.6,2-1.2,2.9
		c-9-2.9-31.5-11.3-49.1-7.1c-3.9,0.8-6.2,4.2-9,6.6C1375.5,397.5,1381,386.1,1390.7,384.7z"/>
	<path class="st0" d="M921.4,103.9c4.8-6.1,11.7-9.8,18.5-13.1c9.6-4.4,19.6-8.4,29.9-11.1c0.7,0.8,1,1.8,1.2,2.9
		c-8.4,4.3-30.2,14.3-39.7,29.7c-2.2,3.3-1.4,7.4-1.7,11.1C919.8,123.6,915.5,111.7,921.4,103.9z"/>
	<path class="st0" d="M391,237c-0.9-7.7,1.3-15.2,3.8-22.4c3.7-10,7.9-19.8,13.3-29c1.1,0.1,2,0.6,2.9,1.2
		c-2.9,9-11.3,31.5-7.1,49.1c0.8,3.9,4.2,6.2,6.6,9C403.8,252.2,392.4,246.7,391,237z"/>
	<path class="st0" d="M110.2,706.3c-6.1-4.8-9.8-11.7-13.1-18.5c-4.4-9.6-8.4-19.6-11.1-29.9c0.8-0.7,1.8-1,2.9-1.2
		c4.3,8.4,14.3,30.2,29.7,39.7c3.3,2.2,7.4,1.4,11.1,1.7C129.9,707.9,117.9,712.2,110.2,706.3z"/>
	<path class="st0" d="M243.3,1236.7c-7.7,0.9-15.2-1.3-22.4-3.8c-10-3.7-19.8-7.9-29-13.3c0.1-1.1,0.6-2,1.2-2.9
		c9,2.9,31.5,11.3,49.1,7.1c3.9-0.8,6.2-4.2,9-6.6C258.5,1223.9,253,1235.4,243.3,1236.7z"/>
	<path class="st0" d="M712.6,1517.5c-4.8,6.1-11.7,9.8-18.5,13.1c-9.6,4.4-19.6,8.4-29.9,11.1c-0.7-0.8-1-1.8-1.2-2.9
		c8.4-4.3,30.2-14.3,39.7-29.7c2.2-3.3,1.4-7.4,1.7-11.1C714.2,1497.8,718.5,1509.8,712.6,1517.5z"/>
	<path class="st0" d="M1243,1384.4c0.9,7.7-1.3,15.2-3.8,22.4c-3.7,10-7.9,19.8-13.3,29c-1.1-0.1-2-0.6-2.9-1.2
		c2.9-9,11.3-31.5,7.1-49.1c-0.8-3.9-4.2-6.2-6.6-9C1230.2,1369.2,1241.6,1374.7,1243,1384.4z"/>
	<path class="st0" d="M1523.8,915.1c6.1,4.8,9.8,11.7,13.1,18.5c4.4,9.6,8.4,19.6,11.1,29.9c-0.8,0.7-1.8,1-2.9,1.2
		c-4.3-8.4-14.3-30.2-29.7-39.7c-3.3-2.2-7.4-1.4-11.1-1.7C1504.1,913.5,1516.1,909.2,1523.8,915.1z"/>
	<path class="st0" d="M1228.6,171.1c3.1-0.4,6.9,0.1,8.9-2.8c-3.6-1.4-7.3-2.4-10.5-4.5c-8.4-6.3-29.8-22.9-40.2-23.8
		c1.8,2.5,4.7,3.6,7,5.6c9.8,8.4,17,19.9,19.9,32.5c2.9,0.4,4.8-2.4,6.4-4.4c1.8,0.5,3.5,1.3,5.4,1.3
		C1227.3,174.7,1227.7,172.5,1228.6,171.1z"/>
	<path class="st0" d="M655.8,67.4c1.9-2.5,5-4.8,4.3-8.3c-3.5,1.5-6.9,3.5-10.7,4.2c-10.4,1.5-37.3,4.9-45.3,11.5
		c3,0.5,5.9-0.8,8.9-1c12.9-1,26.1,2,37,8.9c2.4-1.8,1.7-5.1,1.4-7.6c1.6-0.9,3.4-1.6,4.7-2.9C657.4,70.9,656.1,69,655.8,67.4z"/>
	<path class="st0" d="M177.4,399.1c-0.4-3.1,0.1-6.9-2.8-8.9c-1.4,3.6-2.4,7.3-4.5,10.5c-6.3,8.4-22.9,29.8-23.8,40.2
		c2.5-1.8,3.6-4.7,5.6-7c8.4-9.8,19.9-17,32.5-19.9c0.4-3-2.4-4.8-4.4-6.4c0.5-1.8,1.3-3.5,1.3-5.4C181,400.4,178.7,400,177.4,399.1
		z"/>
	<path class="st0" d="M73.7,971.9c-2.5-1.9-4.8-5-8.3-4.3c1.5,3.5,3.5,6.9,4.2,10.7c1.5,10.4,4.9,37.3,11.5,45.3
		c0.5-3-0.8-5.9-1-8.9c-1-12.9,2-26.1,8.9-37c-1.8-2.4-5.1-1.7-7.6-1.4c-0.9-1.6-1.6-3.4-2.9-4.7C77.2,970.3,75.3,971.6,73.7,971.9z
		"/>
	<path class="st0" d="M405.4,1450.3c-3.1,0.4-6.9-0.1-8.9,2.8c3.6,1.4,7.3,2.4,10.5,4.5c8.4,6.3,29.8,22.9,40.2,23.8
		c-1.8-2.5-4.7-3.6-7-5.6c-9.8-8.4-17-19.9-19.9-32.5c-3-0.4-4.8,2.4-6.4,4.4c-1.8-0.5-3.5-1.3-5.4-1.3
		C406.7,1446.7,406.3,1449,405.4,1450.3z"/>
	<path class="st0" d="M978.2,1554c-1.9,2.5-5,4.8-4.3,8.3c3.5-1.5,6.9-3.5,10.7-4.2c10.4-1.5,37.3-4.9,45.3-11.5
		c-3-0.5-5.9,0.8-8.9,1c-12.9,1-26.1-2-37-8.9c-2.4,1.8-1.7,5.1-1.4,7.6c-1.6,0.9-3.4,1.6-4.7,2.9
		C976.6,1550.5,977.9,1552.4,978.2,1554z"/>
	<path class="st0" d="M1456.6,1222.3c0.4,3.1-0.1,6.9,2.8,8.9c1.4-3.6,2.4-7.3,4.5-10.5c6.3-8.4,22.9-29.8,23.8-40.2
		c-2.5,1.8-3.6,4.7-5.6,7c-8.4,9.8-19.9,17-32.5,19.9c-0.4,2.9,2.4,4.8,4.4,6.4c-0.5,1.8-1.3,3.5-1.3,5.4
		C1453,1221,1455.3,1221.4,1456.6,1222.3z"/>
	<path class="st0" d="M1560.3,649.5c2.5,1.9,4.8,5,8.3,4.3c-1.5-3.5-3.5-6.9-4.2-10.7c-1.5-10.4-4.9-37.3-11.5-45.3
		c-0.5,3,0.8,5.9,1,8.9c1,12.9-2,26.1-8.9,37c1.8,2.4,5.1,1.7,7.6,1.4c0.9,1.6,1.6,3.4,2.9,4.7
		C1556.8,651.1,1558.7,649.8,1560.3,649.5z"/>
	<path class="st0" d="M1456.6,399.1c0.4-3.1-0.1-6.9,2.8-8.9c1.4,3.6,2.4,7.3,4.5,10.5c6.3,8.4,22.9,29.8,23.8,40.2
		c-2.5-1.8-3.6-4.7-5.6-7c-8.4-9.8-19.9-17-32.5-19.9c-0.4-3,2.4-4.8,4.4-6.4c-0.5-1.8-1.3-3.5-1.3-5.4
		C1453,400.4,1455.3,400,1456.6,399.1z"/>
	<path class="st0" d="M978.2,67.4c-1.9-2.5-5-4.8-4.3-8.3c3.5,1.5,6.9,3.5,10.7,4.2c10.4,1.5,37.3,4.9,45.3,11.5
		c-3,0.5-5.9-0.8-8.9-1c-12.9-1-26.1,2-37,8.9c-2.4-1.8-1.7-5.1-1.4-7.6c-1.6-0.9-3.4-1.6-4.7-2.9C976.6,70.9,977.9,69,978.2,67.4z"
		/>
	<path class="st0" d="M405.4,171.1c-3.1-0.4-6.9,0.1-8.9-2.8c3.6-1.4,7.3-2.4,10.5-4.5c8.4-6.3,29.8-22.9,40.2-23.8
		c-1.8,2.5-4.7,3.6-7,5.6c-9.8,8.4-17,19.9-19.9,32.5c-3,0.4-4.8-2.4-6.4-4.4c-1.8,0.5-3.5,1.3-5.4,1.3
		C406.7,174.7,406.3,172.5,405.4,171.1z"/>
	<path class="st0" d="M73.7,649.5c-2.5,1.9-4.8,5-8.3,4.3c1.5-3.5,3.5-6.9,4.2-10.7c1.5-10.4,4.9-37.3,11.5-45.3
		c0.5,3-0.8,5.9-1,8.9c-1,12.9,2,26.1,8.9,37c-1.8,2.4-5.1,1.7-7.6,1.4c-0.9,1.6-1.6,3.4-2.9,4.7C77.2,651.1,75.3,649.8,73.7,649.5z
		"/>
	<path class="st0" d="M177.4,1222.3c-0.4,3.1,0.1,6.9-2.8,8.9c-1.4-3.6-2.4-7.3-4.5-10.5c-6.3-8.4-22.9-29.8-23.8-40.2
		c2.5,1.8,3.6,4.7,5.6,7c8.4,9.8,19.9,17,32.5,19.9c0.4,2.9-2.4,4.8-4.4,6.4c0.5,1.8,1.3,3.5,1.3,5.4
		C181,1221,178.7,1221.4,177.4,1222.3z"/>
	<path class="st0" d="M655.8,1554c1.9,2.5,5,4.8,4.3,8.3c-3.5-1.5-6.9-3.5-10.7-4.2c-10.4-1.5-37.3-4.9-45.3-11.5
		c3-0.5,5.9,0.8,8.9,1c12.9,1,26.1-2,37-8.9c2.4,1.8,1.7,5.1,1.4,7.6c1.6,0.9,3.4,1.6,4.7,2.9C657.4,1550.5,656.1,1552.4,655.8,1554
		z"/>
	<path class="st0" d="M1228.6,1450.3c3.1,0.4,6.9-0.1,8.9,2.8c-3.6,1.4-7.3,2.4-10.5,4.5c-8.4,6.3-29.8,22.9-40.2,23.8
		c1.8-2.5,4.7-3.6,7-5.6c9.8-8.4,17-19.9,19.9-32.5c2.9-0.4,4.8,2.4,6.4,4.4c1.8-0.5,3.5-1.3,5.4-1.3
		C1227.3,1446.7,1227.7,1449,1228.6,1450.3z"/>
	<path class="st0" d="M1560.3,971.9c2.5-1.9,4.8-5,8.3-4.3c-1.5,3.5-3.5,6.9-4.2,10.7c-1.5,10.4-4.9,37.3-11.5,45.3
		c-0.5-3,0.8-5.9,1-8.9c1-12.9-2-26.1-8.9-37c1.8-2.4,5.1-1.7,7.6-1.4c0.9-1.6,1.6-3.4,2.9-4.7
		C1556.8,970.3,1558.7,971.6,1560.3,971.9z"/>
	<path class="st0" d="M1220.4,186.3c-1.2,0.4-2.4,0.9-3.6,1.5c0.6,9,0.9,18.3-1.1,27.2c-2.4,8.3-5.7,17.2-13.1,22.3
		c-2.1,1.7-4.9,1.4-7.4,1.7c0.2,4,3.7,7,7.3,7.9c3.7,0.7,7.8,0,11-2.2C1230,233.8,1224.2,194.6,1220.4,186.3z"/>
	<path class="st0" d="M660.7,83.9c-0.6,1.2-1.1,2.4-1.5,3.6c6.8,6,13.6,12.3,18.4,20c4.2,7.6,8.1,16.2,6.5,25.1
		c-0.3,2.6-2.4,4.5-4,6.4c2.9,2.7,7.6,2.3,10.8,0.4c3.1-2.2,5.5-5.6,6.2-9.3C701.1,110.7,669.3,87.1,660.7,83.9z"/>
	<path class="st0" d="M192.6,407.3c0.4,1.2,0.9,2.4,1.5,3.6c9-0.6,18.3-0.9,27.2,1.1c8.3,2.4,17.2,5.7,22.3,13.1
		c1.7,2.1,1.4,4.9,1.7,7.4c4-0.2,7-3.7,7.9-7.3c0.7-3.7,0-7.8-2.2-11C240.1,397.7,200.9,403.5,192.6,407.3z"/>
	<path class="st0" d="M90.2,967c1.2,0.6,2.4,1.1,3.6,1.5c6-6.8,12.3-13.6,20-18.4c7.6-4.2,16.2-8.1,25.1-6.5c2.6,0.3,4.5,2.4,6.4,4
		c2.7-2.9,2.3-7.6,0.4-10.8c-2.2-3.1-5.6-5.5-9.3-6.2C117,926.6,93.4,958.4,90.2,967z"/>
	<path class="st0" d="M413.6,1435.1c1.2-0.4,2.4-0.9,3.6-1.5c-0.6-9-0.9-18.3,1.1-27.2c2.4-8.3,5.7-17.2,13.1-22.3
		c2.1-1.7,4.9-1.4,7.4-1.7c-0.2-4-3.7-7-7.3-7.9c-3.7-0.7-7.8,0-11,2.2C404,1387.6,409.8,1426.8,413.6,1435.1z"/>
	<path class="st0" d="M973.3,1537.5c0.6-1.2,1.1-2.4,1.5-3.6c-6.8-6-13.6-12.3-18.4-20c-4.2-7.6-8.1-16.2-6.5-25.1
		c0.3-2.6,2.4-4.5,4-6.4c-2.9-2.7-7.6-2.3-10.8-0.4c-3.1,2.2-5.5,5.6-6.2,9.3C932.9,1510.7,964.7,1534.3,973.3,1537.5z"/>
	<path class="st0" d="M1441.4,1214.1c-0.4-1.2-0.9-2.4-1.5-3.6c-9,0.6-18.3,0.9-27.2-1.1c-8.3-2.4-17.2-5.7-22.3-13.1
		c-1.7-2.1-1.4-4.9-1.7-7.4c-4,0.2-7,3.7-7.9,7.3c-0.7,3.7,0,7.8,2.2,11C1393.9,1223.7,1433.1,1217.9,1441.4,1214.1z"/>
	<path class="st0" d="M1543.8,654.4c-1.2-0.6-2.4-1.1-3.6-1.5c-6,6.8-12.3,13.6-20,18.4c-7.6,4.2-16.2,8.1-25.1,6.5
		c-2.6-0.3-4.5-2.4-6.4-4c-2.7,2.9-2.3,7.6-0.4,10.8c2.2,3.1,5.6,5.5,9.3,6.2C1517,694.8,1540.6,663,1543.8,654.4z"/>
	<path class="st0" d="M1441.4,407.3c-0.4,1.2-0.9,2.4-1.5,3.6c-9-0.6-18.3-0.9-27.2,1.1c-8.3,2.4-17.2,5.7-22.3,13.1
		c-1.7,2.1-1.4,4.9-1.7,7.4c-4-0.2-7-3.7-7.9-7.3c-0.7-3.7,0-7.8,2.2-11C1393.9,397.7,1433.1,403.5,1441.4,407.3z"/>
	<path class="st0" d="M973.3,83.9c0.6,1.2,1.1,2.4,1.5,3.6c-6.8,6-13.6,12.3-18.4,20c-4.2,7.6-8.1,16.2-6.5,25.1
		c0.3,2.6,2.4,4.5,4,6.4c-2.9,2.7-7.6,2.3-10.8,0.4c-3.1-2.2-5.5-5.6-6.2-9.3C932.9,110.7,964.7,87.1,973.3,83.9z"/>
	<path class="st0" d="M413.6,186.3c1.2,0.4,2.4,0.9,3.6,1.5c-0.6,9-0.9,18.3,1.1,27.2c2.4,8.3,5.7,17.2,13.1,22.3
		c2.1,1.7,4.9,1.4,7.4,1.7c-0.2,4-3.7,7-7.3,7.9c-3.7,0.7-7.8,0-11-2.2C404,233.8,409.8,194.6,413.6,186.3z"/>
	<path class="st0" d="M90.2,654.4c1.2-0.6,2.4-1.1,3.6-1.5c6,6.8,12.3,13.6,20,18.4c7.6,4.2,16.2,8.1,25.1,6.5
		c2.6-0.3,4.5-2.4,6.4-4c2.7,2.9,2.3,7.6,0.4,10.8c-2.2,3.1-5.6,5.5-9.3,6.2C117,694.8,93.4,663,90.2,654.4z"/>
	<path class="st0" d="M192.6,1214.1c0.4-1.2,0.9-2.4,1.5-3.6c9,0.6,18.3,0.9,27.2-1.1c8.3-2.4,17.2-5.7,22.3-13.1
		c1.7-2.1,1.4-4.9,1.7-7.4c4,0.2,7,3.7,7.9,7.3c0.7,3.7,0,7.8-2.2,11C240.1,1223.7,200.9,1217.9,192.6,1214.1z"/>
	<path class="st0" d="M660.7,1537.5c-0.6-1.2-1.1-2.4-1.5-3.6c6.8-6,13.6-12.3,18.4-20c4.2-7.6,8.1-16.2,6.5-25.1
		c-0.3-2.6-2.4-4.5-4-6.4c2.9-2.7,7.6-2.3,10.8-0.4c3.1,2.2,5.5,5.6,6.2,9.3C701.1,1510.7,669.3,1534.3,660.7,1537.5z"/>
	<path class="st0" d="M1220.4,1435.1c-1.2-0.4-2.4-0.9-3.6-1.5c0.6-9,0.9-18.3-1.1-27.2c-2.4-8.3-5.7-17.2-13.1-22.3
		c-2.1-1.7-4.9-1.4-7.4-1.7c0.2-4,3.7-7,7.3-7.9c3.7-0.7,7.8,0,11,2.2C1230,1387.6,1224.2,1426.8,1220.4,1435.1z"/>
	<path class="st0" d="M1543.8,967c-1.2,0.6-2.4,1.1-3.6,1.5c-6-6.8-12.3-13.6-20-18.4c-7.6-4.2-16.2-8.1-25.1-6.5
		c-2.6,0.3-4.5,2.4-6.4,4c-2.7-2.9-2.3-7.6-0.4-10.8c2.2-3.1,5.6-5.5,9.3-6.2C1517,926.6,1540.6,958.4,1543.8,967z"/>
	<path class="st0" d="M1206.9,176.6c-8-24-27.7-38.5-44-40.9c-18.5-4.4-39.7,1-53.6,12.3c1.3,2.9,4,4.8,6.2,7
		c8.8-4.1,29-20,59.5-3.8c14,8.2,22.6,24,23.6,40.1c0.7,9-2.9,17.6-7.5,25.1c-8.2,12.7-26.6,21.5-42.3,15.4
		c-31.9-9.7-31.2-48.4-5.9-57.2c13.1-3.8,30.4,6,25.6,22.7c-1.9,5.9-9.1,8.9-14.9,7c-3.1-1.6-5.8-4.9-5.5-8.6c0.7-1.8,2-3.3,2.8-5.1
		c-2,0-4.1,0.2-5.6,1.7c-6.5,6.4-2,20.3,11.1,21.8c11.2,0.7,22.2-9.2,21.9-20.6c-0.2-5.5-0.9-11.3-4.5-15.8
		c-2.9-3.6-6.5-6.7-10.5-9.1c-10.9-6.1-25-3.9-34.7,3.4c-19.9,16.3-16.8,46.3,1.2,60.5c10.1,7.9,23.4,12.2,36.2,10.2
		C1196.9,238.8,1216.6,205.2,1206.9,176.6z"/>
	<path class="st0" d="M644.3,86.6c-22.6-11.3-46.8-7.6-60,2.2c-16.2,9.9-27.4,28.8-29.2,46.6c3,1.1,6.2,0.5,9.3,0.6
		c3.3-9.1,6.4-34.6,39.4-44.8c15.7-4.1,33,1,45,11.7c6.9,5.8,10.5,14.5,12.4,23.1c3.2,14.8-3.6,34-19,40.8
		c-29.4,15.7-56.3-12.2-44.6-36.3c6.5-12,25.8-17.3,34.2-2c2.8,5.6-0.2,12.7-5.6,15.5c-3.3,1.1-7.6,0.7-9.9-2.2
		c-0.8-1.8-0.9-3.8-1.6-5.6c-1.4,1.4-2.8,3-2.8,5.1c-0.1,9.1,13,15.8,23.2,7.5c8.5-7.4,9.1-22.2,0.9-30.1c-4-3.7-8.7-7.3-14.3-8
		c-4.6-0.5-9.3-0.2-13.8,1c-12,3.4-20.4,14.9-22.1,27c-2.5,25.6,20.9,44.7,43.6,42c12.7-1.6,25.2-7.9,32.8-18.4
		C681.3,137.7,671.4,100,644.3,86.6z"/>
	<path class="st0" d="M182.9,420.8c-24,8-38.5,27.7-40.9,44c-4.4,18.5,1,39.7,12.3,53.6c2.9-1.3,4.8-4,7-6.2
		c-4.1-8.8-20-29-3.8-59.5c8.2-14,24-22.6,40.1-23.6c9-0.7,17.6,2.9,25.1,7.5c12.7,8.2,21.5,26.6,15.4,42.3
		c-9.7,31.9-48.4,31.2-57.2,5.9c-3.8-13.1,6-30.4,22.7-25.6c5.9,1.9,8.9,9.1,7,14.9c-1.6,3.1-4.9,5.8-8.6,5.5
		c-1.8-0.7-3.3-2-5.1-2.8c0,2,0.2,4.1,1.7,5.6c6.4,6.5,20.3,2,21.8-11.1c0.7-11.2-9.2-22.2-20.6-21.9c-5.5,0.2-11.3,1-15.8,4.5
		c-3.6,2.9-6.7,6.5-9.1,10.5c-6.1,10.9-3.9,25,3.4,34.7c16.3,19.9,46.3,16.8,60.5-1.2c7.9-10.1,12.2-23.5,10.2-36.2
		C245.1,430.8,211.5,411.1,182.9,420.8z"/>
	<path class="st0" d="M92.9,983.4c-11.3,22.6-7.6,46.8,2.2,60c9.9,16.2,28.8,27.4,46.6,29.2c1.1-3,0.5-6.2,0.6-9.3
		c-9.1-3.3-34.6-6.4-44.8-39.4c-4.1-15.7,1-33,11.7-45c5.8-6.9,14.5-10.5,23.1-12.4c14.8-3.2,34,3.6,40.8,19
		c15.7,29.4-12.2,56.3-36.3,44.6c-12-6.5-17.3-25.8-2-34.2c5.6-2.8,12.7,0.2,15.5,5.6c1.1,3.3,0.7,7.6-2.2,9.9
		c-1.8,0.8-3.8,0.9-5.6,1.6c1.4,1.4,3,2.8,5.1,2.8c9.1,0.1,15.8-13,7.5-23.2c-7.4-8.5-22.2-9.1-30.1-0.9c-3.7,4-7.3,8.7-8,14.3
		c-0.5,4.6-0.2,9.3,1,13.8c3.4,12,14.9,20.4,27,22.1c25.6,2.5,44.7-20.9,42-43.6c-1.6-12.7-7.9-25.2-18.4-32.8
		C144,946.4,106.3,956.3,92.9,983.4z"/>
	<path class="st0" d="M427.1,1444.8c8,24,27.7,38.5,44,40.9c18.5,4.4,39.7-1,53.6-12.3c-1.3-2.9-4-4.8-6.2-7
		c-8.8,4.1-29,20-59.5,3.8c-14-8.2-22.6-24-23.6-40.1c-0.7-9,2.9-17.6,7.5-25.1c8.2-12.7,26.6-21.5,42.3-15.4
		c31.9,9.7,31.2,48.4,5.9,57.2c-13.1,3.8-30.4-6-25.6-22.7c1.9-5.9,9.1-8.9,14.9-7c3.1,1.6,5.8,4.9,5.5,8.6c-0.7,1.8-2,3.3-2.8,5.1
		c2,0,4.1-0.2,5.6-1.7c6.5-6.4,2-20.3-11.1-21.8c-11.2-0.7-22.2,9.2-21.9,20.6c0.2,5.5,1,11.3,4.5,15.8c2.9,3.6,6.5,6.7,10.5,9.1
		c10.9,6.1,25,3.9,34.7-3.4c19.9-16.3,16.8-46.3-1.2-60.5c-10.1-7.9-23.5-12.2-36.2-10.2C437.1,1382.6,417.4,1416.2,427.1,1444.8z"
		/>
	<path class="st0" d="M989.7,1534.8c22.6,11.3,46.8,7.6,60-2.2c16.2-9.9,27.4-28.8,29.2-46.6c-3-1.1-6.2-0.5-9.3-0.6
		c-3.3,9.1-6.4,34.6-39.4,44.8c-15.7,4.1-33-1-45-11.7c-6.9-5.8-10.5-14.5-12.4-23.1c-3.2-14.8,3.6-34,19-40.8
		c29.4-15.7,56.3,12.2,44.6,36.3c-6.5,12-25.8,17.3-34.2,2c-2.8-5.6,0.2-12.7,5.6-15.5c3.3-1.1,7.6-0.7,9.9,2.2
		c0.8,1.8,0.9,3.8,1.6,5.6c1.4-1.4,2.8-3,2.8-5.1c0.1-9.1-13-15.8-23.2-7.5c-8.5,7.4-9.1,22.2-0.9,30.1c4,3.7,8.7,7.3,14.3,8
		c4.6,0.5,9.3,0.2,13.8-1c12-3.4,20.4-14.9,22.1-27c2.5-25.6-20.9-44.7-43.6-42c-12.7,1.6-25.2,7.9-32.8,18.4
		C952.7,1483.7,962.6,1521.4,989.7,1534.8z"/>
	<path class="st0" d="M1451.1,1200.6c24-8,38.5-27.7,40.9-44c4.4-18.5-1-39.7-12.3-53.6c-2.9,1.3-4.8,4-7,6.2
		c4.1,8.8,20,29,3.8,59.5c-8.2,14-24,22.6-40.1,23.6c-9,0.7-17.6-2.9-25.1-7.5c-12.7-8.2-21.5-26.6-15.4-42.3
		c9.7-31.9,48.4-31.2,57.2-5.9c3.8,13.1-6,30.4-22.7,25.6c-5.9-1.9-8.9-9.1-7-14.9c1.6-3.1,4.9-5.8,8.6-5.5c1.8,0.7,3.3,2,5.1,2.8
		c0-2-0.2-4.1-1.7-5.6c-6.4-6.5-20.3-2-21.8,11.1c-0.7,11.2,9.2,22.2,20.6,21.9c5.5-0.2,11.3-0.9,15.8-4.5c3.6-2.9,6.7-6.5,9.1-10.5
		c6.1-10.9,3.9-25-3.4-34.7c-16.3-19.9-46.3-16.8-60.5,1.2c-7.9,10.1-12.2,23.4-10.2,36.2
		C1388.9,1190.6,1422.5,1210.3,1451.1,1200.6z"/>
	<path class="st0" d="M1541.1,638c11.3-22.6,7.6-46.8-2.2-60c-9.9-16.2-28.8-27.4-46.6-29.2c-1.1,3-0.5,6.2-0.6,9.3
		c9.1,3.3,34.6,6.4,44.8,39.4c4.1,15.7-1,33-11.7,45c-5.8,6.9-14.5,10.5-23.1,12.4c-14.8,3.2-34-3.6-40.8-19
		c-15.7-29.4,12.2-56.3,36.3-44.6c12,6.5,17.3,25.8,2,34.2c-5.6,2.8-12.7-0.2-15.5-5.6c-1.1-3.3-0.7-7.6,2.2-9.9
		c1.8-0.8,3.8-0.9,5.6-1.6c-1.4-1.4-3-2.8-5.1-2.8c-9.1-0.1-15.8,13-7.5,23.2c7.4,8.5,22.2,9.1,30.1,0.9c3.7-4,7.3-8.7,8-14.3
		c0.5-4.6,0.2-9.3-1-13.8c-3.4-12-14.9-20.4-27-22.1c-25.6-2.5-44.7,20.9-42,43.6c1.6,12.7,7.9,25.2,18.4,32.8
		C1490,675,1527.7,665.1,1541.1,638z"/>
	<path class="st0" d="M1451.1,420.8c24,8,38.5,27.7,40.9,44c4.4,18.5-1,39.7-12.3,53.6c-2.9-1.3-4.8-4-7-6.2c4.1-8.8,20-29,3.8-59.5
		c-8.2-14-24-22.6-40.1-23.6c-9-0.7-17.6,2.9-25.1,7.5c-12.7,8.2-21.5,26.6-15.4,42.3c9.7,31.9,48.4,31.2,57.2,5.9
		c3.8-13.1-6-30.4-22.7-25.6c-5.9,1.9-8.9,9.1-7,14.9c1.6,3.1,4.9,5.8,8.6,5.5c1.8-0.7,3.3-2,5.1-2.8c0,2-0.2,4.1-1.7,5.6
		c-6.4,6.5-20.3,2-21.8-11.1c-0.7-11.2,9.2-22.2,20.6-21.9c5.5,0.2,11.3,1,15.8,4.5c3.6,2.9,6.7,6.5,9.1,10.5
		c6.1,10.9,3.9,25-3.4,34.7c-16.3,19.9-46.3,16.8-60.5-1.2c-7.9-10.1-12.2-23.5-10.2-36.2C1388.9,430.8,1422.5,411.1,1451.1,420.8z"
		/>
	<path class="st0" d="M989.7,86.6c22.6-11.3,46.8-7.6,60,2.2c16.2,9.9,27.4,28.8,29.2,46.6c-3,1.1-6.2,0.5-9.3,0.6
		c-3.3-9.1-6.4-34.6-39.4-44.8c-15.7-4.1-33,1-45,11.7c-6.9,5.8-10.5,14.5-12.4,23.1c-3.2,14.8,3.6,34,19,40.8
		c29.4,15.7,56.3-12.2,44.6-36.3c-6.5-12-25.8-17.3-34.2-2c-2.8,5.6,0.2,12.7,5.6,15.5c3.3,1.1,7.6,0.7,9.9-2.2
		c0.8-1.8,0.9-3.8,1.6-5.6c1.4,1.4,2.8,3,2.8,5.1c0.1,9.1-13,15.8-23.2,7.5c-8.5-7.4-9.1-22.2-0.9-30.1c4-3.7,8.7-7.3,14.3-8
		c4.6-0.5,9.3-0.2,13.8,1c12,3.4,20.4,14.9,22.1,27c2.5,25.6-20.9,44.7-43.6,42c-12.7-1.6-25.2-7.9-32.8-18.4
		C952.7,137.7,962.6,100,989.7,86.6z"/>
	<path class="st0" d="M427.1,176.6c8-24,27.7-38.5,44-40.9c18.5-4.4,39.7,1,53.6,12.3c-1.3,2.9-4,4.8-6.2,7c-8.8-4.1-29-20-59.5-3.8
		c-14,8.2-22.6,24-23.6,40.1c-0.7,9,2.9,17.6,7.5,25.1c8.2,12.7,26.6,21.5,42.3,15.4c31.9-9.7,31.2-48.4,5.9-57.2
		c-13.1-3.8-30.4,6-25.6,22.7c1.9,5.9,9.1,8.9,14.9,7c3.1-1.6,5.8-4.9,5.5-8.6c-0.7-1.8-2-3.3-2.8-5.1c2,0,4.1,0.2,5.6,1.7
		c6.5,6.4,2,20.3-11.1,21.8c-11.2,0.7-22.2-9.2-21.9-20.6c0.2-5.5,1-11.3,4.5-15.8c2.9-3.6,6.5-6.7,10.5-9.1
		c10.9-6.1,25-3.9,34.7,3.4c19.9,16.3,16.8,46.3-1.2,60.5c-10.1,7.9-23.5,12.2-36.2,10.2C437.1,238.8,417.4,205.2,427.1,176.6z"/>
	<path class="st0" d="M92.9,638c-11.3-22.6-7.6-46.8,2.2-60c9.9-16.2,28.8-27.4,46.6-29.2c1.1,3,0.5,6.2,0.6,9.3
		c-9.1,3.3-34.6,6.4-44.8,39.4c-4.1,15.7,1,33,11.7,45c5.8,6.9,14.5,10.5,23.1,12.4c14.8,3.2,34-3.6,40.8-19
		c15.7-29.4-12.2-56.3-36.3-44.6c-12,6.5-17.3,25.8-2,34.2c5.6,2.8,12.7-0.2,15.5-5.6c1.1-3.3,0.7-7.6-2.2-9.9
		c-1.8-0.8-3.8-0.9-5.6-1.6c1.4-1.4,3-2.8,5.1-2.8c9.1-0.1,15.8,13,7.5,23.2c-7.4,8.5-22.2,9.1-30.1,0.9c-3.7-4-7.3-8.7-8-14.3
		c-0.5-4.6-0.2-9.3,1-13.8c3.4-12,14.9-20.4,27-22.1c25.6-2.5,44.7,20.9,42,43.6c-1.6,12.7-7.9,25.2-18.4,32.8
		C144,675,106.3,665.1,92.9,638z"/>
	<path class="st0" d="M182.9,1200.6c-24-8-38.5-27.7-40.9-44c-4.4-18.5,1-39.7,12.3-53.6c2.9,1.3,4.8,4,7,6.2
		c-4.1,8.8-20,29-3.8,59.5c8.2,14,24,22.6,40.1,23.6c9,0.7,17.6-2.9,25.1-7.5c12.7-8.2,21.5-26.6,15.4-42.3
		c-9.7-31.9-48.4-31.2-57.2-5.9c-3.8,13.1,6,30.4,22.7,25.6c5.9-1.9,8.9-9.1,7-14.9c-1.6-3.1-4.9-5.8-8.6-5.5
		c-1.8,0.7-3.3,2-5.1,2.8c0-2,0.2-4.1,1.7-5.6c6.4-6.5,20.3-2,21.8,11.1c0.7,11.2-9.2,22.2-20.6,21.9c-5.5-0.2-11.3-0.9-15.8-4.5
		c-3.6-2.9-6.7-6.5-9.1-10.5c-6.1-10.9-3.9-25,3.4-34.7c16.3-19.9,46.3-16.8,60.5,1.2c7.9,10.1,12.2,23.4,10.2,36.2
		C245.1,1190.6,211.5,1210.3,182.9,1200.6z"/>
	<path class="st0" d="M644.3,1534.8c-22.6,11.3-46.8,7.6-60-2.2c-16.2-9.9-27.4-28.8-29.2-46.6c3-1.1,6.2-0.5,9.3-0.6
		c3.3,9.1,6.4,34.6,39.4,44.8c15.7,4.1,33-1,45-11.7c6.9-5.8,10.5-14.5,12.4-23.1c3.2-14.8-3.6-34-19-40.8
		c-29.4-15.7-56.3,12.2-44.6,36.3c6.5,12,25.8,17.3,34.2,2c2.8-5.6-0.2-12.7-5.6-15.5c-3.3-1.1-7.6-0.7-9.9,2.2
		c-0.8,1.8-0.9,3.8-1.6,5.6c-1.4-1.4-2.8-3-2.8-5.1c-0.1-9.1,13-15.8,23.2-7.5c8.5,7.4,9.1,22.2,0.9,30.1c-4,3.7-8.7,7.3-14.3,8
		c-4.6,0.5-9.3,0.2-13.8-1c-12-3.4-20.4-14.9-22.1-27c-2.5-25.6,20.9-44.7,43.6-42c12.7,1.6,25.2,7.9,32.8,18.4
		C681.3,1483.7,671.4,1521.4,644.3,1534.8z"/>
	<path class="st0" d="M1206.9,1444.8c-8,24-27.7,38.5-44,40.9c-18.5,4.4-39.7-1-53.6-12.3c1.3-2.9,4-4.8,6.2-7
		c8.8,4.1,29,20,59.5,3.8c14-8.2,22.6-24,23.6-40.1c0.7-9-2.9-17.6-7.5-25.1c-8.2-12.7-26.6-21.5-42.3-15.4
		c-31.9,9.7-31.2,48.4-5.9,57.2c13.1,3.8,30.4-6,25.6-22.7c-1.9-5.9-9.1-8.9-14.9-7c-3.1,1.6-5.8,4.9-5.5,8.6c0.7,1.8,2,3.3,2.8,5.1
		c-2,0-4.1-0.2-5.6-1.7c-6.5-6.4-2-20.3,11.1-21.8c11.2-0.7,22.2,9.2,21.9,20.6c-0.2,5.5-0.9,11.3-4.5,15.8
		c-2.9,3.6-6.5,6.7-10.5,9.1c-10.9,6.1-25,3.9-34.7-3.4c-19.9-16.3-16.8-46.3,1.2-60.5c10.1-7.9,23.4-12.2,36.2-10.2
		C1196.9,1382.6,1216.6,1416.2,1206.9,1444.8z"/>
	<path class="st0" d="M1541.1,983.4c11.3,22.6,7.6,46.8-2.2,60c-9.9,16.2-28.8,27.4-46.6,29.2c-1.1-3-0.5-6.2-0.6-9.3
		c9.1-3.3,34.6-6.4,44.8-39.4c4.1-15.7-1-33-11.7-45c-5.8-6.9-14.5-10.5-23.1-12.4c-14.8-3.2-34,3.6-40.8,19
		c-15.7,29.4,12.2,56.3,36.3,44.6c12-6.5,17.3-25.8,2-34.2c-5.6-2.8-12.7,0.2-15.5,5.6c-1.1,3.3-0.7,7.6,2.2,9.9
		c1.8,0.8,3.8,0.9,5.6,1.6c-1.4,1.4-3,2.8-5.1,2.8c-9.1,0.1-15.8-13-7.5-23.2c7.4-8.5,22.2-9.1,30.1-0.9c3.7,4,7.3,8.7,8,14.3
		c0.5,4.6,0.2,9.3-1,13.8c-3.4,12-14.9,20.4-27,22.1c-25.6,2.5-44.7-20.9-42-43.6c1.6-12.7,7.9-25.2,18.4-32.8
		C1490,946.4,1527.7,956.3,1541.1,983.4z"/>
	<path class="st0" d="M1091.5,147.9c9.7,9.7,19,19.2,19,19.2c1.4,0.5,2.4-1.1,3.3-1.8c1-1.1,3-2.9,1.4-4.3
		c-10-10.5-16-16.2-20.6-20.6c-6.3-0.1-14.6-0.3-29.1,0c-2.2-0.1-2,2.5-2.1,4c0.1,1.2-0.3,3,1.1,3.6
		C1064.5,148.1,1077.8,148,1091.5,147.9z"/>
	<path class="st0" d="M1479.8,536.2c-0.1,13.7-0.2,27-0.2,27c0.7,1.3,2.4,0.9,3.6,1.1c1.5,0,4.2,0.1,4-2.1c0.4-14.5,0.2-22.8,0-29.1
		c-4.4-4.6-10.1-10.5-20.6-20.6c-1.4-1.6-3.2,0.4-4.3,1.4c-0.8,1-2.3,1.9-1.8,3.3C1460.6,517.2,1470.1,526.5,1479.8,536.2z"/>
	<path class="st0" d="M1479.8,1085.2c-9.7,9.7-19.2,19-19.2,19c-0.5,1.4,1.1,2.4,1.8,3.3c1.1,1,2.9,3,4.3,1.4
		c10.5-10,16.2-16,20.6-20.6c0.1-6.3,0.3-14.6,0-29.1c0.1-2.2-2.5-2-4-2.1c-1.2,0.1-3-0.3-3.6,1.1
		C1479.6,1058.2,1479.7,1071.5,1479.8,1085.2z"/>
	<path class="st0" d="M1091.5,1473.5c-13.7-0.1-27-0.2-27-0.2c-1.3,0.7-0.9,2.4-1.1,3.6c0,1.5-0.1,4.2,2.1,4
		c14.5,0.4,22.8,0.2,29.1,0c4.6-4.4,10.5-10.1,20.6-20.6c1.6-1.4-0.4-3.2-1.4-4.3c-0.9-0.8-1.9-2.3-3.3-1.8
		C1110.5,1454.3,1101.2,1463.8,1091.5,1473.5z"/>
	<path class="st0" d="M542.5,1473.5c-9.7-9.7-19-19.2-19-19.2c-1.4-0.5-2.4,1.1-3.3,1.8c-1,1.1-3,2.9-1.4,4.3
		c10,10.5,16,16.2,20.6,20.6c6.3,0.1,14.5,0.3,29.1,0c2.2,0.1,2-2.5,2.1-4c-0.1-1.2,0.3-3-1.1-3.6
		C569.5,1473.3,556.2,1473.4,542.5,1473.5z"/>
	<path class="st0" d="M154.2,1085.2c0.1-13.7,0.2-27,0.2-27c-0.7-1.3-2.4-0.9-3.6-1.1c-1.5,0-4.2-0.1-4,2.1
		c-0.4,14.5-0.2,22.8,0,29.1c4.4,4.6,10.1,10.5,20.6,20.6c1.4,1.6,3.2-0.4,4.3-1.4c0.8-0.9,2.3-1.9,1.8-3.3
		C173.4,1104.2,163.9,1094.9,154.2,1085.2z"/>
	<path class="st0" d="M154.2,536.2c9.7-9.7,19.2-19,19.2-19c0.5-1.4-1.1-2.4-1.8-3.3c-1.1-1-2.9-3-4.3-1.4
		c-10.5,10-16.2,16-20.6,20.6c-0.1,6.3-0.3,14.5,0,29.1c-0.1,2.2,2.5,2,4,2.1c1.2-0.1,3,0.3,3.6-1.1
		C154.4,563.2,154.3,549.9,154.2,536.2z"/>
	<path class="st0" d="M542.5,147.9c13.7,0.1,27,0.2,27,0.2c1.3-0.7,0.9-2.4,1.1-3.6c0-1.5,0.1-4.2-2.1-4c-14.5-0.4-22.8-0.2-29.1,0
		c-4.6,4.4-10.5,10.1-20.6,20.6c-1.6,1.4,0.4,3.2,1.4,4.3c1,0.8,1.9,2.3,3.3,1.8C523.5,167.1,532.8,157.6,542.5,147.9z"/>
</g>
</svg>
